M48
; DRILL file {KiCad 8.0.5} date 2024-09-27T15:57:57+0300
; FORMAT={-:-/ absolute / metric / decimal}
; #@! TF.CreationDate,2024-09-27T15:57:57+03:00
; #@! TF.GenerationSoftware,Kicad,Pcbnew,8.0.5
; #@! TF.FileFunction,MixedPlating,1,2
FMAT,2
METRIC
; #@! TA.AperFunction,Plated,PTH,ComponentDrill
T1C0.900
; #@! TA.AperFunction,Plated,PTH,ComponentDrill
T2C3.200
%
G90
G05
T1
X73.66Y-50.8
X73.66Y-53.34
X73.66Y-58.42
X73.66Y-60.96
X73.66Y-66.04
X73.66Y-68.58
X73.66Y-73.66
X73.66Y-76.2
X73.66Y-81.28
X73.66Y-83.82
X73.66Y-91.44
X73.66Y-93.98
X81.28Y-50.8
X81.28Y-53.34
X81.28Y-58.42
X81.28Y-60.96
X81.28Y-66.04
X81.28Y-68.58
X81.28Y-73.66
X81.28Y-76.2
X81.28Y-81.28
X81.28Y-83.82
X81.28Y-91.44
X81.28Y-93.98
X88.9Y-50.8
X88.9Y-53.34
X88.9Y-58.42
X88.9Y-60.96
X88.9Y-66.04
X88.9Y-68.58
X88.9Y-73.66
X88.9Y-76.2
X88.9Y-81.28
X88.9Y-83.82
X88.9Y-91.44
X88.9Y-93.98
X96.52Y-50.8
X96.52Y-53.34
X96.52Y-58.42
X96.52Y-60.96
X96.52Y-66.04
X96.52Y-68.58
X96.52Y-73.66
X96.52Y-76.2
X96.52Y-81.28
X96.52Y-83.82
X96.52Y-91.44
X96.52Y-93.98
X104.14Y-50.8
X104.14Y-53.34
X104.14Y-58.42
X104.14Y-60.96
X104.14Y-66.04
X104.14Y-68.58
X104.14Y-73.66
X104.14Y-76.2
X104.14Y-81.28
X104.14Y-83.82
X104.14Y-91.44
X104.14Y-93.98
X111.76Y-50.8
X111.76Y-53.34
X111.76Y-58.42
X111.76Y-60.96
X111.76Y-66.04
X111.76Y-68.58
X111.76Y-73.66
X111.76Y-76.2
X111.76Y-81.28
X111.76Y-83.82
X111.76Y-91.44
X111.76Y-93.98
X119.38Y-50.8
X119.38Y-53.34
X119.38Y-58.42
X119.38Y-60.96
X119.38Y-66.04
X119.38Y-68.58
X119.38Y-73.66
X119.38Y-76.2
X119.38Y-81.28
X119.38Y-83.82
X119.38Y-91.44
X119.38Y-93.98
X127.0Y-50.8
X127.0Y-53.34
X127.0Y-58.42
X127.0Y-60.96
X127.0Y-66.04
X127.0Y-68.58
X127.0Y-73.66
X127.0Y-76.2
X127.0Y-81.28
X127.0Y-83.82
X127.0Y-91.44
X127.0Y-93.98
X134.62Y-50.8
X134.62Y-53.34
X134.62Y-58.42
X134.62Y-60.96
X134.62Y-66.04
X134.62Y-68.58
X134.62Y-73.66
X134.62Y-76.2
X134.62Y-81.28
X134.62Y-83.82
X134.62Y-91.44
X134.62Y-93.98
X142.24Y-50.8
X142.24Y-53.34
X142.24Y-58.42
X142.24Y-60.96
X142.24Y-66.04
X142.24Y-68.58
X142.24Y-73.66
X142.24Y-76.2
X142.24Y-81.28
X142.24Y-83.82
X142.24Y-91.44
X142.24Y-93.98
X149.86Y-50.8
X149.86Y-53.34
X149.86Y-58.42
X149.86Y-60.96
X149.86Y-66.04
X149.86Y-68.58
X149.86Y-73.66
X149.86Y-76.2
X149.86Y-81.28
X149.86Y-83.82
X149.86Y-91.44
X149.86Y-93.98
X157.48Y-50.8
X157.48Y-53.34
X157.48Y-58.42
X157.48Y-60.96
X157.48Y-66.04
X157.48Y-68.58
X157.48Y-73.66
X157.48Y-76.2
X157.48Y-81.28
X157.48Y-83.82
X157.48Y-91.44
X157.48Y-93.98
X165.1Y-50.8
X165.1Y-53.34
X165.1Y-58.42
X165.1Y-60.96
X165.1Y-66.04
X165.1Y-68.58
X165.1Y-73.66
X165.1Y-76.2
X165.1Y-81.28
X165.1Y-83.82
X165.1Y-91.44
X165.1Y-93.98
X172.72Y-50.8
X172.72Y-53.34
X172.72Y-58.42
X172.72Y-60.96
X172.72Y-66.04
X172.72Y-68.58
X172.72Y-73.66
X172.72Y-76.2
X172.72Y-81.28
X172.72Y-83.82
X172.72Y-91.44
X172.72Y-93.98
X180.34Y-50.8
X180.34Y-53.34
X180.34Y-58.42
X180.34Y-60.96
X180.34Y-66.04
X180.34Y-68.58
X180.34Y-73.66
X180.34Y-76.2
X180.34Y-81.28
X180.34Y-83.82
X180.34Y-91.44
X180.34Y-93.98
X187.96Y-50.8
X187.96Y-53.34
X187.96Y-58.42
X187.96Y-60.96
X187.96Y-66.04
X187.96Y-68.58
X187.96Y-73.66
X187.96Y-76.2
X187.96Y-81.28
X187.96Y-83.82
X187.96Y-91.44
X187.96Y-93.98
X195.58Y-50.8
X195.58Y-53.34
X195.58Y-58.42
X195.58Y-60.96
X195.58Y-66.04
X195.58Y-68.58
X195.58Y-73.66
X195.58Y-76.2
X195.58Y-81.28
X195.58Y-83.82
X195.58Y-91.44
X195.58Y-93.98
T2
X67.31Y-50.8
X67.31Y-93.98
X201.93Y-50.8
X201.93Y-93.98
M30
