G04 #@! TF.GenerationSoftware,KiCad,Pcbnew,8.0.5*
G04 #@! TF.CreationDate,2025-01-19T01:45:26+03:00*
G04 #@! TF.ProjectId,SuperClockMatrix,53757065-7243-46c6-9f63-6b4d61747269,rev?*
G04 #@! TF.SameCoordinates,Original*
G04 #@! TF.FileFunction,Soldermask,Bot*
G04 #@! TF.FilePolarity,Negative*
%FSLAX46Y46*%
G04 Gerber Fmt 4.6, Leading zero omitted, Abs format (unit mm)*
G04 Created by KiCad (PCBNEW 8.0.5) date 2025-01-19 01:45:26*
%MOMM*%
%LPD*%
G01*
G04 APERTURE LIST*
%ADD10R,1.800000X1.800000*%
%ADD11C,1.800000*%
%ADD12C,4.000000*%
G04 APERTURE END LIST*
D10*
X134620000Y-73660000D03*
D11*
X134620000Y-76200000D03*
D10*
X73660000Y-66040000D03*
D11*
X73660000Y-68580000D03*
D10*
X157480000Y-73660000D03*
D11*
X157480000Y-76200000D03*
D10*
X149860000Y-91440000D03*
D11*
X149860000Y-93980000D03*
D12*
X201930000Y-50800000D03*
D10*
X119380000Y-58420000D03*
D11*
X119380000Y-60960000D03*
D10*
X187960000Y-81280000D03*
D11*
X187960000Y-83820000D03*
D10*
X104140000Y-58420000D03*
D11*
X104140000Y-60960000D03*
D10*
X111760000Y-81280000D03*
D11*
X111760000Y-83820000D03*
D10*
X157480000Y-50800000D03*
D11*
X157480000Y-53340000D03*
D10*
X88900000Y-66040000D03*
D11*
X88900000Y-68580000D03*
D10*
X180340000Y-58420000D03*
D11*
X180340000Y-60960000D03*
D10*
X96520000Y-91440000D03*
D11*
X96520000Y-93980000D03*
D10*
X172720000Y-81280000D03*
D11*
X172720000Y-83820000D03*
D10*
X165100000Y-81280000D03*
D11*
X165100000Y-83820000D03*
D10*
X81280000Y-91440000D03*
D11*
X81280000Y-93980000D03*
D10*
X172720000Y-58420000D03*
D11*
X172720000Y-60960000D03*
D10*
X104140000Y-66040000D03*
D11*
X104140000Y-68580000D03*
D10*
X119380000Y-50800000D03*
D11*
X119380000Y-53340000D03*
D10*
X187960000Y-66040000D03*
D11*
X187960000Y-68580000D03*
D10*
X165100000Y-58420000D03*
D11*
X165100000Y-60960000D03*
D10*
X127000000Y-58420000D03*
D11*
X127000000Y-60960000D03*
D10*
X180340000Y-66040000D03*
D11*
X180340000Y-68580000D03*
D10*
X187960000Y-50800000D03*
D11*
X187960000Y-53340000D03*
D10*
X88900000Y-73660000D03*
D11*
X88900000Y-76200000D03*
D10*
X73660000Y-91440000D03*
D11*
X73660000Y-93980000D03*
D10*
X172720000Y-66040000D03*
D11*
X172720000Y-68580000D03*
D10*
X157480000Y-81280000D03*
D11*
X157480000Y-83820000D03*
D10*
X73660000Y-58420000D03*
D11*
X73660000Y-60960000D03*
D10*
X195580000Y-58420000D03*
D11*
X195580000Y-60960000D03*
D10*
X96520000Y-81280000D03*
D11*
X96520000Y-83820000D03*
D10*
X180340000Y-50800000D03*
D11*
X180340000Y-53340000D03*
D10*
X88900000Y-58420000D03*
D11*
X88900000Y-60960000D03*
D10*
X119380000Y-66040000D03*
D11*
X119380000Y-68580000D03*
D10*
X180340000Y-73660000D03*
D11*
X180340000Y-76200000D03*
D10*
X134620000Y-66040000D03*
D11*
X134620000Y-68580000D03*
D12*
X201930000Y-93980000D03*
D10*
X127000000Y-66040000D03*
D11*
X127000000Y-68580000D03*
D10*
X165100000Y-73660000D03*
D11*
X165100000Y-76200000D03*
D10*
X134620000Y-91440000D03*
D11*
X134620000Y-93980000D03*
D10*
X96520000Y-73660000D03*
D11*
X96520000Y-76200000D03*
D10*
X81280000Y-81280000D03*
D11*
X81280000Y-83820000D03*
D10*
X149860000Y-81280000D03*
D11*
X149860000Y-83820000D03*
D10*
X165100000Y-50800000D03*
D11*
X165100000Y-53340000D03*
D10*
X172720000Y-50800000D03*
D11*
X172720000Y-53340000D03*
D10*
X111760000Y-66040000D03*
D11*
X111760000Y-68580000D03*
D10*
X104140000Y-73660000D03*
D11*
X104140000Y-76200000D03*
D10*
X127000000Y-81280000D03*
D11*
X127000000Y-83820000D03*
D10*
X180340000Y-81280000D03*
D11*
X180340000Y-83820000D03*
D10*
X127000000Y-73660000D03*
D11*
X127000000Y-76200000D03*
D10*
X111760000Y-58420000D03*
D11*
X111760000Y-60960000D03*
D10*
X195580000Y-73660000D03*
D11*
X195580000Y-76200000D03*
D10*
X81280000Y-73660000D03*
D11*
X81280000Y-76200000D03*
D10*
X88900000Y-50800000D03*
D11*
X88900000Y-53340000D03*
D10*
X157480000Y-91440000D03*
D11*
X157480000Y-93980000D03*
D10*
X195580000Y-50800000D03*
D11*
X195580000Y-53340000D03*
D10*
X149860000Y-66040000D03*
D11*
X149860000Y-68580000D03*
D10*
X149860000Y-50800000D03*
D11*
X149860000Y-53340000D03*
D10*
X134620000Y-58420000D03*
D11*
X134620000Y-60960000D03*
D10*
X195580000Y-66040000D03*
D11*
X195580000Y-68580000D03*
D10*
X142240000Y-50800000D03*
D11*
X142240000Y-53340000D03*
D10*
X157480000Y-66040000D03*
D11*
X157480000Y-68580000D03*
D10*
X172720000Y-73660000D03*
D11*
X172720000Y-76200000D03*
D10*
X96520000Y-58420000D03*
D11*
X96520000Y-60960000D03*
D10*
X119380000Y-91440000D03*
D11*
X119380000Y-93980000D03*
D12*
X67310000Y-93980000D03*
D10*
X149860000Y-58420000D03*
D11*
X149860000Y-60960000D03*
D10*
X195580000Y-81280000D03*
D11*
X195580000Y-83820000D03*
D10*
X81280000Y-66040000D03*
D11*
X81280000Y-68580000D03*
D10*
X142240000Y-73660000D03*
D11*
X142240000Y-76200000D03*
D10*
X172720000Y-91440000D03*
D11*
X172720000Y-93980000D03*
D10*
X165100000Y-91440000D03*
D11*
X165100000Y-93980000D03*
D10*
X81280000Y-50800000D03*
D11*
X81280000Y-53340000D03*
D10*
X187960000Y-58420000D03*
D11*
X187960000Y-60960000D03*
D10*
X119380000Y-73660000D03*
D11*
X119380000Y-76200000D03*
D10*
X187960000Y-73660000D03*
D11*
X187960000Y-76200000D03*
D10*
X73660000Y-50800000D03*
D11*
X73660000Y-53340000D03*
D10*
X134620000Y-50800000D03*
D11*
X134620000Y-53340000D03*
D10*
X157480000Y-58420000D03*
D11*
X157480000Y-60960000D03*
D10*
X73660000Y-73660000D03*
D11*
X73660000Y-76200000D03*
D10*
X88900000Y-81280000D03*
D11*
X88900000Y-83820000D03*
D10*
X104140000Y-91440000D03*
D11*
X104140000Y-93980000D03*
D10*
X96520000Y-50800000D03*
D11*
X96520000Y-53340000D03*
D10*
X142240000Y-58420000D03*
D11*
X142240000Y-60960000D03*
D10*
X187960000Y-91440000D03*
D11*
X187960000Y-93980000D03*
D10*
X96520000Y-66040000D03*
D11*
X96520000Y-68580000D03*
D10*
X111760000Y-50800000D03*
D11*
X111760000Y-53340000D03*
D10*
X134620000Y-81280000D03*
D11*
X134620000Y-83820000D03*
D10*
X119380000Y-81280000D03*
D11*
X119380000Y-83820000D03*
D10*
X111760000Y-73660000D03*
D11*
X111760000Y-76200000D03*
D10*
X195580000Y-91440000D03*
D11*
X195580000Y-93980000D03*
D10*
X142240000Y-91440000D03*
D11*
X142240000Y-93980000D03*
D10*
X104140000Y-50800000D03*
D11*
X104140000Y-53340000D03*
D10*
X142240000Y-81280000D03*
D11*
X142240000Y-83820000D03*
D12*
X67310000Y-50800000D03*
D10*
X165100000Y-66040000D03*
D11*
X165100000Y-68580000D03*
D10*
X81280000Y-58420000D03*
D11*
X81280000Y-60960000D03*
D10*
X127000000Y-91440000D03*
D11*
X127000000Y-93980000D03*
D10*
X73660000Y-81280000D03*
D11*
X73660000Y-83820000D03*
D10*
X127000000Y-50800000D03*
D11*
X127000000Y-53340000D03*
D10*
X104140000Y-81280000D03*
D11*
X104140000Y-83820000D03*
D10*
X88900000Y-91440000D03*
D11*
X88900000Y-93980000D03*
D10*
X149860000Y-73660000D03*
D11*
X149860000Y-76200000D03*
D10*
X142240000Y-66040000D03*
D11*
X142240000Y-68580000D03*
D10*
X180340000Y-91440000D03*
D11*
X180340000Y-93980000D03*
D10*
X111760000Y-91440000D03*
D11*
X111760000Y-93980000D03*
M02*
