M48
; DRILL file {KiCad 8.0.5} date 2024-11-22T23:14:43+0300
; FORMAT={-:-/ absolute / metric / decimal}
; #@! TF.CreationDate,2024-11-22T23:14:43+03:00
; #@! TF.GenerationSoftware,Kicad,Pcbnew,8.0.5
; #@! TF.FileFunction,MixedPlating,1,2
FMAT,2
METRIC
; #@! TA.AperFunction,Plated,PTH,ViaDrill
T1C0.500
; #@! TA.AperFunction,Plated,PTH,ComponentDrill
T2C0.800
; #@! TA.AperFunction,Plated,PTH,ComponentDrill
T3C0.850
; #@! TA.AperFunction,Plated,PTH,ComponentDrill
T4C0.920
; #@! TA.AperFunction,Plated,PTH,ComponentDrill
T5C0.990
; #@! TA.AperFunction,Plated,PTH,ComponentDrill
T6C1.000
; #@! TA.AperFunction,Plated,PTH,ComponentDrill
T7C1.300
; #@! TA.AperFunction,Plated,PTH,ComponentDrill
T8C2.300
; #@! TA.AperFunction,Plated,PTH,ComponentDrill
T9C3.200
%
G90
G05
T1
X92.71Y-62.23
X92.71Y-67.564
X92.71Y-73.66
X92.71Y-79.502
X92.71Y-85.344
X92.71Y-91.186
X93.218Y-54.61
X100.838Y-64.008
X101.6Y-54.61
X109.22Y-54.61
X109.982Y-65.278
X109.982Y-66.929
X116.84Y-54.61
X117.856Y-67.691
X119.761Y-67.691
X120.955Y-61.722
X124.46Y-95.25
X124.714Y-54.61
X126.619Y-74.803
X127.508Y-69.215
X129.286Y-95.25
X129.794Y-71.755
X129.794Y-73.533
X131.889Y-69.659
X132.08Y-54.864
X132.08Y-67.691
X133.223Y-74.422
X133.985Y-69.215
X134.127Y-83.703
X135.001Y-60.198
X135.077Y-85.852
X137.363Y-82.448
X139.7Y-54.864
X141.224Y-66.04
X143.764Y-70.866
X146.177Y-60.325
X146.812Y-75.311
X147.32Y-54.864
X148.844Y-66.04
X150.978Y-93.828
X154.94Y-54.864
X154.991Y-87.122
X156.337Y-82.82
X161.544Y-76.327
X162.052Y-82.55
X162.56Y-54.864
X170.18Y-54.864
X177.546Y-90.932
X177.8Y-54.864
X185.42Y-54.864
X193.04Y-54.864
X195.58Y-92.71
X195.961Y-80.137
X198.1Y-68.6
X200.66Y-54.864
X204.089Y-75.184
X205.74Y-92.71
X208.28Y-54.864
X209.296Y-66.294
T2
X124.46Y-90.17
X129.34Y-90.17
T3
X177.292Y-74.75
X177.292Y-95.25
T4
X103.799Y-87.859
X103.799Y-91.059
X106.299Y-87.859
X106.299Y-91.059
T5
X219.362Y-60.325
X219.362Y-64.825
X219.362Y-71.385
X219.362Y-75.885
X219.362Y-82.495
X219.362Y-86.995
T6
X90.17Y-52.07
X90.17Y-54.61
X90.17Y-57.15
X90.17Y-59.69
X90.17Y-62.23
X90.17Y-64.77
X90.17Y-67.31
X90.17Y-69.85
X90.17Y-72.39
X90.17Y-74.93
X90.17Y-77.47
X90.17Y-80.01
X90.17Y-82.55
X90.17Y-85.09
X90.17Y-87.63
X90.17Y-90.17
X90.17Y-92.71
X90.17Y-95.25
X92.71Y-52.07
X95.25Y-52.07
X97.79Y-52.07
X100.33Y-52.07
X102.87Y-52.07
X105.41Y-52.07
X107.95Y-52.07
X110.49Y-52.07
X113.03Y-52.07
X115.57Y-52.07
X118.11Y-52.07
X120.65Y-52.07
X123.19Y-52.07
X125.73Y-52.07
X128.27Y-52.07
X130.81Y-52.07
X133.35Y-52.07
X135.89Y-52.07
X138.43Y-52.07
X138.684Y-60.452
X140.97Y-52.07
X141.224Y-60.452
X143.51Y-52.07
X146.05Y-52.07
X148.59Y-52.07
X151.13Y-52.07
X151.13Y-62.23
X151.13Y-85.09
X153.67Y-52.07
X156.21Y-52.07
X158.75Y-52.07
X161.29Y-52.07
X163.83Y-52.07
X166.37Y-52.07
X168.91Y-52.07
X171.45Y-52.07
X173.99Y-52.07
X176.53Y-52.07
X179.07Y-52.07
X181.61Y-52.07
X184.15Y-52.07
X186.69Y-52.07
X189.23Y-52.07
X191.77Y-52.07
X194.31Y-52.07
X195.58Y-83.82
X195.58Y-86.36
X196.85Y-52.07
X197.41Y-71.12
X198.12Y-83.82
X198.12Y-86.36
X199.39Y-52.07
X200.66Y-83.82
X200.66Y-86.36
X201.93Y-52.07
X203.2Y-83.82
X203.2Y-86.36
X203.91Y-71.12
X204.47Y-52.07
X205.74Y-83.82
X205.74Y-86.36
X207.01Y-52.07
X209.55Y-52.07
X212.09Y-52.07
T7
X216.873Y-59.075
X216.873Y-66.085
X216.873Y-70.135
X216.873Y-77.145
X216.873Y-81.245
X216.873Y-88.255
T8
X99.029Y-90.569
X111.069Y-90.569
T9
X83.82Y-52.07
X83.82Y-95.25
X116.84Y-88.9
X218.44Y-52.07
X218.44Y-95.25
M30
