%TF.GenerationSoftware,KiCad,Pcbnew,8.0.5*%
%TF.CreationDate,2025-01-20T02:34:16+03:00*%
%TF.ProjectId,SuperClockController,53757065-7243-46c6-9f63-6b436f6e7472,rev?*%
%TF.SameCoordinates,Original*%
%TF.FileFunction,Legend,Top*%
%TF.FilePolarity,Positive*%
%FSLAX46Y46*%
G04 Gerber Fmt 4.6, Leading zero omitted, Abs format (unit mm)*
G04 Created by KiCad (PCBNEW 8.0.5) date 2025-01-20 02:34:16*
%MOMM*%
%LPD*%
G01*
G04 APERTURE LIST*
G04 Aperture macros list*
%AMRoundRect*
0 Rectangle with rounded corners*
0 $1 Rounding radius*
0 $2 $3 $4 $5 $6 $7 $8 $9 X,Y pos of 4 corners*
0 Add a 4 corners polygon primitive as box body*
4,1,4,$2,$3,$4,$5,$6,$7,$8,$9,$2,$3,0*
0 Add four circle primitives for the rounded corners*
1,1,$1+$1,$2,$3*
1,1,$1+$1,$4,$5*
1,1,$1+$1,$6,$7*
1,1,$1+$1,$8,$9*
0 Add four rect primitives between the rounded corners*
20,1,$1+$1,$2,$3,$4,$5,0*
20,1,$1+$1,$4,$5,$6,$7,0*
20,1,$1+$1,$6,$7,$8,$9,0*
20,1,$1+$1,$8,$9,$2,$3,0*%
G04 Aperture macros list end*
%ADD10C,0.150000*%
%ADD11C,0.120000*%
%ADD12R,1.700000X1.700000*%
%ADD13C,4.000000*%
%ADD14C,2.100000*%
%ADD15C,1.750000*%
%ADD16R,1.600000X1.000000*%
%ADD17R,2.500000X3.000000*%
%ADD18RoundRect,0.250000X-0.337500X-0.475000X0.337500X-0.475000X0.337500X0.475000X-0.337500X0.475000X0*%
%ADD19O,1.700000X1.700000*%
%ADD20RoundRect,0.150000X0.825000X0.150000X-0.825000X0.150000X-0.825000X-0.150000X0.825000X-0.150000X0*%
%ADD21R,2.000000X1.600000*%
%ADD22O,2.000000X1.600000*%
%ADD23C,1.500000*%
%ADD24R,1.400000X1.400000*%
%ADD25C,1.400000*%
%ADD26C,3.000000*%
%ADD27RoundRect,0.250000X-0.600000X0.600000X-0.600000X-0.600000X0.600000X-0.600000X0.600000X0.600000X0*%
%ADD28C,1.700000*%
%ADD29R,2.000000X2.000000*%
%ADD30C,2.000000*%
G04 APERTURE END LIST*
D10*
X218089700Y-74968332D02*
X218137319Y-74825475D01*
X218137319Y-74825475D02*
X218137319Y-74587380D01*
X218137319Y-74587380D02*
X218089700Y-74492142D01*
X218089700Y-74492142D02*
X218042080Y-74444523D01*
X218042080Y-74444523D02*
X217946842Y-74396904D01*
X217946842Y-74396904D02*
X217851604Y-74396904D01*
X217851604Y-74396904D02*
X217756366Y-74444523D01*
X217756366Y-74444523D02*
X217708747Y-74492142D01*
X217708747Y-74492142D02*
X217661128Y-74587380D01*
X217661128Y-74587380D02*
X217613509Y-74777856D01*
X217613509Y-74777856D02*
X217565890Y-74873094D01*
X217565890Y-74873094D02*
X217518271Y-74920713D01*
X217518271Y-74920713D02*
X217423033Y-74968332D01*
X217423033Y-74968332D02*
X217327795Y-74968332D01*
X217327795Y-74968332D02*
X217232557Y-74920713D01*
X217232557Y-74920713D02*
X217184938Y-74873094D01*
X217184938Y-74873094D02*
X217137319Y-74777856D01*
X217137319Y-74777856D02*
X217137319Y-74539761D01*
X217137319Y-74539761D02*
X217184938Y-74396904D01*
X217137319Y-74063570D02*
X218137319Y-73825475D01*
X218137319Y-73825475D02*
X217423033Y-73634999D01*
X217423033Y-73634999D02*
X218137319Y-73444523D01*
X218137319Y-73444523D02*
X217137319Y-73206428D01*
X217232557Y-72873094D02*
X217184938Y-72825475D01*
X217184938Y-72825475D02*
X217137319Y-72730237D01*
X217137319Y-72730237D02*
X217137319Y-72492142D01*
X217137319Y-72492142D02*
X217184938Y-72396904D01*
X217184938Y-72396904D02*
X217232557Y-72349285D01*
X217232557Y-72349285D02*
X217327795Y-72301666D01*
X217327795Y-72301666D02*
X217423033Y-72301666D01*
X217423033Y-72301666D02*
X217565890Y-72349285D01*
X217565890Y-72349285D02*
X218137319Y-72920713D01*
X218137319Y-72920713D02*
X218137319Y-72301666D01*
X218089700Y-86078332D02*
X218137319Y-85935475D01*
X218137319Y-85935475D02*
X218137319Y-85697380D01*
X218137319Y-85697380D02*
X218089700Y-85602142D01*
X218089700Y-85602142D02*
X218042080Y-85554523D01*
X218042080Y-85554523D02*
X217946842Y-85506904D01*
X217946842Y-85506904D02*
X217851604Y-85506904D01*
X217851604Y-85506904D02*
X217756366Y-85554523D01*
X217756366Y-85554523D02*
X217708747Y-85602142D01*
X217708747Y-85602142D02*
X217661128Y-85697380D01*
X217661128Y-85697380D02*
X217613509Y-85887856D01*
X217613509Y-85887856D02*
X217565890Y-85983094D01*
X217565890Y-85983094D02*
X217518271Y-86030713D01*
X217518271Y-86030713D02*
X217423033Y-86078332D01*
X217423033Y-86078332D02*
X217327795Y-86078332D01*
X217327795Y-86078332D02*
X217232557Y-86030713D01*
X217232557Y-86030713D02*
X217184938Y-85983094D01*
X217184938Y-85983094D02*
X217137319Y-85887856D01*
X217137319Y-85887856D02*
X217137319Y-85649761D01*
X217137319Y-85649761D02*
X217184938Y-85506904D01*
X217137319Y-85173570D02*
X218137319Y-84935475D01*
X218137319Y-84935475D02*
X217423033Y-84744999D01*
X217423033Y-84744999D02*
X218137319Y-84554523D01*
X218137319Y-84554523D02*
X217137319Y-84316428D01*
X217137319Y-84030713D02*
X217137319Y-83411666D01*
X217137319Y-83411666D02*
X217518271Y-83744999D01*
X217518271Y-83744999D02*
X217518271Y-83602142D01*
X217518271Y-83602142D02*
X217565890Y-83506904D01*
X217565890Y-83506904D02*
X217613509Y-83459285D01*
X217613509Y-83459285D02*
X217708747Y-83411666D01*
X217708747Y-83411666D02*
X217946842Y-83411666D01*
X217946842Y-83411666D02*
X218042080Y-83459285D01*
X218042080Y-83459285D02*
X218089700Y-83506904D01*
X218089700Y-83506904D02*
X218137319Y-83602142D01*
X218137319Y-83602142D02*
X218137319Y-83887856D01*
X218137319Y-83887856D02*
X218089700Y-83983094D01*
X218089700Y-83983094D02*
X218042080Y-84030713D01*
X166249409Y-90301028D02*
X166249409Y-90777219D01*
X165916076Y-89777219D02*
X166249409Y-90301028D01*
X166249409Y-90301028D02*
X166582742Y-89777219D01*
X166868457Y-89872457D02*
X166916076Y-89824838D01*
X166916076Y-89824838D02*
X167011314Y-89777219D01*
X167011314Y-89777219D02*
X167249409Y-89777219D01*
X167249409Y-89777219D02*
X167344647Y-89824838D01*
X167344647Y-89824838D02*
X167392266Y-89872457D01*
X167392266Y-89872457D02*
X167439885Y-89967695D01*
X167439885Y-89967695D02*
X167439885Y-90062933D01*
X167439885Y-90062933D02*
X167392266Y-90205790D01*
X167392266Y-90205790D02*
X166820838Y-90777219D01*
X166820838Y-90777219D02*
X167439885Y-90777219D01*
X157599142Y-85293580D02*
X157551523Y-85341200D01*
X157551523Y-85341200D02*
X157408666Y-85388819D01*
X157408666Y-85388819D02*
X157313428Y-85388819D01*
X157313428Y-85388819D02*
X157170571Y-85341200D01*
X157170571Y-85341200D02*
X157075333Y-85245961D01*
X157075333Y-85245961D02*
X157027714Y-85150723D01*
X157027714Y-85150723D02*
X156980095Y-84960247D01*
X156980095Y-84960247D02*
X156980095Y-84817390D01*
X156980095Y-84817390D02*
X157027714Y-84626914D01*
X157027714Y-84626914D02*
X157075333Y-84531676D01*
X157075333Y-84531676D02*
X157170571Y-84436438D01*
X157170571Y-84436438D02*
X157313428Y-84388819D01*
X157313428Y-84388819D02*
X157408666Y-84388819D01*
X157408666Y-84388819D02*
X157551523Y-84436438D01*
X157551523Y-84436438D02*
X157599142Y-84484057D01*
X158551523Y-85388819D02*
X157980095Y-85388819D01*
X158265809Y-85388819D02*
X158265809Y-84388819D01*
X158265809Y-84388819D02*
X158170571Y-84531676D01*
X158170571Y-84531676D02*
X158075333Y-84626914D01*
X158075333Y-84626914D02*
X157980095Y-84674533D01*
X159503904Y-85388819D02*
X158932476Y-85388819D01*
X159218190Y-85388819D02*
X159218190Y-84388819D01*
X159218190Y-84388819D02*
X159122952Y-84531676D01*
X159122952Y-84531676D02*
X159027714Y-84626914D01*
X159027714Y-84626914D02*
X158932476Y-84674533D01*
X218089700Y-63908332D02*
X218137319Y-63765475D01*
X218137319Y-63765475D02*
X218137319Y-63527380D01*
X218137319Y-63527380D02*
X218089700Y-63432142D01*
X218089700Y-63432142D02*
X218042080Y-63384523D01*
X218042080Y-63384523D02*
X217946842Y-63336904D01*
X217946842Y-63336904D02*
X217851604Y-63336904D01*
X217851604Y-63336904D02*
X217756366Y-63384523D01*
X217756366Y-63384523D02*
X217708747Y-63432142D01*
X217708747Y-63432142D02*
X217661128Y-63527380D01*
X217661128Y-63527380D02*
X217613509Y-63717856D01*
X217613509Y-63717856D02*
X217565890Y-63813094D01*
X217565890Y-63813094D02*
X217518271Y-63860713D01*
X217518271Y-63860713D02*
X217423033Y-63908332D01*
X217423033Y-63908332D02*
X217327795Y-63908332D01*
X217327795Y-63908332D02*
X217232557Y-63860713D01*
X217232557Y-63860713D02*
X217184938Y-63813094D01*
X217184938Y-63813094D02*
X217137319Y-63717856D01*
X217137319Y-63717856D02*
X217137319Y-63479761D01*
X217137319Y-63479761D02*
X217184938Y-63336904D01*
X217137319Y-63003570D02*
X218137319Y-62765475D01*
X218137319Y-62765475D02*
X217423033Y-62574999D01*
X217423033Y-62574999D02*
X218137319Y-62384523D01*
X218137319Y-62384523D02*
X217137319Y-62146428D01*
X218137319Y-61241666D02*
X218137319Y-61813094D01*
X218137319Y-61527380D02*
X217137319Y-61527380D01*
X217137319Y-61527380D02*
X217280176Y-61622618D01*
X217280176Y-61622618D02*
X217375414Y-61717856D01*
X217375414Y-61717856D02*
X217423033Y-61813094D01*
X156083095Y-94167819D02*
X156083095Y-94977342D01*
X156083095Y-94977342D02*
X156130714Y-95072580D01*
X156130714Y-95072580D02*
X156178333Y-95120200D01*
X156178333Y-95120200D02*
X156273571Y-95167819D01*
X156273571Y-95167819D02*
X156464047Y-95167819D01*
X156464047Y-95167819D02*
X156559285Y-95120200D01*
X156559285Y-95120200D02*
X156606904Y-95072580D01*
X156606904Y-95072580D02*
X156654523Y-94977342D01*
X156654523Y-94977342D02*
X156654523Y-94167819D01*
X157035476Y-94167819D02*
X157654523Y-94167819D01*
X157654523Y-94167819D02*
X157321190Y-94548771D01*
X157321190Y-94548771D02*
X157464047Y-94548771D01*
X157464047Y-94548771D02*
X157559285Y-94596390D01*
X157559285Y-94596390D02*
X157606904Y-94644009D01*
X157606904Y-94644009D02*
X157654523Y-94739247D01*
X157654523Y-94739247D02*
X157654523Y-94977342D01*
X157654523Y-94977342D02*
X157606904Y-95072580D01*
X157606904Y-95072580D02*
X157559285Y-95120200D01*
X157559285Y-95120200D02*
X157464047Y-95167819D01*
X157464047Y-95167819D02*
X157178333Y-95167819D01*
X157178333Y-95167819D02*
X157083095Y-95120200D01*
X157083095Y-95120200D02*
X157035476Y-95072580D01*
D11*
%TO.C,J4*%
X149800000Y-86300000D02*
X149800000Y-86420000D01*
X149800000Y-86420000D02*
X152460000Y-86420000D01*
X151130000Y-83760000D02*
X152460000Y-83760000D01*
X152460000Y-83760000D02*
X152460000Y-85090000D01*
X152460000Y-86300000D02*
X152460000Y-86420000D01*
%TO.C,SW2*%
X215052500Y-69775000D02*
X215052500Y-70295000D01*
X215052500Y-76975000D02*
X215052500Y-77495000D01*
X215562500Y-69775000D02*
X215052500Y-69775000D01*
X215562500Y-70295000D02*
X215052500Y-70295000D01*
X215562500Y-76975000D02*
X215052500Y-76975000D01*
X215562500Y-77495000D02*
X215052500Y-77495000D01*
X218392500Y-70295000D02*
X218162500Y-70295000D01*
X218392500Y-70295000D02*
X218392500Y-70835000D01*
X218392500Y-71935000D02*
X218392500Y-75335000D01*
X218392500Y-76435000D02*
X218392500Y-76975000D01*
X218392500Y-76975000D02*
X218162500Y-76975000D01*
X220262500Y-69775000D02*
X218162500Y-69775000D01*
X220262500Y-77495000D02*
X218162500Y-77495000D01*
%TO.C,SW3*%
X215052500Y-80885000D02*
X215052500Y-81405000D01*
X215052500Y-88085000D02*
X215052500Y-88605000D01*
X215562500Y-80885000D02*
X215052500Y-80885000D01*
X215562500Y-81405000D02*
X215052500Y-81405000D01*
X215562500Y-88085000D02*
X215052500Y-88085000D01*
X215562500Y-88605000D02*
X215052500Y-88605000D01*
X218392500Y-81405000D02*
X218162500Y-81405000D01*
X218392500Y-81405000D02*
X218392500Y-81945000D01*
X218392500Y-83045000D02*
X218392500Y-86445000D01*
X218392500Y-87545000D02*
X218392500Y-88085000D01*
X218392500Y-88085000D02*
X218162500Y-88085000D01*
X220262500Y-80885000D02*
X218162500Y-80885000D01*
X220262500Y-88605000D02*
X218162500Y-88605000D01*
%TO.C,Y2*%
X164251000Y-91948000D02*
X164251000Y-91948000D01*
X164251000Y-94488000D02*
X164251000Y-94488000D01*
X164651000Y-91518000D02*
X168351000Y-91518000D01*
X164651000Y-92718000D02*
X164251000Y-91948000D01*
X164651000Y-93718000D02*
X164251000Y-94488000D01*
X164651000Y-94918000D02*
X164651000Y-91518000D01*
X168351000Y-94918000D02*
X164651000Y-94918000D01*
%TO.C,C11*%
X157980748Y-85879000D02*
X158503252Y-85879000D01*
X157980748Y-87349000D02*
X158503252Y-87349000D01*
%TO.C,SW1*%
X215052500Y-58715000D02*
X215052500Y-59235000D01*
X215052500Y-65915000D02*
X215052500Y-66435000D01*
X215562500Y-58715000D02*
X215052500Y-58715000D01*
X215562500Y-59235000D02*
X215052500Y-59235000D01*
X215562500Y-65915000D02*
X215052500Y-65915000D01*
X215562500Y-66435000D02*
X215052500Y-66435000D01*
X218392500Y-59235000D02*
X218162500Y-59235000D01*
X218392500Y-59235000D02*
X218392500Y-59775000D01*
X218392500Y-60875000D02*
X218392500Y-64275000D01*
X218392500Y-65375000D02*
X218392500Y-65915000D01*
X218392500Y-65915000D02*
X218162500Y-65915000D01*
X220262500Y-58715000D02*
X218162500Y-58715000D01*
X220262500Y-66435000D02*
X218162500Y-66435000D01*
%TO.C,J3*%
X149800000Y-63440000D02*
X149800000Y-63560000D01*
X149800000Y-63560000D02*
X152460000Y-63560000D01*
X151130000Y-60900000D02*
X152460000Y-60900000D01*
X152460000Y-60900000D02*
X152460000Y-62230000D01*
X152460000Y-63440000D02*
X152460000Y-63560000D01*
%TO.C,U3*%
X156845000Y-88753000D02*
X154895000Y-88753000D01*
X156845000Y-88753000D02*
X158795000Y-88753000D01*
X156845000Y-93873000D02*
X154895000Y-93873000D01*
X156845000Y-93873000D02*
X158795000Y-93873000D01*
X159785000Y-94108000D02*
X159305000Y-94108000D01*
X159545000Y-93778000D01*
X159785000Y-94108000D01*
G36*
X159785000Y-94108000D02*
G01*
X159305000Y-94108000D01*
X159545000Y-93778000D01*
X159785000Y-94108000D01*
G37*
%TD*%
%LPC*%
D12*
%TO.C,J4*%
X151130000Y-85090000D03*
%TD*%
D13*
%TO.C,H3*%
X218440000Y-95250000D03*
%TD*%
D14*
%TO.C,SW2*%
X216872500Y-70135000D03*
X216872500Y-77145000D03*
D15*
X219362500Y-71385000D03*
X219362500Y-75885000D03*
%TD*%
D14*
%TO.C,SW3*%
X216872500Y-81245000D03*
X216872500Y-88255000D03*
D15*
X219362500Y-82495000D03*
X219362500Y-86995000D03*
%TD*%
D13*
%TO.C,H4*%
X218440000Y-52070000D03*
%TD*%
D16*
%TO.C,Y2*%
X163251000Y-94488000D03*
X163251000Y-91948000D03*
D17*
X169801000Y-93218000D03*
%TD*%
D13*
%TO.C,H1*%
X83820000Y-52070000D03*
%TD*%
D18*
%TO.C,C11*%
X157204500Y-86614000D03*
X159279500Y-86614000D03*
%TD*%
D12*
%TO.C,J1*%
X90170000Y-52070000D03*
D19*
X92710000Y-52070000D03*
X95250000Y-52070000D03*
X97790000Y-52070000D03*
X100330000Y-52070000D03*
X102870000Y-52070000D03*
X105410000Y-52070000D03*
X107950000Y-52070000D03*
X110490000Y-52070000D03*
X113030000Y-52070000D03*
X115570000Y-52070000D03*
X118110000Y-52070000D03*
X120650000Y-52070000D03*
X123190000Y-52070000D03*
X125730000Y-52070000D03*
X128270000Y-52070000D03*
X130810000Y-52070000D03*
X133350000Y-52070000D03*
X135890000Y-52070000D03*
X138430000Y-52070000D03*
X140970000Y-52070000D03*
X143510000Y-52070000D03*
X146050000Y-52070000D03*
X148590000Y-52070000D03*
X151130000Y-52070000D03*
X153670000Y-52070000D03*
X156210000Y-52070000D03*
X158750000Y-52070000D03*
X161290000Y-52070000D03*
X163830000Y-52070000D03*
X166370000Y-52070000D03*
X168910000Y-52070000D03*
X171450000Y-52070000D03*
X173990000Y-52070000D03*
X176530000Y-52070000D03*
X179070000Y-52070000D03*
X181610000Y-52070000D03*
X184150000Y-52070000D03*
X186690000Y-52070000D03*
X189230000Y-52070000D03*
X191770000Y-52070000D03*
X194310000Y-52070000D03*
X196850000Y-52070000D03*
X199390000Y-52070000D03*
X201930000Y-52070000D03*
X204470000Y-52070000D03*
X207010000Y-52070000D03*
X209550000Y-52070000D03*
X212090000Y-52070000D03*
%TD*%
D14*
%TO.C,SW1*%
X216872500Y-59075000D03*
X216872500Y-66085000D03*
D15*
X219362500Y-60325000D03*
X219362500Y-64825000D03*
%TD*%
D13*
%TO.C,H2*%
X83820000Y-95250000D03*
%TD*%
D12*
%TO.C,J3*%
X151130000Y-62230000D03*
%TD*%
%TO.C,J2*%
X90170000Y-54610000D03*
D19*
X90170000Y-57150000D03*
X90170000Y-59690000D03*
X90170000Y-62230000D03*
X90170000Y-64770000D03*
X90170000Y-67310000D03*
X90170000Y-69850000D03*
X90170000Y-72390000D03*
X90170000Y-74930000D03*
X90170000Y-77470000D03*
X90170000Y-80010000D03*
X90170000Y-82550000D03*
X90170000Y-85090000D03*
X90170000Y-87630000D03*
X90170000Y-90170000D03*
X90170000Y-92710000D03*
X90170000Y-95250000D03*
%TD*%
D13*
%TO.C,H5*%
X116840000Y-88900000D03*
%TD*%
D20*
%TO.C,U3*%
X159320000Y-93218000D03*
X159320000Y-91948000D03*
X159320000Y-90678000D03*
X159320000Y-89408000D03*
X154370000Y-89408000D03*
X154370000Y-90678000D03*
X154370000Y-91948000D03*
X154370000Y-93218000D03*
%TD*%
D21*
%TO.C,BT1*%
X177292000Y-95250000D03*
D22*
X177292000Y-74750000D03*
%TD*%
D23*
%TO.C,Y1*%
X124460000Y-86100000D03*
X129340000Y-86100000D03*
%TD*%
D12*
%TO.C,R30*%
X141000000Y-61000000D03*
D19*
X138460000Y-61000000D03*
%TD*%
D24*
%TO.C,J5*%
X103799000Y-87859000D03*
D25*
X106299000Y-87859000D03*
X106299000Y-91059000D03*
X103799000Y-91059000D03*
D26*
X111069000Y-90569000D03*
X99029000Y-90569000D03*
%TD*%
D27*
%TO.C,J6*%
X195580000Y-83820000D03*
D28*
X195580000Y-86360000D03*
X198120000Y-83820000D03*
X198120000Y-86360000D03*
X200660000Y-83820000D03*
X200660000Y-86360000D03*
X203200000Y-83820000D03*
X203200000Y-86360000D03*
X205740000Y-83820000D03*
X205740000Y-86360000D03*
%TD*%
D29*
%TO.C,BZ1*%
X203910000Y-71120000D03*
D30*
X197410000Y-71120000D03*
%TD*%
%LPD*%
M02*
