%TF.GenerationSoftware,KiCad,Pcbnew,8.0.5*%
%TF.CreationDate,2025-01-20T02:34:16+03:00*%
%TF.ProjectId,SuperClockController,53757065-7243-46c6-9f63-6b436f6e7472,rev?*%
%TF.SameCoordinates,Original*%
%TF.FileFunction,Legend,Bot*%
%TF.FilePolarity,Positive*%
%FSLAX46Y46*%
G04 Gerber Fmt 4.6, Leading zero omitted, Abs format (unit mm)*
G04 Created by KiCad (PCBNEW 8.0.5) date 2025-01-20 02:34:16*
%MOMM*%
%LPD*%
G01*
G04 APERTURE LIST*
G04 Aperture macros list*
%AMRoundRect*
0 Rectangle with rounded corners*
0 $1 Rounding radius*
0 $2 $3 $4 $5 $6 $7 $8 $9 X,Y pos of 4 corners*
0 Add a 4 corners polygon primitive as box body*
4,1,4,$2,$3,$4,$5,$6,$7,$8,$9,$2,$3,0*
0 Add four circle primitives for the rounded corners*
1,1,$1+$1,$2,$3*
1,1,$1+$1,$4,$5*
1,1,$1+$1,$6,$7*
1,1,$1+$1,$8,$9*
0 Add four rect primitives between the rounded corners*
20,1,$1+$1,$2,$3,$4,$5,0*
20,1,$1+$1,$4,$5,$6,$7,0*
20,1,$1+$1,$6,$7,$8,$9,0*
20,1,$1+$1,$8,$9,$2,$3,0*%
G04 Aperture macros list end*
%ADD10C,0.200000*%
%ADD11C,0.500000*%
%ADD12C,0.150000*%
%ADD13C,0.120000*%
%ADD14C,0.100000*%
%ADD15R,1.700000X1.700000*%
%ADD16C,4.000000*%
%ADD17C,2.100000*%
%ADD18C,1.750000*%
%ADD19O,1.700000X1.700000*%
%ADD20RoundRect,0.250000X-0.450000X0.350000X-0.450000X-0.350000X0.450000X-0.350000X0.450000X0.350000X0*%
%ADD21RoundRect,0.250000X0.350000X0.450000X-0.350000X0.450000X-0.350000X-0.450000X0.350000X-0.450000X0*%
%ADD22RoundRect,0.150000X0.150000X-0.587500X0.150000X0.587500X-0.150000X0.587500X-0.150000X-0.587500X0*%
%ADD23RoundRect,0.250000X-1.025000X0.875000X-1.025000X-0.875000X1.025000X-0.875000X1.025000X0.875000X0*%
%ADD24RoundRect,0.250000X-0.337500X-0.475000X0.337500X-0.475000X0.337500X0.475000X-0.337500X0.475000X0*%
%ADD25RoundRect,0.250000X-0.350000X-0.450000X0.350000X-0.450000X0.350000X0.450000X-0.350000X0.450000X0*%
%ADD26RoundRect,0.150000X0.875000X0.150000X-0.875000X0.150000X-0.875000X-0.150000X0.875000X-0.150000X0*%
%ADD27RoundRect,0.250000X-0.475000X0.337500X-0.475000X-0.337500X0.475000X-0.337500X0.475000X0.337500X0*%
%ADD28R,2.000000X1.600000*%
%ADD29O,2.000000X1.600000*%
%ADD30RoundRect,0.250000X0.337500X0.475000X-0.337500X0.475000X-0.337500X-0.475000X0.337500X-0.475000X0*%
%ADD31RoundRect,0.150000X-0.150000X0.587500X-0.150000X-0.587500X0.150000X-0.587500X0.150000X0.587500X0*%
%ADD32RoundRect,0.250000X0.450000X-0.350000X0.450000X0.350000X-0.450000X0.350000X-0.450000X-0.350000X0*%
%ADD33C,1.500000*%
%ADD34RoundRect,0.250000X0.475000X-0.337500X0.475000X0.337500X-0.475000X0.337500X-0.475000X-0.337500X0*%
%ADD35R,1.400000X1.400000*%
%ADD36C,1.400000*%
%ADD37C,3.000000*%
%ADD38RoundRect,0.150000X0.587500X0.150000X-0.587500X0.150000X-0.587500X-0.150000X0.587500X-0.150000X0*%
%ADD39RoundRect,0.250000X-0.600000X0.600000X-0.600000X-0.600000X0.600000X-0.600000X0.600000X0.600000X0*%
%ADD40C,1.700000*%
%ADD41R,0.550000X1.500000*%
%ADD42R,1.500000X0.550000*%
%ADD43RoundRect,0.250000X-0.250000X0.250000X-0.250000X-0.250000X0.250000X-0.250000X0.250000X0.250000X0*%
%ADD44R,2.000000X2.000000*%
%ADD45C,2.000000*%
G04 APERTURE END LIST*
D10*
X218242999Y-63031600D02*
X218071571Y-63088742D01*
X218071571Y-63088742D02*
X217785856Y-63088742D01*
X217785856Y-63088742D02*
X217671571Y-63031600D01*
X217671571Y-63031600D02*
X217614428Y-62974457D01*
X217614428Y-62974457D02*
X217557285Y-62860171D01*
X217557285Y-62860171D02*
X217557285Y-62745885D01*
X217557285Y-62745885D02*
X217614428Y-62631600D01*
X217614428Y-62631600D02*
X217671571Y-62574457D01*
X217671571Y-62574457D02*
X217785856Y-62517314D01*
X217785856Y-62517314D02*
X218014428Y-62460171D01*
X218014428Y-62460171D02*
X218128713Y-62403028D01*
X218128713Y-62403028D02*
X218185856Y-62345885D01*
X218185856Y-62345885D02*
X218242999Y-62231600D01*
X218242999Y-62231600D02*
X218242999Y-62117314D01*
X218242999Y-62117314D02*
X218185856Y-62003028D01*
X218185856Y-62003028D02*
X218128713Y-61945885D01*
X218128713Y-61945885D02*
X218014428Y-61888742D01*
X218014428Y-61888742D02*
X217728713Y-61888742D01*
X217728713Y-61888742D02*
X217557285Y-61945885D01*
X216585856Y-63031600D02*
X216700142Y-63088742D01*
X216700142Y-63088742D02*
X216928714Y-63088742D01*
X216928714Y-63088742D02*
X217042999Y-63031600D01*
X217042999Y-63031600D02*
X217100142Y-62917314D01*
X217100142Y-62917314D02*
X217100142Y-62460171D01*
X217100142Y-62460171D02*
X217042999Y-62345885D01*
X217042999Y-62345885D02*
X216928714Y-62288742D01*
X216928714Y-62288742D02*
X216700142Y-62288742D01*
X216700142Y-62288742D02*
X216585856Y-62345885D01*
X216585856Y-62345885D02*
X216528714Y-62460171D01*
X216528714Y-62460171D02*
X216528714Y-62574457D01*
X216528714Y-62574457D02*
X217100142Y-62688742D01*
X216185857Y-62288742D02*
X215728714Y-62288742D01*
X216014428Y-61888742D02*
X216014428Y-62917314D01*
X216014428Y-62917314D02*
X215957285Y-63031600D01*
X215957285Y-63031600D02*
X215843000Y-63088742D01*
X215843000Y-63088742D02*
X215728714Y-63088742D01*
X203982850Y-81414885D02*
X203411422Y-81414885D01*
X204097136Y-81757742D02*
X203697136Y-80557742D01*
X203697136Y-80557742D02*
X203297136Y-81757742D01*
X203068565Y-80557742D02*
X202668565Y-81757742D01*
X202668565Y-81757742D02*
X202268565Y-80557742D01*
X201182851Y-81757742D02*
X201582851Y-81186314D01*
X201868565Y-81757742D02*
X201868565Y-80557742D01*
X201868565Y-80557742D02*
X201411422Y-80557742D01*
X201411422Y-80557742D02*
X201297137Y-80614885D01*
X201297137Y-80614885D02*
X201239994Y-80672028D01*
X201239994Y-80672028D02*
X201182851Y-80786314D01*
X201182851Y-80786314D02*
X201182851Y-80957742D01*
X201182851Y-80957742D02*
X201239994Y-81072028D01*
X201239994Y-81072028D02*
X201297137Y-81129171D01*
X201297137Y-81129171D02*
X201411422Y-81186314D01*
X201411422Y-81186314D02*
X201868565Y-81186314D01*
X199754279Y-81757742D02*
X199754279Y-80557742D01*
X199239993Y-81700600D02*
X199068565Y-81757742D01*
X199068565Y-81757742D02*
X198782850Y-81757742D01*
X198782850Y-81757742D02*
X198668565Y-81700600D01*
X198668565Y-81700600D02*
X198611422Y-81643457D01*
X198611422Y-81643457D02*
X198554279Y-81529171D01*
X198554279Y-81529171D02*
X198554279Y-81414885D01*
X198554279Y-81414885D02*
X198611422Y-81300600D01*
X198611422Y-81300600D02*
X198668565Y-81243457D01*
X198668565Y-81243457D02*
X198782850Y-81186314D01*
X198782850Y-81186314D02*
X199011422Y-81129171D01*
X199011422Y-81129171D02*
X199125707Y-81072028D01*
X199125707Y-81072028D02*
X199182850Y-81014885D01*
X199182850Y-81014885D02*
X199239993Y-80900600D01*
X199239993Y-80900600D02*
X199239993Y-80786314D01*
X199239993Y-80786314D02*
X199182850Y-80672028D01*
X199182850Y-80672028D02*
X199125707Y-80614885D01*
X199125707Y-80614885D02*
X199011422Y-80557742D01*
X199011422Y-80557742D02*
X198725707Y-80557742D01*
X198725707Y-80557742D02*
X198554279Y-80614885D01*
X198039993Y-81757742D02*
X198039993Y-80557742D01*
X198039993Y-80557742D02*
X197582850Y-80557742D01*
X197582850Y-80557742D02*
X197468565Y-80614885D01*
X197468565Y-80614885D02*
X197411422Y-80672028D01*
X197411422Y-80672028D02*
X197354279Y-80786314D01*
X197354279Y-80786314D02*
X197354279Y-80957742D01*
X197354279Y-80957742D02*
X197411422Y-81072028D01*
X197411422Y-81072028D02*
X197468565Y-81129171D01*
X197468565Y-81129171D02*
X197582850Y-81186314D01*
X197582850Y-81186314D02*
X198039993Y-81186314D01*
X107405707Y-82519742D02*
X107405707Y-81319742D01*
X107405707Y-81319742D02*
X106948564Y-81319742D01*
X106948564Y-81319742D02*
X106834279Y-81376885D01*
X106834279Y-81376885D02*
X106777136Y-81434028D01*
X106777136Y-81434028D02*
X106719993Y-81548314D01*
X106719993Y-81548314D02*
X106719993Y-81719742D01*
X106719993Y-81719742D02*
X106777136Y-81834028D01*
X106777136Y-81834028D02*
X106834279Y-81891171D01*
X106834279Y-81891171D02*
X106948564Y-81948314D01*
X106948564Y-81948314D02*
X107405707Y-81948314D01*
X106034279Y-82519742D02*
X106148564Y-82462600D01*
X106148564Y-82462600D02*
X106205707Y-82405457D01*
X106205707Y-82405457D02*
X106262850Y-82291171D01*
X106262850Y-82291171D02*
X106262850Y-81948314D01*
X106262850Y-81948314D02*
X106205707Y-81834028D01*
X106205707Y-81834028D02*
X106148564Y-81776885D01*
X106148564Y-81776885D02*
X106034279Y-81719742D01*
X106034279Y-81719742D02*
X105862850Y-81719742D01*
X105862850Y-81719742D02*
X105748564Y-81776885D01*
X105748564Y-81776885D02*
X105691422Y-81834028D01*
X105691422Y-81834028D02*
X105634279Y-81948314D01*
X105634279Y-81948314D02*
X105634279Y-82291171D01*
X105634279Y-82291171D02*
X105691422Y-82405457D01*
X105691422Y-82405457D02*
X105748564Y-82462600D01*
X105748564Y-82462600D02*
X105862850Y-82519742D01*
X105862850Y-82519742D02*
X106034279Y-82519742D01*
X105234279Y-81719742D02*
X105005708Y-82519742D01*
X105005708Y-82519742D02*
X104777136Y-81948314D01*
X104777136Y-81948314D02*
X104548565Y-82519742D01*
X104548565Y-82519742D02*
X104319993Y-81719742D01*
X103405707Y-82462600D02*
X103519993Y-82519742D01*
X103519993Y-82519742D02*
X103748565Y-82519742D01*
X103748565Y-82519742D02*
X103862850Y-82462600D01*
X103862850Y-82462600D02*
X103919993Y-82348314D01*
X103919993Y-82348314D02*
X103919993Y-81891171D01*
X103919993Y-81891171D02*
X103862850Y-81776885D01*
X103862850Y-81776885D02*
X103748565Y-81719742D01*
X103748565Y-81719742D02*
X103519993Y-81719742D01*
X103519993Y-81719742D02*
X103405707Y-81776885D01*
X103405707Y-81776885D02*
X103348565Y-81891171D01*
X103348565Y-81891171D02*
X103348565Y-82005457D01*
X103348565Y-82005457D02*
X103919993Y-82119742D01*
X102834279Y-82519742D02*
X102834279Y-81719742D01*
X102834279Y-81948314D02*
X102777136Y-81834028D01*
X102777136Y-81834028D02*
X102719994Y-81776885D01*
X102719994Y-81776885D02*
X102605708Y-81719742D01*
X102605708Y-81719742D02*
X102491422Y-81719742D01*
X217246142Y-84856600D02*
X216331857Y-84856600D01*
X217246142Y-73680600D02*
X216331857Y-73680600D01*
X216788999Y-74137742D02*
X216788999Y-73223457D01*
D11*
X166575381Y-70328112D02*
X166289667Y-70423350D01*
X166289667Y-70423350D02*
X165813476Y-70423350D01*
X165813476Y-70423350D02*
X165623000Y-70328112D01*
X165623000Y-70328112D02*
X165527762Y-70232873D01*
X165527762Y-70232873D02*
X165432524Y-70042397D01*
X165432524Y-70042397D02*
X165432524Y-69851921D01*
X165432524Y-69851921D02*
X165527762Y-69661445D01*
X165527762Y-69661445D02*
X165623000Y-69566207D01*
X165623000Y-69566207D02*
X165813476Y-69470969D01*
X165813476Y-69470969D02*
X166194429Y-69375731D01*
X166194429Y-69375731D02*
X166384905Y-69280492D01*
X166384905Y-69280492D02*
X166480143Y-69185254D01*
X166480143Y-69185254D02*
X166575381Y-68994778D01*
X166575381Y-68994778D02*
X166575381Y-68804302D01*
X166575381Y-68804302D02*
X166480143Y-68613826D01*
X166480143Y-68613826D02*
X166384905Y-68518588D01*
X166384905Y-68518588D02*
X166194429Y-68423350D01*
X166194429Y-68423350D02*
X165718238Y-68423350D01*
X165718238Y-68423350D02*
X165432524Y-68518588D01*
X163718238Y-69090016D02*
X163718238Y-70423350D01*
X164575381Y-69090016D02*
X164575381Y-70137635D01*
X164575381Y-70137635D02*
X164480143Y-70328112D01*
X164480143Y-70328112D02*
X164289667Y-70423350D01*
X164289667Y-70423350D02*
X164003952Y-70423350D01*
X164003952Y-70423350D02*
X163813476Y-70328112D01*
X163813476Y-70328112D02*
X163718238Y-70232873D01*
X162765857Y-69090016D02*
X162765857Y-71090016D01*
X162765857Y-69185254D02*
X162575381Y-69090016D01*
X162575381Y-69090016D02*
X162194428Y-69090016D01*
X162194428Y-69090016D02*
X162003952Y-69185254D01*
X162003952Y-69185254D02*
X161908714Y-69280492D01*
X161908714Y-69280492D02*
X161813476Y-69470969D01*
X161813476Y-69470969D02*
X161813476Y-70042397D01*
X161813476Y-70042397D02*
X161908714Y-70232873D01*
X161908714Y-70232873D02*
X162003952Y-70328112D01*
X162003952Y-70328112D02*
X162194428Y-70423350D01*
X162194428Y-70423350D02*
X162575381Y-70423350D01*
X162575381Y-70423350D02*
X162765857Y-70328112D01*
X160194428Y-70328112D02*
X160384904Y-70423350D01*
X160384904Y-70423350D02*
X160765857Y-70423350D01*
X160765857Y-70423350D02*
X160956333Y-70328112D01*
X160956333Y-70328112D02*
X161051571Y-70137635D01*
X161051571Y-70137635D02*
X161051571Y-69375731D01*
X161051571Y-69375731D02*
X160956333Y-69185254D01*
X160956333Y-69185254D02*
X160765857Y-69090016D01*
X160765857Y-69090016D02*
X160384904Y-69090016D01*
X160384904Y-69090016D02*
X160194428Y-69185254D01*
X160194428Y-69185254D02*
X160099190Y-69375731D01*
X160099190Y-69375731D02*
X160099190Y-69566207D01*
X160099190Y-69566207D02*
X161051571Y-69756683D01*
X159242047Y-70423350D02*
X159242047Y-69090016D01*
X159242047Y-69470969D02*
X159146809Y-69280492D01*
X159146809Y-69280492D02*
X159051571Y-69185254D01*
X159051571Y-69185254D02*
X158861095Y-69090016D01*
X158861095Y-69090016D02*
X158670618Y-69090016D01*
X156861095Y-70232873D02*
X156956333Y-70328112D01*
X156956333Y-70328112D02*
X157242047Y-70423350D01*
X157242047Y-70423350D02*
X157432523Y-70423350D01*
X157432523Y-70423350D02*
X157718238Y-70328112D01*
X157718238Y-70328112D02*
X157908714Y-70137635D01*
X157908714Y-70137635D02*
X158003952Y-69947159D01*
X158003952Y-69947159D02*
X158099190Y-69566207D01*
X158099190Y-69566207D02*
X158099190Y-69280492D01*
X158099190Y-69280492D02*
X158003952Y-68899540D01*
X158003952Y-68899540D02*
X157908714Y-68709064D01*
X157908714Y-68709064D02*
X157718238Y-68518588D01*
X157718238Y-68518588D02*
X157432523Y-68423350D01*
X157432523Y-68423350D02*
X157242047Y-68423350D01*
X157242047Y-68423350D02*
X156956333Y-68518588D01*
X156956333Y-68518588D02*
X156861095Y-68613826D01*
X155718238Y-70423350D02*
X155908714Y-70328112D01*
X155908714Y-70328112D02*
X156003952Y-70137635D01*
X156003952Y-70137635D02*
X156003952Y-68423350D01*
X154670619Y-70423350D02*
X154861095Y-70328112D01*
X154861095Y-70328112D02*
X154956333Y-70232873D01*
X154956333Y-70232873D02*
X155051571Y-70042397D01*
X155051571Y-70042397D02*
X155051571Y-69470969D01*
X155051571Y-69470969D02*
X154956333Y-69280492D01*
X154956333Y-69280492D02*
X154861095Y-69185254D01*
X154861095Y-69185254D02*
X154670619Y-69090016D01*
X154670619Y-69090016D02*
X154384904Y-69090016D01*
X154384904Y-69090016D02*
X154194428Y-69185254D01*
X154194428Y-69185254D02*
X154099190Y-69280492D01*
X154099190Y-69280492D02*
X154003952Y-69470969D01*
X154003952Y-69470969D02*
X154003952Y-70042397D01*
X154003952Y-70042397D02*
X154099190Y-70232873D01*
X154099190Y-70232873D02*
X154194428Y-70328112D01*
X154194428Y-70328112D02*
X154384904Y-70423350D01*
X154384904Y-70423350D02*
X154670619Y-70423350D01*
X152289666Y-70328112D02*
X152480142Y-70423350D01*
X152480142Y-70423350D02*
X152861095Y-70423350D01*
X152861095Y-70423350D02*
X153051571Y-70328112D01*
X153051571Y-70328112D02*
X153146809Y-70232873D01*
X153146809Y-70232873D02*
X153242047Y-70042397D01*
X153242047Y-70042397D02*
X153242047Y-69470969D01*
X153242047Y-69470969D02*
X153146809Y-69280492D01*
X153146809Y-69280492D02*
X153051571Y-69185254D01*
X153051571Y-69185254D02*
X152861095Y-69090016D01*
X152861095Y-69090016D02*
X152480142Y-69090016D01*
X152480142Y-69090016D02*
X152289666Y-69185254D01*
X151432523Y-70423350D02*
X151432523Y-68423350D01*
X151242047Y-69661445D02*
X150670618Y-70423350D01*
X150670618Y-69090016D02*
X151432523Y-69851921D01*
X166051571Y-72309904D02*
X165575381Y-73643238D01*
X165575381Y-73643238D02*
X165099190Y-72309904D01*
X164527761Y-71643238D02*
X163289666Y-71643238D01*
X163289666Y-71643238D02*
X163956333Y-72405142D01*
X163956333Y-72405142D02*
X163670618Y-72405142D01*
X163670618Y-72405142D02*
X163480142Y-72500380D01*
X163480142Y-72500380D02*
X163384904Y-72595619D01*
X163384904Y-72595619D02*
X163289666Y-72786095D01*
X163289666Y-72786095D02*
X163289666Y-73262285D01*
X163289666Y-73262285D02*
X163384904Y-73452761D01*
X163384904Y-73452761D02*
X163480142Y-73548000D01*
X163480142Y-73548000D02*
X163670618Y-73643238D01*
X163670618Y-73643238D02*
X164242047Y-73643238D01*
X164242047Y-73643238D02*
X164432523Y-73548000D01*
X164432523Y-73548000D02*
X164527761Y-73452761D01*
X162432523Y-73452761D02*
X162337285Y-73548000D01*
X162337285Y-73548000D02*
X162432523Y-73643238D01*
X162432523Y-73643238D02*
X162527761Y-73548000D01*
X162527761Y-73548000D02*
X162432523Y-73452761D01*
X162432523Y-73452761D02*
X162432523Y-73643238D01*
X160432523Y-73643238D02*
X161575380Y-73643238D01*
X161003952Y-73643238D02*
X161003952Y-71643238D01*
X161003952Y-71643238D02*
X161194428Y-71928952D01*
X161194428Y-71928952D02*
X161384904Y-72119428D01*
X161384904Y-72119428D02*
X161575380Y-72214666D01*
X158146808Y-71833714D02*
X158051570Y-71738476D01*
X158051570Y-71738476D02*
X157861094Y-71643238D01*
X157861094Y-71643238D02*
X157384903Y-71643238D01*
X157384903Y-71643238D02*
X157194427Y-71738476D01*
X157194427Y-71738476D02*
X157099189Y-71833714D01*
X157099189Y-71833714D02*
X157003951Y-72024190D01*
X157003951Y-72024190D02*
X157003951Y-72214666D01*
X157003951Y-72214666D02*
X157099189Y-72500380D01*
X157099189Y-72500380D02*
X158242046Y-73643238D01*
X158242046Y-73643238D02*
X157003951Y-73643238D01*
X155765856Y-71643238D02*
X155575379Y-71643238D01*
X155575379Y-71643238D02*
X155384903Y-71738476D01*
X155384903Y-71738476D02*
X155289665Y-71833714D01*
X155289665Y-71833714D02*
X155194427Y-72024190D01*
X155194427Y-72024190D02*
X155099189Y-72405142D01*
X155099189Y-72405142D02*
X155099189Y-72881333D01*
X155099189Y-72881333D02*
X155194427Y-73262285D01*
X155194427Y-73262285D02*
X155289665Y-73452761D01*
X155289665Y-73452761D02*
X155384903Y-73548000D01*
X155384903Y-73548000D02*
X155575379Y-73643238D01*
X155575379Y-73643238D02*
X155765856Y-73643238D01*
X155765856Y-73643238D02*
X155956332Y-73548000D01*
X155956332Y-73548000D02*
X156051570Y-73452761D01*
X156051570Y-73452761D02*
X156146808Y-73262285D01*
X156146808Y-73262285D02*
X156242046Y-72881333D01*
X156242046Y-72881333D02*
X156242046Y-72405142D01*
X156242046Y-72405142D02*
X156146808Y-72024190D01*
X156146808Y-72024190D02*
X156051570Y-71833714D01*
X156051570Y-71833714D02*
X155956332Y-71738476D01*
X155956332Y-71738476D02*
X155765856Y-71643238D01*
X154337284Y-71833714D02*
X154242046Y-71738476D01*
X154242046Y-71738476D02*
X154051570Y-71643238D01*
X154051570Y-71643238D02*
X153575379Y-71643238D01*
X153575379Y-71643238D02*
X153384903Y-71738476D01*
X153384903Y-71738476D02*
X153289665Y-71833714D01*
X153289665Y-71833714D02*
X153194427Y-72024190D01*
X153194427Y-72024190D02*
X153194427Y-72214666D01*
X153194427Y-72214666D02*
X153289665Y-72500380D01*
X153289665Y-72500380D02*
X154432522Y-73643238D01*
X154432522Y-73643238D02*
X153194427Y-73643238D01*
X151384903Y-71643238D02*
X152337284Y-71643238D01*
X152337284Y-71643238D02*
X152432522Y-72595619D01*
X152432522Y-72595619D02*
X152337284Y-72500380D01*
X152337284Y-72500380D02*
X152146808Y-72405142D01*
X152146808Y-72405142D02*
X151670617Y-72405142D01*
X151670617Y-72405142D02*
X151480141Y-72500380D01*
X151480141Y-72500380D02*
X151384903Y-72595619D01*
X151384903Y-72595619D02*
X151289665Y-72786095D01*
X151289665Y-72786095D02*
X151289665Y-73262285D01*
X151289665Y-73262285D02*
X151384903Y-73452761D01*
X151384903Y-73452761D02*
X151480141Y-73548000D01*
X151480141Y-73548000D02*
X151670617Y-73643238D01*
X151670617Y-73643238D02*
X152146808Y-73643238D01*
X152146808Y-73643238D02*
X152337284Y-73548000D01*
X152337284Y-73548000D02*
X152432522Y-73452761D01*
D12*
X186042857Y-59054819D02*
X186376190Y-58578628D01*
X186614285Y-59054819D02*
X186614285Y-58054819D01*
X186614285Y-58054819D02*
X186233333Y-58054819D01*
X186233333Y-58054819D02*
X186138095Y-58102438D01*
X186138095Y-58102438D02*
X186090476Y-58150057D01*
X186090476Y-58150057D02*
X186042857Y-58245295D01*
X186042857Y-58245295D02*
X186042857Y-58388152D01*
X186042857Y-58388152D02*
X186090476Y-58483390D01*
X186090476Y-58483390D02*
X186138095Y-58531009D01*
X186138095Y-58531009D02*
X186233333Y-58578628D01*
X186233333Y-58578628D02*
X186614285Y-58578628D01*
X185090476Y-59054819D02*
X185661904Y-59054819D01*
X185376190Y-59054819D02*
X185376190Y-58054819D01*
X185376190Y-58054819D02*
X185471428Y-58197676D01*
X185471428Y-58197676D02*
X185566666Y-58292914D01*
X185566666Y-58292914D02*
X185661904Y-58340533D01*
X184233333Y-58388152D02*
X184233333Y-59054819D01*
X184471428Y-58007200D02*
X184709523Y-58721485D01*
X184709523Y-58721485D02*
X184090476Y-58721485D01*
X147366666Y-59054819D02*
X147699999Y-58578628D01*
X147938094Y-59054819D02*
X147938094Y-58054819D01*
X147938094Y-58054819D02*
X147557142Y-58054819D01*
X147557142Y-58054819D02*
X147461904Y-58102438D01*
X147461904Y-58102438D02*
X147414285Y-58150057D01*
X147414285Y-58150057D02*
X147366666Y-58245295D01*
X147366666Y-58245295D02*
X147366666Y-58388152D01*
X147366666Y-58388152D02*
X147414285Y-58483390D01*
X147414285Y-58483390D02*
X147461904Y-58531009D01*
X147461904Y-58531009D02*
X147557142Y-58578628D01*
X147557142Y-58578628D02*
X147938094Y-58578628D01*
X146890475Y-59054819D02*
X146699999Y-59054819D01*
X146699999Y-59054819D02*
X146604761Y-59007200D01*
X146604761Y-59007200D02*
X146557142Y-58959580D01*
X146557142Y-58959580D02*
X146461904Y-58816723D01*
X146461904Y-58816723D02*
X146414285Y-58626247D01*
X146414285Y-58626247D02*
X146414285Y-58245295D01*
X146414285Y-58245295D02*
X146461904Y-58150057D01*
X146461904Y-58150057D02*
X146509523Y-58102438D01*
X146509523Y-58102438D02*
X146604761Y-58054819D01*
X146604761Y-58054819D02*
X146795237Y-58054819D01*
X146795237Y-58054819D02*
X146890475Y-58102438D01*
X146890475Y-58102438D02*
X146938094Y-58150057D01*
X146938094Y-58150057D02*
X146985713Y-58245295D01*
X146985713Y-58245295D02*
X146985713Y-58483390D01*
X146985713Y-58483390D02*
X146938094Y-58578628D01*
X146938094Y-58578628D02*
X146890475Y-58626247D01*
X146890475Y-58626247D02*
X146795237Y-58673866D01*
X146795237Y-58673866D02*
X146604761Y-58673866D01*
X146604761Y-58673866D02*
X146509523Y-58626247D01*
X146509523Y-58626247D02*
X146461904Y-58578628D01*
X146461904Y-58578628D02*
X146414285Y-58483390D01*
X100718857Y-70050819D02*
X101052190Y-69574628D01*
X101290285Y-70050819D02*
X101290285Y-69050819D01*
X101290285Y-69050819D02*
X100909333Y-69050819D01*
X100909333Y-69050819D02*
X100814095Y-69098438D01*
X100814095Y-69098438D02*
X100766476Y-69146057D01*
X100766476Y-69146057D02*
X100718857Y-69241295D01*
X100718857Y-69241295D02*
X100718857Y-69384152D01*
X100718857Y-69384152D02*
X100766476Y-69479390D01*
X100766476Y-69479390D02*
X100814095Y-69527009D01*
X100814095Y-69527009D02*
X100909333Y-69574628D01*
X100909333Y-69574628D02*
X101290285Y-69574628D01*
X99766476Y-70050819D02*
X100337904Y-70050819D01*
X100052190Y-70050819D02*
X100052190Y-69050819D01*
X100052190Y-69050819D02*
X100147428Y-69193676D01*
X100147428Y-69193676D02*
X100242666Y-69288914D01*
X100242666Y-69288914D02*
X100337904Y-69336533D01*
X99290285Y-70050819D02*
X99099809Y-70050819D01*
X99099809Y-70050819D02*
X99004571Y-70003200D01*
X99004571Y-70003200D02*
X98956952Y-69955580D01*
X98956952Y-69955580D02*
X98861714Y-69812723D01*
X98861714Y-69812723D02*
X98814095Y-69622247D01*
X98814095Y-69622247D02*
X98814095Y-69241295D01*
X98814095Y-69241295D02*
X98861714Y-69146057D01*
X98861714Y-69146057D02*
X98909333Y-69098438D01*
X98909333Y-69098438D02*
X99004571Y-69050819D01*
X99004571Y-69050819D02*
X99195047Y-69050819D01*
X99195047Y-69050819D02*
X99290285Y-69098438D01*
X99290285Y-69098438D02*
X99337904Y-69146057D01*
X99337904Y-69146057D02*
X99385523Y-69241295D01*
X99385523Y-69241295D02*
X99385523Y-69479390D01*
X99385523Y-69479390D02*
X99337904Y-69574628D01*
X99337904Y-69574628D02*
X99290285Y-69622247D01*
X99290285Y-69622247D02*
X99195047Y-69669866D01*
X99195047Y-69669866D02*
X99004571Y-69669866D01*
X99004571Y-69669866D02*
X98909333Y-69622247D01*
X98909333Y-69622247D02*
X98861714Y-69574628D01*
X98861714Y-69574628D02*
X98814095Y-69479390D01*
X189771428Y-59150057D02*
X189866666Y-59102438D01*
X189866666Y-59102438D02*
X189961904Y-59007200D01*
X189961904Y-59007200D02*
X190104761Y-58864342D01*
X190104761Y-58864342D02*
X190199999Y-58816723D01*
X190199999Y-58816723D02*
X190295237Y-58816723D01*
X190247618Y-59054819D02*
X190342856Y-59007200D01*
X190342856Y-59007200D02*
X190438094Y-58911961D01*
X190438094Y-58911961D02*
X190485713Y-58721485D01*
X190485713Y-58721485D02*
X190485713Y-58388152D01*
X190485713Y-58388152D02*
X190438094Y-58197676D01*
X190438094Y-58197676D02*
X190342856Y-58102438D01*
X190342856Y-58102438D02*
X190247618Y-58054819D01*
X190247618Y-58054819D02*
X190057142Y-58054819D01*
X190057142Y-58054819D02*
X189961904Y-58102438D01*
X189961904Y-58102438D02*
X189866666Y-58197676D01*
X189866666Y-58197676D02*
X189819047Y-58388152D01*
X189819047Y-58388152D02*
X189819047Y-58721485D01*
X189819047Y-58721485D02*
X189866666Y-58911961D01*
X189866666Y-58911961D02*
X189961904Y-59007200D01*
X189961904Y-59007200D02*
X190057142Y-59054819D01*
X190057142Y-59054819D02*
X190247618Y-59054819D01*
X188866666Y-59054819D02*
X189438094Y-59054819D01*
X189152380Y-59054819D02*
X189152380Y-58054819D01*
X189152380Y-58054819D02*
X189247618Y-58197676D01*
X189247618Y-58197676D02*
X189342856Y-58292914D01*
X189342856Y-58292914D02*
X189438094Y-58340533D01*
X188009523Y-58388152D02*
X188009523Y-59054819D01*
X188247618Y-58007200D02*
X188485713Y-58721485D01*
X188485713Y-58721485D02*
X187866666Y-58721485D01*
X132166666Y-59054819D02*
X132499999Y-58578628D01*
X132738094Y-59054819D02*
X132738094Y-58054819D01*
X132738094Y-58054819D02*
X132357142Y-58054819D01*
X132357142Y-58054819D02*
X132261904Y-58102438D01*
X132261904Y-58102438D02*
X132214285Y-58150057D01*
X132214285Y-58150057D02*
X132166666Y-58245295D01*
X132166666Y-58245295D02*
X132166666Y-58388152D01*
X132166666Y-58388152D02*
X132214285Y-58483390D01*
X132214285Y-58483390D02*
X132261904Y-58531009D01*
X132261904Y-58531009D02*
X132357142Y-58578628D01*
X132357142Y-58578628D02*
X132738094Y-58578628D01*
X131833332Y-58054819D02*
X131166666Y-58054819D01*
X131166666Y-58054819D02*
X131595237Y-59054819D01*
X162266666Y-84759580D02*
X162314285Y-84807200D01*
X162314285Y-84807200D02*
X162457142Y-84854819D01*
X162457142Y-84854819D02*
X162552380Y-84854819D01*
X162552380Y-84854819D02*
X162695237Y-84807200D01*
X162695237Y-84807200D02*
X162790475Y-84711961D01*
X162790475Y-84711961D02*
X162838094Y-84616723D01*
X162838094Y-84616723D02*
X162885713Y-84426247D01*
X162885713Y-84426247D02*
X162885713Y-84283390D01*
X162885713Y-84283390D02*
X162838094Y-84092914D01*
X162838094Y-84092914D02*
X162790475Y-83997676D01*
X162790475Y-83997676D02*
X162695237Y-83902438D01*
X162695237Y-83902438D02*
X162552380Y-83854819D01*
X162552380Y-83854819D02*
X162457142Y-83854819D01*
X162457142Y-83854819D02*
X162314285Y-83902438D01*
X162314285Y-83902438D02*
X162266666Y-83950057D01*
X161314285Y-84854819D02*
X161885713Y-84854819D01*
X161599999Y-84854819D02*
X161599999Y-83854819D01*
X161599999Y-83854819D02*
X161695237Y-83997676D01*
X161695237Y-83997676D02*
X161790475Y-84092914D01*
X161790475Y-84092914D02*
X161885713Y-84140533D01*
X130468666Y-92759580D02*
X130516285Y-92807200D01*
X130516285Y-92807200D02*
X130659142Y-92854819D01*
X130659142Y-92854819D02*
X130754380Y-92854819D01*
X130754380Y-92854819D02*
X130897237Y-92807200D01*
X130897237Y-92807200D02*
X130992475Y-92711961D01*
X130992475Y-92711961D02*
X131040094Y-92616723D01*
X131040094Y-92616723D02*
X131087713Y-92426247D01*
X131087713Y-92426247D02*
X131087713Y-92283390D01*
X131087713Y-92283390D02*
X131040094Y-92092914D01*
X131040094Y-92092914D02*
X130992475Y-91997676D01*
X130992475Y-91997676D02*
X130897237Y-91902438D01*
X130897237Y-91902438D02*
X130754380Y-91854819D01*
X130754380Y-91854819D02*
X130659142Y-91854819D01*
X130659142Y-91854819D02*
X130516285Y-91902438D01*
X130516285Y-91902438D02*
X130468666Y-91950057D01*
X130135332Y-91854819D02*
X129516285Y-91854819D01*
X129516285Y-91854819D02*
X129849618Y-92235771D01*
X129849618Y-92235771D02*
X129706761Y-92235771D01*
X129706761Y-92235771D02*
X129611523Y-92283390D01*
X129611523Y-92283390D02*
X129563904Y-92331009D01*
X129563904Y-92331009D02*
X129516285Y-92426247D01*
X129516285Y-92426247D02*
X129516285Y-92664342D01*
X129516285Y-92664342D02*
X129563904Y-92759580D01*
X129563904Y-92759580D02*
X129611523Y-92807200D01*
X129611523Y-92807200D02*
X129706761Y-92854819D01*
X129706761Y-92854819D02*
X129992475Y-92854819D01*
X129992475Y-92854819D02*
X130087713Y-92807200D01*
X130087713Y-92807200D02*
X130135332Y-92759580D01*
X94166666Y-59054819D02*
X94499999Y-58578628D01*
X94738094Y-59054819D02*
X94738094Y-58054819D01*
X94738094Y-58054819D02*
X94357142Y-58054819D01*
X94357142Y-58054819D02*
X94261904Y-58102438D01*
X94261904Y-58102438D02*
X94214285Y-58150057D01*
X94214285Y-58150057D02*
X94166666Y-58245295D01*
X94166666Y-58245295D02*
X94166666Y-58388152D01*
X94166666Y-58388152D02*
X94214285Y-58483390D01*
X94214285Y-58483390D02*
X94261904Y-58531009D01*
X94261904Y-58531009D02*
X94357142Y-58578628D01*
X94357142Y-58578628D02*
X94738094Y-58578628D01*
X93785713Y-58150057D02*
X93738094Y-58102438D01*
X93738094Y-58102438D02*
X93642856Y-58054819D01*
X93642856Y-58054819D02*
X93404761Y-58054819D01*
X93404761Y-58054819D02*
X93309523Y-58102438D01*
X93309523Y-58102438D02*
X93261904Y-58150057D01*
X93261904Y-58150057D02*
X93214285Y-58245295D01*
X93214285Y-58245295D02*
X93214285Y-58340533D01*
X93214285Y-58340533D02*
X93261904Y-58483390D01*
X93261904Y-58483390D02*
X93833332Y-59054819D01*
X93833332Y-59054819D02*
X93214285Y-59054819D01*
X140501666Y-69447580D02*
X140549285Y-69495200D01*
X140549285Y-69495200D02*
X140692142Y-69542819D01*
X140692142Y-69542819D02*
X140787380Y-69542819D01*
X140787380Y-69542819D02*
X140930237Y-69495200D01*
X140930237Y-69495200D02*
X141025475Y-69399961D01*
X141025475Y-69399961D02*
X141073094Y-69304723D01*
X141073094Y-69304723D02*
X141120713Y-69114247D01*
X141120713Y-69114247D02*
X141120713Y-68971390D01*
X141120713Y-68971390D02*
X141073094Y-68780914D01*
X141073094Y-68780914D02*
X141025475Y-68685676D01*
X141025475Y-68685676D02*
X140930237Y-68590438D01*
X140930237Y-68590438D02*
X140787380Y-68542819D01*
X140787380Y-68542819D02*
X140692142Y-68542819D01*
X140692142Y-68542819D02*
X140549285Y-68590438D01*
X140549285Y-68590438D02*
X140501666Y-68638057D01*
X140168332Y-68542819D02*
X139501666Y-68542819D01*
X139501666Y-68542819D02*
X139930237Y-69542819D01*
X112142857Y-65732819D02*
X112476190Y-65256628D01*
X112714285Y-65732819D02*
X112714285Y-64732819D01*
X112714285Y-64732819D02*
X112333333Y-64732819D01*
X112333333Y-64732819D02*
X112238095Y-64780438D01*
X112238095Y-64780438D02*
X112190476Y-64828057D01*
X112190476Y-64828057D02*
X112142857Y-64923295D01*
X112142857Y-64923295D02*
X112142857Y-65066152D01*
X112142857Y-65066152D02*
X112190476Y-65161390D01*
X112190476Y-65161390D02*
X112238095Y-65209009D01*
X112238095Y-65209009D02*
X112333333Y-65256628D01*
X112333333Y-65256628D02*
X112714285Y-65256628D01*
X111761904Y-64828057D02*
X111714285Y-64780438D01*
X111714285Y-64780438D02*
X111619047Y-64732819D01*
X111619047Y-64732819D02*
X111380952Y-64732819D01*
X111380952Y-64732819D02*
X111285714Y-64780438D01*
X111285714Y-64780438D02*
X111238095Y-64828057D01*
X111238095Y-64828057D02*
X111190476Y-64923295D01*
X111190476Y-64923295D02*
X111190476Y-65018533D01*
X111190476Y-65018533D02*
X111238095Y-65161390D01*
X111238095Y-65161390D02*
X111809523Y-65732819D01*
X111809523Y-65732819D02*
X111190476Y-65732819D01*
X110619047Y-65161390D02*
X110714285Y-65113771D01*
X110714285Y-65113771D02*
X110761904Y-65066152D01*
X110761904Y-65066152D02*
X110809523Y-64970914D01*
X110809523Y-64970914D02*
X110809523Y-64923295D01*
X110809523Y-64923295D02*
X110761904Y-64828057D01*
X110761904Y-64828057D02*
X110714285Y-64780438D01*
X110714285Y-64780438D02*
X110619047Y-64732819D01*
X110619047Y-64732819D02*
X110428571Y-64732819D01*
X110428571Y-64732819D02*
X110333333Y-64780438D01*
X110333333Y-64780438D02*
X110285714Y-64828057D01*
X110285714Y-64828057D02*
X110238095Y-64923295D01*
X110238095Y-64923295D02*
X110238095Y-64970914D01*
X110238095Y-64970914D02*
X110285714Y-65066152D01*
X110285714Y-65066152D02*
X110333333Y-65113771D01*
X110333333Y-65113771D02*
X110428571Y-65161390D01*
X110428571Y-65161390D02*
X110619047Y-65161390D01*
X110619047Y-65161390D02*
X110714285Y-65209009D01*
X110714285Y-65209009D02*
X110761904Y-65256628D01*
X110761904Y-65256628D02*
X110809523Y-65351866D01*
X110809523Y-65351866D02*
X110809523Y-65542342D01*
X110809523Y-65542342D02*
X110761904Y-65637580D01*
X110761904Y-65637580D02*
X110714285Y-65685200D01*
X110714285Y-65685200D02*
X110619047Y-65732819D01*
X110619047Y-65732819D02*
X110428571Y-65732819D01*
X110428571Y-65732819D02*
X110333333Y-65685200D01*
X110333333Y-65685200D02*
X110285714Y-65637580D01*
X110285714Y-65637580D02*
X110238095Y-65542342D01*
X110238095Y-65542342D02*
X110238095Y-65351866D01*
X110238095Y-65351866D02*
X110285714Y-65256628D01*
X110285714Y-65256628D02*
X110333333Y-65209009D01*
X110333333Y-65209009D02*
X110428571Y-65161390D01*
X142595504Y-82360419D02*
X142595504Y-83169942D01*
X142595504Y-83169942D02*
X142547885Y-83265180D01*
X142547885Y-83265180D02*
X142500266Y-83312800D01*
X142500266Y-83312800D02*
X142405028Y-83360419D01*
X142405028Y-83360419D02*
X142214552Y-83360419D01*
X142214552Y-83360419D02*
X142119314Y-83312800D01*
X142119314Y-83312800D02*
X142071695Y-83265180D01*
X142071695Y-83265180D02*
X142024076Y-83169942D01*
X142024076Y-83169942D02*
X142024076Y-82360419D01*
X141595504Y-82455657D02*
X141547885Y-82408038D01*
X141547885Y-82408038D02*
X141452647Y-82360419D01*
X141452647Y-82360419D02*
X141214552Y-82360419D01*
X141214552Y-82360419D02*
X141119314Y-82408038D01*
X141119314Y-82408038D02*
X141071695Y-82455657D01*
X141071695Y-82455657D02*
X141024076Y-82550895D01*
X141024076Y-82550895D02*
X141024076Y-82646133D01*
X141024076Y-82646133D02*
X141071695Y-82788990D01*
X141071695Y-82788990D02*
X141643123Y-83360419D01*
X141643123Y-83360419D02*
X141024076Y-83360419D01*
X151645857Y-88243580D02*
X151693476Y-88291200D01*
X151693476Y-88291200D02*
X151836333Y-88338819D01*
X151836333Y-88338819D02*
X151931571Y-88338819D01*
X151931571Y-88338819D02*
X152074428Y-88291200D01*
X152074428Y-88291200D02*
X152169666Y-88195961D01*
X152169666Y-88195961D02*
X152217285Y-88100723D01*
X152217285Y-88100723D02*
X152264904Y-87910247D01*
X152264904Y-87910247D02*
X152264904Y-87767390D01*
X152264904Y-87767390D02*
X152217285Y-87576914D01*
X152217285Y-87576914D02*
X152169666Y-87481676D01*
X152169666Y-87481676D02*
X152074428Y-87386438D01*
X152074428Y-87386438D02*
X151931571Y-87338819D01*
X151931571Y-87338819D02*
X151836333Y-87338819D01*
X151836333Y-87338819D02*
X151693476Y-87386438D01*
X151693476Y-87386438D02*
X151645857Y-87434057D01*
X150693476Y-88338819D02*
X151264904Y-88338819D01*
X150979190Y-88338819D02*
X150979190Y-87338819D01*
X150979190Y-87338819D02*
X151074428Y-87481676D01*
X151074428Y-87481676D02*
X151169666Y-87576914D01*
X151169666Y-87576914D02*
X151264904Y-87624533D01*
X150074428Y-87338819D02*
X149979190Y-87338819D01*
X149979190Y-87338819D02*
X149883952Y-87386438D01*
X149883952Y-87386438D02*
X149836333Y-87434057D01*
X149836333Y-87434057D02*
X149788714Y-87529295D01*
X149788714Y-87529295D02*
X149741095Y-87719771D01*
X149741095Y-87719771D02*
X149741095Y-87957866D01*
X149741095Y-87957866D02*
X149788714Y-88148342D01*
X149788714Y-88148342D02*
X149836333Y-88243580D01*
X149836333Y-88243580D02*
X149883952Y-88291200D01*
X149883952Y-88291200D02*
X149979190Y-88338819D01*
X149979190Y-88338819D02*
X150074428Y-88338819D01*
X150074428Y-88338819D02*
X150169666Y-88291200D01*
X150169666Y-88291200D02*
X150217285Y-88243580D01*
X150217285Y-88243580D02*
X150264904Y-88148342D01*
X150264904Y-88148342D02*
X150312523Y-87957866D01*
X150312523Y-87957866D02*
X150312523Y-87719771D01*
X150312523Y-87719771D02*
X150264904Y-87529295D01*
X150264904Y-87529295D02*
X150217285Y-87434057D01*
X150217285Y-87434057D02*
X150169666Y-87386438D01*
X150169666Y-87386438D02*
X150074428Y-87338819D01*
X174571428Y-59150057D02*
X174666666Y-59102438D01*
X174666666Y-59102438D02*
X174761904Y-59007200D01*
X174761904Y-59007200D02*
X174904761Y-58864342D01*
X174904761Y-58864342D02*
X174999999Y-58816723D01*
X174999999Y-58816723D02*
X175095237Y-58816723D01*
X175047618Y-59054819D02*
X175142856Y-59007200D01*
X175142856Y-59007200D02*
X175238094Y-58911961D01*
X175238094Y-58911961D02*
X175285713Y-58721485D01*
X175285713Y-58721485D02*
X175285713Y-58388152D01*
X175285713Y-58388152D02*
X175238094Y-58197676D01*
X175238094Y-58197676D02*
X175142856Y-58102438D01*
X175142856Y-58102438D02*
X175047618Y-58054819D01*
X175047618Y-58054819D02*
X174857142Y-58054819D01*
X174857142Y-58054819D02*
X174761904Y-58102438D01*
X174761904Y-58102438D02*
X174666666Y-58197676D01*
X174666666Y-58197676D02*
X174619047Y-58388152D01*
X174619047Y-58388152D02*
X174619047Y-58721485D01*
X174619047Y-58721485D02*
X174666666Y-58911961D01*
X174666666Y-58911961D02*
X174761904Y-59007200D01*
X174761904Y-59007200D02*
X174857142Y-59054819D01*
X174857142Y-59054819D02*
X175047618Y-59054819D01*
X173666666Y-59054819D02*
X174238094Y-59054819D01*
X173952380Y-59054819D02*
X173952380Y-58054819D01*
X173952380Y-58054819D02*
X174047618Y-58197676D01*
X174047618Y-58197676D02*
X174142856Y-58292914D01*
X174142856Y-58292914D02*
X174238094Y-58340533D01*
X173285713Y-58150057D02*
X173238094Y-58102438D01*
X173238094Y-58102438D02*
X173142856Y-58054819D01*
X173142856Y-58054819D02*
X172904761Y-58054819D01*
X172904761Y-58054819D02*
X172809523Y-58102438D01*
X172809523Y-58102438D02*
X172761904Y-58150057D01*
X172761904Y-58150057D02*
X172714285Y-58245295D01*
X172714285Y-58245295D02*
X172714285Y-58340533D01*
X172714285Y-58340533D02*
X172761904Y-58483390D01*
X172761904Y-58483390D02*
X173333332Y-59054819D01*
X173333332Y-59054819D02*
X172714285Y-59054819D01*
X97895238Y-59150057D02*
X97990476Y-59102438D01*
X97990476Y-59102438D02*
X98085714Y-59007200D01*
X98085714Y-59007200D02*
X98228571Y-58864342D01*
X98228571Y-58864342D02*
X98323809Y-58816723D01*
X98323809Y-58816723D02*
X98419047Y-58816723D01*
X98371428Y-59054819D02*
X98466666Y-59007200D01*
X98466666Y-59007200D02*
X98561904Y-58911961D01*
X98561904Y-58911961D02*
X98609523Y-58721485D01*
X98609523Y-58721485D02*
X98609523Y-58388152D01*
X98609523Y-58388152D02*
X98561904Y-58197676D01*
X98561904Y-58197676D02*
X98466666Y-58102438D01*
X98466666Y-58102438D02*
X98371428Y-58054819D01*
X98371428Y-58054819D02*
X98180952Y-58054819D01*
X98180952Y-58054819D02*
X98085714Y-58102438D01*
X98085714Y-58102438D02*
X97990476Y-58197676D01*
X97990476Y-58197676D02*
X97942857Y-58388152D01*
X97942857Y-58388152D02*
X97942857Y-58721485D01*
X97942857Y-58721485D02*
X97990476Y-58911961D01*
X97990476Y-58911961D02*
X98085714Y-59007200D01*
X98085714Y-59007200D02*
X98180952Y-59054819D01*
X98180952Y-59054819D02*
X98371428Y-59054819D01*
X97561904Y-58150057D02*
X97514285Y-58102438D01*
X97514285Y-58102438D02*
X97419047Y-58054819D01*
X97419047Y-58054819D02*
X97180952Y-58054819D01*
X97180952Y-58054819D02*
X97085714Y-58102438D01*
X97085714Y-58102438D02*
X97038095Y-58150057D01*
X97038095Y-58150057D02*
X96990476Y-58245295D01*
X96990476Y-58245295D02*
X96990476Y-58340533D01*
X96990476Y-58340533D02*
X97038095Y-58483390D01*
X97038095Y-58483390D02*
X97609523Y-59054819D01*
X97609523Y-59054819D02*
X96990476Y-59054819D01*
X193642857Y-59054819D02*
X193976190Y-58578628D01*
X194214285Y-59054819D02*
X194214285Y-58054819D01*
X194214285Y-58054819D02*
X193833333Y-58054819D01*
X193833333Y-58054819D02*
X193738095Y-58102438D01*
X193738095Y-58102438D02*
X193690476Y-58150057D01*
X193690476Y-58150057D02*
X193642857Y-58245295D01*
X193642857Y-58245295D02*
X193642857Y-58388152D01*
X193642857Y-58388152D02*
X193690476Y-58483390D01*
X193690476Y-58483390D02*
X193738095Y-58531009D01*
X193738095Y-58531009D02*
X193833333Y-58578628D01*
X193833333Y-58578628D02*
X194214285Y-58578628D01*
X192690476Y-59054819D02*
X193261904Y-59054819D01*
X192976190Y-59054819D02*
X192976190Y-58054819D01*
X192976190Y-58054819D02*
X193071428Y-58197676D01*
X193071428Y-58197676D02*
X193166666Y-58292914D01*
X193166666Y-58292914D02*
X193261904Y-58340533D01*
X191785714Y-58054819D02*
X192261904Y-58054819D01*
X192261904Y-58054819D02*
X192309523Y-58531009D01*
X192309523Y-58531009D02*
X192261904Y-58483390D01*
X192261904Y-58483390D02*
X192166666Y-58435771D01*
X192166666Y-58435771D02*
X191928571Y-58435771D01*
X191928571Y-58435771D02*
X191833333Y-58483390D01*
X191833333Y-58483390D02*
X191785714Y-58531009D01*
X191785714Y-58531009D02*
X191738095Y-58626247D01*
X191738095Y-58626247D02*
X191738095Y-58864342D01*
X191738095Y-58864342D02*
X191785714Y-58959580D01*
X191785714Y-58959580D02*
X191833333Y-59007200D01*
X191833333Y-59007200D02*
X191928571Y-59054819D01*
X191928571Y-59054819D02*
X192166666Y-59054819D01*
X192166666Y-59054819D02*
X192261904Y-59007200D01*
X192261904Y-59007200D02*
X192309523Y-58959580D01*
X100742857Y-67510819D02*
X101076190Y-67034628D01*
X101314285Y-67510819D02*
X101314285Y-66510819D01*
X101314285Y-66510819D02*
X100933333Y-66510819D01*
X100933333Y-66510819D02*
X100838095Y-66558438D01*
X100838095Y-66558438D02*
X100790476Y-66606057D01*
X100790476Y-66606057D02*
X100742857Y-66701295D01*
X100742857Y-66701295D02*
X100742857Y-66844152D01*
X100742857Y-66844152D02*
X100790476Y-66939390D01*
X100790476Y-66939390D02*
X100838095Y-66987009D01*
X100838095Y-66987009D02*
X100933333Y-67034628D01*
X100933333Y-67034628D02*
X101314285Y-67034628D01*
X99790476Y-67510819D02*
X100361904Y-67510819D01*
X100076190Y-67510819D02*
X100076190Y-66510819D01*
X100076190Y-66510819D02*
X100171428Y-66653676D01*
X100171428Y-66653676D02*
X100266666Y-66748914D01*
X100266666Y-66748914D02*
X100361904Y-66796533D01*
X99219047Y-66939390D02*
X99314285Y-66891771D01*
X99314285Y-66891771D02*
X99361904Y-66844152D01*
X99361904Y-66844152D02*
X99409523Y-66748914D01*
X99409523Y-66748914D02*
X99409523Y-66701295D01*
X99409523Y-66701295D02*
X99361904Y-66606057D01*
X99361904Y-66606057D02*
X99314285Y-66558438D01*
X99314285Y-66558438D02*
X99219047Y-66510819D01*
X99219047Y-66510819D02*
X99028571Y-66510819D01*
X99028571Y-66510819D02*
X98933333Y-66558438D01*
X98933333Y-66558438D02*
X98885714Y-66606057D01*
X98885714Y-66606057D02*
X98838095Y-66701295D01*
X98838095Y-66701295D02*
X98838095Y-66748914D01*
X98838095Y-66748914D02*
X98885714Y-66844152D01*
X98885714Y-66844152D02*
X98933333Y-66891771D01*
X98933333Y-66891771D02*
X99028571Y-66939390D01*
X99028571Y-66939390D02*
X99219047Y-66939390D01*
X99219047Y-66939390D02*
X99314285Y-66987009D01*
X99314285Y-66987009D02*
X99361904Y-67034628D01*
X99361904Y-67034628D02*
X99409523Y-67129866D01*
X99409523Y-67129866D02*
X99409523Y-67320342D01*
X99409523Y-67320342D02*
X99361904Y-67415580D01*
X99361904Y-67415580D02*
X99314285Y-67463200D01*
X99314285Y-67463200D02*
X99219047Y-67510819D01*
X99219047Y-67510819D02*
X99028571Y-67510819D01*
X99028571Y-67510819D02*
X98933333Y-67463200D01*
X98933333Y-67463200D02*
X98885714Y-67415580D01*
X98885714Y-67415580D02*
X98838095Y-67320342D01*
X98838095Y-67320342D02*
X98838095Y-67129866D01*
X98838095Y-67129866D02*
X98885714Y-67034628D01*
X98885714Y-67034628D02*
X98933333Y-66987009D01*
X98933333Y-66987009D02*
X99028571Y-66939390D01*
X178085714Y-72431009D02*
X177942857Y-72478628D01*
X177942857Y-72478628D02*
X177895238Y-72526247D01*
X177895238Y-72526247D02*
X177847619Y-72621485D01*
X177847619Y-72621485D02*
X177847619Y-72764342D01*
X177847619Y-72764342D02*
X177895238Y-72859580D01*
X177895238Y-72859580D02*
X177942857Y-72907200D01*
X177942857Y-72907200D02*
X178038095Y-72954819D01*
X178038095Y-72954819D02*
X178419047Y-72954819D01*
X178419047Y-72954819D02*
X178419047Y-71954819D01*
X178419047Y-71954819D02*
X178085714Y-71954819D01*
X178085714Y-71954819D02*
X177990476Y-72002438D01*
X177990476Y-72002438D02*
X177942857Y-72050057D01*
X177942857Y-72050057D02*
X177895238Y-72145295D01*
X177895238Y-72145295D02*
X177895238Y-72240533D01*
X177895238Y-72240533D02*
X177942857Y-72335771D01*
X177942857Y-72335771D02*
X177990476Y-72383390D01*
X177990476Y-72383390D02*
X178085714Y-72431009D01*
X178085714Y-72431009D02*
X178419047Y-72431009D01*
X177561904Y-71954819D02*
X176990476Y-71954819D01*
X177276190Y-72954819D02*
X177276190Y-71954819D01*
X176133333Y-72954819D02*
X176704761Y-72954819D01*
X176419047Y-72954819D02*
X176419047Y-71954819D01*
X176419047Y-71954819D02*
X176514285Y-72097676D01*
X176514285Y-72097676D02*
X176609523Y-72192914D01*
X176609523Y-72192914D02*
X176704761Y-72240533D01*
X177533700Y-92646571D02*
X177533700Y-93789429D01*
X178105128Y-93218000D02*
X176962271Y-93218000D01*
X105495238Y-59150057D02*
X105590476Y-59102438D01*
X105590476Y-59102438D02*
X105685714Y-59007200D01*
X105685714Y-59007200D02*
X105828571Y-58864342D01*
X105828571Y-58864342D02*
X105923809Y-58816723D01*
X105923809Y-58816723D02*
X106019047Y-58816723D01*
X105971428Y-59054819D02*
X106066666Y-59007200D01*
X106066666Y-59007200D02*
X106161904Y-58911961D01*
X106161904Y-58911961D02*
X106209523Y-58721485D01*
X106209523Y-58721485D02*
X106209523Y-58388152D01*
X106209523Y-58388152D02*
X106161904Y-58197676D01*
X106161904Y-58197676D02*
X106066666Y-58102438D01*
X106066666Y-58102438D02*
X105971428Y-58054819D01*
X105971428Y-58054819D02*
X105780952Y-58054819D01*
X105780952Y-58054819D02*
X105685714Y-58102438D01*
X105685714Y-58102438D02*
X105590476Y-58197676D01*
X105590476Y-58197676D02*
X105542857Y-58388152D01*
X105542857Y-58388152D02*
X105542857Y-58721485D01*
X105542857Y-58721485D02*
X105590476Y-58911961D01*
X105590476Y-58911961D02*
X105685714Y-59007200D01*
X105685714Y-59007200D02*
X105780952Y-59054819D01*
X105780952Y-59054819D02*
X105971428Y-59054819D01*
X105209523Y-58054819D02*
X104590476Y-58054819D01*
X104590476Y-58054819D02*
X104923809Y-58435771D01*
X104923809Y-58435771D02*
X104780952Y-58435771D01*
X104780952Y-58435771D02*
X104685714Y-58483390D01*
X104685714Y-58483390D02*
X104638095Y-58531009D01*
X104638095Y-58531009D02*
X104590476Y-58626247D01*
X104590476Y-58626247D02*
X104590476Y-58864342D01*
X104590476Y-58864342D02*
X104638095Y-58959580D01*
X104638095Y-58959580D02*
X104685714Y-59007200D01*
X104685714Y-59007200D02*
X104780952Y-59054819D01*
X104780952Y-59054819D02*
X105066666Y-59054819D01*
X105066666Y-59054819D02*
X105161904Y-59007200D01*
X105161904Y-59007200D02*
X105209523Y-58959580D01*
X112053666Y-70844580D02*
X112101285Y-70892200D01*
X112101285Y-70892200D02*
X112244142Y-70939819D01*
X112244142Y-70939819D02*
X112339380Y-70939819D01*
X112339380Y-70939819D02*
X112482237Y-70892200D01*
X112482237Y-70892200D02*
X112577475Y-70796961D01*
X112577475Y-70796961D02*
X112625094Y-70701723D01*
X112625094Y-70701723D02*
X112672713Y-70511247D01*
X112672713Y-70511247D02*
X112672713Y-70368390D01*
X112672713Y-70368390D02*
X112625094Y-70177914D01*
X112625094Y-70177914D02*
X112577475Y-70082676D01*
X112577475Y-70082676D02*
X112482237Y-69987438D01*
X112482237Y-69987438D02*
X112339380Y-69939819D01*
X112339380Y-69939819D02*
X112244142Y-69939819D01*
X112244142Y-69939819D02*
X112101285Y-69987438D01*
X112101285Y-69987438D02*
X112053666Y-70035057D01*
X111196523Y-69939819D02*
X111386999Y-69939819D01*
X111386999Y-69939819D02*
X111482237Y-69987438D01*
X111482237Y-69987438D02*
X111529856Y-70035057D01*
X111529856Y-70035057D02*
X111625094Y-70177914D01*
X111625094Y-70177914D02*
X111672713Y-70368390D01*
X111672713Y-70368390D02*
X111672713Y-70749342D01*
X111672713Y-70749342D02*
X111625094Y-70844580D01*
X111625094Y-70844580D02*
X111577475Y-70892200D01*
X111577475Y-70892200D02*
X111482237Y-70939819D01*
X111482237Y-70939819D02*
X111291761Y-70939819D01*
X111291761Y-70939819D02*
X111196523Y-70892200D01*
X111196523Y-70892200D02*
X111148904Y-70844580D01*
X111148904Y-70844580D02*
X111101285Y-70749342D01*
X111101285Y-70749342D02*
X111101285Y-70511247D01*
X111101285Y-70511247D02*
X111148904Y-70416009D01*
X111148904Y-70416009D02*
X111196523Y-70368390D01*
X111196523Y-70368390D02*
X111291761Y-70320771D01*
X111291761Y-70320771D02*
X111482237Y-70320771D01*
X111482237Y-70320771D02*
X111577475Y-70368390D01*
X111577475Y-70368390D02*
X111625094Y-70416009D01*
X111625094Y-70416009D02*
X111672713Y-70511247D01*
X159371428Y-59150057D02*
X159466666Y-59102438D01*
X159466666Y-59102438D02*
X159561904Y-59007200D01*
X159561904Y-59007200D02*
X159704761Y-58864342D01*
X159704761Y-58864342D02*
X159799999Y-58816723D01*
X159799999Y-58816723D02*
X159895237Y-58816723D01*
X159847618Y-59054819D02*
X159942856Y-59007200D01*
X159942856Y-59007200D02*
X160038094Y-58911961D01*
X160038094Y-58911961D02*
X160085713Y-58721485D01*
X160085713Y-58721485D02*
X160085713Y-58388152D01*
X160085713Y-58388152D02*
X160038094Y-58197676D01*
X160038094Y-58197676D02*
X159942856Y-58102438D01*
X159942856Y-58102438D02*
X159847618Y-58054819D01*
X159847618Y-58054819D02*
X159657142Y-58054819D01*
X159657142Y-58054819D02*
X159561904Y-58102438D01*
X159561904Y-58102438D02*
X159466666Y-58197676D01*
X159466666Y-58197676D02*
X159419047Y-58388152D01*
X159419047Y-58388152D02*
X159419047Y-58721485D01*
X159419047Y-58721485D02*
X159466666Y-58911961D01*
X159466666Y-58911961D02*
X159561904Y-59007200D01*
X159561904Y-59007200D02*
X159657142Y-59054819D01*
X159657142Y-59054819D02*
X159847618Y-59054819D01*
X158466666Y-59054819D02*
X159038094Y-59054819D01*
X158752380Y-59054819D02*
X158752380Y-58054819D01*
X158752380Y-58054819D02*
X158847618Y-58197676D01*
X158847618Y-58197676D02*
X158942856Y-58292914D01*
X158942856Y-58292914D02*
X159038094Y-58340533D01*
X157847618Y-58054819D02*
X157752380Y-58054819D01*
X157752380Y-58054819D02*
X157657142Y-58102438D01*
X157657142Y-58102438D02*
X157609523Y-58150057D01*
X157609523Y-58150057D02*
X157561904Y-58245295D01*
X157561904Y-58245295D02*
X157514285Y-58435771D01*
X157514285Y-58435771D02*
X157514285Y-58673866D01*
X157514285Y-58673866D02*
X157561904Y-58864342D01*
X157561904Y-58864342D02*
X157609523Y-58959580D01*
X157609523Y-58959580D02*
X157657142Y-59007200D01*
X157657142Y-59007200D02*
X157752380Y-59054819D01*
X157752380Y-59054819D02*
X157847618Y-59054819D01*
X157847618Y-59054819D02*
X157942856Y-59007200D01*
X157942856Y-59007200D02*
X157990475Y-58959580D01*
X157990475Y-58959580D02*
X158038094Y-58864342D01*
X158038094Y-58864342D02*
X158085713Y-58673866D01*
X158085713Y-58673866D02*
X158085713Y-58435771D01*
X158085713Y-58435771D02*
X158038094Y-58245295D01*
X158038094Y-58245295D02*
X157990475Y-58150057D01*
X157990475Y-58150057D02*
X157942856Y-58102438D01*
X157942856Y-58102438D02*
X157847618Y-58054819D01*
X143595238Y-59150057D02*
X143690476Y-59102438D01*
X143690476Y-59102438D02*
X143785714Y-59007200D01*
X143785714Y-59007200D02*
X143928571Y-58864342D01*
X143928571Y-58864342D02*
X144023809Y-58816723D01*
X144023809Y-58816723D02*
X144119047Y-58816723D01*
X144071428Y-59054819D02*
X144166666Y-59007200D01*
X144166666Y-59007200D02*
X144261904Y-58911961D01*
X144261904Y-58911961D02*
X144309523Y-58721485D01*
X144309523Y-58721485D02*
X144309523Y-58388152D01*
X144309523Y-58388152D02*
X144261904Y-58197676D01*
X144261904Y-58197676D02*
X144166666Y-58102438D01*
X144166666Y-58102438D02*
X144071428Y-58054819D01*
X144071428Y-58054819D02*
X143880952Y-58054819D01*
X143880952Y-58054819D02*
X143785714Y-58102438D01*
X143785714Y-58102438D02*
X143690476Y-58197676D01*
X143690476Y-58197676D02*
X143642857Y-58388152D01*
X143642857Y-58388152D02*
X143642857Y-58721485D01*
X143642857Y-58721485D02*
X143690476Y-58911961D01*
X143690476Y-58911961D02*
X143785714Y-59007200D01*
X143785714Y-59007200D02*
X143880952Y-59054819D01*
X143880952Y-59054819D02*
X144071428Y-59054819D01*
X143071428Y-58483390D02*
X143166666Y-58435771D01*
X143166666Y-58435771D02*
X143214285Y-58388152D01*
X143214285Y-58388152D02*
X143261904Y-58292914D01*
X143261904Y-58292914D02*
X143261904Y-58245295D01*
X143261904Y-58245295D02*
X143214285Y-58150057D01*
X143214285Y-58150057D02*
X143166666Y-58102438D01*
X143166666Y-58102438D02*
X143071428Y-58054819D01*
X143071428Y-58054819D02*
X142880952Y-58054819D01*
X142880952Y-58054819D02*
X142785714Y-58102438D01*
X142785714Y-58102438D02*
X142738095Y-58150057D01*
X142738095Y-58150057D02*
X142690476Y-58245295D01*
X142690476Y-58245295D02*
X142690476Y-58292914D01*
X142690476Y-58292914D02*
X142738095Y-58388152D01*
X142738095Y-58388152D02*
X142785714Y-58435771D01*
X142785714Y-58435771D02*
X142880952Y-58483390D01*
X142880952Y-58483390D02*
X143071428Y-58483390D01*
X143071428Y-58483390D02*
X143166666Y-58531009D01*
X143166666Y-58531009D02*
X143214285Y-58578628D01*
X143214285Y-58578628D02*
X143261904Y-58673866D01*
X143261904Y-58673866D02*
X143261904Y-58864342D01*
X143261904Y-58864342D02*
X143214285Y-58959580D01*
X143214285Y-58959580D02*
X143166666Y-59007200D01*
X143166666Y-59007200D02*
X143071428Y-59054819D01*
X143071428Y-59054819D02*
X142880952Y-59054819D01*
X142880952Y-59054819D02*
X142785714Y-59007200D01*
X142785714Y-59007200D02*
X142738095Y-58959580D01*
X142738095Y-58959580D02*
X142690476Y-58864342D01*
X142690476Y-58864342D02*
X142690476Y-58673866D01*
X142690476Y-58673866D02*
X142738095Y-58578628D01*
X142738095Y-58578628D02*
X142785714Y-58531009D01*
X142785714Y-58531009D02*
X142880952Y-58483390D01*
X187471428Y-65180557D02*
X187566666Y-65132938D01*
X187566666Y-65132938D02*
X187661904Y-65037700D01*
X187661904Y-65037700D02*
X187804761Y-64894842D01*
X187804761Y-64894842D02*
X187899999Y-64847223D01*
X187899999Y-64847223D02*
X187995237Y-64847223D01*
X187947618Y-65085319D02*
X188042856Y-65037700D01*
X188042856Y-65037700D02*
X188138094Y-64942461D01*
X188138094Y-64942461D02*
X188185713Y-64751985D01*
X188185713Y-64751985D02*
X188185713Y-64418652D01*
X188185713Y-64418652D02*
X188138094Y-64228176D01*
X188138094Y-64228176D02*
X188042856Y-64132938D01*
X188042856Y-64132938D02*
X187947618Y-64085319D01*
X187947618Y-64085319D02*
X187757142Y-64085319D01*
X187757142Y-64085319D02*
X187661904Y-64132938D01*
X187661904Y-64132938D02*
X187566666Y-64228176D01*
X187566666Y-64228176D02*
X187519047Y-64418652D01*
X187519047Y-64418652D02*
X187519047Y-64751985D01*
X187519047Y-64751985D02*
X187566666Y-64942461D01*
X187566666Y-64942461D02*
X187661904Y-65037700D01*
X187661904Y-65037700D02*
X187757142Y-65085319D01*
X187757142Y-65085319D02*
X187947618Y-65085319D01*
X186566666Y-65085319D02*
X187138094Y-65085319D01*
X186852380Y-65085319D02*
X186852380Y-64085319D01*
X186852380Y-64085319D02*
X186947618Y-64228176D01*
X186947618Y-64228176D02*
X187042856Y-64323414D01*
X187042856Y-64323414D02*
X187138094Y-64371033D01*
X185995237Y-64513890D02*
X186090475Y-64466271D01*
X186090475Y-64466271D02*
X186138094Y-64418652D01*
X186138094Y-64418652D02*
X186185713Y-64323414D01*
X186185713Y-64323414D02*
X186185713Y-64275795D01*
X186185713Y-64275795D02*
X186138094Y-64180557D01*
X186138094Y-64180557D02*
X186090475Y-64132938D01*
X186090475Y-64132938D02*
X185995237Y-64085319D01*
X185995237Y-64085319D02*
X185804761Y-64085319D01*
X185804761Y-64085319D02*
X185709523Y-64132938D01*
X185709523Y-64132938D02*
X185661904Y-64180557D01*
X185661904Y-64180557D02*
X185614285Y-64275795D01*
X185614285Y-64275795D02*
X185614285Y-64323414D01*
X185614285Y-64323414D02*
X185661904Y-64418652D01*
X185661904Y-64418652D02*
X185709523Y-64466271D01*
X185709523Y-64466271D02*
X185804761Y-64513890D01*
X185804761Y-64513890D02*
X185995237Y-64513890D01*
X185995237Y-64513890D02*
X186090475Y-64561509D01*
X186090475Y-64561509D02*
X186138094Y-64609128D01*
X186138094Y-64609128D02*
X186185713Y-64704366D01*
X186185713Y-64704366D02*
X186185713Y-64894842D01*
X186185713Y-64894842D02*
X186138094Y-64990080D01*
X186138094Y-64990080D02*
X186090475Y-65037700D01*
X186090475Y-65037700D02*
X185995237Y-65085319D01*
X185995237Y-65085319D02*
X185804761Y-65085319D01*
X185804761Y-65085319D02*
X185709523Y-65037700D01*
X185709523Y-65037700D02*
X185661904Y-64990080D01*
X185661904Y-64990080D02*
X185614285Y-64894842D01*
X185614285Y-64894842D02*
X185614285Y-64704366D01*
X185614285Y-64704366D02*
X185661904Y-64609128D01*
X185661904Y-64609128D02*
X185709523Y-64561509D01*
X185709523Y-64561509D02*
X185804761Y-64513890D01*
X208942857Y-59054819D02*
X209276190Y-58578628D01*
X209514285Y-59054819D02*
X209514285Y-58054819D01*
X209514285Y-58054819D02*
X209133333Y-58054819D01*
X209133333Y-58054819D02*
X209038095Y-58102438D01*
X209038095Y-58102438D02*
X208990476Y-58150057D01*
X208990476Y-58150057D02*
X208942857Y-58245295D01*
X208942857Y-58245295D02*
X208942857Y-58388152D01*
X208942857Y-58388152D02*
X208990476Y-58483390D01*
X208990476Y-58483390D02*
X209038095Y-58531009D01*
X209038095Y-58531009D02*
X209133333Y-58578628D01*
X209133333Y-58578628D02*
X209514285Y-58578628D01*
X207990476Y-59054819D02*
X208561904Y-59054819D01*
X208276190Y-59054819D02*
X208276190Y-58054819D01*
X208276190Y-58054819D02*
X208371428Y-58197676D01*
X208371428Y-58197676D02*
X208466666Y-58292914D01*
X208466666Y-58292914D02*
X208561904Y-58340533D01*
X207657142Y-58054819D02*
X206990476Y-58054819D01*
X206990476Y-58054819D02*
X207419047Y-59054819D01*
X205071428Y-59150057D02*
X205166666Y-59102438D01*
X205166666Y-59102438D02*
X205261904Y-59007200D01*
X205261904Y-59007200D02*
X205404761Y-58864342D01*
X205404761Y-58864342D02*
X205499999Y-58816723D01*
X205499999Y-58816723D02*
X205595237Y-58816723D01*
X205547618Y-59054819D02*
X205642856Y-59007200D01*
X205642856Y-59007200D02*
X205738094Y-58911961D01*
X205738094Y-58911961D02*
X205785713Y-58721485D01*
X205785713Y-58721485D02*
X205785713Y-58388152D01*
X205785713Y-58388152D02*
X205738094Y-58197676D01*
X205738094Y-58197676D02*
X205642856Y-58102438D01*
X205642856Y-58102438D02*
X205547618Y-58054819D01*
X205547618Y-58054819D02*
X205357142Y-58054819D01*
X205357142Y-58054819D02*
X205261904Y-58102438D01*
X205261904Y-58102438D02*
X205166666Y-58197676D01*
X205166666Y-58197676D02*
X205119047Y-58388152D01*
X205119047Y-58388152D02*
X205119047Y-58721485D01*
X205119047Y-58721485D02*
X205166666Y-58911961D01*
X205166666Y-58911961D02*
X205261904Y-59007200D01*
X205261904Y-59007200D02*
X205357142Y-59054819D01*
X205357142Y-59054819D02*
X205547618Y-59054819D01*
X204166666Y-59054819D02*
X204738094Y-59054819D01*
X204452380Y-59054819D02*
X204452380Y-58054819D01*
X204452380Y-58054819D02*
X204547618Y-58197676D01*
X204547618Y-58197676D02*
X204642856Y-58292914D01*
X204642856Y-58292914D02*
X204738094Y-58340533D01*
X203309523Y-58054819D02*
X203499999Y-58054819D01*
X203499999Y-58054819D02*
X203595237Y-58102438D01*
X203595237Y-58102438D02*
X203642856Y-58150057D01*
X203642856Y-58150057D02*
X203738094Y-58292914D01*
X203738094Y-58292914D02*
X203785713Y-58483390D01*
X203785713Y-58483390D02*
X203785713Y-58864342D01*
X203785713Y-58864342D02*
X203738094Y-58959580D01*
X203738094Y-58959580D02*
X203690475Y-59007200D01*
X203690475Y-59007200D02*
X203595237Y-59054819D01*
X203595237Y-59054819D02*
X203404761Y-59054819D01*
X203404761Y-59054819D02*
X203309523Y-59007200D01*
X203309523Y-59007200D02*
X203261904Y-58959580D01*
X203261904Y-58959580D02*
X203214285Y-58864342D01*
X203214285Y-58864342D02*
X203214285Y-58626247D01*
X203214285Y-58626247D02*
X203261904Y-58531009D01*
X203261904Y-58531009D02*
X203309523Y-58483390D01*
X203309523Y-58483390D02*
X203404761Y-58435771D01*
X203404761Y-58435771D02*
X203595237Y-58435771D01*
X203595237Y-58435771D02*
X203690475Y-58483390D01*
X203690475Y-58483390D02*
X203738094Y-58531009D01*
X203738094Y-58531009D02*
X203785713Y-58626247D01*
X112142857Y-68272819D02*
X112476190Y-67796628D01*
X112714285Y-68272819D02*
X112714285Y-67272819D01*
X112714285Y-67272819D02*
X112333333Y-67272819D01*
X112333333Y-67272819D02*
X112238095Y-67320438D01*
X112238095Y-67320438D02*
X112190476Y-67368057D01*
X112190476Y-67368057D02*
X112142857Y-67463295D01*
X112142857Y-67463295D02*
X112142857Y-67606152D01*
X112142857Y-67606152D02*
X112190476Y-67701390D01*
X112190476Y-67701390D02*
X112238095Y-67749009D01*
X112238095Y-67749009D02*
X112333333Y-67796628D01*
X112333333Y-67796628D02*
X112714285Y-67796628D01*
X111761904Y-67368057D02*
X111714285Y-67320438D01*
X111714285Y-67320438D02*
X111619047Y-67272819D01*
X111619047Y-67272819D02*
X111380952Y-67272819D01*
X111380952Y-67272819D02*
X111285714Y-67320438D01*
X111285714Y-67320438D02*
X111238095Y-67368057D01*
X111238095Y-67368057D02*
X111190476Y-67463295D01*
X111190476Y-67463295D02*
X111190476Y-67558533D01*
X111190476Y-67558533D02*
X111238095Y-67701390D01*
X111238095Y-67701390D02*
X111809523Y-68272819D01*
X111809523Y-68272819D02*
X111190476Y-68272819D01*
X110714285Y-68272819D02*
X110523809Y-68272819D01*
X110523809Y-68272819D02*
X110428571Y-68225200D01*
X110428571Y-68225200D02*
X110380952Y-68177580D01*
X110380952Y-68177580D02*
X110285714Y-68034723D01*
X110285714Y-68034723D02*
X110238095Y-67844247D01*
X110238095Y-67844247D02*
X110238095Y-67463295D01*
X110238095Y-67463295D02*
X110285714Y-67368057D01*
X110285714Y-67368057D02*
X110333333Y-67320438D01*
X110333333Y-67320438D02*
X110428571Y-67272819D01*
X110428571Y-67272819D02*
X110619047Y-67272819D01*
X110619047Y-67272819D02*
X110714285Y-67320438D01*
X110714285Y-67320438D02*
X110761904Y-67368057D01*
X110761904Y-67368057D02*
X110809523Y-67463295D01*
X110809523Y-67463295D02*
X110809523Y-67701390D01*
X110809523Y-67701390D02*
X110761904Y-67796628D01*
X110761904Y-67796628D02*
X110714285Y-67844247D01*
X110714285Y-67844247D02*
X110619047Y-67891866D01*
X110619047Y-67891866D02*
X110428571Y-67891866D01*
X110428571Y-67891866D02*
X110333333Y-67844247D01*
X110333333Y-67844247D02*
X110285714Y-67796628D01*
X110285714Y-67796628D02*
X110238095Y-67701390D01*
X194442857Y-76892819D02*
X194776190Y-76416628D01*
X195014285Y-76892819D02*
X195014285Y-75892819D01*
X195014285Y-75892819D02*
X194633333Y-75892819D01*
X194633333Y-75892819D02*
X194538095Y-75940438D01*
X194538095Y-75940438D02*
X194490476Y-75988057D01*
X194490476Y-75988057D02*
X194442857Y-76083295D01*
X194442857Y-76083295D02*
X194442857Y-76226152D01*
X194442857Y-76226152D02*
X194490476Y-76321390D01*
X194490476Y-76321390D02*
X194538095Y-76369009D01*
X194538095Y-76369009D02*
X194633333Y-76416628D01*
X194633333Y-76416628D02*
X195014285Y-76416628D01*
X194061904Y-75988057D02*
X194014285Y-75940438D01*
X194014285Y-75940438D02*
X193919047Y-75892819D01*
X193919047Y-75892819D02*
X193680952Y-75892819D01*
X193680952Y-75892819D02*
X193585714Y-75940438D01*
X193585714Y-75940438D02*
X193538095Y-75988057D01*
X193538095Y-75988057D02*
X193490476Y-76083295D01*
X193490476Y-76083295D02*
X193490476Y-76178533D01*
X193490476Y-76178533D02*
X193538095Y-76321390D01*
X193538095Y-76321390D02*
X194109523Y-76892819D01*
X194109523Y-76892819D02*
X193490476Y-76892819D01*
X193157142Y-75892819D02*
X192490476Y-75892819D01*
X192490476Y-75892819D02*
X192919047Y-76892819D01*
X100718857Y-75130819D02*
X101052190Y-74654628D01*
X101290285Y-75130819D02*
X101290285Y-74130819D01*
X101290285Y-74130819D02*
X100909333Y-74130819D01*
X100909333Y-74130819D02*
X100814095Y-74178438D01*
X100814095Y-74178438D02*
X100766476Y-74226057D01*
X100766476Y-74226057D02*
X100718857Y-74321295D01*
X100718857Y-74321295D02*
X100718857Y-74464152D01*
X100718857Y-74464152D02*
X100766476Y-74559390D01*
X100766476Y-74559390D02*
X100814095Y-74607009D01*
X100814095Y-74607009D02*
X100909333Y-74654628D01*
X100909333Y-74654628D02*
X101290285Y-74654628D01*
X100337904Y-74226057D02*
X100290285Y-74178438D01*
X100290285Y-74178438D02*
X100195047Y-74130819D01*
X100195047Y-74130819D02*
X99956952Y-74130819D01*
X99956952Y-74130819D02*
X99861714Y-74178438D01*
X99861714Y-74178438D02*
X99814095Y-74226057D01*
X99814095Y-74226057D02*
X99766476Y-74321295D01*
X99766476Y-74321295D02*
X99766476Y-74416533D01*
X99766476Y-74416533D02*
X99814095Y-74559390D01*
X99814095Y-74559390D02*
X100385523Y-75130819D01*
X100385523Y-75130819D02*
X99766476Y-75130819D01*
X98814095Y-75130819D02*
X99385523Y-75130819D01*
X99099809Y-75130819D02*
X99099809Y-74130819D01*
X99099809Y-74130819D02*
X99195047Y-74273676D01*
X99195047Y-74273676D02*
X99290285Y-74368914D01*
X99290285Y-74368914D02*
X99385523Y-74416533D01*
X139866666Y-59054819D02*
X140199999Y-58578628D01*
X140438094Y-59054819D02*
X140438094Y-58054819D01*
X140438094Y-58054819D02*
X140057142Y-58054819D01*
X140057142Y-58054819D02*
X139961904Y-58102438D01*
X139961904Y-58102438D02*
X139914285Y-58150057D01*
X139914285Y-58150057D02*
X139866666Y-58245295D01*
X139866666Y-58245295D02*
X139866666Y-58388152D01*
X139866666Y-58388152D02*
X139914285Y-58483390D01*
X139914285Y-58483390D02*
X139961904Y-58531009D01*
X139961904Y-58531009D02*
X140057142Y-58578628D01*
X140057142Y-58578628D02*
X140438094Y-58578628D01*
X139295237Y-58483390D02*
X139390475Y-58435771D01*
X139390475Y-58435771D02*
X139438094Y-58388152D01*
X139438094Y-58388152D02*
X139485713Y-58292914D01*
X139485713Y-58292914D02*
X139485713Y-58245295D01*
X139485713Y-58245295D02*
X139438094Y-58150057D01*
X139438094Y-58150057D02*
X139390475Y-58102438D01*
X139390475Y-58102438D02*
X139295237Y-58054819D01*
X139295237Y-58054819D02*
X139104761Y-58054819D01*
X139104761Y-58054819D02*
X139009523Y-58102438D01*
X139009523Y-58102438D02*
X138961904Y-58150057D01*
X138961904Y-58150057D02*
X138914285Y-58245295D01*
X138914285Y-58245295D02*
X138914285Y-58292914D01*
X138914285Y-58292914D02*
X138961904Y-58388152D01*
X138961904Y-58388152D02*
X139009523Y-58435771D01*
X139009523Y-58435771D02*
X139104761Y-58483390D01*
X139104761Y-58483390D02*
X139295237Y-58483390D01*
X139295237Y-58483390D02*
X139390475Y-58531009D01*
X139390475Y-58531009D02*
X139438094Y-58578628D01*
X139438094Y-58578628D02*
X139485713Y-58673866D01*
X139485713Y-58673866D02*
X139485713Y-58864342D01*
X139485713Y-58864342D02*
X139438094Y-58959580D01*
X139438094Y-58959580D02*
X139390475Y-59007200D01*
X139390475Y-59007200D02*
X139295237Y-59054819D01*
X139295237Y-59054819D02*
X139104761Y-59054819D01*
X139104761Y-59054819D02*
X139009523Y-59007200D01*
X139009523Y-59007200D02*
X138961904Y-58959580D01*
X138961904Y-58959580D02*
X138914285Y-58864342D01*
X138914285Y-58864342D02*
X138914285Y-58673866D01*
X138914285Y-58673866D02*
X138961904Y-58578628D01*
X138961904Y-58578628D02*
X139009523Y-58531009D01*
X139009523Y-58531009D02*
X139104761Y-58483390D01*
X178342857Y-59054819D02*
X178676190Y-58578628D01*
X178914285Y-59054819D02*
X178914285Y-58054819D01*
X178914285Y-58054819D02*
X178533333Y-58054819D01*
X178533333Y-58054819D02*
X178438095Y-58102438D01*
X178438095Y-58102438D02*
X178390476Y-58150057D01*
X178390476Y-58150057D02*
X178342857Y-58245295D01*
X178342857Y-58245295D02*
X178342857Y-58388152D01*
X178342857Y-58388152D02*
X178390476Y-58483390D01*
X178390476Y-58483390D02*
X178438095Y-58531009D01*
X178438095Y-58531009D02*
X178533333Y-58578628D01*
X178533333Y-58578628D02*
X178914285Y-58578628D01*
X177390476Y-59054819D02*
X177961904Y-59054819D01*
X177676190Y-59054819D02*
X177676190Y-58054819D01*
X177676190Y-58054819D02*
X177771428Y-58197676D01*
X177771428Y-58197676D02*
X177866666Y-58292914D01*
X177866666Y-58292914D02*
X177961904Y-58340533D01*
X177057142Y-58054819D02*
X176438095Y-58054819D01*
X176438095Y-58054819D02*
X176771428Y-58435771D01*
X176771428Y-58435771D02*
X176628571Y-58435771D01*
X176628571Y-58435771D02*
X176533333Y-58483390D01*
X176533333Y-58483390D02*
X176485714Y-58531009D01*
X176485714Y-58531009D02*
X176438095Y-58626247D01*
X176438095Y-58626247D02*
X176438095Y-58864342D01*
X176438095Y-58864342D02*
X176485714Y-58959580D01*
X176485714Y-58959580D02*
X176533333Y-59007200D01*
X176533333Y-59007200D02*
X176628571Y-59054819D01*
X176628571Y-59054819D02*
X176914285Y-59054819D01*
X176914285Y-59054819D02*
X177009523Y-59007200D01*
X177009523Y-59007200D02*
X177057142Y-58959580D01*
X154820857Y-81718819D02*
X155154190Y-81242628D01*
X155392285Y-81718819D02*
X155392285Y-80718819D01*
X155392285Y-80718819D02*
X155011333Y-80718819D01*
X155011333Y-80718819D02*
X154916095Y-80766438D01*
X154916095Y-80766438D02*
X154868476Y-80814057D01*
X154868476Y-80814057D02*
X154820857Y-80909295D01*
X154820857Y-80909295D02*
X154820857Y-81052152D01*
X154820857Y-81052152D02*
X154868476Y-81147390D01*
X154868476Y-81147390D02*
X154916095Y-81195009D01*
X154916095Y-81195009D02*
X155011333Y-81242628D01*
X155011333Y-81242628D02*
X155392285Y-81242628D01*
X154439904Y-80814057D02*
X154392285Y-80766438D01*
X154392285Y-80766438D02*
X154297047Y-80718819D01*
X154297047Y-80718819D02*
X154058952Y-80718819D01*
X154058952Y-80718819D02*
X153963714Y-80766438D01*
X153963714Y-80766438D02*
X153916095Y-80814057D01*
X153916095Y-80814057D02*
X153868476Y-80909295D01*
X153868476Y-80909295D02*
X153868476Y-81004533D01*
X153868476Y-81004533D02*
X153916095Y-81147390D01*
X153916095Y-81147390D02*
X154487523Y-81718819D01*
X154487523Y-81718819D02*
X153868476Y-81718819D01*
X152963714Y-80718819D02*
X153439904Y-80718819D01*
X153439904Y-80718819D02*
X153487523Y-81195009D01*
X153487523Y-81195009D02*
X153439904Y-81147390D01*
X153439904Y-81147390D02*
X153344666Y-81099771D01*
X153344666Y-81099771D02*
X153106571Y-81099771D01*
X153106571Y-81099771D02*
X153011333Y-81147390D01*
X153011333Y-81147390D02*
X152963714Y-81195009D01*
X152963714Y-81195009D02*
X152916095Y-81290247D01*
X152916095Y-81290247D02*
X152916095Y-81528342D01*
X152916095Y-81528342D02*
X152963714Y-81623580D01*
X152963714Y-81623580D02*
X153011333Y-81671200D01*
X153011333Y-81671200D02*
X153106571Y-81718819D01*
X153106571Y-81718819D02*
X153344666Y-81718819D01*
X153344666Y-81718819D02*
X153439904Y-81671200D01*
X153439904Y-81671200D02*
X153487523Y-81623580D01*
X201142857Y-59054819D02*
X201476190Y-58578628D01*
X201714285Y-59054819D02*
X201714285Y-58054819D01*
X201714285Y-58054819D02*
X201333333Y-58054819D01*
X201333333Y-58054819D02*
X201238095Y-58102438D01*
X201238095Y-58102438D02*
X201190476Y-58150057D01*
X201190476Y-58150057D02*
X201142857Y-58245295D01*
X201142857Y-58245295D02*
X201142857Y-58388152D01*
X201142857Y-58388152D02*
X201190476Y-58483390D01*
X201190476Y-58483390D02*
X201238095Y-58531009D01*
X201238095Y-58531009D02*
X201333333Y-58578628D01*
X201333333Y-58578628D02*
X201714285Y-58578628D01*
X200190476Y-59054819D02*
X200761904Y-59054819D01*
X200476190Y-59054819D02*
X200476190Y-58054819D01*
X200476190Y-58054819D02*
X200571428Y-58197676D01*
X200571428Y-58197676D02*
X200666666Y-58292914D01*
X200666666Y-58292914D02*
X200761904Y-58340533D01*
X199333333Y-58054819D02*
X199523809Y-58054819D01*
X199523809Y-58054819D02*
X199619047Y-58102438D01*
X199619047Y-58102438D02*
X199666666Y-58150057D01*
X199666666Y-58150057D02*
X199761904Y-58292914D01*
X199761904Y-58292914D02*
X199809523Y-58483390D01*
X199809523Y-58483390D02*
X199809523Y-58864342D01*
X199809523Y-58864342D02*
X199761904Y-58959580D01*
X199761904Y-58959580D02*
X199714285Y-59007200D01*
X199714285Y-59007200D02*
X199619047Y-59054819D01*
X199619047Y-59054819D02*
X199428571Y-59054819D01*
X199428571Y-59054819D02*
X199333333Y-59007200D01*
X199333333Y-59007200D02*
X199285714Y-58959580D01*
X199285714Y-58959580D02*
X199238095Y-58864342D01*
X199238095Y-58864342D02*
X199238095Y-58626247D01*
X199238095Y-58626247D02*
X199285714Y-58531009D01*
X199285714Y-58531009D02*
X199333333Y-58483390D01*
X199333333Y-58483390D02*
X199428571Y-58435771D01*
X199428571Y-58435771D02*
X199619047Y-58435771D01*
X199619047Y-58435771D02*
X199714285Y-58483390D01*
X199714285Y-58483390D02*
X199761904Y-58531009D01*
X199761904Y-58531009D02*
X199809523Y-58626247D01*
X100718857Y-77670819D02*
X101052190Y-77194628D01*
X101290285Y-77670819D02*
X101290285Y-76670819D01*
X101290285Y-76670819D02*
X100909333Y-76670819D01*
X100909333Y-76670819D02*
X100814095Y-76718438D01*
X100814095Y-76718438D02*
X100766476Y-76766057D01*
X100766476Y-76766057D02*
X100718857Y-76861295D01*
X100718857Y-76861295D02*
X100718857Y-77004152D01*
X100718857Y-77004152D02*
X100766476Y-77099390D01*
X100766476Y-77099390D02*
X100814095Y-77147009D01*
X100814095Y-77147009D02*
X100909333Y-77194628D01*
X100909333Y-77194628D02*
X101290285Y-77194628D01*
X100337904Y-76766057D02*
X100290285Y-76718438D01*
X100290285Y-76718438D02*
X100195047Y-76670819D01*
X100195047Y-76670819D02*
X99956952Y-76670819D01*
X99956952Y-76670819D02*
X99861714Y-76718438D01*
X99861714Y-76718438D02*
X99814095Y-76766057D01*
X99814095Y-76766057D02*
X99766476Y-76861295D01*
X99766476Y-76861295D02*
X99766476Y-76956533D01*
X99766476Y-76956533D02*
X99814095Y-77099390D01*
X99814095Y-77099390D02*
X100385523Y-77670819D01*
X100385523Y-77670819D02*
X99766476Y-77670819D01*
X99385523Y-76766057D02*
X99337904Y-76718438D01*
X99337904Y-76718438D02*
X99242666Y-76670819D01*
X99242666Y-76670819D02*
X99004571Y-76670819D01*
X99004571Y-76670819D02*
X98909333Y-76718438D01*
X98909333Y-76718438D02*
X98861714Y-76766057D01*
X98861714Y-76766057D02*
X98814095Y-76861295D01*
X98814095Y-76861295D02*
X98814095Y-76956533D01*
X98814095Y-76956533D02*
X98861714Y-77099390D01*
X98861714Y-77099390D02*
X99433142Y-77670819D01*
X99433142Y-77670819D02*
X98814095Y-77670819D01*
X166971428Y-59150057D02*
X167066666Y-59102438D01*
X167066666Y-59102438D02*
X167161904Y-59007200D01*
X167161904Y-59007200D02*
X167304761Y-58864342D01*
X167304761Y-58864342D02*
X167399999Y-58816723D01*
X167399999Y-58816723D02*
X167495237Y-58816723D01*
X167447618Y-59054819D02*
X167542856Y-59007200D01*
X167542856Y-59007200D02*
X167638094Y-58911961D01*
X167638094Y-58911961D02*
X167685713Y-58721485D01*
X167685713Y-58721485D02*
X167685713Y-58388152D01*
X167685713Y-58388152D02*
X167638094Y-58197676D01*
X167638094Y-58197676D02*
X167542856Y-58102438D01*
X167542856Y-58102438D02*
X167447618Y-58054819D01*
X167447618Y-58054819D02*
X167257142Y-58054819D01*
X167257142Y-58054819D02*
X167161904Y-58102438D01*
X167161904Y-58102438D02*
X167066666Y-58197676D01*
X167066666Y-58197676D02*
X167019047Y-58388152D01*
X167019047Y-58388152D02*
X167019047Y-58721485D01*
X167019047Y-58721485D02*
X167066666Y-58911961D01*
X167066666Y-58911961D02*
X167161904Y-59007200D01*
X167161904Y-59007200D02*
X167257142Y-59054819D01*
X167257142Y-59054819D02*
X167447618Y-59054819D01*
X166066666Y-59054819D02*
X166638094Y-59054819D01*
X166352380Y-59054819D02*
X166352380Y-58054819D01*
X166352380Y-58054819D02*
X166447618Y-58197676D01*
X166447618Y-58197676D02*
X166542856Y-58292914D01*
X166542856Y-58292914D02*
X166638094Y-58340533D01*
X165114285Y-59054819D02*
X165685713Y-59054819D01*
X165399999Y-59054819D02*
X165399999Y-58054819D01*
X165399999Y-58054819D02*
X165495237Y-58197676D01*
X165495237Y-58197676D02*
X165590475Y-58292914D01*
X165590475Y-58292914D02*
X165685713Y-58340533D01*
X135995238Y-59150057D02*
X136090476Y-59102438D01*
X136090476Y-59102438D02*
X136185714Y-59007200D01*
X136185714Y-59007200D02*
X136328571Y-58864342D01*
X136328571Y-58864342D02*
X136423809Y-58816723D01*
X136423809Y-58816723D02*
X136519047Y-58816723D01*
X136471428Y-59054819D02*
X136566666Y-59007200D01*
X136566666Y-59007200D02*
X136661904Y-58911961D01*
X136661904Y-58911961D02*
X136709523Y-58721485D01*
X136709523Y-58721485D02*
X136709523Y-58388152D01*
X136709523Y-58388152D02*
X136661904Y-58197676D01*
X136661904Y-58197676D02*
X136566666Y-58102438D01*
X136566666Y-58102438D02*
X136471428Y-58054819D01*
X136471428Y-58054819D02*
X136280952Y-58054819D01*
X136280952Y-58054819D02*
X136185714Y-58102438D01*
X136185714Y-58102438D02*
X136090476Y-58197676D01*
X136090476Y-58197676D02*
X136042857Y-58388152D01*
X136042857Y-58388152D02*
X136042857Y-58721485D01*
X136042857Y-58721485D02*
X136090476Y-58911961D01*
X136090476Y-58911961D02*
X136185714Y-59007200D01*
X136185714Y-59007200D02*
X136280952Y-59054819D01*
X136280952Y-59054819D02*
X136471428Y-59054819D01*
X135709523Y-58054819D02*
X135042857Y-58054819D01*
X135042857Y-58054819D02*
X135471428Y-59054819D01*
X127276190Y-89878628D02*
X127276190Y-90354819D01*
X127609523Y-89354819D02*
X127276190Y-89878628D01*
X127276190Y-89878628D02*
X126942857Y-89354819D01*
X126085714Y-90354819D02*
X126657142Y-90354819D01*
X126371428Y-90354819D02*
X126371428Y-89354819D01*
X126371428Y-89354819D02*
X126466666Y-89497676D01*
X126466666Y-89497676D02*
X126561904Y-89592914D01*
X126561904Y-89592914D02*
X126657142Y-89640533D01*
X140418857Y-64102819D02*
X140752190Y-63626628D01*
X140990285Y-64102819D02*
X140990285Y-63102819D01*
X140990285Y-63102819D02*
X140609333Y-63102819D01*
X140609333Y-63102819D02*
X140514095Y-63150438D01*
X140514095Y-63150438D02*
X140466476Y-63198057D01*
X140466476Y-63198057D02*
X140418857Y-63293295D01*
X140418857Y-63293295D02*
X140418857Y-63436152D01*
X140418857Y-63436152D02*
X140466476Y-63531390D01*
X140466476Y-63531390D02*
X140514095Y-63579009D01*
X140514095Y-63579009D02*
X140609333Y-63626628D01*
X140609333Y-63626628D02*
X140990285Y-63626628D01*
X140085523Y-63102819D02*
X139466476Y-63102819D01*
X139466476Y-63102819D02*
X139799809Y-63483771D01*
X139799809Y-63483771D02*
X139656952Y-63483771D01*
X139656952Y-63483771D02*
X139561714Y-63531390D01*
X139561714Y-63531390D02*
X139514095Y-63579009D01*
X139514095Y-63579009D02*
X139466476Y-63674247D01*
X139466476Y-63674247D02*
X139466476Y-63912342D01*
X139466476Y-63912342D02*
X139514095Y-64007580D01*
X139514095Y-64007580D02*
X139561714Y-64055200D01*
X139561714Y-64055200D02*
X139656952Y-64102819D01*
X139656952Y-64102819D02*
X139942666Y-64102819D01*
X139942666Y-64102819D02*
X140037904Y-64055200D01*
X140037904Y-64055200D02*
X140085523Y-64007580D01*
X138847428Y-63102819D02*
X138752190Y-63102819D01*
X138752190Y-63102819D02*
X138656952Y-63150438D01*
X138656952Y-63150438D02*
X138609333Y-63198057D01*
X138609333Y-63198057D02*
X138561714Y-63293295D01*
X138561714Y-63293295D02*
X138514095Y-63483771D01*
X138514095Y-63483771D02*
X138514095Y-63721866D01*
X138514095Y-63721866D02*
X138561714Y-63912342D01*
X138561714Y-63912342D02*
X138609333Y-64007580D01*
X138609333Y-64007580D02*
X138656952Y-64055200D01*
X138656952Y-64055200D02*
X138752190Y-64102819D01*
X138752190Y-64102819D02*
X138847428Y-64102819D01*
X138847428Y-64102819D02*
X138942666Y-64055200D01*
X138942666Y-64055200D02*
X138990285Y-64007580D01*
X138990285Y-64007580D02*
X139037904Y-63912342D01*
X139037904Y-63912342D02*
X139085523Y-63721866D01*
X139085523Y-63721866D02*
X139085523Y-63483771D01*
X139085523Y-63483771D02*
X139037904Y-63293295D01*
X139037904Y-63293295D02*
X138990285Y-63198057D01*
X138990285Y-63198057D02*
X138942666Y-63150438D01*
X138942666Y-63150438D02*
X138847428Y-63102819D01*
X182171428Y-59150057D02*
X182266666Y-59102438D01*
X182266666Y-59102438D02*
X182361904Y-59007200D01*
X182361904Y-59007200D02*
X182504761Y-58864342D01*
X182504761Y-58864342D02*
X182599999Y-58816723D01*
X182599999Y-58816723D02*
X182695237Y-58816723D01*
X182647618Y-59054819D02*
X182742856Y-59007200D01*
X182742856Y-59007200D02*
X182838094Y-58911961D01*
X182838094Y-58911961D02*
X182885713Y-58721485D01*
X182885713Y-58721485D02*
X182885713Y-58388152D01*
X182885713Y-58388152D02*
X182838094Y-58197676D01*
X182838094Y-58197676D02*
X182742856Y-58102438D01*
X182742856Y-58102438D02*
X182647618Y-58054819D01*
X182647618Y-58054819D02*
X182457142Y-58054819D01*
X182457142Y-58054819D02*
X182361904Y-58102438D01*
X182361904Y-58102438D02*
X182266666Y-58197676D01*
X182266666Y-58197676D02*
X182219047Y-58388152D01*
X182219047Y-58388152D02*
X182219047Y-58721485D01*
X182219047Y-58721485D02*
X182266666Y-58911961D01*
X182266666Y-58911961D02*
X182361904Y-59007200D01*
X182361904Y-59007200D02*
X182457142Y-59054819D01*
X182457142Y-59054819D02*
X182647618Y-59054819D01*
X181266666Y-59054819D02*
X181838094Y-59054819D01*
X181552380Y-59054819D02*
X181552380Y-58054819D01*
X181552380Y-58054819D02*
X181647618Y-58197676D01*
X181647618Y-58197676D02*
X181742856Y-58292914D01*
X181742856Y-58292914D02*
X181838094Y-58340533D01*
X180933332Y-58054819D02*
X180314285Y-58054819D01*
X180314285Y-58054819D02*
X180647618Y-58435771D01*
X180647618Y-58435771D02*
X180504761Y-58435771D01*
X180504761Y-58435771D02*
X180409523Y-58483390D01*
X180409523Y-58483390D02*
X180361904Y-58531009D01*
X180361904Y-58531009D02*
X180314285Y-58626247D01*
X180314285Y-58626247D02*
X180314285Y-58864342D01*
X180314285Y-58864342D02*
X180361904Y-58959580D01*
X180361904Y-58959580D02*
X180409523Y-59007200D01*
X180409523Y-59007200D02*
X180504761Y-59054819D01*
X180504761Y-59054819D02*
X180790475Y-59054819D01*
X180790475Y-59054819D02*
X180885713Y-59007200D01*
X180885713Y-59007200D02*
X180933332Y-58959580D01*
X132191666Y-64045580D02*
X132239285Y-64093200D01*
X132239285Y-64093200D02*
X132382142Y-64140819D01*
X132382142Y-64140819D02*
X132477380Y-64140819D01*
X132477380Y-64140819D02*
X132620237Y-64093200D01*
X132620237Y-64093200D02*
X132715475Y-63997961D01*
X132715475Y-63997961D02*
X132763094Y-63902723D01*
X132763094Y-63902723D02*
X132810713Y-63712247D01*
X132810713Y-63712247D02*
X132810713Y-63569390D01*
X132810713Y-63569390D02*
X132763094Y-63378914D01*
X132763094Y-63378914D02*
X132715475Y-63283676D01*
X132715475Y-63283676D02*
X132620237Y-63188438D01*
X132620237Y-63188438D02*
X132477380Y-63140819D01*
X132477380Y-63140819D02*
X132382142Y-63140819D01*
X132382142Y-63140819D02*
X132239285Y-63188438D01*
X132239285Y-63188438D02*
X132191666Y-63236057D01*
X131334523Y-63474152D02*
X131334523Y-64140819D01*
X131572618Y-63093200D02*
X131810713Y-63807485D01*
X131810713Y-63807485D02*
X131191666Y-63807485D01*
X116966666Y-59054819D02*
X117299999Y-58578628D01*
X117538094Y-59054819D02*
X117538094Y-58054819D01*
X117538094Y-58054819D02*
X117157142Y-58054819D01*
X117157142Y-58054819D02*
X117061904Y-58102438D01*
X117061904Y-58102438D02*
X117014285Y-58150057D01*
X117014285Y-58150057D02*
X116966666Y-58245295D01*
X116966666Y-58245295D02*
X116966666Y-58388152D01*
X116966666Y-58388152D02*
X117014285Y-58483390D01*
X117014285Y-58483390D02*
X117061904Y-58531009D01*
X117061904Y-58531009D02*
X117157142Y-58578628D01*
X117157142Y-58578628D02*
X117538094Y-58578628D01*
X116061904Y-58054819D02*
X116538094Y-58054819D01*
X116538094Y-58054819D02*
X116585713Y-58531009D01*
X116585713Y-58531009D02*
X116538094Y-58483390D01*
X116538094Y-58483390D02*
X116442856Y-58435771D01*
X116442856Y-58435771D02*
X116204761Y-58435771D01*
X116204761Y-58435771D02*
X116109523Y-58483390D01*
X116109523Y-58483390D02*
X116061904Y-58531009D01*
X116061904Y-58531009D02*
X116014285Y-58626247D01*
X116014285Y-58626247D02*
X116014285Y-58864342D01*
X116014285Y-58864342D02*
X116061904Y-58959580D01*
X116061904Y-58959580D02*
X116109523Y-59007200D01*
X116109523Y-59007200D02*
X116204761Y-59054819D01*
X116204761Y-59054819D02*
X116442856Y-59054819D01*
X116442856Y-59054819D02*
X116538094Y-59007200D01*
X116538094Y-59007200D02*
X116585713Y-58959580D01*
X101866666Y-59054819D02*
X102199999Y-58578628D01*
X102438094Y-59054819D02*
X102438094Y-58054819D01*
X102438094Y-58054819D02*
X102057142Y-58054819D01*
X102057142Y-58054819D02*
X101961904Y-58102438D01*
X101961904Y-58102438D02*
X101914285Y-58150057D01*
X101914285Y-58150057D02*
X101866666Y-58245295D01*
X101866666Y-58245295D02*
X101866666Y-58388152D01*
X101866666Y-58388152D02*
X101914285Y-58483390D01*
X101914285Y-58483390D02*
X101961904Y-58531009D01*
X101961904Y-58531009D02*
X102057142Y-58578628D01*
X102057142Y-58578628D02*
X102438094Y-58578628D01*
X101533332Y-58054819D02*
X100914285Y-58054819D01*
X100914285Y-58054819D02*
X101247618Y-58435771D01*
X101247618Y-58435771D02*
X101104761Y-58435771D01*
X101104761Y-58435771D02*
X101009523Y-58483390D01*
X101009523Y-58483390D02*
X100961904Y-58531009D01*
X100961904Y-58531009D02*
X100914285Y-58626247D01*
X100914285Y-58626247D02*
X100914285Y-58864342D01*
X100914285Y-58864342D02*
X100961904Y-58959580D01*
X100961904Y-58959580D02*
X101009523Y-59007200D01*
X101009523Y-59007200D02*
X101104761Y-59054819D01*
X101104761Y-59054819D02*
X101390475Y-59054819D01*
X101390475Y-59054819D02*
X101485713Y-59007200D01*
X101485713Y-59007200D02*
X101533332Y-58959580D01*
X109366666Y-59054819D02*
X109699999Y-58578628D01*
X109938094Y-59054819D02*
X109938094Y-58054819D01*
X109938094Y-58054819D02*
X109557142Y-58054819D01*
X109557142Y-58054819D02*
X109461904Y-58102438D01*
X109461904Y-58102438D02*
X109414285Y-58150057D01*
X109414285Y-58150057D02*
X109366666Y-58245295D01*
X109366666Y-58245295D02*
X109366666Y-58388152D01*
X109366666Y-58388152D02*
X109414285Y-58483390D01*
X109414285Y-58483390D02*
X109461904Y-58531009D01*
X109461904Y-58531009D02*
X109557142Y-58578628D01*
X109557142Y-58578628D02*
X109938094Y-58578628D01*
X108509523Y-58388152D02*
X108509523Y-59054819D01*
X108747618Y-58007200D02*
X108985713Y-58721485D01*
X108985713Y-58721485D02*
X108366666Y-58721485D01*
X135442857Y-64154819D02*
X135776190Y-63678628D01*
X136014285Y-64154819D02*
X136014285Y-63154819D01*
X136014285Y-63154819D02*
X135633333Y-63154819D01*
X135633333Y-63154819D02*
X135538095Y-63202438D01*
X135538095Y-63202438D02*
X135490476Y-63250057D01*
X135490476Y-63250057D02*
X135442857Y-63345295D01*
X135442857Y-63345295D02*
X135442857Y-63488152D01*
X135442857Y-63488152D02*
X135490476Y-63583390D01*
X135490476Y-63583390D02*
X135538095Y-63631009D01*
X135538095Y-63631009D02*
X135633333Y-63678628D01*
X135633333Y-63678628D02*
X136014285Y-63678628D01*
X135109523Y-63154819D02*
X134490476Y-63154819D01*
X134490476Y-63154819D02*
X134823809Y-63535771D01*
X134823809Y-63535771D02*
X134680952Y-63535771D01*
X134680952Y-63535771D02*
X134585714Y-63583390D01*
X134585714Y-63583390D02*
X134538095Y-63631009D01*
X134538095Y-63631009D02*
X134490476Y-63726247D01*
X134490476Y-63726247D02*
X134490476Y-63964342D01*
X134490476Y-63964342D02*
X134538095Y-64059580D01*
X134538095Y-64059580D02*
X134585714Y-64107200D01*
X134585714Y-64107200D02*
X134680952Y-64154819D01*
X134680952Y-64154819D02*
X134966666Y-64154819D01*
X134966666Y-64154819D02*
X135061904Y-64107200D01*
X135061904Y-64107200D02*
X135109523Y-64059580D01*
X133538095Y-64154819D02*
X134109523Y-64154819D01*
X133823809Y-64154819D02*
X133823809Y-63154819D01*
X133823809Y-63154819D02*
X133919047Y-63297676D01*
X133919047Y-63297676D02*
X134014285Y-63392914D01*
X134014285Y-63392914D02*
X134109523Y-63440533D01*
X128766666Y-82159580D02*
X128814285Y-82207200D01*
X128814285Y-82207200D02*
X128957142Y-82254819D01*
X128957142Y-82254819D02*
X129052380Y-82254819D01*
X129052380Y-82254819D02*
X129195237Y-82207200D01*
X129195237Y-82207200D02*
X129290475Y-82111961D01*
X129290475Y-82111961D02*
X129338094Y-82016723D01*
X129338094Y-82016723D02*
X129385713Y-81826247D01*
X129385713Y-81826247D02*
X129385713Y-81683390D01*
X129385713Y-81683390D02*
X129338094Y-81492914D01*
X129338094Y-81492914D02*
X129290475Y-81397676D01*
X129290475Y-81397676D02*
X129195237Y-81302438D01*
X129195237Y-81302438D02*
X129052380Y-81254819D01*
X129052380Y-81254819D02*
X128957142Y-81254819D01*
X128957142Y-81254819D02*
X128814285Y-81302438D01*
X128814285Y-81302438D02*
X128766666Y-81350057D01*
X128195237Y-81683390D02*
X128290475Y-81635771D01*
X128290475Y-81635771D02*
X128338094Y-81588152D01*
X128338094Y-81588152D02*
X128385713Y-81492914D01*
X128385713Y-81492914D02*
X128385713Y-81445295D01*
X128385713Y-81445295D02*
X128338094Y-81350057D01*
X128338094Y-81350057D02*
X128290475Y-81302438D01*
X128290475Y-81302438D02*
X128195237Y-81254819D01*
X128195237Y-81254819D02*
X128004761Y-81254819D01*
X128004761Y-81254819D02*
X127909523Y-81302438D01*
X127909523Y-81302438D02*
X127861904Y-81350057D01*
X127861904Y-81350057D02*
X127814285Y-81445295D01*
X127814285Y-81445295D02*
X127814285Y-81492914D01*
X127814285Y-81492914D02*
X127861904Y-81588152D01*
X127861904Y-81588152D02*
X127909523Y-81635771D01*
X127909523Y-81635771D02*
X128004761Y-81683390D01*
X128004761Y-81683390D02*
X128195237Y-81683390D01*
X128195237Y-81683390D02*
X128290475Y-81731009D01*
X128290475Y-81731009D02*
X128338094Y-81778628D01*
X128338094Y-81778628D02*
X128385713Y-81873866D01*
X128385713Y-81873866D02*
X128385713Y-82064342D01*
X128385713Y-82064342D02*
X128338094Y-82159580D01*
X128338094Y-82159580D02*
X128290475Y-82207200D01*
X128290475Y-82207200D02*
X128195237Y-82254819D01*
X128195237Y-82254819D02*
X128004761Y-82254819D01*
X128004761Y-82254819D02*
X127909523Y-82207200D01*
X127909523Y-82207200D02*
X127861904Y-82159580D01*
X127861904Y-82159580D02*
X127814285Y-82064342D01*
X127814285Y-82064342D02*
X127814285Y-81873866D01*
X127814285Y-81873866D02*
X127861904Y-81778628D01*
X127861904Y-81778628D02*
X127909523Y-81731009D01*
X127909523Y-81731009D02*
X128004761Y-81683390D01*
X94595238Y-61950057D02*
X94690476Y-61902438D01*
X94690476Y-61902438D02*
X94785714Y-61807200D01*
X94785714Y-61807200D02*
X94928571Y-61664342D01*
X94928571Y-61664342D02*
X95023809Y-61616723D01*
X95023809Y-61616723D02*
X95119047Y-61616723D01*
X95071428Y-61854819D02*
X95166666Y-61807200D01*
X95166666Y-61807200D02*
X95261904Y-61711961D01*
X95261904Y-61711961D02*
X95309523Y-61521485D01*
X95309523Y-61521485D02*
X95309523Y-61188152D01*
X95309523Y-61188152D02*
X95261904Y-60997676D01*
X95261904Y-60997676D02*
X95166666Y-60902438D01*
X95166666Y-60902438D02*
X95071428Y-60854819D01*
X95071428Y-60854819D02*
X94880952Y-60854819D01*
X94880952Y-60854819D02*
X94785714Y-60902438D01*
X94785714Y-60902438D02*
X94690476Y-60997676D01*
X94690476Y-60997676D02*
X94642857Y-61188152D01*
X94642857Y-61188152D02*
X94642857Y-61521485D01*
X94642857Y-61521485D02*
X94690476Y-61711961D01*
X94690476Y-61711961D02*
X94785714Y-61807200D01*
X94785714Y-61807200D02*
X94880952Y-61854819D01*
X94880952Y-61854819D02*
X95071428Y-61854819D01*
X93690476Y-61854819D02*
X94261904Y-61854819D01*
X93976190Y-61854819D02*
X93976190Y-60854819D01*
X93976190Y-60854819D02*
X94071428Y-60997676D01*
X94071428Y-60997676D02*
X94166666Y-61092914D01*
X94166666Y-61092914D02*
X94261904Y-61140533D01*
X151195238Y-59150057D02*
X151290476Y-59102438D01*
X151290476Y-59102438D02*
X151385714Y-59007200D01*
X151385714Y-59007200D02*
X151528571Y-58864342D01*
X151528571Y-58864342D02*
X151623809Y-58816723D01*
X151623809Y-58816723D02*
X151719047Y-58816723D01*
X151671428Y-59054819D02*
X151766666Y-59007200D01*
X151766666Y-59007200D02*
X151861904Y-58911961D01*
X151861904Y-58911961D02*
X151909523Y-58721485D01*
X151909523Y-58721485D02*
X151909523Y-58388152D01*
X151909523Y-58388152D02*
X151861904Y-58197676D01*
X151861904Y-58197676D02*
X151766666Y-58102438D01*
X151766666Y-58102438D02*
X151671428Y-58054819D01*
X151671428Y-58054819D02*
X151480952Y-58054819D01*
X151480952Y-58054819D02*
X151385714Y-58102438D01*
X151385714Y-58102438D02*
X151290476Y-58197676D01*
X151290476Y-58197676D02*
X151242857Y-58388152D01*
X151242857Y-58388152D02*
X151242857Y-58721485D01*
X151242857Y-58721485D02*
X151290476Y-58911961D01*
X151290476Y-58911961D02*
X151385714Y-59007200D01*
X151385714Y-59007200D02*
X151480952Y-59054819D01*
X151480952Y-59054819D02*
X151671428Y-59054819D01*
X150766666Y-59054819D02*
X150576190Y-59054819D01*
X150576190Y-59054819D02*
X150480952Y-59007200D01*
X150480952Y-59007200D02*
X150433333Y-58959580D01*
X150433333Y-58959580D02*
X150338095Y-58816723D01*
X150338095Y-58816723D02*
X150290476Y-58626247D01*
X150290476Y-58626247D02*
X150290476Y-58245295D01*
X150290476Y-58245295D02*
X150338095Y-58150057D01*
X150338095Y-58150057D02*
X150385714Y-58102438D01*
X150385714Y-58102438D02*
X150480952Y-58054819D01*
X150480952Y-58054819D02*
X150671428Y-58054819D01*
X150671428Y-58054819D02*
X150766666Y-58102438D01*
X150766666Y-58102438D02*
X150814285Y-58150057D01*
X150814285Y-58150057D02*
X150861904Y-58245295D01*
X150861904Y-58245295D02*
X150861904Y-58483390D01*
X150861904Y-58483390D02*
X150814285Y-58578628D01*
X150814285Y-58578628D02*
X150766666Y-58626247D01*
X150766666Y-58626247D02*
X150671428Y-58673866D01*
X150671428Y-58673866D02*
X150480952Y-58673866D01*
X150480952Y-58673866D02*
X150385714Y-58626247D01*
X150385714Y-58626247D02*
X150338095Y-58578628D01*
X150338095Y-58578628D02*
X150290476Y-58483390D01*
X123666666Y-92859580D02*
X123714285Y-92907200D01*
X123714285Y-92907200D02*
X123857142Y-92954819D01*
X123857142Y-92954819D02*
X123952380Y-92954819D01*
X123952380Y-92954819D02*
X124095237Y-92907200D01*
X124095237Y-92907200D02*
X124190475Y-92811961D01*
X124190475Y-92811961D02*
X124238094Y-92716723D01*
X124238094Y-92716723D02*
X124285713Y-92526247D01*
X124285713Y-92526247D02*
X124285713Y-92383390D01*
X124285713Y-92383390D02*
X124238094Y-92192914D01*
X124238094Y-92192914D02*
X124190475Y-92097676D01*
X124190475Y-92097676D02*
X124095237Y-92002438D01*
X124095237Y-92002438D02*
X123952380Y-91954819D01*
X123952380Y-91954819D02*
X123857142Y-91954819D01*
X123857142Y-91954819D02*
X123714285Y-92002438D01*
X123714285Y-92002438D02*
X123666666Y-92050057D01*
X123285713Y-92050057D02*
X123238094Y-92002438D01*
X123238094Y-92002438D02*
X123142856Y-91954819D01*
X123142856Y-91954819D02*
X122904761Y-91954819D01*
X122904761Y-91954819D02*
X122809523Y-92002438D01*
X122809523Y-92002438D02*
X122761904Y-92050057D01*
X122761904Y-92050057D02*
X122714285Y-92145295D01*
X122714285Y-92145295D02*
X122714285Y-92240533D01*
X122714285Y-92240533D02*
X122761904Y-92383390D01*
X122761904Y-92383390D02*
X123333332Y-92954819D01*
X123333332Y-92954819D02*
X122714285Y-92954819D01*
X130961904Y-78454819D02*
X130961904Y-79264342D01*
X130961904Y-79264342D02*
X130914285Y-79359580D01*
X130914285Y-79359580D02*
X130866666Y-79407200D01*
X130866666Y-79407200D02*
X130771428Y-79454819D01*
X130771428Y-79454819D02*
X130580952Y-79454819D01*
X130580952Y-79454819D02*
X130485714Y-79407200D01*
X130485714Y-79407200D02*
X130438095Y-79359580D01*
X130438095Y-79359580D02*
X130390476Y-79264342D01*
X130390476Y-79264342D02*
X130390476Y-78454819D01*
X129390476Y-79454819D02*
X129961904Y-79454819D01*
X129676190Y-79454819D02*
X129676190Y-78454819D01*
X129676190Y-78454819D02*
X129771428Y-78597676D01*
X129771428Y-78597676D02*
X129866666Y-78692914D01*
X129866666Y-78692914D02*
X129961904Y-78740533D01*
X100718857Y-72590819D02*
X101052190Y-72114628D01*
X101290285Y-72590819D02*
X101290285Y-71590819D01*
X101290285Y-71590819D02*
X100909333Y-71590819D01*
X100909333Y-71590819D02*
X100814095Y-71638438D01*
X100814095Y-71638438D02*
X100766476Y-71686057D01*
X100766476Y-71686057D02*
X100718857Y-71781295D01*
X100718857Y-71781295D02*
X100718857Y-71924152D01*
X100718857Y-71924152D02*
X100766476Y-72019390D01*
X100766476Y-72019390D02*
X100814095Y-72067009D01*
X100814095Y-72067009D02*
X100909333Y-72114628D01*
X100909333Y-72114628D02*
X101290285Y-72114628D01*
X100337904Y-71686057D02*
X100290285Y-71638438D01*
X100290285Y-71638438D02*
X100195047Y-71590819D01*
X100195047Y-71590819D02*
X99956952Y-71590819D01*
X99956952Y-71590819D02*
X99861714Y-71638438D01*
X99861714Y-71638438D02*
X99814095Y-71686057D01*
X99814095Y-71686057D02*
X99766476Y-71781295D01*
X99766476Y-71781295D02*
X99766476Y-71876533D01*
X99766476Y-71876533D02*
X99814095Y-72019390D01*
X99814095Y-72019390D02*
X100385523Y-72590819D01*
X100385523Y-72590819D02*
X99766476Y-72590819D01*
X99147428Y-71590819D02*
X99052190Y-71590819D01*
X99052190Y-71590819D02*
X98956952Y-71638438D01*
X98956952Y-71638438D02*
X98909333Y-71686057D01*
X98909333Y-71686057D02*
X98861714Y-71781295D01*
X98861714Y-71781295D02*
X98814095Y-71971771D01*
X98814095Y-71971771D02*
X98814095Y-72209866D01*
X98814095Y-72209866D02*
X98861714Y-72400342D01*
X98861714Y-72400342D02*
X98909333Y-72495580D01*
X98909333Y-72495580D02*
X98956952Y-72543200D01*
X98956952Y-72543200D02*
X99052190Y-72590819D01*
X99052190Y-72590819D02*
X99147428Y-72590819D01*
X99147428Y-72590819D02*
X99242666Y-72543200D01*
X99242666Y-72543200D02*
X99290285Y-72495580D01*
X99290285Y-72495580D02*
X99337904Y-72400342D01*
X99337904Y-72400342D02*
X99385523Y-72209866D01*
X99385523Y-72209866D02*
X99385523Y-71971771D01*
X99385523Y-71971771D02*
X99337904Y-71781295D01*
X99337904Y-71781295D02*
X99290285Y-71686057D01*
X99290285Y-71686057D02*
X99242666Y-71638438D01*
X99242666Y-71638438D02*
X99147428Y-71590819D01*
X124666666Y-59054819D02*
X124999999Y-58578628D01*
X125238094Y-59054819D02*
X125238094Y-58054819D01*
X125238094Y-58054819D02*
X124857142Y-58054819D01*
X124857142Y-58054819D02*
X124761904Y-58102438D01*
X124761904Y-58102438D02*
X124714285Y-58150057D01*
X124714285Y-58150057D02*
X124666666Y-58245295D01*
X124666666Y-58245295D02*
X124666666Y-58388152D01*
X124666666Y-58388152D02*
X124714285Y-58483390D01*
X124714285Y-58483390D02*
X124761904Y-58531009D01*
X124761904Y-58531009D02*
X124857142Y-58578628D01*
X124857142Y-58578628D02*
X125238094Y-58578628D01*
X123809523Y-58054819D02*
X123999999Y-58054819D01*
X123999999Y-58054819D02*
X124095237Y-58102438D01*
X124095237Y-58102438D02*
X124142856Y-58150057D01*
X124142856Y-58150057D02*
X124238094Y-58292914D01*
X124238094Y-58292914D02*
X124285713Y-58483390D01*
X124285713Y-58483390D02*
X124285713Y-58864342D01*
X124285713Y-58864342D02*
X124238094Y-58959580D01*
X124238094Y-58959580D02*
X124190475Y-59007200D01*
X124190475Y-59007200D02*
X124095237Y-59054819D01*
X124095237Y-59054819D02*
X123904761Y-59054819D01*
X123904761Y-59054819D02*
X123809523Y-59007200D01*
X123809523Y-59007200D02*
X123761904Y-58959580D01*
X123761904Y-58959580D02*
X123714285Y-58864342D01*
X123714285Y-58864342D02*
X123714285Y-58626247D01*
X123714285Y-58626247D02*
X123761904Y-58531009D01*
X123761904Y-58531009D02*
X123809523Y-58483390D01*
X123809523Y-58483390D02*
X123904761Y-58435771D01*
X123904761Y-58435771D02*
X124095237Y-58435771D01*
X124095237Y-58435771D02*
X124190475Y-58483390D01*
X124190475Y-58483390D02*
X124238094Y-58531009D01*
X124238094Y-58531009D02*
X124285713Y-58626247D01*
X113095238Y-59150057D02*
X113190476Y-59102438D01*
X113190476Y-59102438D02*
X113285714Y-59007200D01*
X113285714Y-59007200D02*
X113428571Y-58864342D01*
X113428571Y-58864342D02*
X113523809Y-58816723D01*
X113523809Y-58816723D02*
X113619047Y-58816723D01*
X113571428Y-59054819D02*
X113666666Y-59007200D01*
X113666666Y-59007200D02*
X113761904Y-58911961D01*
X113761904Y-58911961D02*
X113809523Y-58721485D01*
X113809523Y-58721485D02*
X113809523Y-58388152D01*
X113809523Y-58388152D02*
X113761904Y-58197676D01*
X113761904Y-58197676D02*
X113666666Y-58102438D01*
X113666666Y-58102438D02*
X113571428Y-58054819D01*
X113571428Y-58054819D02*
X113380952Y-58054819D01*
X113380952Y-58054819D02*
X113285714Y-58102438D01*
X113285714Y-58102438D02*
X113190476Y-58197676D01*
X113190476Y-58197676D02*
X113142857Y-58388152D01*
X113142857Y-58388152D02*
X113142857Y-58721485D01*
X113142857Y-58721485D02*
X113190476Y-58911961D01*
X113190476Y-58911961D02*
X113285714Y-59007200D01*
X113285714Y-59007200D02*
X113380952Y-59054819D01*
X113380952Y-59054819D02*
X113571428Y-59054819D01*
X112285714Y-58388152D02*
X112285714Y-59054819D01*
X112523809Y-58007200D02*
X112761904Y-58721485D01*
X112761904Y-58721485D02*
X112142857Y-58721485D01*
X182842857Y-65154819D02*
X183176190Y-64678628D01*
X183414285Y-65154819D02*
X183414285Y-64154819D01*
X183414285Y-64154819D02*
X183033333Y-64154819D01*
X183033333Y-64154819D02*
X182938095Y-64202438D01*
X182938095Y-64202438D02*
X182890476Y-64250057D01*
X182890476Y-64250057D02*
X182842857Y-64345295D01*
X182842857Y-64345295D02*
X182842857Y-64488152D01*
X182842857Y-64488152D02*
X182890476Y-64583390D01*
X182890476Y-64583390D02*
X182938095Y-64631009D01*
X182938095Y-64631009D02*
X183033333Y-64678628D01*
X183033333Y-64678628D02*
X183414285Y-64678628D01*
X182461904Y-64250057D02*
X182414285Y-64202438D01*
X182414285Y-64202438D02*
X182319047Y-64154819D01*
X182319047Y-64154819D02*
X182080952Y-64154819D01*
X182080952Y-64154819D02*
X181985714Y-64202438D01*
X181985714Y-64202438D02*
X181938095Y-64250057D01*
X181938095Y-64250057D02*
X181890476Y-64345295D01*
X181890476Y-64345295D02*
X181890476Y-64440533D01*
X181890476Y-64440533D02*
X181938095Y-64583390D01*
X181938095Y-64583390D02*
X182509523Y-65154819D01*
X182509523Y-65154819D02*
X181890476Y-65154819D01*
X181033333Y-64154819D02*
X181223809Y-64154819D01*
X181223809Y-64154819D02*
X181319047Y-64202438D01*
X181319047Y-64202438D02*
X181366666Y-64250057D01*
X181366666Y-64250057D02*
X181461904Y-64392914D01*
X181461904Y-64392914D02*
X181509523Y-64583390D01*
X181509523Y-64583390D02*
X181509523Y-64964342D01*
X181509523Y-64964342D02*
X181461904Y-65059580D01*
X181461904Y-65059580D02*
X181414285Y-65107200D01*
X181414285Y-65107200D02*
X181319047Y-65154819D01*
X181319047Y-65154819D02*
X181128571Y-65154819D01*
X181128571Y-65154819D02*
X181033333Y-65107200D01*
X181033333Y-65107200D02*
X180985714Y-65059580D01*
X180985714Y-65059580D02*
X180938095Y-64964342D01*
X180938095Y-64964342D02*
X180938095Y-64726247D01*
X180938095Y-64726247D02*
X180985714Y-64631009D01*
X180985714Y-64631009D02*
X181033333Y-64583390D01*
X181033333Y-64583390D02*
X181128571Y-64535771D01*
X181128571Y-64535771D02*
X181319047Y-64535771D01*
X181319047Y-64535771D02*
X181414285Y-64583390D01*
X181414285Y-64583390D02*
X181461904Y-64631009D01*
X181461904Y-64631009D02*
X181509523Y-64726247D01*
X129666666Y-64059580D02*
X129714285Y-64107200D01*
X129714285Y-64107200D02*
X129857142Y-64154819D01*
X129857142Y-64154819D02*
X129952380Y-64154819D01*
X129952380Y-64154819D02*
X130095237Y-64107200D01*
X130095237Y-64107200D02*
X130190475Y-64011961D01*
X130190475Y-64011961D02*
X130238094Y-63916723D01*
X130238094Y-63916723D02*
X130285713Y-63726247D01*
X130285713Y-63726247D02*
X130285713Y-63583390D01*
X130285713Y-63583390D02*
X130238094Y-63392914D01*
X130238094Y-63392914D02*
X130190475Y-63297676D01*
X130190475Y-63297676D02*
X130095237Y-63202438D01*
X130095237Y-63202438D02*
X129952380Y-63154819D01*
X129952380Y-63154819D02*
X129857142Y-63154819D01*
X129857142Y-63154819D02*
X129714285Y-63202438D01*
X129714285Y-63202438D02*
X129666666Y-63250057D01*
X129190475Y-64154819D02*
X128999999Y-64154819D01*
X128999999Y-64154819D02*
X128904761Y-64107200D01*
X128904761Y-64107200D02*
X128857142Y-64059580D01*
X128857142Y-64059580D02*
X128761904Y-63916723D01*
X128761904Y-63916723D02*
X128714285Y-63726247D01*
X128714285Y-63726247D02*
X128714285Y-63345295D01*
X128714285Y-63345295D02*
X128761904Y-63250057D01*
X128761904Y-63250057D02*
X128809523Y-63202438D01*
X128809523Y-63202438D02*
X128904761Y-63154819D01*
X128904761Y-63154819D02*
X129095237Y-63154819D01*
X129095237Y-63154819D02*
X129190475Y-63202438D01*
X129190475Y-63202438D02*
X129238094Y-63250057D01*
X129238094Y-63250057D02*
X129285713Y-63345295D01*
X129285713Y-63345295D02*
X129285713Y-63583390D01*
X129285713Y-63583390D02*
X129238094Y-63678628D01*
X129238094Y-63678628D02*
X129190475Y-63726247D01*
X129190475Y-63726247D02*
X129095237Y-63773866D01*
X129095237Y-63773866D02*
X128904761Y-63773866D01*
X128904761Y-63773866D02*
X128809523Y-63726247D01*
X128809523Y-63726247D02*
X128761904Y-63678628D01*
X128761904Y-63678628D02*
X128714285Y-63583390D01*
X192238094Y-65054819D02*
X192238094Y-64054819D01*
X192238094Y-64054819D02*
X191999999Y-64054819D01*
X191999999Y-64054819D02*
X191857142Y-64102438D01*
X191857142Y-64102438D02*
X191761904Y-64197676D01*
X191761904Y-64197676D02*
X191714285Y-64292914D01*
X191714285Y-64292914D02*
X191666666Y-64483390D01*
X191666666Y-64483390D02*
X191666666Y-64626247D01*
X191666666Y-64626247D02*
X191714285Y-64816723D01*
X191714285Y-64816723D02*
X191761904Y-64911961D01*
X191761904Y-64911961D02*
X191857142Y-65007200D01*
X191857142Y-65007200D02*
X191999999Y-65054819D01*
X191999999Y-65054819D02*
X192238094Y-65054819D01*
X190714285Y-65054819D02*
X191285713Y-65054819D01*
X190999999Y-65054819D02*
X190999999Y-64054819D01*
X190999999Y-64054819D02*
X191095237Y-64197676D01*
X191095237Y-64197676D02*
X191190475Y-64292914D01*
X191190475Y-64292914D02*
X191285713Y-64340533D01*
X100718857Y-80210819D02*
X101052190Y-79734628D01*
X101290285Y-80210819D02*
X101290285Y-79210819D01*
X101290285Y-79210819D02*
X100909333Y-79210819D01*
X100909333Y-79210819D02*
X100814095Y-79258438D01*
X100814095Y-79258438D02*
X100766476Y-79306057D01*
X100766476Y-79306057D02*
X100718857Y-79401295D01*
X100718857Y-79401295D02*
X100718857Y-79544152D01*
X100718857Y-79544152D02*
X100766476Y-79639390D01*
X100766476Y-79639390D02*
X100814095Y-79687009D01*
X100814095Y-79687009D02*
X100909333Y-79734628D01*
X100909333Y-79734628D02*
X101290285Y-79734628D01*
X100337904Y-79306057D02*
X100290285Y-79258438D01*
X100290285Y-79258438D02*
X100195047Y-79210819D01*
X100195047Y-79210819D02*
X99956952Y-79210819D01*
X99956952Y-79210819D02*
X99861714Y-79258438D01*
X99861714Y-79258438D02*
X99814095Y-79306057D01*
X99814095Y-79306057D02*
X99766476Y-79401295D01*
X99766476Y-79401295D02*
X99766476Y-79496533D01*
X99766476Y-79496533D02*
X99814095Y-79639390D01*
X99814095Y-79639390D02*
X100385523Y-80210819D01*
X100385523Y-80210819D02*
X99766476Y-80210819D01*
X99433142Y-79210819D02*
X98814095Y-79210819D01*
X98814095Y-79210819D02*
X99147428Y-79591771D01*
X99147428Y-79591771D02*
X99004571Y-79591771D01*
X99004571Y-79591771D02*
X98909333Y-79639390D01*
X98909333Y-79639390D02*
X98861714Y-79687009D01*
X98861714Y-79687009D02*
X98814095Y-79782247D01*
X98814095Y-79782247D02*
X98814095Y-80020342D01*
X98814095Y-80020342D02*
X98861714Y-80115580D01*
X98861714Y-80115580D02*
X98909333Y-80163200D01*
X98909333Y-80163200D02*
X99004571Y-80210819D01*
X99004571Y-80210819D02*
X99290285Y-80210819D01*
X99290285Y-80210819D02*
X99385523Y-80163200D01*
X99385523Y-80163200D02*
X99433142Y-80115580D01*
X155542857Y-59054819D02*
X155876190Y-58578628D01*
X156114285Y-59054819D02*
X156114285Y-58054819D01*
X156114285Y-58054819D02*
X155733333Y-58054819D01*
X155733333Y-58054819D02*
X155638095Y-58102438D01*
X155638095Y-58102438D02*
X155590476Y-58150057D01*
X155590476Y-58150057D02*
X155542857Y-58245295D01*
X155542857Y-58245295D02*
X155542857Y-58388152D01*
X155542857Y-58388152D02*
X155590476Y-58483390D01*
X155590476Y-58483390D02*
X155638095Y-58531009D01*
X155638095Y-58531009D02*
X155733333Y-58578628D01*
X155733333Y-58578628D02*
X156114285Y-58578628D01*
X154590476Y-59054819D02*
X155161904Y-59054819D01*
X154876190Y-59054819D02*
X154876190Y-58054819D01*
X154876190Y-58054819D02*
X154971428Y-58197676D01*
X154971428Y-58197676D02*
X155066666Y-58292914D01*
X155066666Y-58292914D02*
X155161904Y-58340533D01*
X153971428Y-58054819D02*
X153876190Y-58054819D01*
X153876190Y-58054819D02*
X153780952Y-58102438D01*
X153780952Y-58102438D02*
X153733333Y-58150057D01*
X153733333Y-58150057D02*
X153685714Y-58245295D01*
X153685714Y-58245295D02*
X153638095Y-58435771D01*
X153638095Y-58435771D02*
X153638095Y-58673866D01*
X153638095Y-58673866D02*
X153685714Y-58864342D01*
X153685714Y-58864342D02*
X153733333Y-58959580D01*
X153733333Y-58959580D02*
X153780952Y-59007200D01*
X153780952Y-59007200D02*
X153876190Y-59054819D01*
X153876190Y-59054819D02*
X153971428Y-59054819D01*
X153971428Y-59054819D02*
X154066666Y-59007200D01*
X154066666Y-59007200D02*
X154114285Y-58959580D01*
X154114285Y-58959580D02*
X154161904Y-58864342D01*
X154161904Y-58864342D02*
X154209523Y-58673866D01*
X154209523Y-58673866D02*
X154209523Y-58435771D01*
X154209523Y-58435771D02*
X154161904Y-58245295D01*
X154161904Y-58245295D02*
X154114285Y-58150057D01*
X154114285Y-58150057D02*
X154066666Y-58102438D01*
X154066666Y-58102438D02*
X153971428Y-58054819D01*
X148742857Y-64454819D02*
X149076190Y-63978628D01*
X149314285Y-64454819D02*
X149314285Y-63454819D01*
X149314285Y-63454819D02*
X148933333Y-63454819D01*
X148933333Y-63454819D02*
X148838095Y-63502438D01*
X148838095Y-63502438D02*
X148790476Y-63550057D01*
X148790476Y-63550057D02*
X148742857Y-63645295D01*
X148742857Y-63645295D02*
X148742857Y-63788152D01*
X148742857Y-63788152D02*
X148790476Y-63883390D01*
X148790476Y-63883390D02*
X148838095Y-63931009D01*
X148838095Y-63931009D02*
X148933333Y-63978628D01*
X148933333Y-63978628D02*
X149314285Y-63978628D01*
X148361904Y-63550057D02*
X148314285Y-63502438D01*
X148314285Y-63502438D02*
X148219047Y-63454819D01*
X148219047Y-63454819D02*
X147980952Y-63454819D01*
X147980952Y-63454819D02*
X147885714Y-63502438D01*
X147885714Y-63502438D02*
X147838095Y-63550057D01*
X147838095Y-63550057D02*
X147790476Y-63645295D01*
X147790476Y-63645295D02*
X147790476Y-63740533D01*
X147790476Y-63740533D02*
X147838095Y-63883390D01*
X147838095Y-63883390D02*
X148409523Y-64454819D01*
X148409523Y-64454819D02*
X147790476Y-64454819D01*
X146933333Y-63788152D02*
X146933333Y-64454819D01*
X147171428Y-63407200D02*
X147409523Y-64121485D01*
X147409523Y-64121485D02*
X146790476Y-64121485D01*
X212671428Y-59150057D02*
X212766666Y-59102438D01*
X212766666Y-59102438D02*
X212861904Y-59007200D01*
X212861904Y-59007200D02*
X213004761Y-58864342D01*
X213004761Y-58864342D02*
X213099999Y-58816723D01*
X213099999Y-58816723D02*
X213195237Y-58816723D01*
X213147618Y-59054819D02*
X213242856Y-59007200D01*
X213242856Y-59007200D02*
X213338094Y-58911961D01*
X213338094Y-58911961D02*
X213385713Y-58721485D01*
X213385713Y-58721485D02*
X213385713Y-58388152D01*
X213385713Y-58388152D02*
X213338094Y-58197676D01*
X213338094Y-58197676D02*
X213242856Y-58102438D01*
X213242856Y-58102438D02*
X213147618Y-58054819D01*
X213147618Y-58054819D02*
X212957142Y-58054819D01*
X212957142Y-58054819D02*
X212861904Y-58102438D01*
X212861904Y-58102438D02*
X212766666Y-58197676D01*
X212766666Y-58197676D02*
X212719047Y-58388152D01*
X212719047Y-58388152D02*
X212719047Y-58721485D01*
X212719047Y-58721485D02*
X212766666Y-58911961D01*
X212766666Y-58911961D02*
X212861904Y-59007200D01*
X212861904Y-59007200D02*
X212957142Y-59054819D01*
X212957142Y-59054819D02*
X213147618Y-59054819D01*
X211766666Y-59054819D02*
X212338094Y-59054819D01*
X212052380Y-59054819D02*
X212052380Y-58054819D01*
X212052380Y-58054819D02*
X212147618Y-58197676D01*
X212147618Y-58197676D02*
X212242856Y-58292914D01*
X212242856Y-58292914D02*
X212338094Y-58340533D01*
X211433332Y-58054819D02*
X210766666Y-58054819D01*
X210766666Y-58054819D02*
X211195237Y-59054819D01*
X191166666Y-76835080D02*
X191214285Y-76882700D01*
X191214285Y-76882700D02*
X191357142Y-76930319D01*
X191357142Y-76930319D02*
X191452380Y-76930319D01*
X191452380Y-76930319D02*
X191595237Y-76882700D01*
X191595237Y-76882700D02*
X191690475Y-76787461D01*
X191690475Y-76787461D02*
X191738094Y-76692223D01*
X191738094Y-76692223D02*
X191785713Y-76501747D01*
X191785713Y-76501747D02*
X191785713Y-76358890D01*
X191785713Y-76358890D02*
X191738094Y-76168414D01*
X191738094Y-76168414D02*
X191690475Y-76073176D01*
X191690475Y-76073176D02*
X191595237Y-75977938D01*
X191595237Y-75977938D02*
X191452380Y-75930319D01*
X191452380Y-75930319D02*
X191357142Y-75930319D01*
X191357142Y-75930319D02*
X191214285Y-75977938D01*
X191214285Y-75977938D02*
X191166666Y-76025557D01*
X190261904Y-75930319D02*
X190738094Y-75930319D01*
X190738094Y-75930319D02*
X190785713Y-76406509D01*
X190785713Y-76406509D02*
X190738094Y-76358890D01*
X190738094Y-76358890D02*
X190642856Y-76311271D01*
X190642856Y-76311271D02*
X190404761Y-76311271D01*
X190404761Y-76311271D02*
X190309523Y-76358890D01*
X190309523Y-76358890D02*
X190261904Y-76406509D01*
X190261904Y-76406509D02*
X190214285Y-76501747D01*
X190214285Y-76501747D02*
X190214285Y-76739842D01*
X190214285Y-76739842D02*
X190261904Y-76835080D01*
X190261904Y-76835080D02*
X190309523Y-76882700D01*
X190309523Y-76882700D02*
X190404761Y-76930319D01*
X190404761Y-76930319D02*
X190642856Y-76930319D01*
X190642856Y-76930319D02*
X190738094Y-76882700D01*
X190738094Y-76882700D02*
X190785713Y-76835080D01*
X163142857Y-59054819D02*
X163476190Y-58578628D01*
X163714285Y-59054819D02*
X163714285Y-58054819D01*
X163714285Y-58054819D02*
X163333333Y-58054819D01*
X163333333Y-58054819D02*
X163238095Y-58102438D01*
X163238095Y-58102438D02*
X163190476Y-58150057D01*
X163190476Y-58150057D02*
X163142857Y-58245295D01*
X163142857Y-58245295D02*
X163142857Y-58388152D01*
X163142857Y-58388152D02*
X163190476Y-58483390D01*
X163190476Y-58483390D02*
X163238095Y-58531009D01*
X163238095Y-58531009D02*
X163333333Y-58578628D01*
X163333333Y-58578628D02*
X163714285Y-58578628D01*
X162190476Y-59054819D02*
X162761904Y-59054819D01*
X162476190Y-59054819D02*
X162476190Y-58054819D01*
X162476190Y-58054819D02*
X162571428Y-58197676D01*
X162571428Y-58197676D02*
X162666666Y-58292914D01*
X162666666Y-58292914D02*
X162761904Y-58340533D01*
X161238095Y-59054819D02*
X161809523Y-59054819D01*
X161523809Y-59054819D02*
X161523809Y-58054819D01*
X161523809Y-58054819D02*
X161619047Y-58197676D01*
X161619047Y-58197676D02*
X161714285Y-58292914D01*
X161714285Y-58292914D02*
X161809523Y-58340533D01*
X128395238Y-59150057D02*
X128490476Y-59102438D01*
X128490476Y-59102438D02*
X128585714Y-59007200D01*
X128585714Y-59007200D02*
X128728571Y-58864342D01*
X128728571Y-58864342D02*
X128823809Y-58816723D01*
X128823809Y-58816723D02*
X128919047Y-58816723D01*
X128871428Y-59054819D02*
X128966666Y-59007200D01*
X128966666Y-59007200D02*
X129061904Y-58911961D01*
X129061904Y-58911961D02*
X129109523Y-58721485D01*
X129109523Y-58721485D02*
X129109523Y-58388152D01*
X129109523Y-58388152D02*
X129061904Y-58197676D01*
X129061904Y-58197676D02*
X128966666Y-58102438D01*
X128966666Y-58102438D02*
X128871428Y-58054819D01*
X128871428Y-58054819D02*
X128680952Y-58054819D01*
X128680952Y-58054819D02*
X128585714Y-58102438D01*
X128585714Y-58102438D02*
X128490476Y-58197676D01*
X128490476Y-58197676D02*
X128442857Y-58388152D01*
X128442857Y-58388152D02*
X128442857Y-58721485D01*
X128442857Y-58721485D02*
X128490476Y-58911961D01*
X128490476Y-58911961D02*
X128585714Y-59007200D01*
X128585714Y-59007200D02*
X128680952Y-59054819D01*
X128680952Y-59054819D02*
X128871428Y-59054819D01*
X127585714Y-58054819D02*
X127776190Y-58054819D01*
X127776190Y-58054819D02*
X127871428Y-58102438D01*
X127871428Y-58102438D02*
X127919047Y-58150057D01*
X127919047Y-58150057D02*
X128014285Y-58292914D01*
X128014285Y-58292914D02*
X128061904Y-58483390D01*
X128061904Y-58483390D02*
X128061904Y-58864342D01*
X128061904Y-58864342D02*
X128014285Y-58959580D01*
X128014285Y-58959580D02*
X127966666Y-59007200D01*
X127966666Y-59007200D02*
X127871428Y-59054819D01*
X127871428Y-59054819D02*
X127680952Y-59054819D01*
X127680952Y-59054819D02*
X127585714Y-59007200D01*
X127585714Y-59007200D02*
X127538095Y-58959580D01*
X127538095Y-58959580D02*
X127490476Y-58864342D01*
X127490476Y-58864342D02*
X127490476Y-58626247D01*
X127490476Y-58626247D02*
X127538095Y-58531009D01*
X127538095Y-58531009D02*
X127585714Y-58483390D01*
X127585714Y-58483390D02*
X127680952Y-58435771D01*
X127680952Y-58435771D02*
X127871428Y-58435771D01*
X127871428Y-58435771D02*
X127966666Y-58483390D01*
X127966666Y-58483390D02*
X128014285Y-58531009D01*
X128014285Y-58531009D02*
X128061904Y-58626247D01*
X94666666Y-64954819D02*
X94999999Y-64478628D01*
X95238094Y-64954819D02*
X95238094Y-63954819D01*
X95238094Y-63954819D02*
X94857142Y-63954819D01*
X94857142Y-63954819D02*
X94761904Y-64002438D01*
X94761904Y-64002438D02*
X94714285Y-64050057D01*
X94714285Y-64050057D02*
X94666666Y-64145295D01*
X94666666Y-64145295D02*
X94666666Y-64288152D01*
X94666666Y-64288152D02*
X94714285Y-64383390D01*
X94714285Y-64383390D02*
X94761904Y-64431009D01*
X94761904Y-64431009D02*
X94857142Y-64478628D01*
X94857142Y-64478628D02*
X95238094Y-64478628D01*
X93714285Y-64954819D02*
X94285713Y-64954819D01*
X93999999Y-64954819D02*
X93999999Y-63954819D01*
X93999999Y-63954819D02*
X94095237Y-64097676D01*
X94095237Y-64097676D02*
X94190475Y-64192914D01*
X94190475Y-64192914D02*
X94285713Y-64240533D01*
X197371428Y-59150057D02*
X197466666Y-59102438D01*
X197466666Y-59102438D02*
X197561904Y-59007200D01*
X197561904Y-59007200D02*
X197704761Y-58864342D01*
X197704761Y-58864342D02*
X197799999Y-58816723D01*
X197799999Y-58816723D02*
X197895237Y-58816723D01*
X197847618Y-59054819D02*
X197942856Y-59007200D01*
X197942856Y-59007200D02*
X198038094Y-58911961D01*
X198038094Y-58911961D02*
X198085713Y-58721485D01*
X198085713Y-58721485D02*
X198085713Y-58388152D01*
X198085713Y-58388152D02*
X198038094Y-58197676D01*
X198038094Y-58197676D02*
X197942856Y-58102438D01*
X197942856Y-58102438D02*
X197847618Y-58054819D01*
X197847618Y-58054819D02*
X197657142Y-58054819D01*
X197657142Y-58054819D02*
X197561904Y-58102438D01*
X197561904Y-58102438D02*
X197466666Y-58197676D01*
X197466666Y-58197676D02*
X197419047Y-58388152D01*
X197419047Y-58388152D02*
X197419047Y-58721485D01*
X197419047Y-58721485D02*
X197466666Y-58911961D01*
X197466666Y-58911961D02*
X197561904Y-59007200D01*
X197561904Y-59007200D02*
X197657142Y-59054819D01*
X197657142Y-59054819D02*
X197847618Y-59054819D01*
X196466666Y-59054819D02*
X197038094Y-59054819D01*
X196752380Y-59054819D02*
X196752380Y-58054819D01*
X196752380Y-58054819D02*
X196847618Y-58197676D01*
X196847618Y-58197676D02*
X196942856Y-58292914D01*
X196942856Y-58292914D02*
X197038094Y-58340533D01*
X195561904Y-58054819D02*
X196038094Y-58054819D01*
X196038094Y-58054819D02*
X196085713Y-58531009D01*
X196085713Y-58531009D02*
X196038094Y-58483390D01*
X196038094Y-58483390D02*
X195942856Y-58435771D01*
X195942856Y-58435771D02*
X195704761Y-58435771D01*
X195704761Y-58435771D02*
X195609523Y-58483390D01*
X195609523Y-58483390D02*
X195561904Y-58531009D01*
X195561904Y-58531009D02*
X195514285Y-58626247D01*
X195514285Y-58626247D02*
X195514285Y-58864342D01*
X195514285Y-58864342D02*
X195561904Y-58959580D01*
X195561904Y-58959580D02*
X195609523Y-59007200D01*
X195609523Y-59007200D02*
X195704761Y-59054819D01*
X195704761Y-59054819D02*
X195942856Y-59054819D01*
X195942856Y-59054819D02*
X196038094Y-59007200D01*
X196038094Y-59007200D02*
X196085713Y-58959580D01*
X120695238Y-59150057D02*
X120790476Y-59102438D01*
X120790476Y-59102438D02*
X120885714Y-59007200D01*
X120885714Y-59007200D02*
X121028571Y-58864342D01*
X121028571Y-58864342D02*
X121123809Y-58816723D01*
X121123809Y-58816723D02*
X121219047Y-58816723D01*
X121171428Y-59054819D02*
X121266666Y-59007200D01*
X121266666Y-59007200D02*
X121361904Y-58911961D01*
X121361904Y-58911961D02*
X121409523Y-58721485D01*
X121409523Y-58721485D02*
X121409523Y-58388152D01*
X121409523Y-58388152D02*
X121361904Y-58197676D01*
X121361904Y-58197676D02*
X121266666Y-58102438D01*
X121266666Y-58102438D02*
X121171428Y-58054819D01*
X121171428Y-58054819D02*
X120980952Y-58054819D01*
X120980952Y-58054819D02*
X120885714Y-58102438D01*
X120885714Y-58102438D02*
X120790476Y-58197676D01*
X120790476Y-58197676D02*
X120742857Y-58388152D01*
X120742857Y-58388152D02*
X120742857Y-58721485D01*
X120742857Y-58721485D02*
X120790476Y-58911961D01*
X120790476Y-58911961D02*
X120885714Y-59007200D01*
X120885714Y-59007200D02*
X120980952Y-59054819D01*
X120980952Y-59054819D02*
X121171428Y-59054819D01*
X119838095Y-58054819D02*
X120314285Y-58054819D01*
X120314285Y-58054819D02*
X120361904Y-58531009D01*
X120361904Y-58531009D02*
X120314285Y-58483390D01*
X120314285Y-58483390D02*
X120219047Y-58435771D01*
X120219047Y-58435771D02*
X119980952Y-58435771D01*
X119980952Y-58435771D02*
X119885714Y-58483390D01*
X119885714Y-58483390D02*
X119838095Y-58531009D01*
X119838095Y-58531009D02*
X119790476Y-58626247D01*
X119790476Y-58626247D02*
X119790476Y-58864342D01*
X119790476Y-58864342D02*
X119838095Y-58959580D01*
X119838095Y-58959580D02*
X119885714Y-59007200D01*
X119885714Y-59007200D02*
X119980952Y-59054819D01*
X119980952Y-59054819D02*
X120219047Y-59054819D01*
X120219047Y-59054819D02*
X120314285Y-59007200D01*
X120314285Y-59007200D02*
X120361904Y-58959580D01*
X170742857Y-59054819D02*
X171076190Y-58578628D01*
X171314285Y-59054819D02*
X171314285Y-58054819D01*
X171314285Y-58054819D02*
X170933333Y-58054819D01*
X170933333Y-58054819D02*
X170838095Y-58102438D01*
X170838095Y-58102438D02*
X170790476Y-58150057D01*
X170790476Y-58150057D02*
X170742857Y-58245295D01*
X170742857Y-58245295D02*
X170742857Y-58388152D01*
X170742857Y-58388152D02*
X170790476Y-58483390D01*
X170790476Y-58483390D02*
X170838095Y-58531009D01*
X170838095Y-58531009D02*
X170933333Y-58578628D01*
X170933333Y-58578628D02*
X171314285Y-58578628D01*
X169790476Y-59054819D02*
X170361904Y-59054819D01*
X170076190Y-59054819D02*
X170076190Y-58054819D01*
X170076190Y-58054819D02*
X170171428Y-58197676D01*
X170171428Y-58197676D02*
X170266666Y-58292914D01*
X170266666Y-58292914D02*
X170361904Y-58340533D01*
X169409523Y-58150057D02*
X169361904Y-58102438D01*
X169361904Y-58102438D02*
X169266666Y-58054819D01*
X169266666Y-58054819D02*
X169028571Y-58054819D01*
X169028571Y-58054819D02*
X168933333Y-58102438D01*
X168933333Y-58102438D02*
X168885714Y-58150057D01*
X168885714Y-58150057D02*
X168838095Y-58245295D01*
X168838095Y-58245295D02*
X168838095Y-58340533D01*
X168838095Y-58340533D02*
X168885714Y-58483390D01*
X168885714Y-58483390D02*
X169457142Y-59054819D01*
X169457142Y-59054819D02*
X168838095Y-59054819D01*
X201540952Y-63851009D02*
X201398095Y-63898628D01*
X201398095Y-63898628D02*
X201350476Y-63946247D01*
X201350476Y-63946247D02*
X201302857Y-64041485D01*
X201302857Y-64041485D02*
X201302857Y-64184342D01*
X201302857Y-64184342D02*
X201350476Y-64279580D01*
X201350476Y-64279580D02*
X201398095Y-64327200D01*
X201398095Y-64327200D02*
X201493333Y-64374819D01*
X201493333Y-64374819D02*
X201874285Y-64374819D01*
X201874285Y-64374819D02*
X201874285Y-63374819D01*
X201874285Y-63374819D02*
X201540952Y-63374819D01*
X201540952Y-63374819D02*
X201445714Y-63422438D01*
X201445714Y-63422438D02*
X201398095Y-63470057D01*
X201398095Y-63470057D02*
X201350476Y-63565295D01*
X201350476Y-63565295D02*
X201350476Y-63660533D01*
X201350476Y-63660533D02*
X201398095Y-63755771D01*
X201398095Y-63755771D02*
X201445714Y-63803390D01*
X201445714Y-63803390D02*
X201540952Y-63851009D01*
X201540952Y-63851009D02*
X201874285Y-63851009D01*
X200969523Y-63374819D02*
X200302857Y-63374819D01*
X200302857Y-63374819D02*
X200969523Y-64374819D01*
X200969523Y-64374819D02*
X200302857Y-64374819D01*
X199398095Y-64374819D02*
X199969523Y-64374819D01*
X199683809Y-64374819D02*
X199683809Y-63374819D01*
X199683809Y-63374819D02*
X199779047Y-63517676D01*
X199779047Y-63517676D02*
X199874285Y-63612914D01*
X199874285Y-63612914D02*
X199969523Y-63660533D01*
X204850951Y-68653866D02*
X204089047Y-68653866D01*
X204469999Y-69034819D02*
X204469999Y-68272914D01*
D13*
%TO.C,R14*%
X184665000Y-56127064D02*
X184665000Y-55672936D01*
X186135000Y-56127064D02*
X186135000Y-55672936D01*
%TO.C,R9*%
X146465000Y-56127064D02*
X146465000Y-55672936D01*
X147935000Y-56127064D02*
X147935000Y-55672936D01*
%TO.C,R19*%
X103547936Y-68861000D02*
X104002064Y-68861000D01*
X103547936Y-70331000D02*
X104002064Y-70331000D01*
%TO.C,Q14*%
X187670000Y-55230000D02*
X187670000Y-55880000D01*
X187670000Y-56530000D02*
X187670000Y-55880000D01*
X190790000Y-55230000D02*
X190790000Y-55880000D01*
X190790000Y-56530000D02*
X190790000Y-55880000D01*
X191070000Y-57282500D02*
X190740000Y-57042500D01*
X191070000Y-56802500D01*
X191070000Y-57282500D01*
G36*
X191070000Y-57282500D02*
G01*
X190740000Y-57042500D01*
X191070000Y-56802500D01*
X191070000Y-57282500D01*
G37*
%TO.C,R7*%
X131265000Y-56127064D02*
X131265000Y-55672936D01*
X132735000Y-56127064D02*
X132735000Y-55672936D01*
%TO.C,C1*%
X159792000Y-85331000D02*
X159792000Y-93566000D01*
X164312000Y-85331000D02*
X159792000Y-85331000D01*
X164312000Y-93566000D02*
X164312000Y-85331000D01*
%TO.C,C3*%
X130563252Y-89765000D02*
X130040748Y-89765000D01*
X130563252Y-91235000D02*
X130040748Y-91235000D01*
%TO.C,R2*%
X93265000Y-56127064D02*
X93265000Y-55672936D01*
X94735000Y-56127064D02*
X94735000Y-55672936D01*
%TO.C,C7*%
X140596252Y-70258000D02*
X140073748Y-70258000D01*
X140596252Y-71728000D02*
X140073748Y-71728000D01*
%TO.C,R28*%
X115162064Y-64543000D02*
X114707936Y-64543000D01*
X115162064Y-66013000D02*
X114707936Y-66013000D01*
%TO.C,U2*%
X137999000Y-83767000D02*
X141859000Y-83767000D01*
X137999000Y-84022000D02*
X137999000Y-83767000D01*
X137999000Y-94032000D02*
X137999000Y-94287000D01*
X137999000Y-94287000D02*
X141859000Y-94287000D01*
X145719000Y-83767000D02*
X141859000Y-83767000D01*
X145719000Y-84022000D02*
X145719000Y-83767000D01*
X145719000Y-94032000D02*
X145719000Y-94287000D01*
X145719000Y-94287000D02*
X141859000Y-94287000D01*
X146571500Y-84022000D02*
X146231500Y-83552000D01*
X146911500Y-83552000D01*
X146571500Y-84022000D01*
G36*
X146571500Y-84022000D02*
G01*
X146231500Y-83552000D01*
X146911500Y-83552000D01*
X146571500Y-84022000D01*
G37*
%TO.C,C10*%
X150268000Y-90685252D02*
X150268000Y-90162748D01*
X151738000Y-90685252D02*
X151738000Y-90162748D01*
%TO.C,Q12*%
X172430000Y-55230000D02*
X172430000Y-55880000D01*
X172430000Y-56530000D02*
X172430000Y-55880000D01*
X175550000Y-55230000D02*
X175550000Y-55880000D01*
X175550000Y-56530000D02*
X175550000Y-55880000D01*
X175830000Y-57282500D02*
X175500000Y-57042500D01*
X175830000Y-56802500D01*
X175830000Y-57282500D01*
G36*
X175830000Y-57282500D02*
G01*
X175500000Y-57042500D01*
X175830000Y-56802500D01*
X175830000Y-57282500D01*
G37*
%TO.C,Q2*%
X96230000Y-55230000D02*
X96230000Y-55880000D01*
X96230000Y-56530000D02*
X96230000Y-55880000D01*
X99350000Y-55230000D02*
X99350000Y-55880000D01*
X99350000Y-56530000D02*
X99350000Y-55880000D01*
X99630000Y-57282500D02*
X99300000Y-57042500D01*
X99630000Y-56802500D01*
X99630000Y-57282500D01*
G36*
X99630000Y-57282500D02*
G01*
X99300000Y-57042500D01*
X99630000Y-56802500D01*
X99630000Y-57282500D01*
G37*
%TO.C,R15*%
X192265000Y-56127064D02*
X192265000Y-55672936D01*
X193735000Y-56127064D02*
X193735000Y-55672936D01*
%TO.C,R18*%
X103547936Y-66321000D02*
X104002064Y-66321000D01*
X103547936Y-67791000D02*
X104002064Y-67791000D01*
%TO.C,BT1*%
X175142000Y-94250000D02*
X175142000Y-95400000D01*
X175642000Y-94250000D02*
X175142000Y-94250000D01*
X175642000Y-95400000D02*
X175142000Y-95400000D01*
X178942000Y-94250000D02*
X179442000Y-94250000D01*
X178942000Y-95400000D02*
X179442000Y-95400000D01*
X179442000Y-94250000D02*
X179442000Y-95400000D01*
D14*
X184292000Y-84750000D02*
G75*
G02*
X170292000Y-84750000I-7000000J0D01*
G01*
X170292000Y-84750000D02*
G75*
G02*
X184292000Y-84750000I7000000J0D01*
G01*
D13*
%TO.C,Q3*%
X103850000Y-55230000D02*
X103850000Y-55880000D01*
X103850000Y-56530000D02*
X103850000Y-55880000D01*
X106970000Y-55230000D02*
X106970000Y-55880000D01*
X106970000Y-56530000D02*
X106970000Y-55880000D01*
X107250000Y-57282500D02*
X106920000Y-57042500D01*
X107250000Y-56802500D01*
X107250000Y-57282500D01*
G36*
X107250000Y-57282500D02*
G01*
X106920000Y-57042500D01*
X107250000Y-56802500D01*
X107250000Y-57282500D01*
G37*
%TO.C,C6*%
X114673748Y-69623000D02*
X115196252Y-69623000D01*
X114673748Y-71093000D02*
X115196252Y-71093000D01*
%TO.C,Q10*%
X157190000Y-55230000D02*
X157190000Y-55880000D01*
X157190000Y-56530000D02*
X157190000Y-55880000D01*
X160310000Y-55230000D02*
X160310000Y-55880000D01*
X160310000Y-56530000D02*
X160310000Y-55880000D01*
X160590000Y-57282500D02*
X160260000Y-57042500D01*
X160590000Y-56802500D01*
X160590000Y-57282500D01*
G36*
X160590000Y-57282500D02*
G01*
X160260000Y-57042500D01*
X160590000Y-56802500D01*
X160590000Y-57282500D01*
G37*
%TO.C,Q8*%
X141950000Y-55230000D02*
X141950000Y-55880000D01*
X141950000Y-56530000D02*
X141950000Y-55880000D01*
X145070000Y-55230000D02*
X145070000Y-55880000D01*
X145070000Y-56530000D02*
X145070000Y-55880000D01*
X145350000Y-57282500D02*
X145020000Y-57042500D01*
X145350000Y-56802500D01*
X145350000Y-57282500D01*
G36*
X145350000Y-57282500D02*
G01*
X145020000Y-57042500D01*
X145350000Y-56802500D01*
X145350000Y-57282500D01*
G37*
%TO.C,Q18*%
X185340000Y-66950000D02*
X185340000Y-67600000D01*
X185340000Y-68250000D02*
X185340000Y-67600000D01*
X188460000Y-66950000D02*
X188460000Y-67600000D01*
X188460000Y-68250000D02*
X188460000Y-67600000D01*
X185390000Y-66437500D02*
X185060000Y-66677500D01*
X185060000Y-66197500D01*
X185390000Y-66437500D01*
G36*
X185390000Y-66437500D02*
G01*
X185060000Y-66677500D01*
X185060000Y-66197500D01*
X185390000Y-66437500D01*
G37*
%TO.C,R17*%
X207565000Y-56127064D02*
X207565000Y-55672936D01*
X209035000Y-56127064D02*
X209035000Y-55672936D01*
%TO.C,Q16*%
X202910000Y-55260000D02*
X202910000Y-55910000D01*
X202910000Y-56560000D02*
X202910000Y-55910000D01*
X206030000Y-55260000D02*
X206030000Y-55910000D01*
X206030000Y-56560000D02*
X206030000Y-55910000D01*
X206310000Y-57312500D02*
X205980000Y-57072500D01*
X206310000Y-56832500D01*
X206310000Y-57312500D01*
G36*
X206310000Y-57312500D02*
G01*
X205980000Y-57072500D01*
X206310000Y-56832500D01*
X206310000Y-57312500D01*
G37*
%TO.C,R29*%
X115162064Y-67083000D02*
X114707936Y-67083000D01*
X115162064Y-68553000D02*
X114707936Y-68553000D01*
%TO.C,R27*%
X192686000Y-78893936D02*
X192686000Y-79348064D01*
X194156000Y-78893936D02*
X194156000Y-79348064D01*
%TO.C,R21*%
X103547936Y-73941000D02*
X104002064Y-73941000D01*
X103547936Y-75411000D02*
X104002064Y-75411000D01*
%TO.C,R8*%
X138965000Y-56127064D02*
X138965000Y-55672936D01*
X140435000Y-56127064D02*
X140435000Y-55672936D01*
%TO.C,R13*%
X176965000Y-56127064D02*
X176965000Y-55672936D01*
X178435000Y-56127064D02*
X178435000Y-55672936D01*
%TO.C,R25*%
X153443000Y-84047064D02*
X153443000Y-83592936D01*
X154913000Y-84047064D02*
X154913000Y-83592936D01*
%TO.C,R16*%
X199765000Y-56127064D02*
X199765000Y-55672936D01*
X201235000Y-56127064D02*
X201235000Y-55672936D01*
%TO.C,R22*%
X103547936Y-76481000D02*
X104002064Y-76481000D01*
X103547936Y-77951000D02*
X104002064Y-77951000D01*
%TO.C,Q11*%
X164810000Y-55230000D02*
X164810000Y-55880000D01*
X164810000Y-56530000D02*
X164810000Y-55880000D01*
X167930000Y-55230000D02*
X167930000Y-55880000D01*
X167930000Y-56530000D02*
X167930000Y-55880000D01*
X168210000Y-57282500D02*
X167880000Y-57042500D01*
X168210000Y-56802500D01*
X168210000Y-57282500D01*
G36*
X168210000Y-57282500D02*
G01*
X167880000Y-57042500D01*
X168210000Y-56802500D01*
X168210000Y-57282500D01*
G37*
%TO.C,Q7*%
X134330000Y-55230000D02*
X134330000Y-55880000D01*
X134330000Y-56530000D02*
X134330000Y-55880000D01*
X137450000Y-55230000D02*
X137450000Y-55880000D01*
X137450000Y-56530000D02*
X137450000Y-55880000D01*
X137730000Y-57282500D02*
X137400000Y-57042500D01*
X137730000Y-56802500D01*
X137730000Y-57282500D01*
G36*
X137730000Y-57282500D02*
G01*
X137400000Y-57042500D01*
X137730000Y-56802500D01*
X137730000Y-57282500D01*
G37*
%TO.C,Y1*%
X130025000Y-83575000D02*
X123775000Y-83575000D01*
X130025000Y-88625000D02*
X123775000Y-88625000D01*
X123775000Y-88625000D02*
G75*
G02*
X123775000Y-83575000I0J2525000D01*
G01*
X130025000Y-83575000D02*
G75*
G02*
X130025000Y-88625000I0J-2525000D01*
G01*
%TO.C,R30*%
X137130000Y-59670000D02*
X137130000Y-62330000D01*
X137130000Y-59670000D02*
X139730000Y-59670000D01*
X137130000Y-62330000D02*
X139730000Y-62330000D01*
X139730000Y-59670000D02*
X139730000Y-62330000D01*
X142330000Y-61000000D02*
X142330000Y-62330000D01*
X142330000Y-62330000D02*
X141000000Y-62330000D01*
%TO.C,Q13*%
X180050000Y-55230000D02*
X180050000Y-55880000D01*
X180050000Y-56530000D02*
X180050000Y-55880000D01*
X183170000Y-55230000D02*
X183170000Y-55880000D01*
X183170000Y-56530000D02*
X183170000Y-55880000D01*
X183450000Y-57282500D02*
X183120000Y-57042500D01*
X183450000Y-56802500D01*
X183450000Y-57282500D01*
G36*
X183450000Y-57282500D02*
G01*
X183120000Y-57042500D01*
X183450000Y-56802500D01*
X183450000Y-57282500D01*
G37*
%TO.C,C4*%
X131265000Y-60738748D02*
X131265000Y-61261252D01*
X132735000Y-60738748D02*
X132735000Y-61261252D01*
%TO.C,R5*%
X116065000Y-56127064D02*
X116065000Y-55672936D01*
X117535000Y-56127064D02*
X117535000Y-55672936D01*
%TO.C,R3*%
X100965000Y-56127064D02*
X100965000Y-55672936D01*
X102435000Y-56127064D02*
X102435000Y-55672936D01*
%TO.C,R4*%
X108465000Y-56127064D02*
X108465000Y-55672936D01*
X109935000Y-56127064D02*
X109935000Y-55672936D01*
%TO.C,R31*%
X133765000Y-60772936D02*
X133765000Y-61227064D01*
X135235000Y-60772936D02*
X135235000Y-61227064D01*
%TO.C,C8*%
X131310748Y-81053000D02*
X131833252Y-81053000D01*
X131310748Y-82523000D02*
X131833252Y-82523000D01*
%TO.C,J5*%
X97999000Y-84059000D02*
X112099000Y-84059000D01*
X97999000Y-88859000D02*
X97999000Y-84059000D01*
X97999000Y-97159000D02*
X97999000Y-92359000D01*
X103299000Y-83359000D02*
X103799000Y-83859000D01*
X103799000Y-83859000D02*
X104299000Y-83359000D01*
X104299000Y-83359000D02*
X103299000Y-83359000D01*
X112099000Y-84059000D02*
X112099000Y-88859000D01*
X112099000Y-92359000D02*
X112099000Y-97159000D01*
X112099000Y-97159000D02*
X97999000Y-97159000D01*
%TO.C,Q1*%
X97150000Y-59840000D02*
X97800000Y-59840000D01*
X97150000Y-62960000D02*
X97800000Y-62960000D01*
X98450000Y-59840000D02*
X97800000Y-59840000D01*
X98450000Y-62960000D02*
X97800000Y-62960000D01*
X98962500Y-59890000D02*
X98722500Y-59560000D01*
X99202500Y-59560000D01*
X98962500Y-59890000D01*
G36*
X98962500Y-59890000D02*
G01*
X98722500Y-59560000D01*
X99202500Y-59560000D01*
X98962500Y-59890000D01*
G37*
%TO.C,J6*%
X190370000Y-88090000D02*
X210950000Y-88090000D01*
X190370000Y-97210000D02*
X190370000Y-88090000D01*
X195080000Y-81470000D02*
X195580000Y-82470000D01*
X195580000Y-82470000D02*
X196080000Y-81470000D01*
X196080000Y-81470000D02*
X195080000Y-81470000D01*
X198610000Y-97210000D02*
X198610000Y-88090000D01*
X202710000Y-97210000D02*
X202710000Y-88090000D01*
X210950000Y-88090000D02*
X210950000Y-97210000D01*
X210950000Y-97210000D02*
X190370000Y-97210000D01*
%TO.C,Q9*%
X149570000Y-55230000D02*
X149570000Y-55880000D01*
X149570000Y-56530000D02*
X149570000Y-55880000D01*
X152690000Y-55230000D02*
X152690000Y-55880000D01*
X152690000Y-56530000D02*
X152690000Y-55880000D01*
X152970000Y-57282500D02*
X152640000Y-57042500D01*
X152970000Y-56802500D01*
X152970000Y-57282500D01*
G36*
X152970000Y-57282500D02*
G01*
X152640000Y-57042500D01*
X152970000Y-56802500D01*
X152970000Y-57282500D01*
G37*
%TO.C,C2*%
X123238748Y-89865000D02*
X123761252Y-89865000D01*
X123238748Y-91335000D02*
X123761252Y-91335000D01*
D12*
%TO.C,U1*%
X125000000Y-66874000D02*
X125000000Y-66199000D01*
X125000000Y-75874000D02*
X125000000Y-76549000D01*
X125675000Y-66199000D02*
X125000000Y-66199000D01*
X125675000Y-76549000D02*
X125000000Y-76549000D01*
X134675000Y-66199000D02*
X135350000Y-66199000D01*
X134735000Y-76549000D02*
X135350000Y-76549000D01*
X135350000Y-66874000D02*
X135350000Y-66199000D01*
X135350000Y-75874000D02*
X135350000Y-76549000D01*
D13*
X135185000Y-77574000D02*
X134715000Y-77234000D01*
X135185000Y-76894000D01*
X135185000Y-77574000D01*
G36*
X135185000Y-77574000D02*
G01*
X134715000Y-77234000D01*
X135185000Y-76894000D01*
X135185000Y-77574000D01*
G37*
%TO.C,R20*%
X103547936Y-71401000D02*
X104002064Y-71401000D01*
X103547936Y-72871000D02*
X104002064Y-72871000D01*
%TO.C,R6*%
X123665000Y-56127064D02*
X123665000Y-55672936D01*
X125135000Y-56127064D02*
X125135000Y-55672936D01*
%TO.C,Q4*%
X111470000Y-55230000D02*
X111470000Y-55880000D01*
X111470000Y-56530000D02*
X111470000Y-55880000D01*
X114590000Y-55230000D02*
X114590000Y-55880000D01*
X114590000Y-56530000D02*
X114590000Y-55880000D01*
X114870000Y-57282500D02*
X114540000Y-57042500D01*
X114870000Y-56802500D01*
X114870000Y-57282500D01*
G36*
X114870000Y-57282500D02*
G01*
X114540000Y-57042500D01*
X114870000Y-56802500D01*
X114870000Y-57282500D01*
G37*
%TO.C,R26*%
X181465000Y-67727064D02*
X181465000Y-67272936D01*
X182935000Y-67727064D02*
X182935000Y-67272936D01*
%TO.C,C9*%
X128765000Y-60738748D02*
X128765000Y-61261252D01*
X130235000Y-60738748D02*
X130235000Y-61261252D01*
%TO.C,D1*%
X190750000Y-68750000D02*
X190750000Y-65490000D01*
X192450000Y-65490000D02*
X190750000Y-65490000D01*
X192450000Y-68750000D02*
X192450000Y-65490000D01*
%TO.C,R23*%
X103547936Y-79021000D02*
X104002064Y-79021000D01*
X103547936Y-80491000D02*
X104002064Y-80491000D01*
%TO.C,R10*%
X154165000Y-56127064D02*
X154165000Y-55672936D01*
X155635000Y-56127064D02*
X155635000Y-55672936D01*
%TO.C,R24*%
X147347000Y-61441064D02*
X147347000Y-60986936D01*
X148817000Y-61441064D02*
X148817000Y-60986936D01*
%TO.C,Q17*%
X210530000Y-55230000D02*
X210530000Y-55880000D01*
X210530000Y-56530000D02*
X210530000Y-55880000D01*
X213650000Y-55230000D02*
X213650000Y-55880000D01*
X213650000Y-56530000D02*
X213650000Y-55880000D01*
X213930000Y-57282500D02*
X213600000Y-57042500D01*
X213930000Y-56802500D01*
X213930000Y-57282500D01*
G36*
X213930000Y-57282500D02*
G01*
X213600000Y-57042500D01*
X213930000Y-56802500D01*
X213930000Y-57282500D01*
G37*
%TO.C,C5*%
X190273000Y-79382252D02*
X190273000Y-78859748D01*
X191743000Y-79382252D02*
X191743000Y-78859748D01*
%TO.C,R11*%
X161765000Y-56127064D02*
X161765000Y-55672936D01*
X163235000Y-56127064D02*
X163235000Y-55672936D01*
%TO.C,Q6*%
X126710000Y-55260000D02*
X126710000Y-55910000D01*
X126710000Y-56560000D02*
X126710000Y-55910000D01*
X129830000Y-55260000D02*
X129830000Y-55910000D01*
X129830000Y-56560000D02*
X129830000Y-55910000D01*
X130110000Y-57312500D02*
X129780000Y-57072500D01*
X130110000Y-56832500D01*
X130110000Y-57312500D01*
G36*
X130110000Y-57312500D02*
G01*
X129780000Y-57072500D01*
X130110000Y-56832500D01*
X130110000Y-57312500D01*
G37*
%TO.C,R1*%
X98027064Y-63765000D02*
X97572936Y-63765000D01*
X98027064Y-65235000D02*
X97572936Y-65235000D01*
%TO.C,Q15*%
X195290000Y-55260000D02*
X195290000Y-55910000D01*
X195290000Y-56560000D02*
X195290000Y-55910000D01*
X198410000Y-55260000D02*
X198410000Y-55910000D01*
X198410000Y-56560000D02*
X198410000Y-55910000D01*
X198690000Y-57312500D02*
X198360000Y-57072500D01*
X198690000Y-56832500D01*
X198690000Y-57312500D01*
G36*
X198690000Y-57312500D02*
G01*
X198360000Y-57072500D01*
X198690000Y-56832500D01*
X198690000Y-57312500D01*
G37*
%TO.C,Q5*%
X119090000Y-55260000D02*
X119090000Y-55910000D01*
X119090000Y-56560000D02*
X119090000Y-55910000D01*
X122210000Y-55260000D02*
X122210000Y-55910000D01*
X122210000Y-56560000D02*
X122210000Y-55910000D01*
X122490000Y-57312500D02*
X122160000Y-57072500D01*
X122490000Y-56832500D01*
X122490000Y-57312500D01*
G36*
X122490000Y-57312500D02*
G01*
X122160000Y-57072500D01*
X122490000Y-56832500D01*
X122490000Y-57312500D01*
G37*
%TO.C,R12*%
X169365000Y-56027064D02*
X169365000Y-55572936D01*
X170835000Y-56027064D02*
X170835000Y-55572936D01*
%TO.C,BZ1*%
X206660000Y-71120000D02*
G75*
G02*
X194660000Y-71120000I-6000000J0D01*
G01*
X194660000Y-71120000D02*
G75*
G02*
X206660000Y-71120000I6000000J0D01*
G01*
%TD*%
%LPC*%
D15*
%TO.C,J4*%
X151130000Y-85090000D03*
%TD*%
D16*
%TO.C,H3*%
X218440000Y-95250000D03*
%TD*%
D17*
%TO.C,SW2*%
X216872500Y-70135000D03*
X216872500Y-77145000D03*
D18*
X219362500Y-71385000D03*
X219362500Y-75885000D03*
%TD*%
D17*
%TO.C,SW3*%
X216872500Y-81245000D03*
X216872500Y-88255000D03*
D18*
X219362500Y-82495000D03*
X219362500Y-86995000D03*
%TD*%
D16*
%TO.C,H4*%
X218440000Y-52070000D03*
%TD*%
%TO.C,H1*%
X83820000Y-52070000D03*
%TD*%
D15*
%TO.C,J1*%
X90170000Y-52070000D03*
D19*
X92710000Y-52070000D03*
X95250000Y-52070000D03*
X97790000Y-52070000D03*
X100330000Y-52070000D03*
X102870000Y-52070000D03*
X105410000Y-52070000D03*
X107950000Y-52070000D03*
X110490000Y-52070000D03*
X113030000Y-52070000D03*
X115570000Y-52070000D03*
X118110000Y-52070000D03*
X120650000Y-52070000D03*
X123190000Y-52070000D03*
X125730000Y-52070000D03*
X128270000Y-52070000D03*
X130810000Y-52070000D03*
X133350000Y-52070000D03*
X135890000Y-52070000D03*
X138430000Y-52070000D03*
X140970000Y-52070000D03*
X143510000Y-52070000D03*
X146050000Y-52070000D03*
X148590000Y-52070000D03*
X151130000Y-52070000D03*
X153670000Y-52070000D03*
X156210000Y-52070000D03*
X158750000Y-52070000D03*
X161290000Y-52070000D03*
X163830000Y-52070000D03*
X166370000Y-52070000D03*
X168910000Y-52070000D03*
X171450000Y-52070000D03*
X173990000Y-52070000D03*
X176530000Y-52070000D03*
X179070000Y-52070000D03*
X181610000Y-52070000D03*
X184150000Y-52070000D03*
X186690000Y-52070000D03*
X189230000Y-52070000D03*
X191770000Y-52070000D03*
X194310000Y-52070000D03*
X196850000Y-52070000D03*
X199390000Y-52070000D03*
X201930000Y-52070000D03*
X204470000Y-52070000D03*
X207010000Y-52070000D03*
X209550000Y-52070000D03*
X212090000Y-52070000D03*
%TD*%
D17*
%TO.C,SW1*%
X216872500Y-59075000D03*
X216872500Y-66085000D03*
D18*
X219362500Y-60325000D03*
X219362500Y-64825000D03*
%TD*%
D16*
%TO.C,H2*%
X83820000Y-95250000D03*
%TD*%
D15*
%TO.C,J3*%
X151130000Y-62230000D03*
%TD*%
%TO.C,J2*%
X90170000Y-54610000D03*
D19*
X90170000Y-57150000D03*
X90170000Y-59690000D03*
X90170000Y-62230000D03*
X90170000Y-64770000D03*
X90170000Y-67310000D03*
X90170000Y-69850000D03*
X90170000Y-72390000D03*
X90170000Y-74930000D03*
X90170000Y-77470000D03*
X90170000Y-80010000D03*
X90170000Y-82550000D03*
X90170000Y-85090000D03*
X90170000Y-87630000D03*
X90170000Y-90170000D03*
X90170000Y-92710000D03*
X90170000Y-95250000D03*
%TD*%
D16*
%TO.C,H5*%
X116840000Y-88900000D03*
%TD*%
D20*
%TO.C,R14*%
X185400000Y-54900000D03*
X185400000Y-56900000D03*
%TD*%
%TO.C,R9*%
X147200000Y-54900000D03*
X147200000Y-56900000D03*
%TD*%
D21*
%TO.C,R19*%
X104775000Y-69596000D03*
X102775000Y-69596000D03*
%TD*%
D22*
%TO.C,Q14*%
X190180000Y-56817500D03*
X188280000Y-56817500D03*
X189230000Y-54942500D03*
%TD*%
D20*
%TO.C,R7*%
X132000000Y-54900000D03*
X132000000Y-56900000D03*
%TD*%
D23*
%TO.C,C1*%
X162052000Y-86716000D03*
X162052000Y-93116000D03*
%TD*%
D24*
%TO.C,C3*%
X129264500Y-90500000D03*
X131339500Y-90500000D03*
%TD*%
D20*
%TO.C,R2*%
X94000000Y-54900000D03*
X94000000Y-56900000D03*
%TD*%
D24*
%TO.C,C7*%
X139297500Y-70993000D03*
X141372500Y-70993000D03*
%TD*%
D25*
%TO.C,R28*%
X113935000Y-65278000D03*
X115935000Y-65278000D03*
%TD*%
D26*
%TO.C,U2*%
X146509000Y-84582000D03*
X146509000Y-85852000D03*
X146509000Y-87122000D03*
X146509000Y-88392000D03*
X146509000Y-89662000D03*
X146509000Y-90932000D03*
X146509000Y-92202000D03*
X146509000Y-93472000D03*
X137209000Y-93472000D03*
X137209000Y-92202000D03*
X137209000Y-90932000D03*
X137209000Y-89662000D03*
X137209000Y-88392000D03*
X137209000Y-87122000D03*
X137209000Y-85852000D03*
X137209000Y-84582000D03*
%TD*%
D27*
%TO.C,C10*%
X151003000Y-89386500D03*
X151003000Y-91461500D03*
%TD*%
D22*
%TO.C,Q12*%
X174940000Y-56817500D03*
X173040000Y-56817500D03*
X173990000Y-54942500D03*
%TD*%
%TO.C,Q2*%
X98740000Y-56817500D03*
X96840000Y-56817500D03*
X97790000Y-54942500D03*
%TD*%
D20*
%TO.C,R15*%
X193000000Y-54900000D03*
X193000000Y-56900000D03*
%TD*%
D21*
%TO.C,R18*%
X104775000Y-67056000D03*
X102775000Y-67056000D03*
%TD*%
D28*
%TO.C,BT1*%
X177292000Y-95250000D03*
D29*
X177292000Y-74750000D03*
%TD*%
D22*
%TO.C,Q3*%
X106360000Y-56817500D03*
X104460000Y-56817500D03*
X105410000Y-54942500D03*
%TD*%
D30*
%TO.C,C6*%
X115972500Y-70358000D03*
X113897500Y-70358000D03*
%TD*%
D22*
%TO.C,Q10*%
X159700000Y-56817500D03*
X157800000Y-56817500D03*
X158750000Y-54942500D03*
%TD*%
%TO.C,Q8*%
X144460000Y-56817500D03*
X142560000Y-56817500D03*
X143510000Y-54942500D03*
%TD*%
D31*
%TO.C,Q18*%
X185950000Y-66662500D03*
X187850000Y-66662500D03*
X186900000Y-68537500D03*
%TD*%
D20*
%TO.C,R17*%
X208300000Y-54900000D03*
X208300000Y-56900000D03*
%TD*%
D22*
%TO.C,Q16*%
X205420000Y-56847500D03*
X203520000Y-56847500D03*
X204470000Y-54972500D03*
%TD*%
D25*
%TO.C,R29*%
X113935000Y-67818000D03*
X115935000Y-67818000D03*
%TD*%
D32*
%TO.C,R27*%
X193421000Y-80121000D03*
X193421000Y-78121000D03*
%TD*%
D21*
%TO.C,R21*%
X104775000Y-74676000D03*
X102775000Y-74676000D03*
%TD*%
D20*
%TO.C,R8*%
X139700000Y-54900000D03*
X139700000Y-56900000D03*
%TD*%
%TO.C,R13*%
X177700000Y-54900000D03*
X177700000Y-56900000D03*
%TD*%
%TO.C,R25*%
X154178000Y-82820000D03*
X154178000Y-84820000D03*
%TD*%
%TO.C,R16*%
X200500000Y-54900000D03*
X200500000Y-56900000D03*
%TD*%
D21*
%TO.C,R22*%
X104775000Y-77216000D03*
X102775000Y-77216000D03*
%TD*%
D22*
%TO.C,Q11*%
X167320000Y-56817500D03*
X165420000Y-56817500D03*
X166370000Y-54942500D03*
%TD*%
%TO.C,Q7*%
X136840000Y-56817500D03*
X134940000Y-56817500D03*
X135890000Y-54942500D03*
%TD*%
D33*
%TO.C,Y1*%
X124460000Y-86100000D03*
X129340000Y-86100000D03*
%TD*%
D15*
%TO.C,R30*%
X141000000Y-61000000D03*
D19*
X138460000Y-61000000D03*
%TD*%
D22*
%TO.C,Q13*%
X182560000Y-56817500D03*
X180660000Y-56817500D03*
X181610000Y-54942500D03*
%TD*%
D34*
%TO.C,C4*%
X132000000Y-62037500D03*
X132000000Y-59962500D03*
%TD*%
D20*
%TO.C,R5*%
X116800000Y-54900000D03*
X116800000Y-56900000D03*
%TD*%
%TO.C,R3*%
X101700000Y-54900000D03*
X101700000Y-56900000D03*
%TD*%
%TO.C,R4*%
X109200000Y-54900000D03*
X109200000Y-56900000D03*
%TD*%
D32*
%TO.C,R31*%
X134500000Y-62000000D03*
X134500000Y-60000000D03*
%TD*%
D30*
%TO.C,C8*%
X132609500Y-81788000D03*
X130534500Y-81788000D03*
%TD*%
D35*
%TO.C,J5*%
X103799000Y-87859000D03*
D36*
X106299000Y-87859000D03*
X106299000Y-91059000D03*
X103799000Y-91059000D03*
D37*
X111069000Y-90569000D03*
X99029000Y-90569000D03*
%TD*%
D38*
%TO.C,Q1*%
X98737500Y-60450000D03*
X98737500Y-62350000D03*
X96862500Y-61400000D03*
%TD*%
D39*
%TO.C,J6*%
X195580000Y-83820000D03*
D40*
X195580000Y-86360000D03*
X198120000Y-83820000D03*
X198120000Y-86360000D03*
X200660000Y-83820000D03*
X200660000Y-86360000D03*
X203200000Y-83820000D03*
X203200000Y-86360000D03*
X205740000Y-83820000D03*
X205740000Y-86360000D03*
%TD*%
D22*
%TO.C,Q9*%
X152080000Y-56817500D03*
X150180000Y-56817500D03*
X151130000Y-54942500D03*
%TD*%
D30*
%TO.C,C2*%
X124537500Y-90600000D03*
X122462500Y-90600000D03*
%TD*%
D41*
%TO.C,U1*%
X134175000Y-77074000D03*
X133375000Y-77074000D03*
X132575000Y-77074000D03*
X131775000Y-77074000D03*
X130975000Y-77074000D03*
X130175000Y-77074000D03*
X129375000Y-77074000D03*
X128575000Y-77074000D03*
X127775000Y-77074000D03*
X126975000Y-77074000D03*
X126175000Y-77074000D03*
D42*
X124475000Y-75374000D03*
X124475000Y-74574000D03*
X124475000Y-73774000D03*
X124475000Y-72974000D03*
X124475000Y-72174000D03*
X124475000Y-71374000D03*
X124475000Y-70574000D03*
X124475000Y-69774000D03*
X124475000Y-68974000D03*
X124475000Y-68174000D03*
X124475000Y-67374000D03*
D41*
X126175000Y-65674000D03*
X126975000Y-65674000D03*
X127775000Y-65674000D03*
X128575000Y-65674000D03*
X129375000Y-65674000D03*
X130175000Y-65674000D03*
X130975000Y-65674000D03*
X131775000Y-65674000D03*
X132575000Y-65674000D03*
X133375000Y-65674000D03*
X134175000Y-65674000D03*
D42*
X135875000Y-67374000D03*
X135875000Y-68174000D03*
X135875000Y-68974000D03*
X135875000Y-69774000D03*
X135875000Y-70574000D03*
X135875000Y-71374000D03*
X135875000Y-72174000D03*
X135875000Y-72974000D03*
X135875000Y-73774000D03*
X135875000Y-74574000D03*
X135875000Y-75374000D03*
%TD*%
D21*
%TO.C,R20*%
X104775000Y-72136000D03*
X102775000Y-72136000D03*
%TD*%
D20*
%TO.C,R6*%
X124400000Y-54900000D03*
X124400000Y-56900000D03*
%TD*%
D22*
%TO.C,Q4*%
X113980000Y-56817500D03*
X112080000Y-56817500D03*
X113030000Y-54942500D03*
%TD*%
D20*
%TO.C,R26*%
X182200000Y-66500000D03*
X182200000Y-68500000D03*
%TD*%
D34*
%TO.C,C9*%
X129500000Y-62037500D03*
X129500000Y-59962500D03*
%TD*%
D43*
%TO.C,D1*%
X191600000Y-66250000D03*
X191600000Y-68750000D03*
%TD*%
D21*
%TO.C,R23*%
X104775000Y-79756000D03*
X102775000Y-79756000D03*
%TD*%
D20*
%TO.C,R10*%
X154900000Y-54900000D03*
X154900000Y-56900000D03*
%TD*%
%TO.C,R24*%
X148082000Y-60214000D03*
X148082000Y-62214000D03*
%TD*%
D22*
%TO.C,Q17*%
X213040000Y-56817500D03*
X211140000Y-56817500D03*
X212090000Y-54942500D03*
%TD*%
D27*
%TO.C,C5*%
X191008000Y-78083500D03*
X191008000Y-80158500D03*
%TD*%
D20*
%TO.C,R11*%
X162500000Y-54900000D03*
X162500000Y-56900000D03*
%TD*%
D22*
%TO.C,Q6*%
X129220000Y-56847500D03*
X127320000Y-56847500D03*
X128270000Y-54972500D03*
%TD*%
D25*
%TO.C,R1*%
X96800000Y-64500000D03*
X98800000Y-64500000D03*
%TD*%
D22*
%TO.C,Q15*%
X197800000Y-56847500D03*
X195900000Y-56847500D03*
X196850000Y-54972500D03*
%TD*%
%TO.C,Q5*%
X121600000Y-56847500D03*
X119700000Y-56847500D03*
X120650000Y-54972500D03*
%TD*%
D20*
%TO.C,R12*%
X170100000Y-54800000D03*
X170100000Y-56800000D03*
%TD*%
D44*
%TO.C,BZ1*%
X203910000Y-71120000D03*
D45*
X197410000Y-71120000D03*
%TD*%
%LPD*%
M02*
