%TF.GenerationSoftware,KiCad,Pcbnew,8.0.5*%
%TF.CreationDate,2024-11-22T23:14:38+03:00*%
%TF.ProjectId,SuperClockController,53757065-7243-46c6-9f63-6b436f6e7472,rev?*%
%TF.SameCoordinates,Original*%
%TF.FileFunction,Paste,Bot*%
%TF.FilePolarity,Positive*%
%FSLAX46Y46*%
G04 Gerber Fmt 4.6, Leading zero omitted, Abs format (unit mm)*
G04 Created by KiCad (PCBNEW 8.0.5) date 2024-11-22 23:14:38*
%MOMM*%
%LPD*%
G01*
G04 APERTURE LIST*
G04 Aperture macros list*
%AMRoundRect*
0 Rectangle with rounded corners*
0 $1 Rounding radius*
0 $2 $3 $4 $5 $6 $7 $8 $9 X,Y pos of 4 corners*
0 Add a 4 corners polygon primitive as box body*
4,1,4,$2,$3,$4,$5,$6,$7,$8,$9,$2,$3,0*
0 Add four circle primitives for the rounded corners*
1,1,$1+$1,$2,$3*
1,1,$1+$1,$4,$5*
1,1,$1+$1,$6,$7*
1,1,$1+$1,$8,$9*
0 Add four rect primitives between the rounded corners*
20,1,$1+$1,$2,$3,$4,$5,0*
20,1,$1+$1,$4,$5,$6,$7,0*
20,1,$1+$1,$6,$7,$8,$9,0*
20,1,$1+$1,$8,$9,$2,$3,0*%
G04 Aperture macros list end*
%ADD10RoundRect,0.250000X0.350000X0.450000X-0.350000X0.450000X-0.350000X-0.450000X0.350000X-0.450000X0*%
%ADD11RoundRect,0.150000X0.150000X-0.587500X0.150000X0.587500X-0.150000X0.587500X-0.150000X-0.587500X0*%
%ADD12RoundRect,0.250000X-0.925000X0.875000X-0.925000X-0.875000X0.925000X-0.875000X0.925000X0.875000X0*%
%ADD13RoundRect,0.250000X-0.337500X-0.475000X0.337500X-0.475000X0.337500X0.475000X-0.337500X0.475000X0*%
%ADD14RoundRect,0.250000X-0.350000X-0.450000X0.350000X-0.450000X0.350000X0.450000X-0.350000X0.450000X0*%
%ADD15RoundRect,0.150000X0.875000X0.150000X-0.875000X0.150000X-0.875000X-0.150000X0.875000X-0.150000X0*%
%ADD16RoundRect,0.250000X-0.475000X0.337500X-0.475000X-0.337500X0.475000X-0.337500X0.475000X0.337500X0*%
%ADD17RoundRect,0.250000X0.337500X0.475000X-0.337500X0.475000X-0.337500X-0.475000X0.337500X-0.475000X0*%
%ADD18RoundRect,0.150000X-0.150000X0.587500X-0.150000X-0.587500X0.150000X-0.587500X0.150000X0.587500X0*%
%ADD19RoundRect,0.250000X0.450000X-0.350000X0.450000X0.350000X-0.450000X0.350000X-0.450000X-0.350000X0*%
%ADD20RoundRect,0.250000X-0.450000X0.350000X-0.450000X-0.350000X0.450000X-0.350000X0.450000X0.350000X0*%
%ADD21RoundRect,0.250000X0.475000X-0.337500X0.475000X0.337500X-0.475000X0.337500X-0.475000X-0.337500X0*%
%ADD22RoundRect,0.150000X0.587500X0.150000X-0.587500X0.150000X-0.587500X-0.150000X0.587500X-0.150000X0*%
%ADD23R,0.550000X1.500000*%
%ADD24R,1.500000X0.550000*%
%ADD25RoundRect,0.250000X-0.250000X0.250000X-0.250000X-0.250000X0.250000X-0.250000X0.250000X0.250000X0*%
G04 APERTURE END LIST*
D10*
%TO.C,R10*%
X104775000Y-69596000D03*
X102775000Y-69596000D03*
%TD*%
D11*
%TO.C,Q15*%
X190180000Y-56817500D03*
X188280000Y-56817500D03*
X189230000Y-54942500D03*
%TD*%
D12*
%TO.C,C4*%
X162052000Y-87366000D03*
X162052000Y-92466000D03*
%TD*%
D13*
%TO.C,C2*%
X129264500Y-85598000D03*
X131339500Y-85598000D03*
%TD*%
%TO.C,C6*%
X139297500Y-70993000D03*
X141372500Y-70993000D03*
%TD*%
D14*
%TO.C,R3*%
X113935000Y-65278000D03*
X115935000Y-65278000D03*
%TD*%
D15*
%TO.C,U2*%
X146509000Y-84582000D03*
X146509000Y-85852000D03*
X146509000Y-87122000D03*
X146509000Y-88392000D03*
X146509000Y-89662000D03*
X146509000Y-90932000D03*
X146509000Y-92202000D03*
X146509000Y-93472000D03*
X137209000Y-93472000D03*
X137209000Y-92202000D03*
X137209000Y-90932000D03*
X137209000Y-89662000D03*
X137209000Y-88392000D03*
X137209000Y-87122000D03*
X137209000Y-85852000D03*
X137209000Y-84582000D03*
%TD*%
D16*
%TO.C,C7*%
X151003000Y-89386500D03*
X151003000Y-91461500D03*
%TD*%
D11*
%TO.C,Q13*%
X174940000Y-56817500D03*
X173040000Y-56817500D03*
X173990000Y-54942500D03*
%TD*%
%TO.C,Q3*%
X98740000Y-56817500D03*
X96840000Y-56817500D03*
X97790000Y-54942500D03*
%TD*%
D10*
%TO.C,R9*%
X104775000Y-67056000D03*
X102775000Y-67056000D03*
%TD*%
D11*
%TO.C,Q4*%
X106360000Y-56817500D03*
X104460000Y-56817500D03*
X105410000Y-54942500D03*
%TD*%
D17*
%TO.C,C5*%
X115972500Y-70358000D03*
X113897500Y-70358000D03*
%TD*%
D11*
%TO.C,Q11*%
X159700000Y-56817500D03*
X157800000Y-56817500D03*
X158750000Y-54942500D03*
%TD*%
%TO.C,Q9*%
X144460000Y-56817500D03*
X142560000Y-56817500D03*
X143510000Y-54942500D03*
%TD*%
D18*
%TO.C,Q1*%
X185950000Y-66662500D03*
X187850000Y-66662500D03*
X186900000Y-68537500D03*
%TD*%
D11*
%TO.C,Q17*%
X205420000Y-56847500D03*
X203520000Y-56847500D03*
X204470000Y-54972500D03*
%TD*%
D14*
%TO.C,R4*%
X113935000Y-67818000D03*
X115935000Y-67818000D03*
%TD*%
D19*
%TO.C,R2*%
X193421000Y-80121000D03*
X193421000Y-78121000D03*
%TD*%
D10*
%TO.C,R12*%
X104775000Y-74676000D03*
X102775000Y-74676000D03*
%TD*%
D20*
%TO.C,R8*%
X154178000Y-82820000D03*
X154178000Y-84820000D03*
%TD*%
D10*
%TO.C,R13*%
X104775000Y-77216000D03*
X102775000Y-77216000D03*
%TD*%
D11*
%TO.C,Q12*%
X167320000Y-56817500D03*
X165420000Y-56817500D03*
X166370000Y-54942500D03*
%TD*%
%TO.C,Q8*%
X136840000Y-56817500D03*
X134940000Y-56817500D03*
X135890000Y-54942500D03*
%TD*%
%TO.C,Q14*%
X182560000Y-56817500D03*
X180660000Y-56817500D03*
X181610000Y-54942500D03*
%TD*%
D21*
%TO.C,C3*%
X130175000Y-62251500D03*
X130175000Y-60176500D03*
%TD*%
D19*
%TO.C,R6*%
X132588000Y-62214000D03*
X132588000Y-60214000D03*
%TD*%
D17*
%TO.C,C9*%
X132609500Y-81788000D03*
X130534500Y-81788000D03*
%TD*%
D22*
%TO.C,Q2*%
X98727500Y-60010000D03*
X98727500Y-61910000D03*
X96852500Y-60960000D03*
%TD*%
D11*
%TO.C,Q10*%
X152080000Y-56817500D03*
X150180000Y-56817500D03*
X151130000Y-54942500D03*
%TD*%
D17*
%TO.C,C1*%
X124481500Y-85598000D03*
X122406500Y-85598000D03*
%TD*%
D23*
%TO.C,U1*%
X134175000Y-77074000D03*
X133375000Y-77074000D03*
X132575000Y-77074000D03*
X131775000Y-77074000D03*
X130975000Y-77074000D03*
X130175000Y-77074000D03*
X129375000Y-77074000D03*
X128575000Y-77074000D03*
X127775000Y-77074000D03*
X126975000Y-77074000D03*
X126175000Y-77074000D03*
D24*
X124475000Y-75374000D03*
X124475000Y-74574000D03*
X124475000Y-73774000D03*
X124475000Y-72974000D03*
X124475000Y-72174000D03*
X124475000Y-71374000D03*
X124475000Y-70574000D03*
X124475000Y-69774000D03*
X124475000Y-68974000D03*
X124475000Y-68174000D03*
X124475000Y-67374000D03*
D23*
X126175000Y-65674000D03*
X126975000Y-65674000D03*
X127775000Y-65674000D03*
X128575000Y-65674000D03*
X129375000Y-65674000D03*
X130175000Y-65674000D03*
X130975000Y-65674000D03*
X131775000Y-65674000D03*
X132575000Y-65674000D03*
X133375000Y-65674000D03*
X134175000Y-65674000D03*
D24*
X135875000Y-67374000D03*
X135875000Y-68174000D03*
X135875000Y-68974000D03*
X135875000Y-69774000D03*
X135875000Y-70574000D03*
X135875000Y-71374000D03*
X135875000Y-72174000D03*
X135875000Y-72974000D03*
X135875000Y-73774000D03*
X135875000Y-74574000D03*
X135875000Y-75374000D03*
%TD*%
D10*
%TO.C,R11*%
X104775000Y-72136000D03*
X102775000Y-72136000D03*
%TD*%
D11*
%TO.C,Q5*%
X113980000Y-56817500D03*
X112080000Y-56817500D03*
X113030000Y-54942500D03*
%TD*%
D20*
%TO.C,R1*%
X182200000Y-66500000D03*
X182200000Y-68500000D03*
%TD*%
D25*
%TO.C,D1*%
X191600000Y-66250000D03*
X191600000Y-68750000D03*
%TD*%
D10*
%TO.C,R14*%
X104775000Y-79756000D03*
X102775000Y-79756000D03*
%TD*%
D20*
%TO.C,R7*%
X148082000Y-60214000D03*
X148082000Y-62214000D03*
%TD*%
D11*
%TO.C,Q18*%
X213040000Y-56817500D03*
X211140000Y-56817500D03*
X212090000Y-54942500D03*
%TD*%
D16*
%TO.C,C8*%
X191008000Y-78083500D03*
X191008000Y-80158500D03*
%TD*%
D11*
%TO.C,Q7*%
X129220000Y-56847500D03*
X127320000Y-56847500D03*
X128270000Y-54972500D03*
%TD*%
%TO.C,Q16*%
X197800000Y-56847500D03*
X195900000Y-56847500D03*
X196850000Y-54972500D03*
%TD*%
%TO.C,Q6*%
X121600000Y-56847500D03*
X119700000Y-56847500D03*
X120650000Y-54972500D03*
%TD*%
M02*
