%TF.GenerationSoftware,KiCad,Pcbnew,8.0.5*%
%TF.CreationDate,2025-01-20T02:34:16+03:00*%
%TF.ProjectId,SuperClockController,53757065-7243-46c6-9f63-6b436f6e7472,rev?*%
%TF.SameCoordinates,Original*%
%TF.FileFunction,Soldermask,Bot*%
%TF.FilePolarity,Negative*%
%FSLAX46Y46*%
G04 Gerber Fmt 4.6, Leading zero omitted, Abs format (unit mm)*
G04 Created by KiCad (PCBNEW 8.0.5) date 2025-01-20 02:34:16*
%MOMM*%
%LPD*%
G01*
G04 APERTURE LIST*
G04 Aperture macros list*
%AMRoundRect*
0 Rectangle with rounded corners*
0 $1 Rounding radius*
0 $2 $3 $4 $5 $6 $7 $8 $9 X,Y pos of 4 corners*
0 Add a 4 corners polygon primitive as box body*
4,1,4,$2,$3,$4,$5,$6,$7,$8,$9,$2,$3,0*
0 Add four circle primitives for the rounded corners*
1,1,$1+$1,$2,$3*
1,1,$1+$1,$4,$5*
1,1,$1+$1,$6,$7*
1,1,$1+$1,$8,$9*
0 Add four rect primitives between the rounded corners*
20,1,$1+$1,$2,$3,$4,$5,0*
20,1,$1+$1,$4,$5,$6,$7,0*
20,1,$1+$1,$6,$7,$8,$9,0*
20,1,$1+$1,$8,$9,$2,$3,0*%
G04 Aperture macros list end*
%ADD10R,1.700000X1.700000*%
%ADD11C,4.000000*%
%ADD12C,2.100000*%
%ADD13C,1.750000*%
%ADD14O,1.700000X1.700000*%
%ADD15RoundRect,0.250000X-0.450000X0.350000X-0.450000X-0.350000X0.450000X-0.350000X0.450000X0.350000X0*%
%ADD16RoundRect,0.250000X0.350000X0.450000X-0.350000X0.450000X-0.350000X-0.450000X0.350000X-0.450000X0*%
%ADD17RoundRect,0.150000X0.150000X-0.587500X0.150000X0.587500X-0.150000X0.587500X-0.150000X-0.587500X0*%
%ADD18RoundRect,0.250000X-1.025000X0.875000X-1.025000X-0.875000X1.025000X-0.875000X1.025000X0.875000X0*%
%ADD19RoundRect,0.250000X-0.337500X-0.475000X0.337500X-0.475000X0.337500X0.475000X-0.337500X0.475000X0*%
%ADD20RoundRect,0.250000X-0.350000X-0.450000X0.350000X-0.450000X0.350000X0.450000X-0.350000X0.450000X0*%
%ADD21RoundRect,0.150000X0.875000X0.150000X-0.875000X0.150000X-0.875000X-0.150000X0.875000X-0.150000X0*%
%ADD22RoundRect,0.250000X-0.475000X0.337500X-0.475000X-0.337500X0.475000X-0.337500X0.475000X0.337500X0*%
%ADD23R,2.000000X1.600000*%
%ADD24O,2.000000X1.600000*%
%ADD25RoundRect,0.250000X0.337500X0.475000X-0.337500X0.475000X-0.337500X-0.475000X0.337500X-0.475000X0*%
%ADD26RoundRect,0.150000X-0.150000X0.587500X-0.150000X-0.587500X0.150000X-0.587500X0.150000X0.587500X0*%
%ADD27RoundRect,0.250000X0.450000X-0.350000X0.450000X0.350000X-0.450000X0.350000X-0.450000X-0.350000X0*%
%ADD28C,1.500000*%
%ADD29RoundRect,0.250000X0.475000X-0.337500X0.475000X0.337500X-0.475000X0.337500X-0.475000X-0.337500X0*%
%ADD30R,1.400000X1.400000*%
%ADD31C,1.400000*%
%ADD32C,3.000000*%
%ADD33RoundRect,0.150000X0.587500X0.150000X-0.587500X0.150000X-0.587500X-0.150000X0.587500X-0.150000X0*%
%ADD34RoundRect,0.250000X-0.600000X0.600000X-0.600000X-0.600000X0.600000X-0.600000X0.600000X0.600000X0*%
%ADD35C,1.700000*%
%ADD36R,0.550000X1.500000*%
%ADD37R,1.500000X0.550000*%
%ADD38RoundRect,0.250000X-0.250000X0.250000X-0.250000X-0.250000X0.250000X-0.250000X0.250000X0.250000X0*%
%ADD39R,2.000000X2.000000*%
%ADD40C,2.000000*%
G04 APERTURE END LIST*
D10*
%TO.C,J4*%
X151130000Y-85090000D03*
%TD*%
D11*
%TO.C,H3*%
X218440000Y-95250000D03*
%TD*%
D12*
%TO.C,SW2*%
X216872500Y-70135000D03*
X216872500Y-77145000D03*
D13*
X219362500Y-71385000D03*
X219362500Y-75885000D03*
%TD*%
D12*
%TO.C,SW3*%
X216872500Y-81245000D03*
X216872500Y-88255000D03*
D13*
X219362500Y-82495000D03*
X219362500Y-86995000D03*
%TD*%
D11*
%TO.C,H4*%
X218440000Y-52070000D03*
%TD*%
%TO.C,H1*%
X83820000Y-52070000D03*
%TD*%
D10*
%TO.C,J1*%
X90170000Y-52070000D03*
D14*
X92710000Y-52070000D03*
X95250000Y-52070000D03*
X97790000Y-52070000D03*
X100330000Y-52070000D03*
X102870000Y-52070000D03*
X105410000Y-52070000D03*
X107950000Y-52070000D03*
X110490000Y-52070000D03*
X113030000Y-52070000D03*
X115570000Y-52070000D03*
X118110000Y-52070000D03*
X120650000Y-52070000D03*
X123190000Y-52070000D03*
X125730000Y-52070000D03*
X128270000Y-52070000D03*
X130810000Y-52070000D03*
X133350000Y-52070000D03*
X135890000Y-52070000D03*
X138430000Y-52070000D03*
X140970000Y-52070000D03*
X143510000Y-52070000D03*
X146050000Y-52070000D03*
X148590000Y-52070000D03*
X151130000Y-52070000D03*
X153670000Y-52070000D03*
X156210000Y-52070000D03*
X158750000Y-52070000D03*
X161290000Y-52070000D03*
X163830000Y-52070000D03*
X166370000Y-52070000D03*
X168910000Y-52070000D03*
X171450000Y-52070000D03*
X173990000Y-52070000D03*
X176530000Y-52070000D03*
X179070000Y-52070000D03*
X181610000Y-52070000D03*
X184150000Y-52070000D03*
X186690000Y-52070000D03*
X189230000Y-52070000D03*
X191770000Y-52070000D03*
X194310000Y-52070000D03*
X196850000Y-52070000D03*
X199390000Y-52070000D03*
X201930000Y-52070000D03*
X204470000Y-52070000D03*
X207010000Y-52070000D03*
X209550000Y-52070000D03*
X212090000Y-52070000D03*
%TD*%
D12*
%TO.C,SW1*%
X216872500Y-59075000D03*
X216872500Y-66085000D03*
D13*
X219362500Y-60325000D03*
X219362500Y-64825000D03*
%TD*%
D11*
%TO.C,H2*%
X83820000Y-95250000D03*
%TD*%
D10*
%TO.C,J3*%
X151130000Y-62230000D03*
%TD*%
%TO.C,J2*%
X90170000Y-54610000D03*
D14*
X90170000Y-57150000D03*
X90170000Y-59690000D03*
X90170000Y-62230000D03*
X90170000Y-64770000D03*
X90170000Y-67310000D03*
X90170000Y-69850000D03*
X90170000Y-72390000D03*
X90170000Y-74930000D03*
X90170000Y-77470000D03*
X90170000Y-80010000D03*
X90170000Y-82550000D03*
X90170000Y-85090000D03*
X90170000Y-87630000D03*
X90170000Y-90170000D03*
X90170000Y-92710000D03*
X90170000Y-95250000D03*
%TD*%
D11*
%TO.C,H5*%
X116840000Y-88900000D03*
%TD*%
D15*
%TO.C,R14*%
X185400000Y-54900000D03*
X185400000Y-56900000D03*
%TD*%
%TO.C,R9*%
X147200000Y-54900000D03*
X147200000Y-56900000D03*
%TD*%
D16*
%TO.C,R19*%
X104775000Y-69596000D03*
X102775000Y-69596000D03*
%TD*%
D17*
%TO.C,Q14*%
X190180000Y-56817500D03*
X188280000Y-56817500D03*
X189230000Y-54942500D03*
%TD*%
D15*
%TO.C,R7*%
X132000000Y-54900000D03*
X132000000Y-56900000D03*
%TD*%
D18*
%TO.C,C1*%
X162052000Y-86716000D03*
X162052000Y-93116000D03*
%TD*%
D19*
%TO.C,C3*%
X129264500Y-90500000D03*
X131339500Y-90500000D03*
%TD*%
D15*
%TO.C,R2*%
X94000000Y-54900000D03*
X94000000Y-56900000D03*
%TD*%
D19*
%TO.C,C7*%
X139297500Y-70993000D03*
X141372500Y-70993000D03*
%TD*%
D20*
%TO.C,R28*%
X113935000Y-65278000D03*
X115935000Y-65278000D03*
%TD*%
D21*
%TO.C,U2*%
X146509000Y-84582000D03*
X146509000Y-85852000D03*
X146509000Y-87122000D03*
X146509000Y-88392000D03*
X146509000Y-89662000D03*
X146509000Y-90932000D03*
X146509000Y-92202000D03*
X146509000Y-93472000D03*
X137209000Y-93472000D03*
X137209000Y-92202000D03*
X137209000Y-90932000D03*
X137209000Y-89662000D03*
X137209000Y-88392000D03*
X137209000Y-87122000D03*
X137209000Y-85852000D03*
X137209000Y-84582000D03*
%TD*%
D22*
%TO.C,C10*%
X151003000Y-89386500D03*
X151003000Y-91461500D03*
%TD*%
D17*
%TO.C,Q12*%
X174940000Y-56817500D03*
X173040000Y-56817500D03*
X173990000Y-54942500D03*
%TD*%
%TO.C,Q2*%
X98740000Y-56817500D03*
X96840000Y-56817500D03*
X97790000Y-54942500D03*
%TD*%
D15*
%TO.C,R15*%
X193000000Y-54900000D03*
X193000000Y-56900000D03*
%TD*%
D16*
%TO.C,R18*%
X104775000Y-67056000D03*
X102775000Y-67056000D03*
%TD*%
D23*
%TO.C,BT1*%
X177292000Y-95250000D03*
D24*
X177292000Y-74750000D03*
%TD*%
D17*
%TO.C,Q3*%
X106360000Y-56817500D03*
X104460000Y-56817500D03*
X105410000Y-54942500D03*
%TD*%
D25*
%TO.C,C6*%
X115972500Y-70358000D03*
X113897500Y-70358000D03*
%TD*%
D17*
%TO.C,Q10*%
X159700000Y-56817500D03*
X157800000Y-56817500D03*
X158750000Y-54942500D03*
%TD*%
%TO.C,Q8*%
X144460000Y-56817500D03*
X142560000Y-56817500D03*
X143510000Y-54942500D03*
%TD*%
D26*
%TO.C,Q18*%
X185950000Y-66662500D03*
X187850000Y-66662500D03*
X186900000Y-68537500D03*
%TD*%
D15*
%TO.C,R17*%
X208300000Y-54900000D03*
X208300000Y-56900000D03*
%TD*%
D17*
%TO.C,Q16*%
X205420000Y-56847500D03*
X203520000Y-56847500D03*
X204470000Y-54972500D03*
%TD*%
D20*
%TO.C,R29*%
X113935000Y-67818000D03*
X115935000Y-67818000D03*
%TD*%
D27*
%TO.C,R27*%
X193421000Y-80121000D03*
X193421000Y-78121000D03*
%TD*%
D16*
%TO.C,R21*%
X104775000Y-74676000D03*
X102775000Y-74676000D03*
%TD*%
D15*
%TO.C,R8*%
X139700000Y-54900000D03*
X139700000Y-56900000D03*
%TD*%
%TO.C,R13*%
X177700000Y-54900000D03*
X177700000Y-56900000D03*
%TD*%
%TO.C,R25*%
X154178000Y-82820000D03*
X154178000Y-84820000D03*
%TD*%
%TO.C,R16*%
X200500000Y-54900000D03*
X200500000Y-56900000D03*
%TD*%
D16*
%TO.C,R22*%
X104775000Y-77216000D03*
X102775000Y-77216000D03*
%TD*%
D17*
%TO.C,Q11*%
X167320000Y-56817500D03*
X165420000Y-56817500D03*
X166370000Y-54942500D03*
%TD*%
%TO.C,Q7*%
X136840000Y-56817500D03*
X134940000Y-56817500D03*
X135890000Y-54942500D03*
%TD*%
D28*
%TO.C,Y1*%
X124460000Y-86100000D03*
X129340000Y-86100000D03*
%TD*%
D10*
%TO.C,R30*%
X141000000Y-61000000D03*
D14*
X138460000Y-61000000D03*
%TD*%
D17*
%TO.C,Q13*%
X182560000Y-56817500D03*
X180660000Y-56817500D03*
X181610000Y-54942500D03*
%TD*%
D29*
%TO.C,C4*%
X132000000Y-62037500D03*
X132000000Y-59962500D03*
%TD*%
D15*
%TO.C,R5*%
X116800000Y-54900000D03*
X116800000Y-56900000D03*
%TD*%
%TO.C,R3*%
X101700000Y-54900000D03*
X101700000Y-56900000D03*
%TD*%
%TO.C,R4*%
X109200000Y-54900000D03*
X109200000Y-56900000D03*
%TD*%
D27*
%TO.C,R31*%
X134500000Y-62000000D03*
X134500000Y-60000000D03*
%TD*%
D25*
%TO.C,C8*%
X132609500Y-81788000D03*
X130534500Y-81788000D03*
%TD*%
D30*
%TO.C,J5*%
X103799000Y-87859000D03*
D31*
X106299000Y-87859000D03*
X106299000Y-91059000D03*
X103799000Y-91059000D03*
D32*
X111069000Y-90569000D03*
X99029000Y-90569000D03*
%TD*%
D33*
%TO.C,Q1*%
X98737500Y-60450000D03*
X98737500Y-62350000D03*
X96862500Y-61400000D03*
%TD*%
D34*
%TO.C,J6*%
X195580000Y-83820000D03*
D35*
X195580000Y-86360000D03*
X198120000Y-83820000D03*
X198120000Y-86360000D03*
X200660000Y-83820000D03*
X200660000Y-86360000D03*
X203200000Y-83820000D03*
X203200000Y-86360000D03*
X205740000Y-83820000D03*
X205740000Y-86360000D03*
%TD*%
D17*
%TO.C,Q9*%
X152080000Y-56817500D03*
X150180000Y-56817500D03*
X151130000Y-54942500D03*
%TD*%
D25*
%TO.C,C2*%
X124537500Y-90600000D03*
X122462500Y-90600000D03*
%TD*%
D36*
%TO.C,U1*%
X134175000Y-77074000D03*
X133375000Y-77074000D03*
X132575000Y-77074000D03*
X131775000Y-77074000D03*
X130975000Y-77074000D03*
X130175000Y-77074000D03*
X129375000Y-77074000D03*
X128575000Y-77074000D03*
X127775000Y-77074000D03*
X126975000Y-77074000D03*
X126175000Y-77074000D03*
D37*
X124475000Y-75374000D03*
X124475000Y-74574000D03*
X124475000Y-73774000D03*
X124475000Y-72974000D03*
X124475000Y-72174000D03*
X124475000Y-71374000D03*
X124475000Y-70574000D03*
X124475000Y-69774000D03*
X124475000Y-68974000D03*
X124475000Y-68174000D03*
X124475000Y-67374000D03*
D36*
X126175000Y-65674000D03*
X126975000Y-65674000D03*
X127775000Y-65674000D03*
X128575000Y-65674000D03*
X129375000Y-65674000D03*
X130175000Y-65674000D03*
X130975000Y-65674000D03*
X131775000Y-65674000D03*
X132575000Y-65674000D03*
X133375000Y-65674000D03*
X134175000Y-65674000D03*
D37*
X135875000Y-67374000D03*
X135875000Y-68174000D03*
X135875000Y-68974000D03*
X135875000Y-69774000D03*
X135875000Y-70574000D03*
X135875000Y-71374000D03*
X135875000Y-72174000D03*
X135875000Y-72974000D03*
X135875000Y-73774000D03*
X135875000Y-74574000D03*
X135875000Y-75374000D03*
%TD*%
D16*
%TO.C,R20*%
X104775000Y-72136000D03*
X102775000Y-72136000D03*
%TD*%
D15*
%TO.C,R6*%
X124400000Y-54900000D03*
X124400000Y-56900000D03*
%TD*%
D17*
%TO.C,Q4*%
X113980000Y-56817500D03*
X112080000Y-56817500D03*
X113030000Y-54942500D03*
%TD*%
D15*
%TO.C,R26*%
X182200000Y-66500000D03*
X182200000Y-68500000D03*
%TD*%
D29*
%TO.C,C9*%
X129500000Y-62037500D03*
X129500000Y-59962500D03*
%TD*%
D38*
%TO.C,D1*%
X191600000Y-66250000D03*
X191600000Y-68750000D03*
%TD*%
D16*
%TO.C,R23*%
X104775000Y-79756000D03*
X102775000Y-79756000D03*
%TD*%
D15*
%TO.C,R10*%
X154900000Y-54900000D03*
X154900000Y-56900000D03*
%TD*%
%TO.C,R24*%
X148082000Y-60214000D03*
X148082000Y-62214000D03*
%TD*%
D17*
%TO.C,Q17*%
X213040000Y-56817500D03*
X211140000Y-56817500D03*
X212090000Y-54942500D03*
%TD*%
D22*
%TO.C,C5*%
X191008000Y-78083500D03*
X191008000Y-80158500D03*
%TD*%
D15*
%TO.C,R11*%
X162500000Y-54900000D03*
X162500000Y-56900000D03*
%TD*%
D17*
%TO.C,Q6*%
X129220000Y-56847500D03*
X127320000Y-56847500D03*
X128270000Y-54972500D03*
%TD*%
D20*
%TO.C,R1*%
X96800000Y-64500000D03*
X98800000Y-64500000D03*
%TD*%
D17*
%TO.C,Q15*%
X197800000Y-56847500D03*
X195900000Y-56847500D03*
X196850000Y-54972500D03*
%TD*%
%TO.C,Q5*%
X121600000Y-56847500D03*
X119700000Y-56847500D03*
X120650000Y-54972500D03*
%TD*%
D15*
%TO.C,R12*%
X170100000Y-54800000D03*
X170100000Y-56800000D03*
%TD*%
D39*
%TO.C,BZ1*%
X203910000Y-71120000D03*
D40*
X197410000Y-71120000D03*
%TD*%
M02*
