%TF.GenerationSoftware,KiCad,Pcbnew,8.0.5*%
%TF.CreationDate,2024-11-22T23:14:38+03:00*%
%TF.ProjectId,SuperClockController,53757065-7243-46c6-9f63-6b436f6e7472,rev?*%
%TF.SameCoordinates,Original*%
%TF.FileFunction,Legend,Bot*%
%TF.FilePolarity,Positive*%
%FSLAX46Y46*%
G04 Gerber Fmt 4.6, Leading zero omitted, Abs format (unit mm)*
G04 Created by KiCad (PCBNEW 8.0.5) date 2024-11-22 23:14:38*
%MOMM*%
%LPD*%
G01*
G04 APERTURE LIST*
G04 Aperture macros list*
%AMRoundRect*
0 Rectangle with rounded corners*
0 $1 Rounding radius*
0 $2 $3 $4 $5 $6 $7 $8 $9 X,Y pos of 4 corners*
0 Add a 4 corners polygon primitive as box body*
4,1,4,$2,$3,$4,$5,$6,$7,$8,$9,$2,$3,0*
0 Add four circle primitives for the rounded corners*
1,1,$1+$1,$2,$3*
1,1,$1+$1,$4,$5*
1,1,$1+$1,$6,$7*
1,1,$1+$1,$8,$9*
0 Add four rect primitives between the rounded corners*
20,1,$1+$1,$2,$3,$4,$5,0*
20,1,$1+$1,$4,$5,$6,$7,0*
20,1,$1+$1,$6,$7,$8,$9,0*
20,1,$1+$1,$8,$9,$2,$3,0*%
G04 Aperture macros list end*
%ADD10C,0.200000*%
%ADD11C,0.500000*%
%ADD12C,0.150000*%
%ADD13C,0.120000*%
%ADD14R,1.700000X1.700000*%
%ADD15C,4.000000*%
%ADD16C,2.100000*%
%ADD17C,1.750000*%
%ADD18O,1.700000X1.700000*%
%ADD19RoundRect,0.250000X0.350000X0.450000X-0.350000X0.450000X-0.350000X-0.450000X0.350000X-0.450000X0*%
%ADD20RoundRect,0.150000X0.150000X-0.587500X0.150000X0.587500X-0.150000X0.587500X-0.150000X-0.587500X0*%
%ADD21RoundRect,0.250000X-0.925000X0.875000X-0.925000X-0.875000X0.925000X-0.875000X0.925000X0.875000X0*%
%ADD22RoundRect,0.250000X-0.337500X-0.475000X0.337500X-0.475000X0.337500X0.475000X-0.337500X0.475000X0*%
%ADD23RoundRect,0.250000X-0.350000X-0.450000X0.350000X-0.450000X0.350000X0.450000X-0.350000X0.450000X0*%
%ADD24RoundRect,0.150000X0.875000X0.150000X-0.875000X0.150000X-0.875000X-0.150000X0.875000X-0.150000X0*%
%ADD25RoundRect,0.250000X-0.475000X0.337500X-0.475000X-0.337500X0.475000X-0.337500X0.475000X0.337500X0*%
%ADD26R,2.000000X1.600000*%
%ADD27O,2.000000X1.600000*%
%ADD28RoundRect,0.250000X0.337500X0.475000X-0.337500X0.475000X-0.337500X-0.475000X0.337500X-0.475000X0*%
%ADD29RoundRect,0.150000X-0.150000X0.587500X-0.150000X-0.587500X0.150000X-0.587500X0.150000X0.587500X0*%
%ADD30RoundRect,0.250000X0.450000X-0.350000X0.450000X0.350000X-0.450000X0.350000X-0.450000X-0.350000X0*%
%ADD31RoundRect,0.250000X-0.450000X0.350000X-0.450000X-0.350000X0.450000X-0.350000X0.450000X0.350000X0*%
%ADD32C,1.500000*%
%ADD33RoundRect,0.250000X0.475000X-0.337500X0.475000X0.337500X-0.475000X0.337500X-0.475000X-0.337500X0*%
%ADD34R,1.400000X1.400000*%
%ADD35C,1.400000*%
%ADD36C,3.000000*%
%ADD37RoundRect,0.150000X0.587500X0.150000X-0.587500X0.150000X-0.587500X-0.150000X0.587500X-0.150000X0*%
%ADD38RoundRect,0.250000X-0.600000X0.600000X-0.600000X-0.600000X0.600000X-0.600000X0.600000X0.600000X0*%
%ADD39C,1.700000*%
%ADD40R,0.550000X1.500000*%
%ADD41R,1.500000X0.550000*%
%ADD42RoundRect,0.250000X-0.250000X0.250000X-0.250000X-0.250000X0.250000X-0.250000X0.250000X0.250000X0*%
%ADD43R,2.000000X2.000000*%
%ADD44C,2.000000*%
G04 APERTURE END LIST*
D10*
X218242999Y-63031600D02*
X218071571Y-63088742D01*
X218071571Y-63088742D02*
X217785856Y-63088742D01*
X217785856Y-63088742D02*
X217671571Y-63031600D01*
X217671571Y-63031600D02*
X217614428Y-62974457D01*
X217614428Y-62974457D02*
X217557285Y-62860171D01*
X217557285Y-62860171D02*
X217557285Y-62745885D01*
X217557285Y-62745885D02*
X217614428Y-62631600D01*
X217614428Y-62631600D02*
X217671571Y-62574457D01*
X217671571Y-62574457D02*
X217785856Y-62517314D01*
X217785856Y-62517314D02*
X218014428Y-62460171D01*
X218014428Y-62460171D02*
X218128713Y-62403028D01*
X218128713Y-62403028D02*
X218185856Y-62345885D01*
X218185856Y-62345885D02*
X218242999Y-62231600D01*
X218242999Y-62231600D02*
X218242999Y-62117314D01*
X218242999Y-62117314D02*
X218185856Y-62003028D01*
X218185856Y-62003028D02*
X218128713Y-61945885D01*
X218128713Y-61945885D02*
X218014428Y-61888742D01*
X218014428Y-61888742D02*
X217728713Y-61888742D01*
X217728713Y-61888742D02*
X217557285Y-61945885D01*
X216585856Y-63031600D02*
X216700142Y-63088742D01*
X216700142Y-63088742D02*
X216928714Y-63088742D01*
X216928714Y-63088742D02*
X217042999Y-63031600D01*
X217042999Y-63031600D02*
X217100142Y-62917314D01*
X217100142Y-62917314D02*
X217100142Y-62460171D01*
X217100142Y-62460171D02*
X217042999Y-62345885D01*
X217042999Y-62345885D02*
X216928714Y-62288742D01*
X216928714Y-62288742D02*
X216700142Y-62288742D01*
X216700142Y-62288742D02*
X216585856Y-62345885D01*
X216585856Y-62345885D02*
X216528714Y-62460171D01*
X216528714Y-62460171D02*
X216528714Y-62574457D01*
X216528714Y-62574457D02*
X217100142Y-62688742D01*
X216185857Y-62288742D02*
X215728714Y-62288742D01*
X216014428Y-61888742D02*
X216014428Y-62917314D01*
X216014428Y-62917314D02*
X215957285Y-63031600D01*
X215957285Y-63031600D02*
X215843000Y-63088742D01*
X215843000Y-63088742D02*
X215728714Y-63088742D01*
X203982850Y-81414885D02*
X203411422Y-81414885D01*
X204097136Y-81757742D02*
X203697136Y-80557742D01*
X203697136Y-80557742D02*
X203297136Y-81757742D01*
X203068565Y-80557742D02*
X202668565Y-81757742D01*
X202668565Y-81757742D02*
X202268565Y-80557742D01*
X201182851Y-81757742D02*
X201582851Y-81186314D01*
X201868565Y-81757742D02*
X201868565Y-80557742D01*
X201868565Y-80557742D02*
X201411422Y-80557742D01*
X201411422Y-80557742D02*
X201297137Y-80614885D01*
X201297137Y-80614885D02*
X201239994Y-80672028D01*
X201239994Y-80672028D02*
X201182851Y-80786314D01*
X201182851Y-80786314D02*
X201182851Y-80957742D01*
X201182851Y-80957742D02*
X201239994Y-81072028D01*
X201239994Y-81072028D02*
X201297137Y-81129171D01*
X201297137Y-81129171D02*
X201411422Y-81186314D01*
X201411422Y-81186314D02*
X201868565Y-81186314D01*
X199754279Y-81757742D02*
X199754279Y-80557742D01*
X199239993Y-81700600D02*
X199068565Y-81757742D01*
X199068565Y-81757742D02*
X198782850Y-81757742D01*
X198782850Y-81757742D02*
X198668565Y-81700600D01*
X198668565Y-81700600D02*
X198611422Y-81643457D01*
X198611422Y-81643457D02*
X198554279Y-81529171D01*
X198554279Y-81529171D02*
X198554279Y-81414885D01*
X198554279Y-81414885D02*
X198611422Y-81300600D01*
X198611422Y-81300600D02*
X198668565Y-81243457D01*
X198668565Y-81243457D02*
X198782850Y-81186314D01*
X198782850Y-81186314D02*
X199011422Y-81129171D01*
X199011422Y-81129171D02*
X199125707Y-81072028D01*
X199125707Y-81072028D02*
X199182850Y-81014885D01*
X199182850Y-81014885D02*
X199239993Y-80900600D01*
X199239993Y-80900600D02*
X199239993Y-80786314D01*
X199239993Y-80786314D02*
X199182850Y-80672028D01*
X199182850Y-80672028D02*
X199125707Y-80614885D01*
X199125707Y-80614885D02*
X199011422Y-80557742D01*
X199011422Y-80557742D02*
X198725707Y-80557742D01*
X198725707Y-80557742D02*
X198554279Y-80614885D01*
X198039993Y-81757742D02*
X198039993Y-80557742D01*
X198039993Y-80557742D02*
X197582850Y-80557742D01*
X197582850Y-80557742D02*
X197468565Y-80614885D01*
X197468565Y-80614885D02*
X197411422Y-80672028D01*
X197411422Y-80672028D02*
X197354279Y-80786314D01*
X197354279Y-80786314D02*
X197354279Y-80957742D01*
X197354279Y-80957742D02*
X197411422Y-81072028D01*
X197411422Y-81072028D02*
X197468565Y-81129171D01*
X197468565Y-81129171D02*
X197582850Y-81186314D01*
X197582850Y-81186314D02*
X198039993Y-81186314D01*
X107405707Y-82519742D02*
X107405707Y-81319742D01*
X107405707Y-81319742D02*
X106948564Y-81319742D01*
X106948564Y-81319742D02*
X106834279Y-81376885D01*
X106834279Y-81376885D02*
X106777136Y-81434028D01*
X106777136Y-81434028D02*
X106719993Y-81548314D01*
X106719993Y-81548314D02*
X106719993Y-81719742D01*
X106719993Y-81719742D02*
X106777136Y-81834028D01*
X106777136Y-81834028D02*
X106834279Y-81891171D01*
X106834279Y-81891171D02*
X106948564Y-81948314D01*
X106948564Y-81948314D02*
X107405707Y-81948314D01*
X106034279Y-82519742D02*
X106148564Y-82462600D01*
X106148564Y-82462600D02*
X106205707Y-82405457D01*
X106205707Y-82405457D02*
X106262850Y-82291171D01*
X106262850Y-82291171D02*
X106262850Y-81948314D01*
X106262850Y-81948314D02*
X106205707Y-81834028D01*
X106205707Y-81834028D02*
X106148564Y-81776885D01*
X106148564Y-81776885D02*
X106034279Y-81719742D01*
X106034279Y-81719742D02*
X105862850Y-81719742D01*
X105862850Y-81719742D02*
X105748564Y-81776885D01*
X105748564Y-81776885D02*
X105691422Y-81834028D01*
X105691422Y-81834028D02*
X105634279Y-81948314D01*
X105634279Y-81948314D02*
X105634279Y-82291171D01*
X105634279Y-82291171D02*
X105691422Y-82405457D01*
X105691422Y-82405457D02*
X105748564Y-82462600D01*
X105748564Y-82462600D02*
X105862850Y-82519742D01*
X105862850Y-82519742D02*
X106034279Y-82519742D01*
X105234279Y-81719742D02*
X105005708Y-82519742D01*
X105005708Y-82519742D02*
X104777136Y-81948314D01*
X104777136Y-81948314D02*
X104548565Y-82519742D01*
X104548565Y-82519742D02*
X104319993Y-81719742D01*
X103405707Y-82462600D02*
X103519993Y-82519742D01*
X103519993Y-82519742D02*
X103748565Y-82519742D01*
X103748565Y-82519742D02*
X103862850Y-82462600D01*
X103862850Y-82462600D02*
X103919993Y-82348314D01*
X103919993Y-82348314D02*
X103919993Y-81891171D01*
X103919993Y-81891171D02*
X103862850Y-81776885D01*
X103862850Y-81776885D02*
X103748565Y-81719742D01*
X103748565Y-81719742D02*
X103519993Y-81719742D01*
X103519993Y-81719742D02*
X103405707Y-81776885D01*
X103405707Y-81776885D02*
X103348565Y-81891171D01*
X103348565Y-81891171D02*
X103348565Y-82005457D01*
X103348565Y-82005457D02*
X103919993Y-82119742D01*
X102834279Y-82519742D02*
X102834279Y-81719742D01*
X102834279Y-81948314D02*
X102777136Y-81834028D01*
X102777136Y-81834028D02*
X102719994Y-81776885D01*
X102719994Y-81776885D02*
X102605708Y-81719742D01*
X102605708Y-81719742D02*
X102491422Y-81719742D01*
X217246142Y-84856600D02*
X216331857Y-84856600D01*
X217246142Y-73680600D02*
X216331857Y-73680600D01*
X216788999Y-74137742D02*
X216788999Y-73223457D01*
D11*
X166575381Y-70328112D02*
X166289667Y-70423350D01*
X166289667Y-70423350D02*
X165813476Y-70423350D01*
X165813476Y-70423350D02*
X165623000Y-70328112D01*
X165623000Y-70328112D02*
X165527762Y-70232873D01*
X165527762Y-70232873D02*
X165432524Y-70042397D01*
X165432524Y-70042397D02*
X165432524Y-69851921D01*
X165432524Y-69851921D02*
X165527762Y-69661445D01*
X165527762Y-69661445D02*
X165623000Y-69566207D01*
X165623000Y-69566207D02*
X165813476Y-69470969D01*
X165813476Y-69470969D02*
X166194429Y-69375731D01*
X166194429Y-69375731D02*
X166384905Y-69280492D01*
X166384905Y-69280492D02*
X166480143Y-69185254D01*
X166480143Y-69185254D02*
X166575381Y-68994778D01*
X166575381Y-68994778D02*
X166575381Y-68804302D01*
X166575381Y-68804302D02*
X166480143Y-68613826D01*
X166480143Y-68613826D02*
X166384905Y-68518588D01*
X166384905Y-68518588D02*
X166194429Y-68423350D01*
X166194429Y-68423350D02*
X165718238Y-68423350D01*
X165718238Y-68423350D02*
X165432524Y-68518588D01*
X163718238Y-69090016D02*
X163718238Y-70423350D01*
X164575381Y-69090016D02*
X164575381Y-70137635D01*
X164575381Y-70137635D02*
X164480143Y-70328112D01*
X164480143Y-70328112D02*
X164289667Y-70423350D01*
X164289667Y-70423350D02*
X164003952Y-70423350D01*
X164003952Y-70423350D02*
X163813476Y-70328112D01*
X163813476Y-70328112D02*
X163718238Y-70232873D01*
X162765857Y-69090016D02*
X162765857Y-71090016D01*
X162765857Y-69185254D02*
X162575381Y-69090016D01*
X162575381Y-69090016D02*
X162194428Y-69090016D01*
X162194428Y-69090016D02*
X162003952Y-69185254D01*
X162003952Y-69185254D02*
X161908714Y-69280492D01*
X161908714Y-69280492D02*
X161813476Y-69470969D01*
X161813476Y-69470969D02*
X161813476Y-70042397D01*
X161813476Y-70042397D02*
X161908714Y-70232873D01*
X161908714Y-70232873D02*
X162003952Y-70328112D01*
X162003952Y-70328112D02*
X162194428Y-70423350D01*
X162194428Y-70423350D02*
X162575381Y-70423350D01*
X162575381Y-70423350D02*
X162765857Y-70328112D01*
X160194428Y-70328112D02*
X160384904Y-70423350D01*
X160384904Y-70423350D02*
X160765857Y-70423350D01*
X160765857Y-70423350D02*
X160956333Y-70328112D01*
X160956333Y-70328112D02*
X161051571Y-70137635D01*
X161051571Y-70137635D02*
X161051571Y-69375731D01*
X161051571Y-69375731D02*
X160956333Y-69185254D01*
X160956333Y-69185254D02*
X160765857Y-69090016D01*
X160765857Y-69090016D02*
X160384904Y-69090016D01*
X160384904Y-69090016D02*
X160194428Y-69185254D01*
X160194428Y-69185254D02*
X160099190Y-69375731D01*
X160099190Y-69375731D02*
X160099190Y-69566207D01*
X160099190Y-69566207D02*
X161051571Y-69756683D01*
X159242047Y-70423350D02*
X159242047Y-69090016D01*
X159242047Y-69470969D02*
X159146809Y-69280492D01*
X159146809Y-69280492D02*
X159051571Y-69185254D01*
X159051571Y-69185254D02*
X158861095Y-69090016D01*
X158861095Y-69090016D02*
X158670618Y-69090016D01*
X156861095Y-70232873D02*
X156956333Y-70328112D01*
X156956333Y-70328112D02*
X157242047Y-70423350D01*
X157242047Y-70423350D02*
X157432523Y-70423350D01*
X157432523Y-70423350D02*
X157718238Y-70328112D01*
X157718238Y-70328112D02*
X157908714Y-70137635D01*
X157908714Y-70137635D02*
X158003952Y-69947159D01*
X158003952Y-69947159D02*
X158099190Y-69566207D01*
X158099190Y-69566207D02*
X158099190Y-69280492D01*
X158099190Y-69280492D02*
X158003952Y-68899540D01*
X158003952Y-68899540D02*
X157908714Y-68709064D01*
X157908714Y-68709064D02*
X157718238Y-68518588D01*
X157718238Y-68518588D02*
X157432523Y-68423350D01*
X157432523Y-68423350D02*
X157242047Y-68423350D01*
X157242047Y-68423350D02*
X156956333Y-68518588D01*
X156956333Y-68518588D02*
X156861095Y-68613826D01*
X155718238Y-70423350D02*
X155908714Y-70328112D01*
X155908714Y-70328112D02*
X156003952Y-70137635D01*
X156003952Y-70137635D02*
X156003952Y-68423350D01*
X154670619Y-70423350D02*
X154861095Y-70328112D01*
X154861095Y-70328112D02*
X154956333Y-70232873D01*
X154956333Y-70232873D02*
X155051571Y-70042397D01*
X155051571Y-70042397D02*
X155051571Y-69470969D01*
X155051571Y-69470969D02*
X154956333Y-69280492D01*
X154956333Y-69280492D02*
X154861095Y-69185254D01*
X154861095Y-69185254D02*
X154670619Y-69090016D01*
X154670619Y-69090016D02*
X154384904Y-69090016D01*
X154384904Y-69090016D02*
X154194428Y-69185254D01*
X154194428Y-69185254D02*
X154099190Y-69280492D01*
X154099190Y-69280492D02*
X154003952Y-69470969D01*
X154003952Y-69470969D02*
X154003952Y-70042397D01*
X154003952Y-70042397D02*
X154099190Y-70232873D01*
X154099190Y-70232873D02*
X154194428Y-70328112D01*
X154194428Y-70328112D02*
X154384904Y-70423350D01*
X154384904Y-70423350D02*
X154670619Y-70423350D01*
X152289666Y-70328112D02*
X152480142Y-70423350D01*
X152480142Y-70423350D02*
X152861095Y-70423350D01*
X152861095Y-70423350D02*
X153051571Y-70328112D01*
X153051571Y-70328112D02*
X153146809Y-70232873D01*
X153146809Y-70232873D02*
X153242047Y-70042397D01*
X153242047Y-70042397D02*
X153242047Y-69470969D01*
X153242047Y-69470969D02*
X153146809Y-69280492D01*
X153146809Y-69280492D02*
X153051571Y-69185254D01*
X153051571Y-69185254D02*
X152861095Y-69090016D01*
X152861095Y-69090016D02*
X152480142Y-69090016D01*
X152480142Y-69090016D02*
X152289666Y-69185254D01*
X151432523Y-70423350D02*
X151432523Y-68423350D01*
X151242047Y-69661445D02*
X150670618Y-70423350D01*
X150670618Y-69090016D02*
X151432523Y-69851921D01*
X166051571Y-72309904D02*
X165575381Y-73643238D01*
X165575381Y-73643238D02*
X165099190Y-72309904D01*
X164527761Y-71643238D02*
X163289666Y-71643238D01*
X163289666Y-71643238D02*
X163956333Y-72405142D01*
X163956333Y-72405142D02*
X163670618Y-72405142D01*
X163670618Y-72405142D02*
X163480142Y-72500380D01*
X163480142Y-72500380D02*
X163384904Y-72595619D01*
X163384904Y-72595619D02*
X163289666Y-72786095D01*
X163289666Y-72786095D02*
X163289666Y-73262285D01*
X163289666Y-73262285D02*
X163384904Y-73452761D01*
X163384904Y-73452761D02*
X163480142Y-73548000D01*
X163480142Y-73548000D02*
X163670618Y-73643238D01*
X163670618Y-73643238D02*
X164242047Y-73643238D01*
X164242047Y-73643238D02*
X164432523Y-73548000D01*
X164432523Y-73548000D02*
X164527761Y-73452761D01*
X162432523Y-73452761D02*
X162337285Y-73548000D01*
X162337285Y-73548000D02*
X162432523Y-73643238D01*
X162432523Y-73643238D02*
X162527761Y-73548000D01*
X162527761Y-73548000D02*
X162432523Y-73452761D01*
X162432523Y-73452761D02*
X162432523Y-73643238D01*
X161099190Y-71643238D02*
X160908713Y-71643238D01*
X160908713Y-71643238D02*
X160718237Y-71738476D01*
X160718237Y-71738476D02*
X160622999Y-71833714D01*
X160622999Y-71833714D02*
X160527761Y-72024190D01*
X160527761Y-72024190D02*
X160432523Y-72405142D01*
X160432523Y-72405142D02*
X160432523Y-72881333D01*
X160432523Y-72881333D02*
X160527761Y-73262285D01*
X160527761Y-73262285D02*
X160622999Y-73452761D01*
X160622999Y-73452761D02*
X160718237Y-73548000D01*
X160718237Y-73548000D02*
X160908713Y-73643238D01*
X160908713Y-73643238D02*
X161099190Y-73643238D01*
X161099190Y-73643238D02*
X161289666Y-73548000D01*
X161289666Y-73548000D02*
X161384904Y-73452761D01*
X161384904Y-73452761D02*
X161480142Y-73262285D01*
X161480142Y-73262285D02*
X161575380Y-72881333D01*
X161575380Y-72881333D02*
X161575380Y-72405142D01*
X161575380Y-72405142D02*
X161480142Y-72024190D01*
X161480142Y-72024190D02*
X161384904Y-71833714D01*
X161384904Y-71833714D02*
X161289666Y-71738476D01*
X161289666Y-71738476D02*
X161099190Y-71643238D01*
X158146808Y-71833714D02*
X158051570Y-71738476D01*
X158051570Y-71738476D02*
X157861094Y-71643238D01*
X157861094Y-71643238D02*
X157384903Y-71643238D01*
X157384903Y-71643238D02*
X157194427Y-71738476D01*
X157194427Y-71738476D02*
X157099189Y-71833714D01*
X157099189Y-71833714D02*
X157003951Y-72024190D01*
X157003951Y-72024190D02*
X157003951Y-72214666D01*
X157003951Y-72214666D02*
X157099189Y-72500380D01*
X157099189Y-72500380D02*
X158242046Y-73643238D01*
X158242046Y-73643238D02*
X157003951Y-73643238D01*
X155765856Y-71643238D02*
X155575379Y-71643238D01*
X155575379Y-71643238D02*
X155384903Y-71738476D01*
X155384903Y-71738476D02*
X155289665Y-71833714D01*
X155289665Y-71833714D02*
X155194427Y-72024190D01*
X155194427Y-72024190D02*
X155099189Y-72405142D01*
X155099189Y-72405142D02*
X155099189Y-72881333D01*
X155099189Y-72881333D02*
X155194427Y-73262285D01*
X155194427Y-73262285D02*
X155289665Y-73452761D01*
X155289665Y-73452761D02*
X155384903Y-73548000D01*
X155384903Y-73548000D02*
X155575379Y-73643238D01*
X155575379Y-73643238D02*
X155765856Y-73643238D01*
X155765856Y-73643238D02*
X155956332Y-73548000D01*
X155956332Y-73548000D02*
X156051570Y-73452761D01*
X156051570Y-73452761D02*
X156146808Y-73262285D01*
X156146808Y-73262285D02*
X156242046Y-72881333D01*
X156242046Y-72881333D02*
X156242046Y-72405142D01*
X156242046Y-72405142D02*
X156146808Y-72024190D01*
X156146808Y-72024190D02*
X156051570Y-71833714D01*
X156051570Y-71833714D02*
X155956332Y-71738476D01*
X155956332Y-71738476D02*
X155765856Y-71643238D01*
X154337284Y-71833714D02*
X154242046Y-71738476D01*
X154242046Y-71738476D02*
X154051570Y-71643238D01*
X154051570Y-71643238D02*
X153575379Y-71643238D01*
X153575379Y-71643238D02*
X153384903Y-71738476D01*
X153384903Y-71738476D02*
X153289665Y-71833714D01*
X153289665Y-71833714D02*
X153194427Y-72024190D01*
X153194427Y-72024190D02*
X153194427Y-72214666D01*
X153194427Y-72214666D02*
X153289665Y-72500380D01*
X153289665Y-72500380D02*
X154432522Y-73643238D01*
X154432522Y-73643238D02*
X153194427Y-73643238D01*
X151480141Y-72309904D02*
X151480141Y-73643238D01*
X151956332Y-71548000D02*
X152432522Y-72976571D01*
X152432522Y-72976571D02*
X151194427Y-72976571D01*
D12*
X100718857Y-70050819D02*
X101052190Y-69574628D01*
X101290285Y-70050819D02*
X101290285Y-69050819D01*
X101290285Y-69050819D02*
X100909333Y-69050819D01*
X100909333Y-69050819D02*
X100814095Y-69098438D01*
X100814095Y-69098438D02*
X100766476Y-69146057D01*
X100766476Y-69146057D02*
X100718857Y-69241295D01*
X100718857Y-69241295D02*
X100718857Y-69384152D01*
X100718857Y-69384152D02*
X100766476Y-69479390D01*
X100766476Y-69479390D02*
X100814095Y-69527009D01*
X100814095Y-69527009D02*
X100909333Y-69574628D01*
X100909333Y-69574628D02*
X101290285Y-69574628D01*
X99766476Y-70050819D02*
X100337904Y-70050819D01*
X100052190Y-70050819D02*
X100052190Y-69050819D01*
X100052190Y-69050819D02*
X100147428Y-69193676D01*
X100147428Y-69193676D02*
X100242666Y-69288914D01*
X100242666Y-69288914D02*
X100337904Y-69336533D01*
X99147428Y-69050819D02*
X99052190Y-69050819D01*
X99052190Y-69050819D02*
X98956952Y-69098438D01*
X98956952Y-69098438D02*
X98909333Y-69146057D01*
X98909333Y-69146057D02*
X98861714Y-69241295D01*
X98861714Y-69241295D02*
X98814095Y-69431771D01*
X98814095Y-69431771D02*
X98814095Y-69669866D01*
X98814095Y-69669866D02*
X98861714Y-69860342D01*
X98861714Y-69860342D02*
X98909333Y-69955580D01*
X98909333Y-69955580D02*
X98956952Y-70003200D01*
X98956952Y-70003200D02*
X99052190Y-70050819D01*
X99052190Y-70050819D02*
X99147428Y-70050819D01*
X99147428Y-70050819D02*
X99242666Y-70003200D01*
X99242666Y-70003200D02*
X99290285Y-69955580D01*
X99290285Y-69955580D02*
X99337904Y-69860342D01*
X99337904Y-69860342D02*
X99385523Y-69669866D01*
X99385523Y-69669866D02*
X99385523Y-69431771D01*
X99385523Y-69431771D02*
X99337904Y-69241295D01*
X99337904Y-69241295D02*
X99290285Y-69146057D01*
X99290285Y-69146057D02*
X99242666Y-69098438D01*
X99242666Y-69098438D02*
X99147428Y-69050819D01*
X187367057Y-55308571D02*
X187319438Y-55213333D01*
X187319438Y-55213333D02*
X187224200Y-55118095D01*
X187224200Y-55118095D02*
X187081342Y-54975238D01*
X187081342Y-54975238D02*
X187033723Y-54880000D01*
X187033723Y-54880000D02*
X187033723Y-54784762D01*
X187271819Y-54832381D02*
X187224200Y-54737143D01*
X187224200Y-54737143D02*
X187128961Y-54641905D01*
X187128961Y-54641905D02*
X186938485Y-54594286D01*
X186938485Y-54594286D02*
X186605152Y-54594286D01*
X186605152Y-54594286D02*
X186414676Y-54641905D01*
X186414676Y-54641905D02*
X186319438Y-54737143D01*
X186319438Y-54737143D02*
X186271819Y-54832381D01*
X186271819Y-54832381D02*
X186271819Y-55022857D01*
X186271819Y-55022857D02*
X186319438Y-55118095D01*
X186319438Y-55118095D02*
X186414676Y-55213333D01*
X186414676Y-55213333D02*
X186605152Y-55260952D01*
X186605152Y-55260952D02*
X186938485Y-55260952D01*
X186938485Y-55260952D02*
X187128961Y-55213333D01*
X187128961Y-55213333D02*
X187224200Y-55118095D01*
X187224200Y-55118095D02*
X187271819Y-55022857D01*
X187271819Y-55022857D02*
X187271819Y-54832381D01*
X187271819Y-56213333D02*
X187271819Y-55641905D01*
X187271819Y-55927619D02*
X186271819Y-55927619D01*
X186271819Y-55927619D02*
X186414676Y-55832381D01*
X186414676Y-55832381D02*
X186509914Y-55737143D01*
X186509914Y-55737143D02*
X186557533Y-55641905D01*
X186271819Y-57118095D02*
X186271819Y-56641905D01*
X186271819Y-56641905D02*
X186748009Y-56594286D01*
X186748009Y-56594286D02*
X186700390Y-56641905D01*
X186700390Y-56641905D02*
X186652771Y-56737143D01*
X186652771Y-56737143D02*
X186652771Y-56975238D01*
X186652771Y-56975238D02*
X186700390Y-57070476D01*
X186700390Y-57070476D02*
X186748009Y-57118095D01*
X186748009Y-57118095D02*
X186843247Y-57165714D01*
X186843247Y-57165714D02*
X187081342Y-57165714D01*
X187081342Y-57165714D02*
X187176580Y-57118095D01*
X187176580Y-57118095D02*
X187224200Y-57070476D01*
X187224200Y-57070476D02*
X187271819Y-56975238D01*
X187271819Y-56975238D02*
X187271819Y-56737143D01*
X187271819Y-56737143D02*
X187224200Y-56641905D01*
X187224200Y-56641905D02*
X187176580Y-56594286D01*
X162218666Y-85449580D02*
X162266285Y-85497200D01*
X162266285Y-85497200D02*
X162409142Y-85544819D01*
X162409142Y-85544819D02*
X162504380Y-85544819D01*
X162504380Y-85544819D02*
X162647237Y-85497200D01*
X162647237Y-85497200D02*
X162742475Y-85401961D01*
X162742475Y-85401961D02*
X162790094Y-85306723D01*
X162790094Y-85306723D02*
X162837713Y-85116247D01*
X162837713Y-85116247D02*
X162837713Y-84973390D01*
X162837713Y-84973390D02*
X162790094Y-84782914D01*
X162790094Y-84782914D02*
X162742475Y-84687676D01*
X162742475Y-84687676D02*
X162647237Y-84592438D01*
X162647237Y-84592438D02*
X162504380Y-84544819D01*
X162504380Y-84544819D02*
X162409142Y-84544819D01*
X162409142Y-84544819D02*
X162266285Y-84592438D01*
X162266285Y-84592438D02*
X162218666Y-84640057D01*
X161361523Y-84878152D02*
X161361523Y-85544819D01*
X161599618Y-84497200D02*
X161837713Y-85211485D01*
X161837713Y-85211485D02*
X161218666Y-85211485D01*
X130468666Y-84179580D02*
X130516285Y-84227200D01*
X130516285Y-84227200D02*
X130659142Y-84274819D01*
X130659142Y-84274819D02*
X130754380Y-84274819D01*
X130754380Y-84274819D02*
X130897237Y-84227200D01*
X130897237Y-84227200D02*
X130992475Y-84131961D01*
X130992475Y-84131961D02*
X131040094Y-84036723D01*
X131040094Y-84036723D02*
X131087713Y-83846247D01*
X131087713Y-83846247D02*
X131087713Y-83703390D01*
X131087713Y-83703390D02*
X131040094Y-83512914D01*
X131040094Y-83512914D02*
X130992475Y-83417676D01*
X130992475Y-83417676D02*
X130897237Y-83322438D01*
X130897237Y-83322438D02*
X130754380Y-83274819D01*
X130754380Y-83274819D02*
X130659142Y-83274819D01*
X130659142Y-83274819D02*
X130516285Y-83322438D01*
X130516285Y-83322438D02*
X130468666Y-83370057D01*
X130087713Y-83370057D02*
X130040094Y-83322438D01*
X130040094Y-83322438D02*
X129944856Y-83274819D01*
X129944856Y-83274819D02*
X129706761Y-83274819D01*
X129706761Y-83274819D02*
X129611523Y-83322438D01*
X129611523Y-83322438D02*
X129563904Y-83370057D01*
X129563904Y-83370057D02*
X129516285Y-83465295D01*
X129516285Y-83465295D02*
X129516285Y-83560533D01*
X129516285Y-83560533D02*
X129563904Y-83703390D01*
X129563904Y-83703390D02*
X130135332Y-84274819D01*
X130135332Y-84274819D02*
X129516285Y-84274819D01*
X140501666Y-69447580D02*
X140549285Y-69495200D01*
X140549285Y-69495200D02*
X140692142Y-69542819D01*
X140692142Y-69542819D02*
X140787380Y-69542819D01*
X140787380Y-69542819D02*
X140930237Y-69495200D01*
X140930237Y-69495200D02*
X141025475Y-69399961D01*
X141025475Y-69399961D02*
X141073094Y-69304723D01*
X141073094Y-69304723D02*
X141120713Y-69114247D01*
X141120713Y-69114247D02*
X141120713Y-68971390D01*
X141120713Y-68971390D02*
X141073094Y-68780914D01*
X141073094Y-68780914D02*
X141025475Y-68685676D01*
X141025475Y-68685676D02*
X140930237Y-68590438D01*
X140930237Y-68590438D02*
X140787380Y-68542819D01*
X140787380Y-68542819D02*
X140692142Y-68542819D01*
X140692142Y-68542819D02*
X140549285Y-68590438D01*
X140549285Y-68590438D02*
X140501666Y-68638057D01*
X139644523Y-68542819D02*
X139834999Y-68542819D01*
X139834999Y-68542819D02*
X139930237Y-68590438D01*
X139930237Y-68590438D02*
X139977856Y-68638057D01*
X139977856Y-68638057D02*
X140073094Y-68780914D01*
X140073094Y-68780914D02*
X140120713Y-68971390D01*
X140120713Y-68971390D02*
X140120713Y-69352342D01*
X140120713Y-69352342D02*
X140073094Y-69447580D01*
X140073094Y-69447580D02*
X140025475Y-69495200D01*
X140025475Y-69495200D02*
X139930237Y-69542819D01*
X139930237Y-69542819D02*
X139739761Y-69542819D01*
X139739761Y-69542819D02*
X139644523Y-69495200D01*
X139644523Y-69495200D02*
X139596904Y-69447580D01*
X139596904Y-69447580D02*
X139549285Y-69352342D01*
X139549285Y-69352342D02*
X139549285Y-69114247D01*
X139549285Y-69114247D02*
X139596904Y-69019009D01*
X139596904Y-69019009D02*
X139644523Y-68971390D01*
X139644523Y-68971390D02*
X139739761Y-68923771D01*
X139739761Y-68923771D02*
X139930237Y-68923771D01*
X139930237Y-68923771D02*
X140025475Y-68971390D01*
X140025475Y-68971390D02*
X140073094Y-69019009D01*
X140073094Y-69019009D02*
X140120713Y-69114247D01*
X112053666Y-65732819D02*
X112386999Y-65256628D01*
X112625094Y-65732819D02*
X112625094Y-64732819D01*
X112625094Y-64732819D02*
X112244142Y-64732819D01*
X112244142Y-64732819D02*
X112148904Y-64780438D01*
X112148904Y-64780438D02*
X112101285Y-64828057D01*
X112101285Y-64828057D02*
X112053666Y-64923295D01*
X112053666Y-64923295D02*
X112053666Y-65066152D01*
X112053666Y-65066152D02*
X112101285Y-65161390D01*
X112101285Y-65161390D02*
X112148904Y-65209009D01*
X112148904Y-65209009D02*
X112244142Y-65256628D01*
X112244142Y-65256628D02*
X112625094Y-65256628D01*
X111720332Y-64732819D02*
X111101285Y-64732819D01*
X111101285Y-64732819D02*
X111434618Y-65113771D01*
X111434618Y-65113771D02*
X111291761Y-65113771D01*
X111291761Y-65113771D02*
X111196523Y-65161390D01*
X111196523Y-65161390D02*
X111148904Y-65209009D01*
X111148904Y-65209009D02*
X111101285Y-65304247D01*
X111101285Y-65304247D02*
X111101285Y-65542342D01*
X111101285Y-65542342D02*
X111148904Y-65637580D01*
X111148904Y-65637580D02*
X111196523Y-65685200D01*
X111196523Y-65685200D02*
X111291761Y-65732819D01*
X111291761Y-65732819D02*
X111577475Y-65732819D01*
X111577475Y-65732819D02*
X111672713Y-65685200D01*
X111672713Y-65685200D02*
X111720332Y-65637580D01*
X142595504Y-82360419D02*
X142595504Y-83169942D01*
X142595504Y-83169942D02*
X142547885Y-83265180D01*
X142547885Y-83265180D02*
X142500266Y-83312800D01*
X142500266Y-83312800D02*
X142405028Y-83360419D01*
X142405028Y-83360419D02*
X142214552Y-83360419D01*
X142214552Y-83360419D02*
X142119314Y-83312800D01*
X142119314Y-83312800D02*
X142071695Y-83265180D01*
X142071695Y-83265180D02*
X142024076Y-83169942D01*
X142024076Y-83169942D02*
X142024076Y-82360419D01*
X141595504Y-82455657D02*
X141547885Y-82408038D01*
X141547885Y-82408038D02*
X141452647Y-82360419D01*
X141452647Y-82360419D02*
X141214552Y-82360419D01*
X141214552Y-82360419D02*
X141119314Y-82408038D01*
X141119314Y-82408038D02*
X141071695Y-82455657D01*
X141071695Y-82455657D02*
X141024076Y-82550895D01*
X141024076Y-82550895D02*
X141024076Y-82646133D01*
X141024076Y-82646133D02*
X141071695Y-82788990D01*
X141071695Y-82788990D02*
X141643123Y-83360419D01*
X141643123Y-83360419D02*
X141024076Y-83360419D01*
X151169666Y-88243580D02*
X151217285Y-88291200D01*
X151217285Y-88291200D02*
X151360142Y-88338819D01*
X151360142Y-88338819D02*
X151455380Y-88338819D01*
X151455380Y-88338819D02*
X151598237Y-88291200D01*
X151598237Y-88291200D02*
X151693475Y-88195961D01*
X151693475Y-88195961D02*
X151741094Y-88100723D01*
X151741094Y-88100723D02*
X151788713Y-87910247D01*
X151788713Y-87910247D02*
X151788713Y-87767390D01*
X151788713Y-87767390D02*
X151741094Y-87576914D01*
X151741094Y-87576914D02*
X151693475Y-87481676D01*
X151693475Y-87481676D02*
X151598237Y-87386438D01*
X151598237Y-87386438D02*
X151455380Y-87338819D01*
X151455380Y-87338819D02*
X151360142Y-87338819D01*
X151360142Y-87338819D02*
X151217285Y-87386438D01*
X151217285Y-87386438D02*
X151169666Y-87434057D01*
X150836332Y-87338819D02*
X150169666Y-87338819D01*
X150169666Y-87338819D02*
X150598237Y-88338819D01*
X172127057Y-55308571D02*
X172079438Y-55213333D01*
X172079438Y-55213333D02*
X171984200Y-55118095D01*
X171984200Y-55118095D02*
X171841342Y-54975238D01*
X171841342Y-54975238D02*
X171793723Y-54880000D01*
X171793723Y-54880000D02*
X171793723Y-54784762D01*
X172031819Y-54832381D02*
X171984200Y-54737143D01*
X171984200Y-54737143D02*
X171888961Y-54641905D01*
X171888961Y-54641905D02*
X171698485Y-54594286D01*
X171698485Y-54594286D02*
X171365152Y-54594286D01*
X171365152Y-54594286D02*
X171174676Y-54641905D01*
X171174676Y-54641905D02*
X171079438Y-54737143D01*
X171079438Y-54737143D02*
X171031819Y-54832381D01*
X171031819Y-54832381D02*
X171031819Y-55022857D01*
X171031819Y-55022857D02*
X171079438Y-55118095D01*
X171079438Y-55118095D02*
X171174676Y-55213333D01*
X171174676Y-55213333D02*
X171365152Y-55260952D01*
X171365152Y-55260952D02*
X171698485Y-55260952D01*
X171698485Y-55260952D02*
X171888961Y-55213333D01*
X171888961Y-55213333D02*
X171984200Y-55118095D01*
X171984200Y-55118095D02*
X172031819Y-55022857D01*
X172031819Y-55022857D02*
X172031819Y-54832381D01*
X172031819Y-56213333D02*
X172031819Y-55641905D01*
X172031819Y-55927619D02*
X171031819Y-55927619D01*
X171031819Y-55927619D02*
X171174676Y-55832381D01*
X171174676Y-55832381D02*
X171269914Y-55737143D01*
X171269914Y-55737143D02*
X171317533Y-55641905D01*
X171031819Y-56546667D02*
X171031819Y-57165714D01*
X171031819Y-57165714D02*
X171412771Y-56832381D01*
X171412771Y-56832381D02*
X171412771Y-56975238D01*
X171412771Y-56975238D02*
X171460390Y-57070476D01*
X171460390Y-57070476D02*
X171508009Y-57118095D01*
X171508009Y-57118095D02*
X171603247Y-57165714D01*
X171603247Y-57165714D02*
X171841342Y-57165714D01*
X171841342Y-57165714D02*
X171936580Y-57118095D01*
X171936580Y-57118095D02*
X171984200Y-57070476D01*
X171984200Y-57070476D02*
X172031819Y-56975238D01*
X172031819Y-56975238D02*
X172031819Y-56689524D01*
X172031819Y-56689524D02*
X171984200Y-56594286D01*
X171984200Y-56594286D02*
X171936580Y-56546667D01*
X95800057Y-55784761D02*
X95752438Y-55689523D01*
X95752438Y-55689523D02*
X95657200Y-55594285D01*
X95657200Y-55594285D02*
X95514342Y-55451428D01*
X95514342Y-55451428D02*
X95466723Y-55356190D01*
X95466723Y-55356190D02*
X95466723Y-55260952D01*
X95704819Y-55308571D02*
X95657200Y-55213333D01*
X95657200Y-55213333D02*
X95561961Y-55118095D01*
X95561961Y-55118095D02*
X95371485Y-55070476D01*
X95371485Y-55070476D02*
X95038152Y-55070476D01*
X95038152Y-55070476D02*
X94847676Y-55118095D01*
X94847676Y-55118095D02*
X94752438Y-55213333D01*
X94752438Y-55213333D02*
X94704819Y-55308571D01*
X94704819Y-55308571D02*
X94704819Y-55499047D01*
X94704819Y-55499047D02*
X94752438Y-55594285D01*
X94752438Y-55594285D02*
X94847676Y-55689523D01*
X94847676Y-55689523D02*
X95038152Y-55737142D01*
X95038152Y-55737142D02*
X95371485Y-55737142D01*
X95371485Y-55737142D02*
X95561961Y-55689523D01*
X95561961Y-55689523D02*
X95657200Y-55594285D01*
X95657200Y-55594285D02*
X95704819Y-55499047D01*
X95704819Y-55499047D02*
X95704819Y-55308571D01*
X94704819Y-56070476D02*
X94704819Y-56689523D01*
X94704819Y-56689523D02*
X95085771Y-56356190D01*
X95085771Y-56356190D02*
X95085771Y-56499047D01*
X95085771Y-56499047D02*
X95133390Y-56594285D01*
X95133390Y-56594285D02*
X95181009Y-56641904D01*
X95181009Y-56641904D02*
X95276247Y-56689523D01*
X95276247Y-56689523D02*
X95514342Y-56689523D01*
X95514342Y-56689523D02*
X95609580Y-56641904D01*
X95609580Y-56641904D02*
X95657200Y-56594285D01*
X95657200Y-56594285D02*
X95704819Y-56499047D01*
X95704819Y-56499047D02*
X95704819Y-56213333D01*
X95704819Y-56213333D02*
X95657200Y-56118095D01*
X95657200Y-56118095D02*
X95609580Y-56070476D01*
X100750666Y-67510819D02*
X101083999Y-67034628D01*
X101322094Y-67510819D02*
X101322094Y-66510819D01*
X101322094Y-66510819D02*
X100941142Y-66510819D01*
X100941142Y-66510819D02*
X100845904Y-66558438D01*
X100845904Y-66558438D02*
X100798285Y-66606057D01*
X100798285Y-66606057D02*
X100750666Y-66701295D01*
X100750666Y-66701295D02*
X100750666Y-66844152D01*
X100750666Y-66844152D02*
X100798285Y-66939390D01*
X100798285Y-66939390D02*
X100845904Y-66987009D01*
X100845904Y-66987009D02*
X100941142Y-67034628D01*
X100941142Y-67034628D02*
X101322094Y-67034628D01*
X100274475Y-67510819D02*
X100083999Y-67510819D01*
X100083999Y-67510819D02*
X99988761Y-67463200D01*
X99988761Y-67463200D02*
X99941142Y-67415580D01*
X99941142Y-67415580D02*
X99845904Y-67272723D01*
X99845904Y-67272723D02*
X99798285Y-67082247D01*
X99798285Y-67082247D02*
X99798285Y-66701295D01*
X99798285Y-66701295D02*
X99845904Y-66606057D01*
X99845904Y-66606057D02*
X99893523Y-66558438D01*
X99893523Y-66558438D02*
X99988761Y-66510819D01*
X99988761Y-66510819D02*
X100179237Y-66510819D01*
X100179237Y-66510819D02*
X100274475Y-66558438D01*
X100274475Y-66558438D02*
X100322094Y-66606057D01*
X100322094Y-66606057D02*
X100369713Y-66701295D01*
X100369713Y-66701295D02*
X100369713Y-66939390D01*
X100369713Y-66939390D02*
X100322094Y-67034628D01*
X100322094Y-67034628D02*
X100274475Y-67082247D01*
X100274475Y-67082247D02*
X100179237Y-67129866D01*
X100179237Y-67129866D02*
X99988761Y-67129866D01*
X99988761Y-67129866D02*
X99893523Y-67082247D01*
X99893523Y-67082247D02*
X99845904Y-67034628D01*
X99845904Y-67034628D02*
X99798285Y-66939390D01*
X178204593Y-72694009D02*
X178061736Y-72741628D01*
X178061736Y-72741628D02*
X178014117Y-72789247D01*
X178014117Y-72789247D02*
X177966498Y-72884485D01*
X177966498Y-72884485D02*
X177966498Y-73027342D01*
X177966498Y-73027342D02*
X178014117Y-73122580D01*
X178014117Y-73122580D02*
X178061736Y-73170200D01*
X178061736Y-73170200D02*
X178156974Y-73217819D01*
X178156974Y-73217819D02*
X178537926Y-73217819D01*
X178537926Y-73217819D02*
X178537926Y-72217819D01*
X178537926Y-72217819D02*
X178204593Y-72217819D01*
X178204593Y-72217819D02*
X178109355Y-72265438D01*
X178109355Y-72265438D02*
X178061736Y-72313057D01*
X178061736Y-72313057D02*
X178014117Y-72408295D01*
X178014117Y-72408295D02*
X178014117Y-72503533D01*
X178014117Y-72503533D02*
X178061736Y-72598771D01*
X178061736Y-72598771D02*
X178109355Y-72646390D01*
X178109355Y-72646390D02*
X178204593Y-72694009D01*
X178204593Y-72694009D02*
X178537926Y-72694009D01*
X177680783Y-72217819D02*
X177109355Y-72217819D01*
X177395069Y-73217819D02*
X177395069Y-72217819D01*
X176252212Y-73217819D02*
X176823640Y-73217819D01*
X176537926Y-73217819D02*
X176537926Y-72217819D01*
X176537926Y-72217819D02*
X176633164Y-72360676D01*
X176633164Y-72360676D02*
X176728402Y-72455914D01*
X176728402Y-72455914D02*
X176823640Y-72503533D01*
X177533700Y-92646571D02*
X177533700Y-93789429D01*
X178105128Y-93218000D02*
X176962271Y-93218000D01*
X103547057Y-55784761D02*
X103499438Y-55689523D01*
X103499438Y-55689523D02*
X103404200Y-55594285D01*
X103404200Y-55594285D02*
X103261342Y-55451428D01*
X103261342Y-55451428D02*
X103213723Y-55356190D01*
X103213723Y-55356190D02*
X103213723Y-55260952D01*
X103451819Y-55308571D02*
X103404200Y-55213333D01*
X103404200Y-55213333D02*
X103308961Y-55118095D01*
X103308961Y-55118095D02*
X103118485Y-55070476D01*
X103118485Y-55070476D02*
X102785152Y-55070476D01*
X102785152Y-55070476D02*
X102594676Y-55118095D01*
X102594676Y-55118095D02*
X102499438Y-55213333D01*
X102499438Y-55213333D02*
X102451819Y-55308571D01*
X102451819Y-55308571D02*
X102451819Y-55499047D01*
X102451819Y-55499047D02*
X102499438Y-55594285D01*
X102499438Y-55594285D02*
X102594676Y-55689523D01*
X102594676Y-55689523D02*
X102785152Y-55737142D01*
X102785152Y-55737142D02*
X103118485Y-55737142D01*
X103118485Y-55737142D02*
X103308961Y-55689523D01*
X103308961Y-55689523D02*
X103404200Y-55594285D01*
X103404200Y-55594285D02*
X103451819Y-55499047D01*
X103451819Y-55499047D02*
X103451819Y-55308571D01*
X102785152Y-56594285D02*
X103451819Y-56594285D01*
X102404200Y-56356190D02*
X103118485Y-56118095D01*
X103118485Y-56118095D02*
X103118485Y-56737142D01*
X112053666Y-70844580D02*
X112101285Y-70892200D01*
X112101285Y-70892200D02*
X112244142Y-70939819D01*
X112244142Y-70939819D02*
X112339380Y-70939819D01*
X112339380Y-70939819D02*
X112482237Y-70892200D01*
X112482237Y-70892200D02*
X112577475Y-70796961D01*
X112577475Y-70796961D02*
X112625094Y-70701723D01*
X112625094Y-70701723D02*
X112672713Y-70511247D01*
X112672713Y-70511247D02*
X112672713Y-70368390D01*
X112672713Y-70368390D02*
X112625094Y-70177914D01*
X112625094Y-70177914D02*
X112577475Y-70082676D01*
X112577475Y-70082676D02*
X112482237Y-69987438D01*
X112482237Y-69987438D02*
X112339380Y-69939819D01*
X112339380Y-69939819D02*
X112244142Y-69939819D01*
X112244142Y-69939819D02*
X112101285Y-69987438D01*
X112101285Y-69987438D02*
X112053666Y-70035057D01*
X111148904Y-69939819D02*
X111625094Y-69939819D01*
X111625094Y-69939819D02*
X111672713Y-70416009D01*
X111672713Y-70416009D02*
X111625094Y-70368390D01*
X111625094Y-70368390D02*
X111529856Y-70320771D01*
X111529856Y-70320771D02*
X111291761Y-70320771D01*
X111291761Y-70320771D02*
X111196523Y-70368390D01*
X111196523Y-70368390D02*
X111148904Y-70416009D01*
X111148904Y-70416009D02*
X111101285Y-70511247D01*
X111101285Y-70511247D02*
X111101285Y-70749342D01*
X111101285Y-70749342D02*
X111148904Y-70844580D01*
X111148904Y-70844580D02*
X111196523Y-70892200D01*
X111196523Y-70892200D02*
X111291761Y-70939819D01*
X111291761Y-70939819D02*
X111529856Y-70939819D01*
X111529856Y-70939819D02*
X111625094Y-70892200D01*
X111625094Y-70892200D02*
X111672713Y-70844580D01*
X156887057Y-55308571D02*
X156839438Y-55213333D01*
X156839438Y-55213333D02*
X156744200Y-55118095D01*
X156744200Y-55118095D02*
X156601342Y-54975238D01*
X156601342Y-54975238D02*
X156553723Y-54880000D01*
X156553723Y-54880000D02*
X156553723Y-54784762D01*
X156791819Y-54832381D02*
X156744200Y-54737143D01*
X156744200Y-54737143D02*
X156648961Y-54641905D01*
X156648961Y-54641905D02*
X156458485Y-54594286D01*
X156458485Y-54594286D02*
X156125152Y-54594286D01*
X156125152Y-54594286D02*
X155934676Y-54641905D01*
X155934676Y-54641905D02*
X155839438Y-54737143D01*
X155839438Y-54737143D02*
X155791819Y-54832381D01*
X155791819Y-54832381D02*
X155791819Y-55022857D01*
X155791819Y-55022857D02*
X155839438Y-55118095D01*
X155839438Y-55118095D02*
X155934676Y-55213333D01*
X155934676Y-55213333D02*
X156125152Y-55260952D01*
X156125152Y-55260952D02*
X156458485Y-55260952D01*
X156458485Y-55260952D02*
X156648961Y-55213333D01*
X156648961Y-55213333D02*
X156744200Y-55118095D01*
X156744200Y-55118095D02*
X156791819Y-55022857D01*
X156791819Y-55022857D02*
X156791819Y-54832381D01*
X156791819Y-56213333D02*
X156791819Y-55641905D01*
X156791819Y-55927619D02*
X155791819Y-55927619D01*
X155791819Y-55927619D02*
X155934676Y-55832381D01*
X155934676Y-55832381D02*
X156029914Y-55737143D01*
X156029914Y-55737143D02*
X156077533Y-55641905D01*
X156791819Y-57165714D02*
X156791819Y-56594286D01*
X156791819Y-56880000D02*
X155791819Y-56880000D01*
X155791819Y-56880000D02*
X155934676Y-56784762D01*
X155934676Y-56784762D02*
X156029914Y-56689524D01*
X156029914Y-56689524D02*
X156077533Y-56594286D01*
X141647057Y-55784761D02*
X141599438Y-55689523D01*
X141599438Y-55689523D02*
X141504200Y-55594285D01*
X141504200Y-55594285D02*
X141361342Y-55451428D01*
X141361342Y-55451428D02*
X141313723Y-55356190D01*
X141313723Y-55356190D02*
X141313723Y-55260952D01*
X141551819Y-55308571D02*
X141504200Y-55213333D01*
X141504200Y-55213333D02*
X141408961Y-55118095D01*
X141408961Y-55118095D02*
X141218485Y-55070476D01*
X141218485Y-55070476D02*
X140885152Y-55070476D01*
X140885152Y-55070476D02*
X140694676Y-55118095D01*
X140694676Y-55118095D02*
X140599438Y-55213333D01*
X140599438Y-55213333D02*
X140551819Y-55308571D01*
X140551819Y-55308571D02*
X140551819Y-55499047D01*
X140551819Y-55499047D02*
X140599438Y-55594285D01*
X140599438Y-55594285D02*
X140694676Y-55689523D01*
X140694676Y-55689523D02*
X140885152Y-55737142D01*
X140885152Y-55737142D02*
X141218485Y-55737142D01*
X141218485Y-55737142D02*
X141408961Y-55689523D01*
X141408961Y-55689523D02*
X141504200Y-55594285D01*
X141504200Y-55594285D02*
X141551819Y-55499047D01*
X141551819Y-55499047D02*
X141551819Y-55308571D01*
X141551819Y-56213333D02*
X141551819Y-56403809D01*
X141551819Y-56403809D02*
X141504200Y-56499047D01*
X141504200Y-56499047D02*
X141456580Y-56546666D01*
X141456580Y-56546666D02*
X141313723Y-56641904D01*
X141313723Y-56641904D02*
X141123247Y-56689523D01*
X141123247Y-56689523D02*
X140742295Y-56689523D01*
X140742295Y-56689523D02*
X140647057Y-56641904D01*
X140647057Y-56641904D02*
X140599438Y-56594285D01*
X140599438Y-56594285D02*
X140551819Y-56499047D01*
X140551819Y-56499047D02*
X140551819Y-56308571D01*
X140551819Y-56308571D02*
X140599438Y-56213333D01*
X140599438Y-56213333D02*
X140647057Y-56165714D01*
X140647057Y-56165714D02*
X140742295Y-56118095D01*
X140742295Y-56118095D02*
X140980390Y-56118095D01*
X140980390Y-56118095D02*
X141075628Y-56165714D01*
X141075628Y-56165714D02*
X141123247Y-56213333D01*
X141123247Y-56213333D02*
X141170866Y-56308571D01*
X141170866Y-56308571D02*
X141170866Y-56499047D01*
X141170866Y-56499047D02*
X141123247Y-56594285D01*
X141123247Y-56594285D02*
X141075628Y-56641904D01*
X141075628Y-56641904D02*
X140980390Y-56689523D01*
X186995238Y-65180557D02*
X187090476Y-65132938D01*
X187090476Y-65132938D02*
X187185714Y-65037700D01*
X187185714Y-65037700D02*
X187328571Y-64894842D01*
X187328571Y-64894842D02*
X187423809Y-64847223D01*
X187423809Y-64847223D02*
X187519047Y-64847223D01*
X187471428Y-65085319D02*
X187566666Y-65037700D01*
X187566666Y-65037700D02*
X187661904Y-64942461D01*
X187661904Y-64942461D02*
X187709523Y-64751985D01*
X187709523Y-64751985D02*
X187709523Y-64418652D01*
X187709523Y-64418652D02*
X187661904Y-64228176D01*
X187661904Y-64228176D02*
X187566666Y-64132938D01*
X187566666Y-64132938D02*
X187471428Y-64085319D01*
X187471428Y-64085319D02*
X187280952Y-64085319D01*
X187280952Y-64085319D02*
X187185714Y-64132938D01*
X187185714Y-64132938D02*
X187090476Y-64228176D01*
X187090476Y-64228176D02*
X187042857Y-64418652D01*
X187042857Y-64418652D02*
X187042857Y-64751985D01*
X187042857Y-64751985D02*
X187090476Y-64942461D01*
X187090476Y-64942461D02*
X187185714Y-65037700D01*
X187185714Y-65037700D02*
X187280952Y-65085319D01*
X187280952Y-65085319D02*
X187471428Y-65085319D01*
X186090476Y-65085319D02*
X186661904Y-65085319D01*
X186376190Y-65085319D02*
X186376190Y-64085319D01*
X186376190Y-64085319D02*
X186471428Y-64228176D01*
X186471428Y-64228176D02*
X186566666Y-64323414D01*
X186566666Y-64323414D02*
X186661904Y-64371033D01*
X202607057Y-55308571D02*
X202559438Y-55213333D01*
X202559438Y-55213333D02*
X202464200Y-55118095D01*
X202464200Y-55118095D02*
X202321342Y-54975238D01*
X202321342Y-54975238D02*
X202273723Y-54880000D01*
X202273723Y-54880000D02*
X202273723Y-54784762D01*
X202511819Y-54832381D02*
X202464200Y-54737143D01*
X202464200Y-54737143D02*
X202368961Y-54641905D01*
X202368961Y-54641905D02*
X202178485Y-54594286D01*
X202178485Y-54594286D02*
X201845152Y-54594286D01*
X201845152Y-54594286D02*
X201654676Y-54641905D01*
X201654676Y-54641905D02*
X201559438Y-54737143D01*
X201559438Y-54737143D02*
X201511819Y-54832381D01*
X201511819Y-54832381D02*
X201511819Y-55022857D01*
X201511819Y-55022857D02*
X201559438Y-55118095D01*
X201559438Y-55118095D02*
X201654676Y-55213333D01*
X201654676Y-55213333D02*
X201845152Y-55260952D01*
X201845152Y-55260952D02*
X202178485Y-55260952D01*
X202178485Y-55260952D02*
X202368961Y-55213333D01*
X202368961Y-55213333D02*
X202464200Y-55118095D01*
X202464200Y-55118095D02*
X202511819Y-55022857D01*
X202511819Y-55022857D02*
X202511819Y-54832381D01*
X202511819Y-56213333D02*
X202511819Y-55641905D01*
X202511819Y-55927619D02*
X201511819Y-55927619D01*
X201511819Y-55927619D02*
X201654676Y-55832381D01*
X201654676Y-55832381D02*
X201749914Y-55737143D01*
X201749914Y-55737143D02*
X201797533Y-55641905D01*
X201511819Y-56546667D02*
X201511819Y-57213333D01*
X201511819Y-57213333D02*
X202511819Y-56784762D01*
X112037666Y-68272819D02*
X112370999Y-67796628D01*
X112609094Y-68272819D02*
X112609094Y-67272819D01*
X112609094Y-67272819D02*
X112228142Y-67272819D01*
X112228142Y-67272819D02*
X112132904Y-67320438D01*
X112132904Y-67320438D02*
X112085285Y-67368057D01*
X112085285Y-67368057D02*
X112037666Y-67463295D01*
X112037666Y-67463295D02*
X112037666Y-67606152D01*
X112037666Y-67606152D02*
X112085285Y-67701390D01*
X112085285Y-67701390D02*
X112132904Y-67749009D01*
X112132904Y-67749009D02*
X112228142Y-67796628D01*
X112228142Y-67796628D02*
X112609094Y-67796628D01*
X111180523Y-67606152D02*
X111180523Y-68272819D01*
X111418618Y-67225200D02*
X111656713Y-67939485D01*
X111656713Y-67939485D02*
X111037666Y-67939485D01*
X193603279Y-76892819D02*
X193936612Y-76416628D01*
X194174707Y-76892819D02*
X194174707Y-75892819D01*
X194174707Y-75892819D02*
X193793755Y-75892819D01*
X193793755Y-75892819D02*
X193698517Y-75940438D01*
X193698517Y-75940438D02*
X193650898Y-75988057D01*
X193650898Y-75988057D02*
X193603279Y-76083295D01*
X193603279Y-76083295D02*
X193603279Y-76226152D01*
X193603279Y-76226152D02*
X193650898Y-76321390D01*
X193650898Y-76321390D02*
X193698517Y-76369009D01*
X193698517Y-76369009D02*
X193793755Y-76416628D01*
X193793755Y-76416628D02*
X194174707Y-76416628D01*
X193222326Y-75988057D02*
X193174707Y-75940438D01*
X193174707Y-75940438D02*
X193079469Y-75892819D01*
X193079469Y-75892819D02*
X192841374Y-75892819D01*
X192841374Y-75892819D02*
X192746136Y-75940438D01*
X192746136Y-75940438D02*
X192698517Y-75988057D01*
X192698517Y-75988057D02*
X192650898Y-76083295D01*
X192650898Y-76083295D02*
X192650898Y-76178533D01*
X192650898Y-76178533D02*
X192698517Y-76321390D01*
X192698517Y-76321390D02*
X193269945Y-76892819D01*
X193269945Y-76892819D02*
X192650898Y-76892819D01*
X100718857Y-75130819D02*
X101052190Y-74654628D01*
X101290285Y-75130819D02*
X101290285Y-74130819D01*
X101290285Y-74130819D02*
X100909333Y-74130819D01*
X100909333Y-74130819D02*
X100814095Y-74178438D01*
X100814095Y-74178438D02*
X100766476Y-74226057D01*
X100766476Y-74226057D02*
X100718857Y-74321295D01*
X100718857Y-74321295D02*
X100718857Y-74464152D01*
X100718857Y-74464152D02*
X100766476Y-74559390D01*
X100766476Y-74559390D02*
X100814095Y-74607009D01*
X100814095Y-74607009D02*
X100909333Y-74654628D01*
X100909333Y-74654628D02*
X101290285Y-74654628D01*
X99766476Y-75130819D02*
X100337904Y-75130819D01*
X100052190Y-75130819D02*
X100052190Y-74130819D01*
X100052190Y-74130819D02*
X100147428Y-74273676D01*
X100147428Y-74273676D02*
X100242666Y-74368914D01*
X100242666Y-74368914D02*
X100337904Y-74416533D01*
X99385523Y-74226057D02*
X99337904Y-74178438D01*
X99337904Y-74178438D02*
X99242666Y-74130819D01*
X99242666Y-74130819D02*
X99004571Y-74130819D01*
X99004571Y-74130819D02*
X98909333Y-74178438D01*
X98909333Y-74178438D02*
X98861714Y-74226057D01*
X98861714Y-74226057D02*
X98814095Y-74321295D01*
X98814095Y-74321295D02*
X98814095Y-74416533D01*
X98814095Y-74416533D02*
X98861714Y-74559390D01*
X98861714Y-74559390D02*
X99433142Y-75130819D01*
X99433142Y-75130819D02*
X98814095Y-75130819D01*
X154344666Y-81718819D02*
X154677999Y-81242628D01*
X154916094Y-81718819D02*
X154916094Y-80718819D01*
X154916094Y-80718819D02*
X154535142Y-80718819D01*
X154535142Y-80718819D02*
X154439904Y-80766438D01*
X154439904Y-80766438D02*
X154392285Y-80814057D01*
X154392285Y-80814057D02*
X154344666Y-80909295D01*
X154344666Y-80909295D02*
X154344666Y-81052152D01*
X154344666Y-81052152D02*
X154392285Y-81147390D01*
X154392285Y-81147390D02*
X154439904Y-81195009D01*
X154439904Y-81195009D02*
X154535142Y-81242628D01*
X154535142Y-81242628D02*
X154916094Y-81242628D01*
X153773237Y-81147390D02*
X153868475Y-81099771D01*
X153868475Y-81099771D02*
X153916094Y-81052152D01*
X153916094Y-81052152D02*
X153963713Y-80956914D01*
X153963713Y-80956914D02*
X153963713Y-80909295D01*
X153963713Y-80909295D02*
X153916094Y-80814057D01*
X153916094Y-80814057D02*
X153868475Y-80766438D01*
X153868475Y-80766438D02*
X153773237Y-80718819D01*
X153773237Y-80718819D02*
X153582761Y-80718819D01*
X153582761Y-80718819D02*
X153487523Y-80766438D01*
X153487523Y-80766438D02*
X153439904Y-80814057D01*
X153439904Y-80814057D02*
X153392285Y-80909295D01*
X153392285Y-80909295D02*
X153392285Y-80956914D01*
X153392285Y-80956914D02*
X153439904Y-81052152D01*
X153439904Y-81052152D02*
X153487523Y-81099771D01*
X153487523Y-81099771D02*
X153582761Y-81147390D01*
X153582761Y-81147390D02*
X153773237Y-81147390D01*
X153773237Y-81147390D02*
X153868475Y-81195009D01*
X153868475Y-81195009D02*
X153916094Y-81242628D01*
X153916094Y-81242628D02*
X153963713Y-81337866D01*
X153963713Y-81337866D02*
X153963713Y-81528342D01*
X153963713Y-81528342D02*
X153916094Y-81623580D01*
X153916094Y-81623580D02*
X153868475Y-81671200D01*
X153868475Y-81671200D02*
X153773237Y-81718819D01*
X153773237Y-81718819D02*
X153582761Y-81718819D01*
X153582761Y-81718819D02*
X153487523Y-81671200D01*
X153487523Y-81671200D02*
X153439904Y-81623580D01*
X153439904Y-81623580D02*
X153392285Y-81528342D01*
X153392285Y-81528342D02*
X153392285Y-81337866D01*
X153392285Y-81337866D02*
X153439904Y-81242628D01*
X153439904Y-81242628D02*
X153487523Y-81195009D01*
X153487523Y-81195009D02*
X153582761Y-81147390D01*
X100718857Y-77670819D02*
X101052190Y-77194628D01*
X101290285Y-77670819D02*
X101290285Y-76670819D01*
X101290285Y-76670819D02*
X100909333Y-76670819D01*
X100909333Y-76670819D02*
X100814095Y-76718438D01*
X100814095Y-76718438D02*
X100766476Y-76766057D01*
X100766476Y-76766057D02*
X100718857Y-76861295D01*
X100718857Y-76861295D02*
X100718857Y-77004152D01*
X100718857Y-77004152D02*
X100766476Y-77099390D01*
X100766476Y-77099390D02*
X100814095Y-77147009D01*
X100814095Y-77147009D02*
X100909333Y-77194628D01*
X100909333Y-77194628D02*
X101290285Y-77194628D01*
X99766476Y-77670819D02*
X100337904Y-77670819D01*
X100052190Y-77670819D02*
X100052190Y-76670819D01*
X100052190Y-76670819D02*
X100147428Y-76813676D01*
X100147428Y-76813676D02*
X100242666Y-76908914D01*
X100242666Y-76908914D02*
X100337904Y-76956533D01*
X99433142Y-76670819D02*
X98814095Y-76670819D01*
X98814095Y-76670819D02*
X99147428Y-77051771D01*
X99147428Y-77051771D02*
X99004571Y-77051771D01*
X99004571Y-77051771D02*
X98909333Y-77099390D01*
X98909333Y-77099390D02*
X98861714Y-77147009D01*
X98861714Y-77147009D02*
X98814095Y-77242247D01*
X98814095Y-77242247D02*
X98814095Y-77480342D01*
X98814095Y-77480342D02*
X98861714Y-77575580D01*
X98861714Y-77575580D02*
X98909333Y-77623200D01*
X98909333Y-77623200D02*
X99004571Y-77670819D01*
X99004571Y-77670819D02*
X99290285Y-77670819D01*
X99290285Y-77670819D02*
X99385523Y-77623200D01*
X99385523Y-77623200D02*
X99433142Y-77575580D01*
X164507057Y-55308571D02*
X164459438Y-55213333D01*
X164459438Y-55213333D02*
X164364200Y-55118095D01*
X164364200Y-55118095D02*
X164221342Y-54975238D01*
X164221342Y-54975238D02*
X164173723Y-54880000D01*
X164173723Y-54880000D02*
X164173723Y-54784762D01*
X164411819Y-54832381D02*
X164364200Y-54737143D01*
X164364200Y-54737143D02*
X164268961Y-54641905D01*
X164268961Y-54641905D02*
X164078485Y-54594286D01*
X164078485Y-54594286D02*
X163745152Y-54594286D01*
X163745152Y-54594286D02*
X163554676Y-54641905D01*
X163554676Y-54641905D02*
X163459438Y-54737143D01*
X163459438Y-54737143D02*
X163411819Y-54832381D01*
X163411819Y-54832381D02*
X163411819Y-55022857D01*
X163411819Y-55022857D02*
X163459438Y-55118095D01*
X163459438Y-55118095D02*
X163554676Y-55213333D01*
X163554676Y-55213333D02*
X163745152Y-55260952D01*
X163745152Y-55260952D02*
X164078485Y-55260952D01*
X164078485Y-55260952D02*
X164268961Y-55213333D01*
X164268961Y-55213333D02*
X164364200Y-55118095D01*
X164364200Y-55118095D02*
X164411819Y-55022857D01*
X164411819Y-55022857D02*
X164411819Y-54832381D01*
X164411819Y-56213333D02*
X164411819Y-55641905D01*
X164411819Y-55927619D02*
X163411819Y-55927619D01*
X163411819Y-55927619D02*
X163554676Y-55832381D01*
X163554676Y-55832381D02*
X163649914Y-55737143D01*
X163649914Y-55737143D02*
X163697533Y-55641905D01*
X163507057Y-56594286D02*
X163459438Y-56641905D01*
X163459438Y-56641905D02*
X163411819Y-56737143D01*
X163411819Y-56737143D02*
X163411819Y-56975238D01*
X163411819Y-56975238D02*
X163459438Y-57070476D01*
X163459438Y-57070476D02*
X163507057Y-57118095D01*
X163507057Y-57118095D02*
X163602295Y-57165714D01*
X163602295Y-57165714D02*
X163697533Y-57165714D01*
X163697533Y-57165714D02*
X163840390Y-57118095D01*
X163840390Y-57118095D02*
X164411819Y-56546667D01*
X164411819Y-56546667D02*
X164411819Y-57165714D01*
X133900057Y-55784761D02*
X133852438Y-55689523D01*
X133852438Y-55689523D02*
X133757200Y-55594285D01*
X133757200Y-55594285D02*
X133614342Y-55451428D01*
X133614342Y-55451428D02*
X133566723Y-55356190D01*
X133566723Y-55356190D02*
X133566723Y-55260952D01*
X133804819Y-55308571D02*
X133757200Y-55213333D01*
X133757200Y-55213333D02*
X133661961Y-55118095D01*
X133661961Y-55118095D02*
X133471485Y-55070476D01*
X133471485Y-55070476D02*
X133138152Y-55070476D01*
X133138152Y-55070476D02*
X132947676Y-55118095D01*
X132947676Y-55118095D02*
X132852438Y-55213333D01*
X132852438Y-55213333D02*
X132804819Y-55308571D01*
X132804819Y-55308571D02*
X132804819Y-55499047D01*
X132804819Y-55499047D02*
X132852438Y-55594285D01*
X132852438Y-55594285D02*
X132947676Y-55689523D01*
X132947676Y-55689523D02*
X133138152Y-55737142D01*
X133138152Y-55737142D02*
X133471485Y-55737142D01*
X133471485Y-55737142D02*
X133661961Y-55689523D01*
X133661961Y-55689523D02*
X133757200Y-55594285D01*
X133757200Y-55594285D02*
X133804819Y-55499047D01*
X133804819Y-55499047D02*
X133804819Y-55308571D01*
X133233390Y-56308571D02*
X133185771Y-56213333D01*
X133185771Y-56213333D02*
X133138152Y-56165714D01*
X133138152Y-56165714D02*
X133042914Y-56118095D01*
X133042914Y-56118095D02*
X132995295Y-56118095D01*
X132995295Y-56118095D02*
X132900057Y-56165714D01*
X132900057Y-56165714D02*
X132852438Y-56213333D01*
X132852438Y-56213333D02*
X132804819Y-56308571D01*
X132804819Y-56308571D02*
X132804819Y-56499047D01*
X132804819Y-56499047D02*
X132852438Y-56594285D01*
X132852438Y-56594285D02*
X132900057Y-56641904D01*
X132900057Y-56641904D02*
X132995295Y-56689523D01*
X132995295Y-56689523D02*
X133042914Y-56689523D01*
X133042914Y-56689523D02*
X133138152Y-56641904D01*
X133138152Y-56641904D02*
X133185771Y-56594285D01*
X133185771Y-56594285D02*
X133233390Y-56499047D01*
X133233390Y-56499047D02*
X133233390Y-56308571D01*
X133233390Y-56308571D02*
X133281009Y-56213333D01*
X133281009Y-56213333D02*
X133328628Y-56165714D01*
X133328628Y-56165714D02*
X133423866Y-56118095D01*
X133423866Y-56118095D02*
X133614342Y-56118095D01*
X133614342Y-56118095D02*
X133709580Y-56165714D01*
X133709580Y-56165714D02*
X133757200Y-56213333D01*
X133757200Y-56213333D02*
X133804819Y-56308571D01*
X133804819Y-56308571D02*
X133804819Y-56499047D01*
X133804819Y-56499047D02*
X133757200Y-56594285D01*
X133757200Y-56594285D02*
X133709580Y-56641904D01*
X133709580Y-56641904D02*
X133614342Y-56689523D01*
X133614342Y-56689523D02*
X133423866Y-56689523D01*
X133423866Y-56689523D02*
X133328628Y-56641904D01*
X133328628Y-56641904D02*
X133281009Y-56594285D01*
X133281009Y-56594285D02*
X133233390Y-56499047D01*
X127376190Y-86592628D02*
X127376190Y-87068819D01*
X127709523Y-86068819D02*
X127376190Y-86592628D01*
X127376190Y-86592628D02*
X127042857Y-86068819D01*
X126185714Y-87068819D02*
X126757142Y-87068819D01*
X126471428Y-87068819D02*
X126471428Y-86068819D01*
X126471428Y-86068819D02*
X126566666Y-86211676D01*
X126566666Y-86211676D02*
X126661904Y-86306914D01*
X126661904Y-86306914D02*
X126757142Y-86354533D01*
X139993666Y-58493819D02*
X140326999Y-58017628D01*
X140565094Y-58493819D02*
X140565094Y-57493819D01*
X140565094Y-57493819D02*
X140184142Y-57493819D01*
X140184142Y-57493819D02*
X140088904Y-57541438D01*
X140088904Y-57541438D02*
X140041285Y-57589057D01*
X140041285Y-57589057D02*
X139993666Y-57684295D01*
X139993666Y-57684295D02*
X139993666Y-57827152D01*
X139993666Y-57827152D02*
X140041285Y-57922390D01*
X140041285Y-57922390D02*
X140088904Y-57970009D01*
X140088904Y-57970009D02*
X140184142Y-58017628D01*
X140184142Y-58017628D02*
X140565094Y-58017628D01*
X139088904Y-57493819D02*
X139565094Y-57493819D01*
X139565094Y-57493819D02*
X139612713Y-57970009D01*
X139612713Y-57970009D02*
X139565094Y-57922390D01*
X139565094Y-57922390D02*
X139469856Y-57874771D01*
X139469856Y-57874771D02*
X139231761Y-57874771D01*
X139231761Y-57874771D02*
X139136523Y-57922390D01*
X139136523Y-57922390D02*
X139088904Y-57970009D01*
X139088904Y-57970009D02*
X139041285Y-58065247D01*
X139041285Y-58065247D02*
X139041285Y-58303342D01*
X139041285Y-58303342D02*
X139088904Y-58398580D01*
X139088904Y-58398580D02*
X139136523Y-58446200D01*
X139136523Y-58446200D02*
X139231761Y-58493819D01*
X139231761Y-58493819D02*
X139469856Y-58493819D01*
X139469856Y-58493819D02*
X139565094Y-58446200D01*
X139565094Y-58446200D02*
X139612713Y-58398580D01*
X179747057Y-55308571D02*
X179699438Y-55213333D01*
X179699438Y-55213333D02*
X179604200Y-55118095D01*
X179604200Y-55118095D02*
X179461342Y-54975238D01*
X179461342Y-54975238D02*
X179413723Y-54880000D01*
X179413723Y-54880000D02*
X179413723Y-54784762D01*
X179651819Y-54832381D02*
X179604200Y-54737143D01*
X179604200Y-54737143D02*
X179508961Y-54641905D01*
X179508961Y-54641905D02*
X179318485Y-54594286D01*
X179318485Y-54594286D02*
X178985152Y-54594286D01*
X178985152Y-54594286D02*
X178794676Y-54641905D01*
X178794676Y-54641905D02*
X178699438Y-54737143D01*
X178699438Y-54737143D02*
X178651819Y-54832381D01*
X178651819Y-54832381D02*
X178651819Y-55022857D01*
X178651819Y-55022857D02*
X178699438Y-55118095D01*
X178699438Y-55118095D02*
X178794676Y-55213333D01*
X178794676Y-55213333D02*
X178985152Y-55260952D01*
X178985152Y-55260952D02*
X179318485Y-55260952D01*
X179318485Y-55260952D02*
X179508961Y-55213333D01*
X179508961Y-55213333D02*
X179604200Y-55118095D01*
X179604200Y-55118095D02*
X179651819Y-55022857D01*
X179651819Y-55022857D02*
X179651819Y-54832381D01*
X179651819Y-56213333D02*
X179651819Y-55641905D01*
X179651819Y-55927619D02*
X178651819Y-55927619D01*
X178651819Y-55927619D02*
X178794676Y-55832381D01*
X178794676Y-55832381D02*
X178889914Y-55737143D01*
X178889914Y-55737143D02*
X178937533Y-55641905D01*
X178985152Y-57070476D02*
X179651819Y-57070476D01*
X178604200Y-56832381D02*
X179318485Y-56594286D01*
X179318485Y-56594286D02*
X179318485Y-57213333D01*
X130341666Y-59055080D02*
X130389285Y-59102700D01*
X130389285Y-59102700D02*
X130532142Y-59150319D01*
X130532142Y-59150319D02*
X130627380Y-59150319D01*
X130627380Y-59150319D02*
X130770237Y-59102700D01*
X130770237Y-59102700D02*
X130865475Y-59007461D01*
X130865475Y-59007461D02*
X130913094Y-58912223D01*
X130913094Y-58912223D02*
X130960713Y-58721747D01*
X130960713Y-58721747D02*
X130960713Y-58578890D01*
X130960713Y-58578890D02*
X130913094Y-58388414D01*
X130913094Y-58388414D02*
X130865475Y-58293176D01*
X130865475Y-58293176D02*
X130770237Y-58197938D01*
X130770237Y-58197938D02*
X130627380Y-58150319D01*
X130627380Y-58150319D02*
X130532142Y-58150319D01*
X130532142Y-58150319D02*
X130389285Y-58197938D01*
X130389285Y-58197938D02*
X130341666Y-58245557D01*
X130008332Y-58150319D02*
X129389285Y-58150319D01*
X129389285Y-58150319D02*
X129722618Y-58531271D01*
X129722618Y-58531271D02*
X129579761Y-58531271D01*
X129579761Y-58531271D02*
X129484523Y-58578890D01*
X129484523Y-58578890D02*
X129436904Y-58626509D01*
X129436904Y-58626509D02*
X129389285Y-58721747D01*
X129389285Y-58721747D02*
X129389285Y-58959842D01*
X129389285Y-58959842D02*
X129436904Y-59055080D01*
X129436904Y-59055080D02*
X129484523Y-59102700D01*
X129484523Y-59102700D02*
X129579761Y-59150319D01*
X129579761Y-59150319D02*
X129865475Y-59150319D01*
X129865475Y-59150319D02*
X129960713Y-59102700D01*
X129960713Y-59102700D02*
X130008332Y-59055080D01*
X132754666Y-59128819D02*
X133087999Y-58652628D01*
X133326094Y-59128819D02*
X133326094Y-58128819D01*
X133326094Y-58128819D02*
X132945142Y-58128819D01*
X132945142Y-58128819D02*
X132849904Y-58176438D01*
X132849904Y-58176438D02*
X132802285Y-58224057D01*
X132802285Y-58224057D02*
X132754666Y-58319295D01*
X132754666Y-58319295D02*
X132754666Y-58462152D01*
X132754666Y-58462152D02*
X132802285Y-58557390D01*
X132802285Y-58557390D02*
X132849904Y-58605009D01*
X132849904Y-58605009D02*
X132945142Y-58652628D01*
X132945142Y-58652628D02*
X133326094Y-58652628D01*
X131897523Y-58128819D02*
X132087999Y-58128819D01*
X132087999Y-58128819D02*
X132183237Y-58176438D01*
X132183237Y-58176438D02*
X132230856Y-58224057D01*
X132230856Y-58224057D02*
X132326094Y-58366914D01*
X132326094Y-58366914D02*
X132373713Y-58557390D01*
X132373713Y-58557390D02*
X132373713Y-58938342D01*
X132373713Y-58938342D02*
X132326094Y-59033580D01*
X132326094Y-59033580D02*
X132278475Y-59081200D01*
X132278475Y-59081200D02*
X132183237Y-59128819D01*
X132183237Y-59128819D02*
X131992761Y-59128819D01*
X131992761Y-59128819D02*
X131897523Y-59081200D01*
X131897523Y-59081200D02*
X131849904Y-59033580D01*
X131849904Y-59033580D02*
X131802285Y-58938342D01*
X131802285Y-58938342D02*
X131802285Y-58700247D01*
X131802285Y-58700247D02*
X131849904Y-58605009D01*
X131849904Y-58605009D02*
X131897523Y-58557390D01*
X131897523Y-58557390D02*
X131992761Y-58509771D01*
X131992761Y-58509771D02*
X132183237Y-58509771D01*
X132183237Y-58509771D02*
X132278475Y-58557390D01*
X132278475Y-58557390D02*
X132326094Y-58605009D01*
X132326094Y-58605009D02*
X132373713Y-58700247D01*
X131717166Y-80369580D02*
X131764785Y-80417200D01*
X131764785Y-80417200D02*
X131907642Y-80464819D01*
X131907642Y-80464819D02*
X132002880Y-80464819D01*
X132002880Y-80464819D02*
X132145737Y-80417200D01*
X132145737Y-80417200D02*
X132240975Y-80321961D01*
X132240975Y-80321961D02*
X132288594Y-80226723D01*
X132288594Y-80226723D02*
X132336213Y-80036247D01*
X132336213Y-80036247D02*
X132336213Y-79893390D01*
X132336213Y-79893390D02*
X132288594Y-79702914D01*
X132288594Y-79702914D02*
X132240975Y-79607676D01*
X132240975Y-79607676D02*
X132145737Y-79512438D01*
X132145737Y-79512438D02*
X132002880Y-79464819D01*
X132002880Y-79464819D02*
X131907642Y-79464819D01*
X131907642Y-79464819D02*
X131764785Y-79512438D01*
X131764785Y-79512438D02*
X131717166Y-79560057D01*
X131240975Y-80464819D02*
X131050499Y-80464819D01*
X131050499Y-80464819D02*
X130955261Y-80417200D01*
X130955261Y-80417200D02*
X130907642Y-80369580D01*
X130907642Y-80369580D02*
X130812404Y-80226723D01*
X130812404Y-80226723D02*
X130764785Y-80036247D01*
X130764785Y-80036247D02*
X130764785Y-79655295D01*
X130764785Y-79655295D02*
X130812404Y-79560057D01*
X130812404Y-79560057D02*
X130860023Y-79512438D01*
X130860023Y-79512438D02*
X130955261Y-79464819D01*
X130955261Y-79464819D02*
X131145737Y-79464819D01*
X131145737Y-79464819D02*
X131240975Y-79512438D01*
X131240975Y-79512438D02*
X131288594Y-79560057D01*
X131288594Y-79560057D02*
X131336213Y-79655295D01*
X131336213Y-79655295D02*
X131336213Y-79893390D01*
X131336213Y-79893390D02*
X131288594Y-79988628D01*
X131288594Y-79988628D02*
X131240975Y-80036247D01*
X131240975Y-80036247D02*
X131145737Y-80083866D01*
X131145737Y-80083866D02*
X130955261Y-80083866D01*
X130955261Y-80083866D02*
X130860023Y-80036247D01*
X130860023Y-80036247D02*
X130812404Y-79988628D01*
X130812404Y-79988628D02*
X130764785Y-79893390D01*
X95673057Y-60737761D02*
X95625438Y-60642523D01*
X95625438Y-60642523D02*
X95530200Y-60547285D01*
X95530200Y-60547285D02*
X95387342Y-60404428D01*
X95387342Y-60404428D02*
X95339723Y-60309190D01*
X95339723Y-60309190D02*
X95339723Y-60213952D01*
X95577819Y-60261571D02*
X95530200Y-60166333D01*
X95530200Y-60166333D02*
X95434961Y-60071095D01*
X95434961Y-60071095D02*
X95244485Y-60023476D01*
X95244485Y-60023476D02*
X94911152Y-60023476D01*
X94911152Y-60023476D02*
X94720676Y-60071095D01*
X94720676Y-60071095D02*
X94625438Y-60166333D01*
X94625438Y-60166333D02*
X94577819Y-60261571D01*
X94577819Y-60261571D02*
X94577819Y-60452047D01*
X94577819Y-60452047D02*
X94625438Y-60547285D01*
X94625438Y-60547285D02*
X94720676Y-60642523D01*
X94720676Y-60642523D02*
X94911152Y-60690142D01*
X94911152Y-60690142D02*
X95244485Y-60690142D01*
X95244485Y-60690142D02*
X95434961Y-60642523D01*
X95434961Y-60642523D02*
X95530200Y-60547285D01*
X95530200Y-60547285D02*
X95577819Y-60452047D01*
X95577819Y-60452047D02*
X95577819Y-60261571D01*
X94673057Y-61071095D02*
X94625438Y-61118714D01*
X94625438Y-61118714D02*
X94577819Y-61213952D01*
X94577819Y-61213952D02*
X94577819Y-61452047D01*
X94577819Y-61452047D02*
X94625438Y-61547285D01*
X94625438Y-61547285D02*
X94673057Y-61594904D01*
X94673057Y-61594904D02*
X94768295Y-61642523D01*
X94768295Y-61642523D02*
X94863533Y-61642523D01*
X94863533Y-61642523D02*
X95006390Y-61594904D01*
X95006390Y-61594904D02*
X95577819Y-61023476D01*
X95577819Y-61023476D02*
X95577819Y-61642523D01*
X149267057Y-55308571D02*
X149219438Y-55213333D01*
X149219438Y-55213333D02*
X149124200Y-55118095D01*
X149124200Y-55118095D02*
X148981342Y-54975238D01*
X148981342Y-54975238D02*
X148933723Y-54880000D01*
X148933723Y-54880000D02*
X148933723Y-54784762D01*
X149171819Y-54832381D02*
X149124200Y-54737143D01*
X149124200Y-54737143D02*
X149028961Y-54641905D01*
X149028961Y-54641905D02*
X148838485Y-54594286D01*
X148838485Y-54594286D02*
X148505152Y-54594286D01*
X148505152Y-54594286D02*
X148314676Y-54641905D01*
X148314676Y-54641905D02*
X148219438Y-54737143D01*
X148219438Y-54737143D02*
X148171819Y-54832381D01*
X148171819Y-54832381D02*
X148171819Y-55022857D01*
X148171819Y-55022857D02*
X148219438Y-55118095D01*
X148219438Y-55118095D02*
X148314676Y-55213333D01*
X148314676Y-55213333D02*
X148505152Y-55260952D01*
X148505152Y-55260952D02*
X148838485Y-55260952D01*
X148838485Y-55260952D02*
X149028961Y-55213333D01*
X149028961Y-55213333D02*
X149124200Y-55118095D01*
X149124200Y-55118095D02*
X149171819Y-55022857D01*
X149171819Y-55022857D02*
X149171819Y-54832381D01*
X149171819Y-56213333D02*
X149171819Y-55641905D01*
X149171819Y-55927619D02*
X148171819Y-55927619D01*
X148171819Y-55927619D02*
X148314676Y-55832381D01*
X148314676Y-55832381D02*
X148409914Y-55737143D01*
X148409914Y-55737143D02*
X148457533Y-55641905D01*
X148171819Y-56832381D02*
X148171819Y-56927619D01*
X148171819Y-56927619D02*
X148219438Y-57022857D01*
X148219438Y-57022857D02*
X148267057Y-57070476D01*
X148267057Y-57070476D02*
X148362295Y-57118095D01*
X148362295Y-57118095D02*
X148552771Y-57165714D01*
X148552771Y-57165714D02*
X148790866Y-57165714D01*
X148790866Y-57165714D02*
X148981342Y-57118095D01*
X148981342Y-57118095D02*
X149076580Y-57070476D01*
X149076580Y-57070476D02*
X149124200Y-57022857D01*
X149124200Y-57022857D02*
X149171819Y-56927619D01*
X149171819Y-56927619D02*
X149171819Y-56832381D01*
X149171819Y-56832381D02*
X149124200Y-56737143D01*
X149124200Y-56737143D02*
X149076580Y-56689524D01*
X149076580Y-56689524D02*
X148981342Y-56641905D01*
X148981342Y-56641905D02*
X148790866Y-56594286D01*
X148790866Y-56594286D02*
X148552771Y-56594286D01*
X148552771Y-56594286D02*
X148362295Y-56641905D01*
X148362295Y-56641905D02*
X148267057Y-56689524D01*
X148267057Y-56689524D02*
X148219438Y-56737143D01*
X148219438Y-56737143D02*
X148171819Y-56832381D01*
X123610666Y-84277580D02*
X123658285Y-84325200D01*
X123658285Y-84325200D02*
X123801142Y-84372819D01*
X123801142Y-84372819D02*
X123896380Y-84372819D01*
X123896380Y-84372819D02*
X124039237Y-84325200D01*
X124039237Y-84325200D02*
X124134475Y-84229961D01*
X124134475Y-84229961D02*
X124182094Y-84134723D01*
X124182094Y-84134723D02*
X124229713Y-83944247D01*
X124229713Y-83944247D02*
X124229713Y-83801390D01*
X124229713Y-83801390D02*
X124182094Y-83610914D01*
X124182094Y-83610914D02*
X124134475Y-83515676D01*
X124134475Y-83515676D02*
X124039237Y-83420438D01*
X124039237Y-83420438D02*
X123896380Y-83372819D01*
X123896380Y-83372819D02*
X123801142Y-83372819D01*
X123801142Y-83372819D02*
X123658285Y-83420438D01*
X123658285Y-83420438D02*
X123610666Y-83468057D01*
X122658285Y-84372819D02*
X123229713Y-84372819D01*
X122943999Y-84372819D02*
X122943999Y-83372819D01*
X122943999Y-83372819D02*
X123039237Y-83515676D01*
X123039237Y-83515676D02*
X123134475Y-83610914D01*
X123134475Y-83610914D02*
X123229713Y-83658533D01*
X130555904Y-63462819D02*
X130555904Y-64272342D01*
X130555904Y-64272342D02*
X130508285Y-64367580D01*
X130508285Y-64367580D02*
X130460666Y-64415200D01*
X130460666Y-64415200D02*
X130365428Y-64462819D01*
X130365428Y-64462819D02*
X130174952Y-64462819D01*
X130174952Y-64462819D02*
X130079714Y-64415200D01*
X130079714Y-64415200D02*
X130032095Y-64367580D01*
X130032095Y-64367580D02*
X129984476Y-64272342D01*
X129984476Y-64272342D02*
X129984476Y-63462819D01*
X128984476Y-64462819D02*
X129555904Y-64462819D01*
X129270190Y-64462819D02*
X129270190Y-63462819D01*
X129270190Y-63462819D02*
X129365428Y-63605676D01*
X129365428Y-63605676D02*
X129460666Y-63700914D01*
X129460666Y-63700914D02*
X129555904Y-63748533D01*
X100718857Y-72590819D02*
X101052190Y-72114628D01*
X101290285Y-72590819D02*
X101290285Y-71590819D01*
X101290285Y-71590819D02*
X100909333Y-71590819D01*
X100909333Y-71590819D02*
X100814095Y-71638438D01*
X100814095Y-71638438D02*
X100766476Y-71686057D01*
X100766476Y-71686057D02*
X100718857Y-71781295D01*
X100718857Y-71781295D02*
X100718857Y-71924152D01*
X100718857Y-71924152D02*
X100766476Y-72019390D01*
X100766476Y-72019390D02*
X100814095Y-72067009D01*
X100814095Y-72067009D02*
X100909333Y-72114628D01*
X100909333Y-72114628D02*
X101290285Y-72114628D01*
X99766476Y-72590819D02*
X100337904Y-72590819D01*
X100052190Y-72590819D02*
X100052190Y-71590819D01*
X100052190Y-71590819D02*
X100147428Y-71733676D01*
X100147428Y-71733676D02*
X100242666Y-71828914D01*
X100242666Y-71828914D02*
X100337904Y-71876533D01*
X98814095Y-72590819D02*
X99385523Y-72590819D01*
X99099809Y-72590819D02*
X99099809Y-71590819D01*
X99099809Y-71590819D02*
X99195047Y-71733676D01*
X99195047Y-71733676D02*
X99290285Y-71828914D01*
X99290285Y-71828914D02*
X99385523Y-71876533D01*
X111167057Y-55784761D02*
X111119438Y-55689523D01*
X111119438Y-55689523D02*
X111024200Y-55594285D01*
X111024200Y-55594285D02*
X110881342Y-55451428D01*
X110881342Y-55451428D02*
X110833723Y-55356190D01*
X110833723Y-55356190D02*
X110833723Y-55260952D01*
X111071819Y-55308571D02*
X111024200Y-55213333D01*
X111024200Y-55213333D02*
X110928961Y-55118095D01*
X110928961Y-55118095D02*
X110738485Y-55070476D01*
X110738485Y-55070476D02*
X110405152Y-55070476D01*
X110405152Y-55070476D02*
X110214676Y-55118095D01*
X110214676Y-55118095D02*
X110119438Y-55213333D01*
X110119438Y-55213333D02*
X110071819Y-55308571D01*
X110071819Y-55308571D02*
X110071819Y-55499047D01*
X110071819Y-55499047D02*
X110119438Y-55594285D01*
X110119438Y-55594285D02*
X110214676Y-55689523D01*
X110214676Y-55689523D02*
X110405152Y-55737142D01*
X110405152Y-55737142D02*
X110738485Y-55737142D01*
X110738485Y-55737142D02*
X110928961Y-55689523D01*
X110928961Y-55689523D02*
X111024200Y-55594285D01*
X111024200Y-55594285D02*
X111071819Y-55499047D01*
X111071819Y-55499047D02*
X111071819Y-55308571D01*
X110071819Y-56641904D02*
X110071819Y-56165714D01*
X110071819Y-56165714D02*
X110548009Y-56118095D01*
X110548009Y-56118095D02*
X110500390Y-56165714D01*
X110500390Y-56165714D02*
X110452771Y-56260952D01*
X110452771Y-56260952D02*
X110452771Y-56499047D01*
X110452771Y-56499047D02*
X110500390Y-56594285D01*
X110500390Y-56594285D02*
X110548009Y-56641904D01*
X110548009Y-56641904D02*
X110643247Y-56689523D01*
X110643247Y-56689523D02*
X110881342Y-56689523D01*
X110881342Y-56689523D02*
X110976580Y-56641904D01*
X110976580Y-56641904D02*
X111024200Y-56594285D01*
X111024200Y-56594285D02*
X111071819Y-56499047D01*
X111071819Y-56499047D02*
X111071819Y-56260952D01*
X111071819Y-56260952D02*
X111024200Y-56165714D01*
X111024200Y-56165714D02*
X110976580Y-56118095D01*
X182366666Y-65160819D02*
X182699999Y-64684628D01*
X182938094Y-65160819D02*
X182938094Y-64160819D01*
X182938094Y-64160819D02*
X182557142Y-64160819D01*
X182557142Y-64160819D02*
X182461904Y-64208438D01*
X182461904Y-64208438D02*
X182414285Y-64256057D01*
X182414285Y-64256057D02*
X182366666Y-64351295D01*
X182366666Y-64351295D02*
X182366666Y-64494152D01*
X182366666Y-64494152D02*
X182414285Y-64589390D01*
X182414285Y-64589390D02*
X182461904Y-64637009D01*
X182461904Y-64637009D02*
X182557142Y-64684628D01*
X182557142Y-64684628D02*
X182938094Y-64684628D01*
X181414285Y-65160819D02*
X181985713Y-65160819D01*
X181699999Y-65160819D02*
X181699999Y-64160819D01*
X181699999Y-64160819D02*
X181795237Y-64303676D01*
X181795237Y-64303676D02*
X181890475Y-64398914D01*
X181890475Y-64398914D02*
X181985713Y-64446533D01*
X192238094Y-65054819D02*
X192238094Y-64054819D01*
X192238094Y-64054819D02*
X191999999Y-64054819D01*
X191999999Y-64054819D02*
X191857142Y-64102438D01*
X191857142Y-64102438D02*
X191761904Y-64197676D01*
X191761904Y-64197676D02*
X191714285Y-64292914D01*
X191714285Y-64292914D02*
X191666666Y-64483390D01*
X191666666Y-64483390D02*
X191666666Y-64626247D01*
X191666666Y-64626247D02*
X191714285Y-64816723D01*
X191714285Y-64816723D02*
X191761904Y-64911961D01*
X191761904Y-64911961D02*
X191857142Y-65007200D01*
X191857142Y-65007200D02*
X191999999Y-65054819D01*
X191999999Y-65054819D02*
X192238094Y-65054819D01*
X190714285Y-65054819D02*
X191285713Y-65054819D01*
X190999999Y-65054819D02*
X190999999Y-64054819D01*
X190999999Y-64054819D02*
X191095237Y-64197676D01*
X191095237Y-64197676D02*
X191190475Y-64292914D01*
X191190475Y-64292914D02*
X191285713Y-64340533D01*
X100718857Y-80210819D02*
X101052190Y-79734628D01*
X101290285Y-80210819D02*
X101290285Y-79210819D01*
X101290285Y-79210819D02*
X100909333Y-79210819D01*
X100909333Y-79210819D02*
X100814095Y-79258438D01*
X100814095Y-79258438D02*
X100766476Y-79306057D01*
X100766476Y-79306057D02*
X100718857Y-79401295D01*
X100718857Y-79401295D02*
X100718857Y-79544152D01*
X100718857Y-79544152D02*
X100766476Y-79639390D01*
X100766476Y-79639390D02*
X100814095Y-79687009D01*
X100814095Y-79687009D02*
X100909333Y-79734628D01*
X100909333Y-79734628D02*
X101290285Y-79734628D01*
X99766476Y-80210819D02*
X100337904Y-80210819D01*
X100052190Y-80210819D02*
X100052190Y-79210819D01*
X100052190Y-79210819D02*
X100147428Y-79353676D01*
X100147428Y-79353676D02*
X100242666Y-79448914D01*
X100242666Y-79448914D02*
X100337904Y-79496533D01*
X98909333Y-79544152D02*
X98909333Y-80210819D01*
X99147428Y-79163200D02*
X99385523Y-79877485D01*
X99385523Y-79877485D02*
X98766476Y-79877485D01*
X148248666Y-59128819D02*
X148581999Y-58652628D01*
X148820094Y-59128819D02*
X148820094Y-58128819D01*
X148820094Y-58128819D02*
X148439142Y-58128819D01*
X148439142Y-58128819D02*
X148343904Y-58176438D01*
X148343904Y-58176438D02*
X148296285Y-58224057D01*
X148296285Y-58224057D02*
X148248666Y-58319295D01*
X148248666Y-58319295D02*
X148248666Y-58462152D01*
X148248666Y-58462152D02*
X148296285Y-58557390D01*
X148296285Y-58557390D02*
X148343904Y-58605009D01*
X148343904Y-58605009D02*
X148439142Y-58652628D01*
X148439142Y-58652628D02*
X148820094Y-58652628D01*
X147915332Y-58128819D02*
X147248666Y-58128819D01*
X147248666Y-58128819D02*
X147677237Y-59128819D01*
X210227057Y-55308571D02*
X210179438Y-55213333D01*
X210179438Y-55213333D02*
X210084200Y-55118095D01*
X210084200Y-55118095D02*
X209941342Y-54975238D01*
X209941342Y-54975238D02*
X209893723Y-54880000D01*
X209893723Y-54880000D02*
X209893723Y-54784762D01*
X210131819Y-54832381D02*
X210084200Y-54737143D01*
X210084200Y-54737143D02*
X209988961Y-54641905D01*
X209988961Y-54641905D02*
X209798485Y-54594286D01*
X209798485Y-54594286D02*
X209465152Y-54594286D01*
X209465152Y-54594286D02*
X209274676Y-54641905D01*
X209274676Y-54641905D02*
X209179438Y-54737143D01*
X209179438Y-54737143D02*
X209131819Y-54832381D01*
X209131819Y-54832381D02*
X209131819Y-55022857D01*
X209131819Y-55022857D02*
X209179438Y-55118095D01*
X209179438Y-55118095D02*
X209274676Y-55213333D01*
X209274676Y-55213333D02*
X209465152Y-55260952D01*
X209465152Y-55260952D02*
X209798485Y-55260952D01*
X209798485Y-55260952D02*
X209988961Y-55213333D01*
X209988961Y-55213333D02*
X210084200Y-55118095D01*
X210084200Y-55118095D02*
X210131819Y-55022857D01*
X210131819Y-55022857D02*
X210131819Y-54832381D01*
X210131819Y-56213333D02*
X210131819Y-55641905D01*
X210131819Y-55927619D02*
X209131819Y-55927619D01*
X209131819Y-55927619D02*
X209274676Y-55832381D01*
X209274676Y-55832381D02*
X209369914Y-55737143D01*
X209369914Y-55737143D02*
X209417533Y-55641905D01*
X209560390Y-56784762D02*
X209512771Y-56689524D01*
X209512771Y-56689524D02*
X209465152Y-56641905D01*
X209465152Y-56641905D02*
X209369914Y-56594286D01*
X209369914Y-56594286D02*
X209322295Y-56594286D01*
X209322295Y-56594286D02*
X209227057Y-56641905D01*
X209227057Y-56641905D02*
X209179438Y-56689524D01*
X209179438Y-56689524D02*
X209131819Y-56784762D01*
X209131819Y-56784762D02*
X209131819Y-56975238D01*
X209131819Y-56975238D02*
X209179438Y-57070476D01*
X209179438Y-57070476D02*
X209227057Y-57118095D01*
X209227057Y-57118095D02*
X209322295Y-57165714D01*
X209322295Y-57165714D02*
X209369914Y-57165714D01*
X209369914Y-57165714D02*
X209465152Y-57118095D01*
X209465152Y-57118095D02*
X209512771Y-57070476D01*
X209512771Y-57070476D02*
X209560390Y-56975238D01*
X209560390Y-56975238D02*
X209560390Y-56784762D01*
X209560390Y-56784762D02*
X209608009Y-56689524D01*
X209608009Y-56689524D02*
X209655628Y-56641905D01*
X209655628Y-56641905D02*
X209750866Y-56594286D01*
X209750866Y-56594286D02*
X209941342Y-56594286D01*
X209941342Y-56594286D02*
X210036580Y-56641905D01*
X210036580Y-56641905D02*
X210084200Y-56689524D01*
X210084200Y-56689524D02*
X210131819Y-56784762D01*
X210131819Y-56784762D02*
X210131819Y-56975238D01*
X210131819Y-56975238D02*
X210084200Y-57070476D01*
X210084200Y-57070476D02*
X210036580Y-57118095D01*
X210036580Y-57118095D02*
X209941342Y-57165714D01*
X209941342Y-57165714D02*
X209750866Y-57165714D01*
X209750866Y-57165714D02*
X209655628Y-57118095D01*
X209655628Y-57118095D02*
X209608009Y-57070476D01*
X209608009Y-57070476D02*
X209560390Y-56975238D01*
X191301666Y-76835080D02*
X191349285Y-76882700D01*
X191349285Y-76882700D02*
X191492142Y-76930319D01*
X191492142Y-76930319D02*
X191587380Y-76930319D01*
X191587380Y-76930319D02*
X191730237Y-76882700D01*
X191730237Y-76882700D02*
X191825475Y-76787461D01*
X191825475Y-76787461D02*
X191873094Y-76692223D01*
X191873094Y-76692223D02*
X191920713Y-76501747D01*
X191920713Y-76501747D02*
X191920713Y-76358890D01*
X191920713Y-76358890D02*
X191873094Y-76168414D01*
X191873094Y-76168414D02*
X191825475Y-76073176D01*
X191825475Y-76073176D02*
X191730237Y-75977938D01*
X191730237Y-75977938D02*
X191587380Y-75930319D01*
X191587380Y-75930319D02*
X191492142Y-75930319D01*
X191492142Y-75930319D02*
X191349285Y-75977938D01*
X191349285Y-75977938D02*
X191301666Y-76025557D01*
X190730237Y-76358890D02*
X190825475Y-76311271D01*
X190825475Y-76311271D02*
X190873094Y-76263652D01*
X190873094Y-76263652D02*
X190920713Y-76168414D01*
X190920713Y-76168414D02*
X190920713Y-76120795D01*
X190920713Y-76120795D02*
X190873094Y-76025557D01*
X190873094Y-76025557D02*
X190825475Y-75977938D01*
X190825475Y-75977938D02*
X190730237Y-75930319D01*
X190730237Y-75930319D02*
X190539761Y-75930319D01*
X190539761Y-75930319D02*
X190444523Y-75977938D01*
X190444523Y-75977938D02*
X190396904Y-76025557D01*
X190396904Y-76025557D02*
X190349285Y-76120795D01*
X190349285Y-76120795D02*
X190349285Y-76168414D01*
X190349285Y-76168414D02*
X190396904Y-76263652D01*
X190396904Y-76263652D02*
X190444523Y-76311271D01*
X190444523Y-76311271D02*
X190539761Y-76358890D01*
X190539761Y-76358890D02*
X190730237Y-76358890D01*
X190730237Y-76358890D02*
X190825475Y-76406509D01*
X190825475Y-76406509D02*
X190873094Y-76454128D01*
X190873094Y-76454128D02*
X190920713Y-76549366D01*
X190920713Y-76549366D02*
X190920713Y-76739842D01*
X190920713Y-76739842D02*
X190873094Y-76835080D01*
X190873094Y-76835080D02*
X190825475Y-76882700D01*
X190825475Y-76882700D02*
X190730237Y-76930319D01*
X190730237Y-76930319D02*
X190539761Y-76930319D01*
X190539761Y-76930319D02*
X190444523Y-76882700D01*
X190444523Y-76882700D02*
X190396904Y-76835080D01*
X190396904Y-76835080D02*
X190349285Y-76739842D01*
X190349285Y-76739842D02*
X190349285Y-76549366D01*
X190349285Y-76549366D02*
X190396904Y-76454128D01*
X190396904Y-76454128D02*
X190444523Y-76406509D01*
X190444523Y-76406509D02*
X190539761Y-76358890D01*
X126407057Y-55814761D02*
X126359438Y-55719523D01*
X126359438Y-55719523D02*
X126264200Y-55624285D01*
X126264200Y-55624285D02*
X126121342Y-55481428D01*
X126121342Y-55481428D02*
X126073723Y-55386190D01*
X126073723Y-55386190D02*
X126073723Y-55290952D01*
X126311819Y-55338571D02*
X126264200Y-55243333D01*
X126264200Y-55243333D02*
X126168961Y-55148095D01*
X126168961Y-55148095D02*
X125978485Y-55100476D01*
X125978485Y-55100476D02*
X125645152Y-55100476D01*
X125645152Y-55100476D02*
X125454676Y-55148095D01*
X125454676Y-55148095D02*
X125359438Y-55243333D01*
X125359438Y-55243333D02*
X125311819Y-55338571D01*
X125311819Y-55338571D02*
X125311819Y-55529047D01*
X125311819Y-55529047D02*
X125359438Y-55624285D01*
X125359438Y-55624285D02*
X125454676Y-55719523D01*
X125454676Y-55719523D02*
X125645152Y-55767142D01*
X125645152Y-55767142D02*
X125978485Y-55767142D01*
X125978485Y-55767142D02*
X126168961Y-55719523D01*
X126168961Y-55719523D02*
X126264200Y-55624285D01*
X126264200Y-55624285D02*
X126311819Y-55529047D01*
X126311819Y-55529047D02*
X126311819Y-55338571D01*
X125311819Y-56100476D02*
X125311819Y-56767142D01*
X125311819Y-56767142D02*
X126311819Y-56338571D01*
X194987057Y-55308571D02*
X194939438Y-55213333D01*
X194939438Y-55213333D02*
X194844200Y-55118095D01*
X194844200Y-55118095D02*
X194701342Y-54975238D01*
X194701342Y-54975238D02*
X194653723Y-54880000D01*
X194653723Y-54880000D02*
X194653723Y-54784762D01*
X194891819Y-54832381D02*
X194844200Y-54737143D01*
X194844200Y-54737143D02*
X194748961Y-54641905D01*
X194748961Y-54641905D02*
X194558485Y-54594286D01*
X194558485Y-54594286D02*
X194225152Y-54594286D01*
X194225152Y-54594286D02*
X194034676Y-54641905D01*
X194034676Y-54641905D02*
X193939438Y-54737143D01*
X193939438Y-54737143D02*
X193891819Y-54832381D01*
X193891819Y-54832381D02*
X193891819Y-55022857D01*
X193891819Y-55022857D02*
X193939438Y-55118095D01*
X193939438Y-55118095D02*
X194034676Y-55213333D01*
X194034676Y-55213333D02*
X194225152Y-55260952D01*
X194225152Y-55260952D02*
X194558485Y-55260952D01*
X194558485Y-55260952D02*
X194748961Y-55213333D01*
X194748961Y-55213333D02*
X194844200Y-55118095D01*
X194844200Y-55118095D02*
X194891819Y-55022857D01*
X194891819Y-55022857D02*
X194891819Y-54832381D01*
X194891819Y-56213333D02*
X194891819Y-55641905D01*
X194891819Y-55927619D02*
X193891819Y-55927619D01*
X193891819Y-55927619D02*
X194034676Y-55832381D01*
X194034676Y-55832381D02*
X194129914Y-55737143D01*
X194129914Y-55737143D02*
X194177533Y-55641905D01*
X193891819Y-57070476D02*
X193891819Y-56880000D01*
X193891819Y-56880000D02*
X193939438Y-56784762D01*
X193939438Y-56784762D02*
X193987057Y-56737143D01*
X193987057Y-56737143D02*
X194129914Y-56641905D01*
X194129914Y-56641905D02*
X194320390Y-56594286D01*
X194320390Y-56594286D02*
X194701342Y-56594286D01*
X194701342Y-56594286D02*
X194796580Y-56641905D01*
X194796580Y-56641905D02*
X194844200Y-56689524D01*
X194844200Y-56689524D02*
X194891819Y-56784762D01*
X194891819Y-56784762D02*
X194891819Y-56975238D01*
X194891819Y-56975238D02*
X194844200Y-57070476D01*
X194844200Y-57070476D02*
X194796580Y-57118095D01*
X194796580Y-57118095D02*
X194701342Y-57165714D01*
X194701342Y-57165714D02*
X194463247Y-57165714D01*
X194463247Y-57165714D02*
X194368009Y-57118095D01*
X194368009Y-57118095D02*
X194320390Y-57070476D01*
X194320390Y-57070476D02*
X194272771Y-56975238D01*
X194272771Y-56975238D02*
X194272771Y-56784762D01*
X194272771Y-56784762D02*
X194320390Y-56689524D01*
X194320390Y-56689524D02*
X194368009Y-56641905D01*
X194368009Y-56641905D02*
X194463247Y-56594286D01*
X118787057Y-55784761D02*
X118739438Y-55689523D01*
X118739438Y-55689523D02*
X118644200Y-55594285D01*
X118644200Y-55594285D02*
X118501342Y-55451428D01*
X118501342Y-55451428D02*
X118453723Y-55356190D01*
X118453723Y-55356190D02*
X118453723Y-55260952D01*
X118691819Y-55308571D02*
X118644200Y-55213333D01*
X118644200Y-55213333D02*
X118548961Y-55118095D01*
X118548961Y-55118095D02*
X118358485Y-55070476D01*
X118358485Y-55070476D02*
X118025152Y-55070476D01*
X118025152Y-55070476D02*
X117834676Y-55118095D01*
X117834676Y-55118095D02*
X117739438Y-55213333D01*
X117739438Y-55213333D02*
X117691819Y-55308571D01*
X117691819Y-55308571D02*
X117691819Y-55499047D01*
X117691819Y-55499047D02*
X117739438Y-55594285D01*
X117739438Y-55594285D02*
X117834676Y-55689523D01*
X117834676Y-55689523D02*
X118025152Y-55737142D01*
X118025152Y-55737142D02*
X118358485Y-55737142D01*
X118358485Y-55737142D02*
X118548961Y-55689523D01*
X118548961Y-55689523D02*
X118644200Y-55594285D01*
X118644200Y-55594285D02*
X118691819Y-55499047D01*
X118691819Y-55499047D02*
X118691819Y-55308571D01*
X117691819Y-56594285D02*
X117691819Y-56403809D01*
X117691819Y-56403809D02*
X117739438Y-56308571D01*
X117739438Y-56308571D02*
X117787057Y-56260952D01*
X117787057Y-56260952D02*
X117929914Y-56165714D01*
X117929914Y-56165714D02*
X118120390Y-56118095D01*
X118120390Y-56118095D02*
X118501342Y-56118095D01*
X118501342Y-56118095D02*
X118596580Y-56165714D01*
X118596580Y-56165714D02*
X118644200Y-56213333D01*
X118644200Y-56213333D02*
X118691819Y-56308571D01*
X118691819Y-56308571D02*
X118691819Y-56499047D01*
X118691819Y-56499047D02*
X118644200Y-56594285D01*
X118644200Y-56594285D02*
X118596580Y-56641904D01*
X118596580Y-56641904D02*
X118501342Y-56689523D01*
X118501342Y-56689523D02*
X118263247Y-56689523D01*
X118263247Y-56689523D02*
X118168009Y-56641904D01*
X118168009Y-56641904D02*
X118120390Y-56594285D01*
X118120390Y-56594285D02*
X118072771Y-56499047D01*
X118072771Y-56499047D02*
X118072771Y-56308571D01*
X118072771Y-56308571D02*
X118120390Y-56213333D01*
X118120390Y-56213333D02*
X118168009Y-56165714D01*
X118168009Y-56165714D02*
X118263247Y-56118095D01*
X201413952Y-63939009D02*
X201271095Y-63986628D01*
X201271095Y-63986628D02*
X201223476Y-64034247D01*
X201223476Y-64034247D02*
X201175857Y-64129485D01*
X201175857Y-64129485D02*
X201175857Y-64272342D01*
X201175857Y-64272342D02*
X201223476Y-64367580D01*
X201223476Y-64367580D02*
X201271095Y-64415200D01*
X201271095Y-64415200D02*
X201366333Y-64462819D01*
X201366333Y-64462819D02*
X201747285Y-64462819D01*
X201747285Y-64462819D02*
X201747285Y-63462819D01*
X201747285Y-63462819D02*
X201413952Y-63462819D01*
X201413952Y-63462819D02*
X201318714Y-63510438D01*
X201318714Y-63510438D02*
X201271095Y-63558057D01*
X201271095Y-63558057D02*
X201223476Y-63653295D01*
X201223476Y-63653295D02*
X201223476Y-63748533D01*
X201223476Y-63748533D02*
X201271095Y-63843771D01*
X201271095Y-63843771D02*
X201318714Y-63891390D01*
X201318714Y-63891390D02*
X201413952Y-63939009D01*
X201413952Y-63939009D02*
X201747285Y-63939009D01*
X200842523Y-63462819D02*
X200175857Y-63462819D01*
X200175857Y-63462819D02*
X200842523Y-64462819D01*
X200842523Y-64462819D02*
X200175857Y-64462819D01*
X199271095Y-64462819D02*
X199842523Y-64462819D01*
X199556809Y-64462819D02*
X199556809Y-63462819D01*
X199556809Y-63462819D02*
X199652047Y-63605676D01*
X199652047Y-63605676D02*
X199747285Y-63700914D01*
X199747285Y-63700914D02*
X199842523Y-63748533D01*
X204850951Y-68653866D02*
X204089047Y-68653866D01*
X204469999Y-69034819D02*
X204469999Y-68272914D01*
D13*
%TO.C,R10*%
X103547936Y-68861000D02*
X104002064Y-68861000D01*
X103547936Y-70331000D02*
X104002064Y-70331000D01*
%TO.C,Q15*%
X187670000Y-55230000D02*
X187670000Y-55880000D01*
X187670000Y-56530000D02*
X187670000Y-55880000D01*
X190790000Y-55230000D02*
X190790000Y-55880000D01*
X190790000Y-56530000D02*
X190790000Y-55880000D01*
X191070000Y-57282500D02*
X190740000Y-57042500D01*
X191070000Y-56802500D01*
X191070000Y-57282500D01*
G36*
X191070000Y-57282500D02*
G01*
X190740000Y-57042500D01*
X191070000Y-56802500D01*
X191070000Y-57282500D01*
G37*
%TO.C,C4*%
X160342000Y-85981000D02*
X160342000Y-92916000D01*
X163762000Y-85981000D02*
X160342000Y-85981000D01*
X163762000Y-92916000D02*
X163762000Y-85981000D01*
%TO.C,C2*%
X130563252Y-84863000D02*
X130040748Y-84863000D01*
X130563252Y-86333000D02*
X130040748Y-86333000D01*
%TO.C,C6*%
X140596252Y-70258000D02*
X140073748Y-70258000D01*
X140596252Y-71728000D02*
X140073748Y-71728000D01*
%TO.C,R3*%
X115162064Y-64543000D02*
X114707936Y-64543000D01*
X115162064Y-66013000D02*
X114707936Y-66013000D01*
%TO.C,U2*%
X137999000Y-83767000D02*
X141859000Y-83767000D01*
X137999000Y-84022000D02*
X137999000Y-83767000D01*
X137999000Y-94032000D02*
X137999000Y-94287000D01*
X137999000Y-94287000D02*
X141859000Y-94287000D01*
X145719000Y-83767000D02*
X141859000Y-83767000D01*
X145719000Y-84022000D02*
X145719000Y-83767000D01*
X145719000Y-94032000D02*
X145719000Y-94287000D01*
X145719000Y-94287000D02*
X141859000Y-94287000D01*
X146571500Y-84022000D02*
X146231500Y-83552000D01*
X146911500Y-83552000D01*
X146571500Y-84022000D01*
G36*
X146571500Y-84022000D02*
G01*
X146231500Y-83552000D01*
X146911500Y-83552000D01*
X146571500Y-84022000D01*
G37*
%TO.C,C7*%
X150268000Y-90685252D02*
X150268000Y-90162748D01*
X151738000Y-90685252D02*
X151738000Y-90162748D01*
%TO.C,Q13*%
X172430000Y-55230000D02*
X172430000Y-55880000D01*
X172430000Y-56530000D02*
X172430000Y-55880000D01*
X175550000Y-55230000D02*
X175550000Y-55880000D01*
X175550000Y-56530000D02*
X175550000Y-55880000D01*
X175830000Y-57282500D02*
X175500000Y-57042500D01*
X175830000Y-56802500D01*
X175830000Y-57282500D01*
G36*
X175830000Y-57282500D02*
G01*
X175500000Y-57042500D01*
X175830000Y-56802500D01*
X175830000Y-57282500D01*
G37*
%TO.C,Q3*%
X96230000Y-55230000D02*
X96230000Y-55880000D01*
X96230000Y-56530000D02*
X96230000Y-55880000D01*
X99350000Y-55230000D02*
X99350000Y-55880000D01*
X99350000Y-56530000D02*
X99350000Y-55880000D01*
X99630000Y-57282500D02*
X99300000Y-57042500D01*
X99630000Y-56802500D01*
X99630000Y-57282500D01*
G36*
X99630000Y-57282500D02*
G01*
X99300000Y-57042500D01*
X99630000Y-56802500D01*
X99630000Y-57282500D01*
G37*
%TO.C,R9*%
X103547936Y-66321000D02*
X104002064Y-66321000D01*
X103547936Y-67791000D02*
X104002064Y-67791000D01*
%TO.C,BT1*%
X175142000Y-94250000D02*
X175142000Y-95400000D01*
X175642000Y-94250000D02*
X175142000Y-94250000D01*
X175642000Y-95400000D02*
X175142000Y-95400000D01*
X178942000Y-94250000D02*
X179442000Y-94250000D01*
X178942000Y-95400000D02*
X179442000Y-95400000D01*
X179442000Y-94250000D02*
X179442000Y-95400000D01*
X175142000Y-94660000D02*
G75*
G02*
X175942000Y-74700000I2152544J9909758D01*
G01*
X178642000Y-74700000D02*
G75*
G02*
X179442000Y-94660000I-1352544J-10050242D01*
G01*
%TO.C,Q4*%
X103850000Y-55230000D02*
X103850000Y-55880000D01*
X103850000Y-56530000D02*
X103850000Y-55880000D01*
X106970000Y-55230000D02*
X106970000Y-55880000D01*
X106970000Y-56530000D02*
X106970000Y-55880000D01*
X107250000Y-57282500D02*
X106920000Y-57042500D01*
X107250000Y-56802500D01*
X107250000Y-57282500D01*
G36*
X107250000Y-57282500D02*
G01*
X106920000Y-57042500D01*
X107250000Y-56802500D01*
X107250000Y-57282500D01*
G37*
%TO.C,C5*%
X114673748Y-69623000D02*
X115196252Y-69623000D01*
X114673748Y-71093000D02*
X115196252Y-71093000D01*
%TO.C,Q11*%
X157190000Y-55230000D02*
X157190000Y-55880000D01*
X157190000Y-56530000D02*
X157190000Y-55880000D01*
X160310000Y-55230000D02*
X160310000Y-55880000D01*
X160310000Y-56530000D02*
X160310000Y-55880000D01*
X160590000Y-57282500D02*
X160260000Y-57042500D01*
X160590000Y-56802500D01*
X160590000Y-57282500D01*
G36*
X160590000Y-57282500D02*
G01*
X160260000Y-57042500D01*
X160590000Y-56802500D01*
X160590000Y-57282500D01*
G37*
%TO.C,Q9*%
X141950000Y-55230000D02*
X141950000Y-55880000D01*
X141950000Y-56530000D02*
X141950000Y-55880000D01*
X145070000Y-55230000D02*
X145070000Y-55880000D01*
X145070000Y-56530000D02*
X145070000Y-55880000D01*
X145350000Y-57282500D02*
X145020000Y-57042500D01*
X145350000Y-56802500D01*
X145350000Y-57282500D01*
G36*
X145350000Y-57282500D02*
G01*
X145020000Y-57042500D01*
X145350000Y-56802500D01*
X145350000Y-57282500D01*
G37*
%TO.C,Q1*%
X185340000Y-66950000D02*
X185340000Y-67600000D01*
X185340000Y-68250000D02*
X185340000Y-67600000D01*
X188460000Y-66950000D02*
X188460000Y-67600000D01*
X188460000Y-68250000D02*
X188460000Y-67600000D01*
X185390000Y-66437500D02*
X185060000Y-66677500D01*
X185060000Y-66197500D01*
X185390000Y-66437500D01*
G36*
X185390000Y-66437500D02*
G01*
X185060000Y-66677500D01*
X185060000Y-66197500D01*
X185390000Y-66437500D01*
G37*
%TO.C,Q17*%
X202910000Y-55260000D02*
X202910000Y-55910000D01*
X202910000Y-56560000D02*
X202910000Y-55910000D01*
X206030000Y-55260000D02*
X206030000Y-55910000D01*
X206030000Y-56560000D02*
X206030000Y-55910000D01*
X206310000Y-57312500D02*
X205980000Y-57072500D01*
X206310000Y-56832500D01*
X206310000Y-57312500D01*
G36*
X206310000Y-57312500D02*
G01*
X205980000Y-57072500D01*
X206310000Y-56832500D01*
X206310000Y-57312500D01*
G37*
%TO.C,R4*%
X115162064Y-67083000D02*
X114707936Y-67083000D01*
X115162064Y-68553000D02*
X114707936Y-68553000D01*
%TO.C,R2*%
X192686000Y-78893936D02*
X192686000Y-79348064D01*
X194156000Y-78893936D02*
X194156000Y-79348064D01*
%TO.C,R12*%
X103547936Y-73941000D02*
X104002064Y-73941000D01*
X103547936Y-75411000D02*
X104002064Y-75411000D01*
%TO.C,R8*%
X153443000Y-84047064D02*
X153443000Y-83592936D01*
X154913000Y-84047064D02*
X154913000Y-83592936D01*
%TO.C,R13*%
X103547936Y-76481000D02*
X104002064Y-76481000D01*
X103547936Y-77951000D02*
X104002064Y-77951000D01*
%TO.C,Q12*%
X164810000Y-55230000D02*
X164810000Y-55880000D01*
X164810000Y-56530000D02*
X164810000Y-55880000D01*
X167930000Y-55230000D02*
X167930000Y-55880000D01*
X167930000Y-56530000D02*
X167930000Y-55880000D01*
X168210000Y-57282500D02*
X167880000Y-57042500D01*
X168210000Y-56802500D01*
X168210000Y-57282500D01*
G36*
X168210000Y-57282500D02*
G01*
X167880000Y-57042500D01*
X168210000Y-56802500D01*
X168210000Y-57282500D01*
G37*
%TO.C,Q8*%
X134330000Y-55230000D02*
X134330000Y-55880000D01*
X134330000Y-56530000D02*
X134330000Y-55880000D01*
X137450000Y-55230000D02*
X137450000Y-55880000D01*
X137450000Y-56530000D02*
X137450000Y-55880000D01*
X137730000Y-57282500D02*
X137400000Y-57042500D01*
X137730000Y-56802500D01*
X137730000Y-57282500D01*
G36*
X137730000Y-57282500D02*
G01*
X137400000Y-57042500D01*
X137730000Y-56802500D01*
X137730000Y-57282500D01*
G37*
%TO.C,Y1*%
X130025000Y-87645000D02*
X123775000Y-87645000D01*
X130025000Y-92695000D02*
X123775000Y-92695000D01*
X123775000Y-92695000D02*
G75*
G02*
X123775000Y-87645000I0J2525000D01*
G01*
X130025000Y-87645000D02*
G75*
G02*
X130025000Y-92695000I0J-2525000D01*
G01*
%TO.C,R5*%
X137354000Y-59122000D02*
X137354000Y-61782000D01*
X137354000Y-59122000D02*
X139954000Y-59122000D01*
X137354000Y-61782000D02*
X139954000Y-61782000D01*
X139954000Y-59122000D02*
X139954000Y-61782000D01*
X142554000Y-60452000D02*
X142554000Y-61782000D01*
X142554000Y-61782000D02*
X141224000Y-61782000D01*
%TO.C,Q14*%
X180050000Y-55230000D02*
X180050000Y-55880000D01*
X180050000Y-56530000D02*
X180050000Y-55880000D01*
X183170000Y-55230000D02*
X183170000Y-55880000D01*
X183170000Y-56530000D02*
X183170000Y-55880000D01*
X183450000Y-57282500D02*
X183120000Y-57042500D01*
X183450000Y-56802500D01*
X183450000Y-57282500D01*
G36*
X183450000Y-57282500D02*
G01*
X183120000Y-57042500D01*
X183450000Y-56802500D01*
X183450000Y-57282500D01*
G37*
%TO.C,C3*%
X129440000Y-60952748D02*
X129440000Y-61475252D01*
X130910000Y-60952748D02*
X130910000Y-61475252D01*
%TO.C,R6*%
X131853000Y-60986936D02*
X131853000Y-61441064D01*
X133323000Y-60986936D02*
X133323000Y-61441064D01*
%TO.C,C9*%
X131310748Y-81053000D02*
X131833252Y-81053000D01*
X131310748Y-82523000D02*
X131833252Y-82523000D01*
%TO.C,J1*%
X97999000Y-84059000D02*
X112099000Y-84059000D01*
X97999000Y-88859000D02*
X97999000Y-84059000D01*
X97999000Y-97159000D02*
X97999000Y-92359000D01*
X103299000Y-83359000D02*
X103799000Y-83859000D01*
X103799000Y-83859000D02*
X104299000Y-83359000D01*
X104299000Y-83359000D02*
X103299000Y-83359000D01*
X112099000Y-84059000D02*
X112099000Y-88859000D01*
X112099000Y-92359000D02*
X112099000Y-97159000D01*
X112099000Y-97159000D02*
X97999000Y-97159000D01*
%TO.C,Q2*%
X97140000Y-59400000D02*
X97790000Y-59400000D01*
X97140000Y-62520000D02*
X97790000Y-62520000D01*
X98440000Y-59400000D02*
X97790000Y-59400000D01*
X98440000Y-62520000D02*
X97790000Y-62520000D01*
X98952500Y-59450000D02*
X98712500Y-59120000D01*
X99192500Y-59120000D01*
X98952500Y-59450000D01*
G36*
X98952500Y-59450000D02*
G01*
X98712500Y-59120000D01*
X99192500Y-59120000D01*
X98952500Y-59450000D01*
G37*
%TO.C,J2*%
X190370000Y-88090000D02*
X210950000Y-88090000D01*
X190370000Y-97210000D02*
X190370000Y-88090000D01*
X195080000Y-81470000D02*
X195580000Y-82470000D01*
X195580000Y-82470000D02*
X196080000Y-81470000D01*
X196080000Y-81470000D02*
X195080000Y-81470000D01*
X198610000Y-97210000D02*
X198610000Y-88090000D01*
X202710000Y-97210000D02*
X202710000Y-88090000D01*
X210950000Y-88090000D02*
X210950000Y-97210000D01*
X210950000Y-97210000D02*
X190370000Y-97210000D01*
%TO.C,Q10*%
X149570000Y-55230000D02*
X149570000Y-55880000D01*
X149570000Y-56530000D02*
X149570000Y-55880000D01*
X152690000Y-55230000D02*
X152690000Y-55880000D01*
X152690000Y-56530000D02*
X152690000Y-55880000D01*
X152970000Y-57282500D02*
X152640000Y-57042500D01*
X152970000Y-56802500D01*
X152970000Y-57282500D01*
G36*
X152970000Y-57282500D02*
G01*
X152640000Y-57042500D01*
X152970000Y-56802500D01*
X152970000Y-57282500D01*
G37*
%TO.C,C1*%
X123182748Y-84863000D02*
X123705252Y-84863000D01*
X123182748Y-86333000D02*
X123705252Y-86333000D01*
D12*
%TO.C,U1*%
X125000000Y-66874000D02*
X125000000Y-66199000D01*
X125000000Y-75874000D02*
X125000000Y-76549000D01*
X125675000Y-66199000D02*
X125000000Y-66199000D01*
X125675000Y-76549000D02*
X125000000Y-76549000D01*
X134675000Y-66199000D02*
X135350000Y-66199000D01*
X134735000Y-76549000D02*
X135350000Y-76549000D01*
X135350000Y-66874000D02*
X135350000Y-66199000D01*
X135350000Y-75874000D02*
X135350000Y-76549000D01*
D13*
X135185000Y-77574000D02*
X134715000Y-77234000D01*
X135185000Y-76894000D01*
X135185000Y-77574000D01*
G36*
X135185000Y-77574000D02*
G01*
X134715000Y-77234000D01*
X135185000Y-76894000D01*
X135185000Y-77574000D01*
G37*
%TO.C,R11*%
X103547936Y-71401000D02*
X104002064Y-71401000D01*
X103547936Y-72871000D02*
X104002064Y-72871000D01*
%TO.C,Q5*%
X111470000Y-55230000D02*
X111470000Y-55880000D01*
X111470000Y-56530000D02*
X111470000Y-55880000D01*
X114590000Y-55230000D02*
X114590000Y-55880000D01*
X114590000Y-56530000D02*
X114590000Y-55880000D01*
X114870000Y-57282500D02*
X114540000Y-57042500D01*
X114870000Y-56802500D01*
X114870000Y-57282500D01*
G36*
X114870000Y-57282500D02*
G01*
X114540000Y-57042500D01*
X114870000Y-56802500D01*
X114870000Y-57282500D01*
G37*
%TO.C,R1*%
X181465000Y-67727064D02*
X181465000Y-67272936D01*
X182935000Y-67727064D02*
X182935000Y-67272936D01*
%TO.C,D1*%
X190750000Y-68750000D02*
X190750000Y-65490000D01*
X192450000Y-65490000D02*
X190750000Y-65490000D01*
X192450000Y-68750000D02*
X192450000Y-65490000D01*
%TO.C,R14*%
X103547936Y-79021000D02*
X104002064Y-79021000D01*
X103547936Y-80491000D02*
X104002064Y-80491000D01*
%TO.C,R7*%
X147347000Y-61441064D02*
X147347000Y-60986936D01*
X148817000Y-61441064D02*
X148817000Y-60986936D01*
%TO.C,Q18*%
X210530000Y-55230000D02*
X210530000Y-55880000D01*
X210530000Y-56530000D02*
X210530000Y-55880000D01*
X213650000Y-55230000D02*
X213650000Y-55880000D01*
X213650000Y-56530000D02*
X213650000Y-55880000D01*
X213930000Y-57282500D02*
X213600000Y-57042500D01*
X213930000Y-56802500D01*
X213930000Y-57282500D01*
G36*
X213930000Y-57282500D02*
G01*
X213600000Y-57042500D01*
X213930000Y-56802500D01*
X213930000Y-57282500D01*
G37*
%TO.C,C8*%
X190273000Y-79382252D02*
X190273000Y-78859748D01*
X191743000Y-79382252D02*
X191743000Y-78859748D01*
%TO.C,Q7*%
X126710000Y-55260000D02*
X126710000Y-55910000D01*
X126710000Y-56560000D02*
X126710000Y-55910000D01*
X129830000Y-55260000D02*
X129830000Y-55910000D01*
X129830000Y-56560000D02*
X129830000Y-55910000D01*
X130110000Y-57312500D02*
X129780000Y-57072500D01*
X130110000Y-56832500D01*
X130110000Y-57312500D01*
G36*
X130110000Y-57312500D02*
G01*
X129780000Y-57072500D01*
X130110000Y-56832500D01*
X130110000Y-57312500D01*
G37*
%TO.C,Q16*%
X195290000Y-55260000D02*
X195290000Y-55910000D01*
X195290000Y-56560000D02*
X195290000Y-55910000D01*
X198410000Y-55260000D02*
X198410000Y-55910000D01*
X198410000Y-56560000D02*
X198410000Y-55910000D01*
X198690000Y-57312500D02*
X198360000Y-57072500D01*
X198690000Y-56832500D01*
X198690000Y-57312500D01*
G36*
X198690000Y-57312500D02*
G01*
X198360000Y-57072500D01*
X198690000Y-56832500D01*
X198690000Y-57312500D01*
G37*
%TO.C,Q6*%
X119090000Y-55260000D02*
X119090000Y-55910000D01*
X119090000Y-56560000D02*
X119090000Y-55910000D01*
X122210000Y-55260000D02*
X122210000Y-55910000D01*
X122210000Y-56560000D02*
X122210000Y-55910000D01*
X122490000Y-57312500D02*
X122160000Y-57072500D01*
X122490000Y-56832500D01*
X122490000Y-57312500D01*
G36*
X122490000Y-57312500D02*
G01*
X122160000Y-57072500D01*
X122490000Y-56832500D01*
X122490000Y-57312500D01*
G37*
%TO.C,BZ1*%
X206660000Y-71120000D02*
G75*
G02*
X194660000Y-71120000I-6000000J0D01*
G01*
X194660000Y-71120000D02*
G75*
G02*
X206660000Y-71120000I6000000J0D01*
G01*
%TD*%
%LPC*%
D14*
%TO.C,J6*%
X151130000Y-85090000D03*
%TD*%
D15*
%TO.C,H3*%
X218440000Y-95250000D03*
%TD*%
D16*
%TO.C,SW2*%
X216872500Y-70135000D03*
X216872500Y-77145000D03*
D17*
X219362500Y-71385000D03*
X219362500Y-75885000D03*
%TD*%
D16*
%TO.C,SW3*%
X216872500Y-81245000D03*
X216872500Y-88255000D03*
D17*
X219362500Y-82495000D03*
X219362500Y-86995000D03*
%TD*%
D15*
%TO.C,H4*%
X218440000Y-52070000D03*
%TD*%
%TO.C,H1*%
X83820000Y-52070000D03*
%TD*%
D14*
%TO.C,J3*%
X90170000Y-52070000D03*
D18*
X92710000Y-52070000D03*
X95250000Y-52070000D03*
X97790000Y-52070000D03*
X100330000Y-52070000D03*
X102870000Y-52070000D03*
X105410000Y-52070000D03*
X107950000Y-52070000D03*
X110490000Y-52070000D03*
X113030000Y-52070000D03*
X115570000Y-52070000D03*
X118110000Y-52070000D03*
X120650000Y-52070000D03*
X123190000Y-52070000D03*
X125730000Y-52070000D03*
X128270000Y-52070000D03*
X130810000Y-52070000D03*
X133350000Y-52070000D03*
X135890000Y-52070000D03*
X138430000Y-52070000D03*
X140970000Y-52070000D03*
X143510000Y-52070000D03*
X146050000Y-52070000D03*
X148590000Y-52070000D03*
X151130000Y-52070000D03*
X153670000Y-52070000D03*
X156210000Y-52070000D03*
X158750000Y-52070000D03*
X161290000Y-52070000D03*
X163830000Y-52070000D03*
X166370000Y-52070000D03*
X168910000Y-52070000D03*
X171450000Y-52070000D03*
X173990000Y-52070000D03*
X176530000Y-52070000D03*
X179070000Y-52070000D03*
X181610000Y-52070000D03*
X184150000Y-52070000D03*
X186690000Y-52070000D03*
X189230000Y-52070000D03*
X191770000Y-52070000D03*
X194310000Y-52070000D03*
X196850000Y-52070000D03*
X199390000Y-52070000D03*
X201930000Y-52070000D03*
X204470000Y-52070000D03*
X207010000Y-52070000D03*
X209550000Y-52070000D03*
X212090000Y-52070000D03*
%TD*%
D16*
%TO.C,SW1*%
X216872500Y-59075000D03*
X216872500Y-66085000D03*
D17*
X219362500Y-60325000D03*
X219362500Y-64825000D03*
%TD*%
D15*
%TO.C,H2*%
X83820000Y-95250000D03*
%TD*%
D14*
%TO.C,J5*%
X151130000Y-62230000D03*
%TD*%
%TO.C,J4*%
X90170000Y-54610000D03*
D18*
X90170000Y-57150000D03*
X90170000Y-59690000D03*
X90170000Y-62230000D03*
X90170000Y-64770000D03*
X90170000Y-67310000D03*
X90170000Y-69850000D03*
X90170000Y-72390000D03*
X90170000Y-74930000D03*
X90170000Y-77470000D03*
X90170000Y-80010000D03*
X90170000Y-82550000D03*
X90170000Y-85090000D03*
X90170000Y-87630000D03*
X90170000Y-90170000D03*
X90170000Y-92710000D03*
X90170000Y-95250000D03*
%TD*%
D15*
%TO.C,H5*%
X116840000Y-88900000D03*
%TD*%
D19*
%TO.C,R10*%
X104775000Y-69596000D03*
X102775000Y-69596000D03*
%TD*%
D20*
%TO.C,Q15*%
X190180000Y-56817500D03*
X188280000Y-56817500D03*
X189230000Y-54942500D03*
%TD*%
D21*
%TO.C,C4*%
X162052000Y-87366000D03*
X162052000Y-92466000D03*
%TD*%
D22*
%TO.C,C2*%
X129264500Y-85598000D03*
X131339500Y-85598000D03*
%TD*%
%TO.C,C6*%
X139297500Y-70993000D03*
X141372500Y-70993000D03*
%TD*%
D23*
%TO.C,R3*%
X113935000Y-65278000D03*
X115935000Y-65278000D03*
%TD*%
D24*
%TO.C,U2*%
X146509000Y-84582000D03*
X146509000Y-85852000D03*
X146509000Y-87122000D03*
X146509000Y-88392000D03*
X146509000Y-89662000D03*
X146509000Y-90932000D03*
X146509000Y-92202000D03*
X146509000Y-93472000D03*
X137209000Y-93472000D03*
X137209000Y-92202000D03*
X137209000Y-90932000D03*
X137209000Y-89662000D03*
X137209000Y-88392000D03*
X137209000Y-87122000D03*
X137209000Y-85852000D03*
X137209000Y-84582000D03*
%TD*%
D25*
%TO.C,C7*%
X151003000Y-89386500D03*
X151003000Y-91461500D03*
%TD*%
D20*
%TO.C,Q13*%
X174940000Y-56817500D03*
X173040000Y-56817500D03*
X173990000Y-54942500D03*
%TD*%
%TO.C,Q3*%
X98740000Y-56817500D03*
X96840000Y-56817500D03*
X97790000Y-54942500D03*
%TD*%
D19*
%TO.C,R9*%
X104775000Y-67056000D03*
X102775000Y-67056000D03*
%TD*%
D26*
%TO.C,BT1*%
X177292000Y-95250000D03*
D27*
X177292000Y-74750000D03*
%TD*%
D20*
%TO.C,Q4*%
X106360000Y-56817500D03*
X104460000Y-56817500D03*
X105410000Y-54942500D03*
%TD*%
D28*
%TO.C,C5*%
X115972500Y-70358000D03*
X113897500Y-70358000D03*
%TD*%
D20*
%TO.C,Q11*%
X159700000Y-56817500D03*
X157800000Y-56817500D03*
X158750000Y-54942500D03*
%TD*%
%TO.C,Q9*%
X144460000Y-56817500D03*
X142560000Y-56817500D03*
X143510000Y-54942500D03*
%TD*%
D29*
%TO.C,Q1*%
X185950000Y-66662500D03*
X187850000Y-66662500D03*
X186900000Y-68537500D03*
%TD*%
D20*
%TO.C,Q17*%
X205420000Y-56847500D03*
X203520000Y-56847500D03*
X204470000Y-54972500D03*
%TD*%
D23*
%TO.C,R4*%
X113935000Y-67818000D03*
X115935000Y-67818000D03*
%TD*%
D30*
%TO.C,R2*%
X193421000Y-80121000D03*
X193421000Y-78121000D03*
%TD*%
D19*
%TO.C,R12*%
X104775000Y-74676000D03*
X102775000Y-74676000D03*
%TD*%
D31*
%TO.C,R8*%
X154178000Y-82820000D03*
X154178000Y-84820000D03*
%TD*%
D19*
%TO.C,R13*%
X104775000Y-77216000D03*
X102775000Y-77216000D03*
%TD*%
D20*
%TO.C,Q12*%
X167320000Y-56817500D03*
X165420000Y-56817500D03*
X166370000Y-54942500D03*
%TD*%
%TO.C,Q8*%
X136840000Y-56817500D03*
X134940000Y-56817500D03*
X135890000Y-54942500D03*
%TD*%
D32*
%TO.C,Y1*%
X124460000Y-90170000D03*
X129340000Y-90170000D03*
%TD*%
D14*
%TO.C,R5*%
X141224000Y-60452000D03*
D18*
X138684000Y-60452000D03*
%TD*%
D20*
%TO.C,Q14*%
X182560000Y-56817500D03*
X180660000Y-56817500D03*
X181610000Y-54942500D03*
%TD*%
D33*
%TO.C,C3*%
X130175000Y-62251500D03*
X130175000Y-60176500D03*
%TD*%
D30*
%TO.C,R6*%
X132588000Y-62214000D03*
X132588000Y-60214000D03*
%TD*%
D28*
%TO.C,C9*%
X132609500Y-81788000D03*
X130534500Y-81788000D03*
%TD*%
D34*
%TO.C,J1*%
X103799000Y-87859000D03*
D35*
X106299000Y-87859000D03*
X106299000Y-91059000D03*
X103799000Y-91059000D03*
D36*
X111069000Y-90569000D03*
X99029000Y-90569000D03*
%TD*%
D37*
%TO.C,Q2*%
X98727500Y-60010000D03*
X98727500Y-61910000D03*
X96852500Y-60960000D03*
%TD*%
D38*
%TO.C,J2*%
X195580000Y-83820000D03*
D39*
X195580000Y-86360000D03*
X198120000Y-83820000D03*
X198120000Y-86360000D03*
X200660000Y-83820000D03*
X200660000Y-86360000D03*
X203200000Y-83820000D03*
X203200000Y-86360000D03*
X205740000Y-83820000D03*
X205740000Y-86360000D03*
%TD*%
D20*
%TO.C,Q10*%
X152080000Y-56817500D03*
X150180000Y-56817500D03*
X151130000Y-54942500D03*
%TD*%
D28*
%TO.C,C1*%
X124481500Y-85598000D03*
X122406500Y-85598000D03*
%TD*%
D40*
%TO.C,U1*%
X134175000Y-77074000D03*
X133375000Y-77074000D03*
X132575000Y-77074000D03*
X131775000Y-77074000D03*
X130975000Y-77074000D03*
X130175000Y-77074000D03*
X129375000Y-77074000D03*
X128575000Y-77074000D03*
X127775000Y-77074000D03*
X126975000Y-77074000D03*
X126175000Y-77074000D03*
D41*
X124475000Y-75374000D03*
X124475000Y-74574000D03*
X124475000Y-73774000D03*
X124475000Y-72974000D03*
X124475000Y-72174000D03*
X124475000Y-71374000D03*
X124475000Y-70574000D03*
X124475000Y-69774000D03*
X124475000Y-68974000D03*
X124475000Y-68174000D03*
X124475000Y-67374000D03*
D40*
X126175000Y-65674000D03*
X126975000Y-65674000D03*
X127775000Y-65674000D03*
X128575000Y-65674000D03*
X129375000Y-65674000D03*
X130175000Y-65674000D03*
X130975000Y-65674000D03*
X131775000Y-65674000D03*
X132575000Y-65674000D03*
X133375000Y-65674000D03*
X134175000Y-65674000D03*
D41*
X135875000Y-67374000D03*
X135875000Y-68174000D03*
X135875000Y-68974000D03*
X135875000Y-69774000D03*
X135875000Y-70574000D03*
X135875000Y-71374000D03*
X135875000Y-72174000D03*
X135875000Y-72974000D03*
X135875000Y-73774000D03*
X135875000Y-74574000D03*
X135875000Y-75374000D03*
%TD*%
D19*
%TO.C,R11*%
X104775000Y-72136000D03*
X102775000Y-72136000D03*
%TD*%
D20*
%TO.C,Q5*%
X113980000Y-56817500D03*
X112080000Y-56817500D03*
X113030000Y-54942500D03*
%TD*%
D31*
%TO.C,R1*%
X182200000Y-66500000D03*
X182200000Y-68500000D03*
%TD*%
D42*
%TO.C,D1*%
X191600000Y-66250000D03*
X191600000Y-68750000D03*
%TD*%
D19*
%TO.C,R14*%
X104775000Y-79756000D03*
X102775000Y-79756000D03*
%TD*%
D31*
%TO.C,R7*%
X148082000Y-60214000D03*
X148082000Y-62214000D03*
%TD*%
D20*
%TO.C,Q18*%
X213040000Y-56817500D03*
X211140000Y-56817500D03*
X212090000Y-54942500D03*
%TD*%
D25*
%TO.C,C8*%
X191008000Y-78083500D03*
X191008000Y-80158500D03*
%TD*%
D20*
%TO.C,Q7*%
X129220000Y-56847500D03*
X127320000Y-56847500D03*
X128270000Y-54972500D03*
%TD*%
%TO.C,Q16*%
X197800000Y-56847500D03*
X195900000Y-56847500D03*
X196850000Y-54972500D03*
%TD*%
%TO.C,Q6*%
X121600000Y-56847500D03*
X119700000Y-56847500D03*
X120650000Y-54972500D03*
%TD*%
D43*
%TO.C,BZ1*%
X203910000Y-71120000D03*
D44*
X197410000Y-71120000D03*
%TD*%
%LPD*%
M02*
